<?xml version="1.0" encoding="UTF-8" standalone="no"?>
<!-- Generator: Adobe Illustrator 24.0.1, SVG Export Plug-In . SVG Version: 6.00 Build 0)  -->

<svg
   version="1.1"
   id="Layer_3"
   x="0px"
   y="0px"
   viewBox="0 0 240 250"
   xml:space="preserve"
   sodipodi:docname="dreamcast.svg"
   inkscape:version="1.1.1 (3bf5ae0d25, 2021-09-20)"
   inkscape:export-filename="C:\All\Batocera\batocera-assets\controller-overlays\dreamcast.png"
   inkscape:export-xdpi="96"
   inkscape:export-ydpi="96"
   width="240"
   height="250"
   xmlns:inkscape="http://www.inkscape.org/namespaces/inkscape"
   xmlns:sodipodi="http://sodipodi.sourceforge.net/DTD/sodipodi-0.dtd"
   xmlns="http://www.w3.org/2000/svg"
   xmlns:svg="http://www.w3.org/2000/svg"><defs
   id="defs75"><inkscape:path-effect
     effect="envelope"
     id="path-effect76373"
     is_visible="true"
     lpeversion="1"
     yy="true"
     xx="true"
     bendpath1="M 23.537096,16.621557 H 86.140921"
     bendpath2="M 86.140921,16.621557 V 39.916004"
     bendpath3="M 23.537096,39.916004 H 86.140921"
     bendpath4="M 23.537096,16.621557 V 39.916004" /><inkscape:path-effect
     effect="lattice2"
     gridpoint0="23.537096,16.621557"
     gridpoint1="86.140921,16.621557"
     gridpoint2="23.537096,39.916004"
     gridpoint3="86.140921,39.916004"
     gridpoint4="39.188052,16.621557"
     gridpoint5="70.489964,16.621557"
     gridpoint6="39.188052,39.916004"
     gridpoint7="70.489964,39.916004"
     gridpoint8x9="54.839008,16.621557"
     gridpoint10x11="54.839008,39.916004"
     gridpoint12="23.537096,22.445169"
     gridpoint13="86.140921,22.445169"
     gridpoint14="23.537096,34.092392"
     gridpoint15="86.140921,34.092392"
     gridpoint16="39.188052,22.445169"
     gridpoint17="70.489964,22.445169"
     gridpoint18="39.188052,34.092392"
     gridpoint19="70.489964,34.092392"
     gridpoint20x21="54.839008,22.445169"
     gridpoint22x23="54.839008,34.092392"
     gridpoint24x26="23.537096,28.268781"
     gridpoint25x27="86.140921,28.268781"
     gridpoint28x30="39.188052,28.268781"
     gridpoint29x31="70.489964,28.268781"
     gridpoint32x33x34x35="54.839008,28.268781"
     id="path-effect76371"
     is_visible="true"
     lpeversion="1"
     horizontal_mirror="false"
     vertical_mirror="false"
     perimetral="true"
     live_update="true" /><inkscape:path-effect
     effect="attach_path"
     id="path-effect76369"
     lpeversion="1"
     endcurveend="11.768548,10.555296 , -11.059262,26.691553"
     is_visible="true"
     startpath=""
     startposition="0"
     startcurvestart="0,0 , 20,0"
     startcurveend="23.658422,11.889874 , 28.614092,-5.9449372"
     endpath=""
     endposition="0"
     endcurvestart="0,0 , 20,0" /><inkscape:path-effect
     effect="envelope"
     id="path-effect76348"
     is_visible="true"
     lpeversion="1"
     yy="true"
     xx="true"
     bendpath1="M 23.537096,16.621557 61.997198,10.797945"
     bendpath2="M 86.140921,16.621557 V 39.916004"
     bendpath3="M 23.537096,42.342509 86.140921,39.916004"
     bendpath4="M 23.537096,16.621557 V 50.592625"
     bendpath4-nodetypes="cc"
     bendpath3-nodetypes="cc"
     bendpath1-nodetypes="cc" /><rect
     x="76.739281"
     y="147.34442"
     width="33.36795"
     height="20.843538"
     id="rect127464" /><rect
     x="128.2495"
     y="105.78697"
     width="33.960148"
     height="33.738186"
     id="rect83351" /><rect
     x="127.67705"
     y="105.52645"
     width="34.594753"
     height="33.972546"
     id="rect34999" /><rect
     x="161.5537"
     y="139.78229"
     width="33.151905"
     height="33.894112"
     id="rect24475" /><rect
     x="128.2495"
     y="105.78697"
     width="33.960148"
     height="33.738186"
     id="rect83351-3" /><rect
     x="128.2495"
     y="105.78697"
     width="33.960148"
     height="33.738186"
     id="rect83351-9" /><rect
     x="128.2495"
     y="105.78697"
     width="33.960148"
     height="33.738186"
     id="rect83351-5" /><rect
     x="76.739281"
     y="147.34442"
     width="32.54847"
     height="20.780947"
     id="rect127464-0" /><rect
     x="128.2495"
     y="105.78697"
     width="69.439232"
     height="31.708288"
     id="rect83351-4" /><rect
     x="128.2495"
     y="105.78697"
     width="33.960148"
     height="33.738186"
     id="rect83351-52" /><rect
     x="128.2495"
     y="105.78697"
     width="33.960148"
     height="33.738186"
     id="rect83351-52-6" /><rect
     x="128.2495"
     y="105.78697"
     width="33.960148"
     height="33.738186"
     id="rect83351-37" /><rect
     x="128.2495"
     y="105.78697"
     width="33.960148"
     height="33.738186"
     id="rect83351-3-9" /><rect
     x="128.2495"
     y="105.78697"
     width="33.960148"
     height="33.738186"
     id="rect83351-9-2" /><rect
     x="128.2495"
     y="105.78697"
     width="33.960148"
     height="33.738186"
     id="rect83351-5-7" /><rect
     x="76.739281"
     y="147.34442"
     width="33.36795"
     height="20.843538"
     id="rect127464-7" /><rect
     x="76.739281"
     y="147.34442"
     width="32.54847"
     height="20.780947"
     id="rect127464-0-5" /><rect
     x="128.2495"
     y="105.78697"
     width="69.439232"
     height="31.708288"
     id="rect83351-4-1" /><rect
     x="128.2495"
     y="105.78697"
     width="33.960148"
     height="33.738186"
     id="rect83351-52-67" /><rect
     x="128.2495"
     y="105.78697"
     width="33.960148"
     height="33.738186"
     id="rect83351-52-6-8" /><rect
     x="128.2495"
     y="105.78697"
     width="69.439232"
     height="31.708288"
     id="rect83351-4-1-4" /><rect
     x="128.2495"
     y="105.78697"
     width="69.439232"
     height="31.708288"
     id="rect83351-4-1-4-4" /><rect
     x="128.2495"
     y="105.78697"
     width="69.439232"
     height="31.708288"
     id="rect83351-4-1-4-9" /><rect
     x="128.2495"
     y="105.78697"
     width="69.439232"
     height="31.708288"
     id="rect83351-4-1-4-4-4" /><rect
     x="76.739281"
     y="147.34442"
     width="65.207236"
     height="14.330957"
     id="rect127464-7-2" /><rect
     x="76.739281"
     y="147.34442"
     width="65.207237"
     height="14.330957"
     id="rect127464-7-2-8" /><rect
     x="128.2495"
     y="105.78697"
     width="33.960148"
     height="33.738186"
     id="rect83351-9-2-8" /><rect
     x="128.2495"
     y="105.78697"
     width="33.960148"
     height="33.738186"
     id="rect83351-3-9-0" /><rect
     x="128.2495"
     y="105.78697"
     width="33.960148"
     height="33.738186"
     id="rect83351-5-7-1" /><rect
     x="128.2495"
     y="105.78697"
     width="33.960148"
     height="33.738186"
     id="rect83351-37-6" /><linearGradient
     id="SVGID_1_-3"
     gradientUnits="userSpaceOnUse"
     x1="10"
     y1="0"
     x2="10"
     y2="20"
     gradientTransform="translate(246.17733,117.5436)"><stop
       offset="0"
       style="stop-color:#CC6600"
       id="stop2" /><stop
       offset="0.2774"
       style="stop-color:#CC6F09"
       id="stop4" /><stop
       offset="0.7283"
       style="stop-color:#CC8721"
       id="stop6" /><stop
       offset="1"
       style="stop-color:#CC9933"
       id="stop8" /></linearGradient><linearGradient
     id="SVGID_2_-0"
     gradientUnits="userSpaceOnUse"
     x1="10"
     y1="2.0009999"
     x2="10"
     y2="16.3195"
     gradientTransform="translate(246.17733,117.5436)"><stop
       offset="0"
       style="stop-color:#F7F7F8;stop-opacity:0.5"
       id="stop13" /><stop
       offset="0.8"
       style="stop-color:#D48800;stop-opacity:0"
       id="stop15" /></linearGradient><linearGradient
     id="SVGID_3_-5"
     gradientUnits="userSpaceOnUse"
     x1="4.0585999"
     y1="10"
     x2="15.9414"
     y2="10"><stop
       offset="0"
       style="stop-color:#F5D166"
       id="stop22" /><stop
       offset="0.0516"
       style="stop-color:#F4CE5D"
       id="stop24" /><stop
       offset="0.2041"
       style="stop-color:#F2C749"
       id="stop26" /><stop
       offset="0.3547"
       style="stop-color:#F0C23C"
       id="stop28" /><stop
       offset="0.5"
       style="stop-color:#F0C138"
       id="stop30" /><stop
       offset="0.6397"
       style="stop-color:#F0C23C"
       id="stop32" /><stop
       offset="0.7843"
       style="stop-color:#F2C749"
       id="stop34" /><stop
       offset="0.9309"
       style="stop-color:#F4CE5D"
       id="stop36" /><stop
       offset="0.9805"
       style="stop-color:#F5D166"
       id="stop38" /></linearGradient><linearGradient
     id="SVGID_2_-9"
     gradientUnits="userSpaceOnUse"
     x1="10"
     y1="2.0009999"
     x2="10"
     y2="16.3195"
     gradientTransform="translate(268.51591,91.236739)"><stop
       offset="0"
       style="stop-color:#F7F7F8;stop-opacity:0.5"
       id="stop13-8" /><stop
       offset="0.8"
       style="stop-color:#D48800;stop-opacity:0"
       id="stop15-1" /></linearGradient><linearGradient
     id="SVGID_1_-8"
     gradientUnits="userSpaceOnUse"
     x1="10"
     y1="0"
     x2="10"
     y2="20"
     gradientTransform="translate(268.51591,91.236739)"><stop
       offset="0"
       style="stop-color:#CC6600"
       id="stop2-8" /><stop
       offset="0.2774"
       style="stop-color:#CC6F09"
       id="stop4-2" /><stop
       offset="0.7283"
       style="stop-color:#CC8721"
       id="stop6-2" /><stop
       offset="1"
       style="stop-color:#CC9933"
       id="stop8-2" /></linearGradient><linearGradient
     id="SVGID_1_"
     gradientUnits="userSpaceOnUse"
     x1="10"
     y1="0"
     x2="10"
     y2="20"><stop
       offset="0"
       style="stop-color:#3A4C14"
       id="stop935" /><stop
       offset="0.1812"
       style="stop-color:#415513"
       id="stop937" /><stop
       offset="0.4765"
       style="stop-color:#536D11"
       id="stop939" /><stop
       offset="0.8471"
       style="stop-color:#71950E"
       id="stop941" /><stop
       offset="1"
       style="stop-color:#7FA70D"
       id="stop943" /></linearGradient><linearGradient
     id="SVGID_2_"
     gradientUnits="userSpaceOnUse"
     x1="9.9989996"
     y1="2"
     x2="9.9989996"
     y2="16.318501"><stop
       offset="0"
       style="stop-color:#F7F7F8;stop-opacity:0.5"
       id="stop948" /><stop
       offset="0.8"
       style="stop-color:#141414;stop-opacity:0"
       id="stop950" /></linearGradient><linearGradient
     id="SVGID_3_"
     gradientUnits="userSpaceOnUse"
     x1="10"
     y1="4.5098"
     x2="10"
     y2="15.4902"><stop
       offset="0"
       style="stop-color:#92B134"
       id="stop959" /><stop
       offset="0.0302"
       style="stop-color:#8EAC31"
       id="stop961" /><stop
       offset="0.1899"
       style="stop-color:#7A9823"
       id="stop963" /><stop
       offset="0.3477"
       style="stop-color:#6F8B1B"
       id="stop965" /><stop
       offset="0.5"
       style="stop-color:#6B8718"
       id="stop967" /><stop
       offset="0.6523"
       style="stop-color:#6F8B1B"
       id="stop969" /><stop
       offset="0.8101"
       style="stop-color:#7A9823"
       id="stop971" /><stop
       offset="0.9698"
       style="stop-color:#8EAC31"
       id="stop973" /><stop
       offset="1"
       style="stop-color:#92B134"
       id="stop975" /></linearGradient><linearGradient
     id="SVGID_1_-7"
     gradientUnits="userSpaceOnUse"
     x1="10"
     y1="0"
     x2="10"
     y2="20"><stop
       offset="0"
       style="stop-color:#781F11"
       id="stop1018" /><stop
       offset="0.3042"
       style="stop-color:#812215"
       id="stop1020" /><stop
       offset="0.7987"
       style="stop-color:#992C1E"
       id="stop1022" /><stop
       offset="1"
       style="stop-color:#A53023"
       id="stop1024" /></linearGradient><linearGradient
     id="SVGID_3_-1"
     gradientUnits="userSpaceOnUse"
     x1="10"
     y1="4.5098"
     x2="10"
     y2="15.4902"><stop
       offset="0"
       style="stop-color:#EB6557"
       id="stop1040" /><stop
       offset="0.0614"
       style="stop-color:#E65B4C"
       id="stop1042" /><stop
       offset="0.2105"
       style="stop-color:#DD4838"
       id="stop1044" /><stop
       offset="0.3578"
       style="stop-color:#D73C2B"
       id="stop1046" /><stop
       offset="0.5"
       style="stop-color:#D53827"
       id="stop1048" /><stop
       offset="0.6422"
       style="stop-color:#D73C2B"
       id="stop1050" /><stop
       offset="0.7895"
       style="stop-color:#DD4838"
       id="stop1052" /><stop
       offset="0.9386"
       style="stop-color:#E65B4C"
       id="stop1054" /><stop
       offset="1"
       style="stop-color:#EB6557"
       id="stop1056" /></linearGradient><linearGradient
     id="SVGID_1_-9"
     gradientUnits="userSpaceOnUse"
     x1="10"
     y1="0"
     x2="10"
     y2="20"><stop
       offset="0"
       style="stop-color:#243361"
       id="stop1099" /><stop
       offset="0.1905"
       style="stop-color:#27386A"
       id="stop1101" /><stop
       offset="0.5009"
       style="stop-color:#314582"
       id="stop1103" /><stop
       offset="0.8907"
       style="stop-color:#3F59AA"
       id="stop1105" /><stop
       offset="1"
       style="stop-color:#4460B6"
       id="stop1107" /></linearGradient><linearGradient
     id="SVGID_3_-0"
     gradientUnits="userSpaceOnUse"
     x1="10"
     y1="4.5098"
     x2="10"
     y2="15.4902"><stop
       offset="0"
       style="stop-color:#8196C3"
       id="stop1123" /><stop
       offset="0.0242"
       style="stop-color:#7E92BF"
       id="stop1125" /><stop
       offset="0.186"
       style="stop-color:#6A7FAB"
       id="stop1127" /><stop
       offset="0.3458"
       style="stop-color:#5F739E"
       id="stop1129" /><stop
       offset="0.5"
       style="stop-color:#5B6F9A"
       id="stop1131" /><stop
       offset="0.6542"
       style="stop-color:#5F739E"
       id="stop1133" /><stop
       offset="0.814"
       style="stop-color:#6A7FAB"
       id="stop1135" /><stop
       offset="0.9758"
       style="stop-color:#7E92BF"
       id="stop1137" /><stop
       offset="1"
       style="stop-color:#8196C3"
       id="stop1139" /></linearGradient><linearGradient
     id="SVGID_3_-5-3"
     gradientUnits="userSpaceOnUse"
     x1="4.0585999"
     y1="10"
     x2="15.9414"
     y2="10"><stop
       offset="0"
       style="stop-color:#F5D166"
       id="stop22-8" /><stop
       offset="0.0516"
       style="stop-color:#F4CE5D"
       id="stop24-4" /><stop
       offset="0.2041"
       style="stop-color:#F2C749"
       id="stop26-0" /><stop
       offset="0.3547"
       style="stop-color:#F0C23C"
       id="stop28-0" /><stop
       offset="0.5"
       style="stop-color:#F0C138"
       id="stop30-9" /><stop
       offset="0.6397"
       style="stop-color:#F0C23C"
       id="stop32-3" /><stop
       offset="0.7843"
       style="stop-color:#F2C749"
       id="stop34-7" /><stop
       offset="0.9309"
       style="stop-color:#F4CE5D"
       id="stop36-3" /><stop
       offset="0.9805"
       style="stop-color:#F5D166"
       id="stop38-4" /></linearGradient><linearGradient
     id="SVGID_1_-32"
     gradientUnits="userSpaceOnUse"
     x1="10"
     y1="0"
     x2="10"
     y2="20"><stop
       offset="0"
       style="stop-color:#3A4C14"
       id="stop935-5" /><stop
       offset="0.1812"
       style="stop-color:#415513"
       id="stop937-4" /><stop
       offset="0.4765"
       style="stop-color:#536D11"
       id="stop939-8" /><stop
       offset="0.8471"
       style="stop-color:#71950E"
       id="stop941-5" /><stop
       offset="1"
       style="stop-color:#7FA70D"
       id="stop943-8" /></linearGradient><linearGradient
     id="SVGID_3_-3"
     gradientUnits="userSpaceOnUse"
     x1="10"
     y1="4.5098"
     x2="10"
     y2="15.4902"><stop
       offset="0"
       style="stop-color:#92B134"
       id="stop959-3" /><stop
       offset="0.0302"
       style="stop-color:#8EAC31"
       id="stop961-7" /><stop
       offset="0.1899"
       style="stop-color:#7A9823"
       id="stop963-1" /><stop
       offset="0.3477"
       style="stop-color:#6F8B1B"
       id="stop965-6" /><stop
       offset="0.5"
       style="stop-color:#6B8718"
       id="stop967-7" /><stop
       offset="0.6523"
       style="stop-color:#6F8B1B"
       id="stop969-4" /><stop
       offset="0.8101"
       style="stop-color:#7A9823"
       id="stop971-7" /><stop
       offset="0.9698"
       style="stop-color:#8EAC31"
       id="stop973-4" /><stop
       offset="1"
       style="stop-color:#92B134"
       id="stop975-2" /></linearGradient><linearGradient
     id="SVGID_1_-7-8"
     gradientUnits="userSpaceOnUse"
     x1="10"
     y1="0"
     x2="10"
     y2="20"><stop
       offset="0"
       style="stop-color:#781F11"
       id="stop1018-9" /><stop
       offset="0.3042"
       style="stop-color:#812215"
       id="stop1020-4" /><stop
       offset="0.7987"
       style="stop-color:#992C1E"
       id="stop1022-6" /><stop
       offset="1"
       style="stop-color:#A53023"
       id="stop1024-1" /></linearGradient><linearGradient
     id="SVGID_3_-1-1"
     gradientUnits="userSpaceOnUse"
     x1="10"
     y1="4.5098"
     x2="10"
     y2="15.4902"><stop
       offset="0"
       style="stop-color:#EB6557"
       id="stop1040-7" /><stop
       offset="0.0614"
       style="stop-color:#E65B4C"
       id="stop1042-0" /><stop
       offset="0.2105"
       style="stop-color:#DD4838"
       id="stop1044-2" /><stop
       offset="0.3578"
       style="stop-color:#D73C2B"
       id="stop1046-8" /><stop
       offset="0.5"
       style="stop-color:#D53827"
       id="stop1048-4" /><stop
       offset="0.6422"
       style="stop-color:#D73C2B"
       id="stop1050-2" /><stop
       offset="0.7895"
       style="stop-color:#DD4838"
       id="stop1052-0" /><stop
       offset="0.9386"
       style="stop-color:#E65B4C"
       id="stop1054-2" /><stop
       offset="1"
       style="stop-color:#EB6557"
       id="stop1056-0" /></linearGradient><linearGradient
     id="SVGID_1_-9-4"
     gradientUnits="userSpaceOnUse"
     x1="10"
     y1="0"
     x2="10"
     y2="20"><stop
       offset="0"
       style="stop-color:#243361"
       id="stop1099-1" /><stop
       offset="0.1905"
       style="stop-color:#27386A"
       id="stop1101-4" /><stop
       offset="0.5009"
       style="stop-color:#314582"
       id="stop1103-5" /><stop
       offset="0.8907"
       style="stop-color:#3F59AA"
       id="stop1105-1" /><stop
       offset="1"
       style="stop-color:#4460B6"
       id="stop1107-6" /></linearGradient><linearGradient
     id="SVGID_3_-0-6"
     gradientUnits="userSpaceOnUse"
     x1="10"
     y1="4.5098"
     x2="10"
     y2="15.4902"><stop
       offset="0"
       style="stop-color:#8196C3"
       id="stop1123-7" /><stop
       offset="0.0242"
       style="stop-color:#7E92BF"
       id="stop1125-3" /><stop
       offset="0.186"
       style="stop-color:#6A7FAB"
       id="stop1127-8" /><stop
       offset="0.3458"
       style="stop-color:#5F739E"
       id="stop1129-2" /><stop
       offset="0.5"
       style="stop-color:#5B6F9A"
       id="stop1131-0" /><stop
       offset="0.6542"
       style="stop-color:#5F739E"
       id="stop1133-4" /><stop
       offset="0.814"
       style="stop-color:#6A7FAB"
       id="stop1135-9" /><stop
       offset="0.9758"
       style="stop-color:#7E92BF"
       id="stop1137-6" /><stop
       offset="1"
       style="stop-color:#8196C3"
       id="stop1139-9" /></linearGradient><linearGradient
     id="SVGID_3_-5-3-1"
     gradientUnits="userSpaceOnUse"
     x1="4.0585999"
     y1="10"
     x2="15.9414"
     y2="10"><stop
       offset="0"
       style="stop-color:#F5D166"
       id="stop22-8-9" /><stop
       offset="0.0516"
       style="stop-color:#F4CE5D"
       id="stop24-4-5" /><stop
       offset="0.2041"
       style="stop-color:#F2C749"
       id="stop26-0-2" /><stop
       offset="0.3547"
       style="stop-color:#F0C23C"
       id="stop28-0-3" /><stop
       offset="0.5"
       style="stop-color:#F0C138"
       id="stop30-9-1" /><stop
       offset="0.6397"
       style="stop-color:#F0C23C"
       id="stop32-3-7" /><stop
       offset="0.7843"
       style="stop-color:#F2C749"
       id="stop34-7-8" /><stop
       offset="0.9309"
       style="stop-color:#F4CE5D"
       id="stop36-3-6" /><stop
       offset="0.9805"
       style="stop-color:#F5D166"
       id="stop38-4-2" /></linearGradient></defs><sodipodi:namedview
   id="namedview73"
   pagecolor="#ffffff"
   bordercolor="#666666"
   borderopacity="1.0"
   inkscape:pageshadow="2"
   inkscape:pageopacity="0"
   inkscape:pagecheckerboard="true"
   showgrid="false"
   inkscape:current-layer="layer6"
   inkscape:snap-bbox="true"
   inkscape:bbox-nodes="false"
   inkscape:bbox-paths="false"
   inkscape:object-nodes="false"
   inkscape:snap-others="true"
   inkscape:snap-bbox-edge-midpoints="false"
   inkscape:snap-bbox-midpoints="true"
   inkscape:object-paths="false"
   inkscape:snap-smooth-nodes="true" />














<g
   inkscape:groupmode="layer"
   id="layer8"
   inkscape:label="Start/Select"
   style="display:inline"><path
     style="display:inline;opacity:0.5;fill:#ffd8b2;fill-opacity:1;stroke:#020202;stroke-width:3;stroke-linecap:round;stroke-linejoin:round;stroke-miterlimit:4;stroke-dasharray:none;stroke-opacity:1;paint-order:stroke fill markers"
     d="m 110.18398,156.73557 c 0,2.40236 -1.94361,4.40433 -4.42339,4.40433 H 83.999999 c -2.479781,0 -4.423392,-2.00197 -4.423392,-4.40433 v -10 c 0,-2.40236 1.943611,-4.40433 4.423392,-4.40433 h 21.760591 c 2.47978,0 4.42339,2.00197 4.42339,4.40433 z m -2.61382,-10 c 0,-1.00098 -0.80425,-1.80177 -1.80957,-1.80177 H 83.999999 c -1.005317,0 -1.80957,0.80079 -1.80957,1.80177 v 10 c 0,1.00098 0.804253,1.80177 1.80957,1.80177 h 21.760591 c 1.00532,0 1.80957,-0.80079 1.80957,-1.80177 z"
     id="path23-1-9"
     sodipodi:nodetypes="cssccsscccssccsscc" /><path
     style="display:inline;opacity:0.5;fill:#ffd8b2;fill-opacity:1;stroke:#020202;stroke-width:3;stroke-linecap:round;stroke-linejoin:round;stroke-miterlimit:4;stroke-dasharray:none;stroke-opacity:1;paint-order:stroke fill markers"
     d="m 148.8403,151.73557 c 0,2.40236 -2.0471,3.69544 -4.42339,4.40433 l -16.7606,5 c -2.68327,0.80047 -5.42339,-2.00197 -5.42339,-4.40433 v -10 c 0,-2.40236 2.48123,-5.28203 5.42339,-4.40433 l 16.7606,5 c 2.37629,0.70889 4.42339,2.00197 4.42339,4.40433 z m -2.61382,0 c 0,-1.00098 -0.82978,-1.57664 -1.80957,-1.80177 l -16.7606,-5 c -1.67188,-0.49875 -2.80957,0.80079 -2.80957,1.80177 v 10 c 0,1.00098 1.31582,2.24738 2.80957,1.80177 l 16.7606,-5 c 0.97979,-0.22513 1.80957,-0.80079 1.80957,-1.80177 z"
     id="path23-1-9-7"
     sodipodi:nodetypes="cssccsscscsssscs" /></g><g
   inkscape:groupmode="layer"
   id="layer7"
   inkscape:label="Face buttons"
   style="display:inline"><path
     style="display:inline;fill:#ffd8b2;fill-opacity:1;stroke:#000000;stroke-width:3;stroke-linecap:round;stroke-linejoin:round;stroke-miterlimit:4;stroke-dasharray:none;stroke-opacity:1;paint-order:stroke fill markers"
     d="m 201.81383,132.55308 c -8.77976,0 -15.95102,-7.14036 -15.95102,-15.88229 0,-8.74194 7.17126,-15.8823 15.95102,-15.8823 8.77976,0 15.95102,7.14036 15.95102,15.8823 0,8.74193 -7.17126,15.88229 -15.95102,15.88229 z m 0,-29.09529 c -7.3053,0 -13.27018,5.93917 -13.27018,13.213 0,7.27382 5.96488,13.21299 13.27018,13.21299 7.3053,0 13.27018,-5.93917 13.27018,-13.21299 0,-7.27383 -5.96488,-13.213 -13.27018,-13.213 z"
     id="path43-1-81" /><path
     style="display:inline;fill:#ffd8b2;fill-opacity:1;stroke:#000000;stroke-width:3;stroke-linecap:round;stroke-linejoin:round;stroke-miterlimit:4;stroke-dasharray:none;stroke-opacity:1;paint-order:stroke fill markers"
     d="m 173.55158,104.4126 c -8.77976,0 -15.95102,-7.14036 -15.95102,-15.882289 0,-8.741933 7.17126,-15.882291 15.95102,-15.882291 8.77976,0 15.95102,7.140358 15.95102,15.882291 0,8.741929 -7.17126,15.882289 -15.95102,15.882289 z m 0,-29.095288 c -7.3053,0 -13.27018,5.939176 -13.27018,13.212999 0,7.273819 5.96488,13.212999 13.27018,13.212999 7.3053,0 13.27018,-5.93918 13.27018,-13.212999 0,-7.273823 -5.96488,-13.212999 -13.27018,-13.212999 z"
     id="path43-1-7" /><text
     xml:space="preserve"
     id="text83349-66"
     style="font-style:normal;font-variant:normal;font-weight:normal;font-stretch:normal;font-size:21.3333px;line-height:1.25;font-family:Comfortaa;-inkscape-font-specification:'Comfortaa, Normal';font-variant-ligatures:normal;font-variant-position:normal;font-variant-caps:normal;font-variant-numeric:normal;font-variant-alternates:normal;font-variant-east-asian:normal;text-indent:0;text-align:center;text-decoration-line:none;text-decoration-style:solid;text-decoration-color:#000000;letter-spacing:0px;word-spacing:0px;text-transform:none;writing-mode:lr-tb;direction:ltr;text-orientation:mixed;dominant-baseline:auto;baseline-shift:baseline;white-space:pre;shape-inside:url(#rect83351-37-6);shape-padding:0;shape-margin:0;inline-size:0;display:inline;fill:#81d2c3;fill-opacity:1;stroke:#000000;stroke-width:3;stroke-linecap:round;stroke-linejoin:round;stroke-miterlimit:4;stroke-dasharray:none;stroke-dashoffset:0;stroke-opacity:1;paint-order:stroke fill markers;stop-color:#000000"
     x="7.8984375"
     y="0"
     transform="translate(28.334067,-27.990781)"><tspan
       x="138.31752"
       y="125.30995"
       id="tspan1367">Y</tspan></text><text
     xml:space="preserve"
     id="text83349-0-7"
     style="font-style:normal;font-variant:normal;font-weight:normal;font-stretch:normal;font-size:21.3333px;line-height:1.25;font-family:Comfortaa;-inkscape-font-specification:'Comfortaa, Normal';font-variant-ligatures:normal;font-variant-position:normal;font-variant-caps:normal;font-variant-numeric:normal;font-variant-alternates:normal;font-variant-east-asian:normal;text-indent:0;text-align:center;text-decoration-line:none;text-decoration-style:solid;text-decoration-color:#000000;letter-spacing:0px;word-spacing:0px;text-transform:none;writing-mode:lr-tb;direction:ltr;text-orientation:mixed;dominant-baseline:auto;baseline-shift:baseline;white-space:pre;shape-inside:url(#rect83351-3-9-0);shape-padding:0;shape-margin:0;inline-size:0;display:inline;fill:#5fa3de;fill-opacity:1;stroke:#000000;stroke-width:3;stroke-linecap:round;stroke-linejoin:round;stroke-miterlimit:4;stroke-dasharray:none;stroke-dashoffset:0;stroke-opacity:1;paint-order:stroke fill markers;stop-color:#000000"
     x="7.8984375"
     y="0"
     transform="translate(56.60652,-0.338511)"><tspan
       x="137.81617"
       y="125.30995"
       id="tspan1369">B</tspan></text><path
     style="display:inline;fill:#ffd8b2;fill-opacity:1;stroke:#000000;stroke-width:3;stroke-linecap:round;stroke-linejoin:round;stroke-miterlimit:4;stroke-dasharray:none;stroke-opacity:1;paint-order:stroke fill markers"
     d="m 173.55158,160.69356 c -8.77976,0 -15.95102,-7.14036 -15.95102,-15.88229 0,-8.74194 7.17126,-15.8823 15.95102,-15.8823 8.77976,0 15.95102,7.14036 15.95102,15.8823 0,8.74193 -7.17126,15.88229 -15.95102,15.88229 z m 0,-29.09529 c -7.3053,0 -13.27018,5.93917 -13.27018,13.213 0,7.27382 5.96488,13.21299 13.27018,13.21299 7.3053,0 13.27018,-5.93917 13.27018,-13.21299 0,-7.27383 -5.96488,-13.213 -13.27018,-13.213 z"
     id="path43-1-81-13" /><text
     xml:space="preserve"
     id="text83349-6-4"
     style="font-style:normal;font-variant:normal;font-weight:normal;font-stretch:normal;font-size:21.3333px;line-height:1.25;font-family:Comfortaa;-inkscape-font-specification:'Comfortaa, Normal';font-variant-ligatures:normal;font-variant-position:normal;font-variant-caps:normal;font-variant-numeric:normal;font-variant-alternates:normal;font-variant-east-asian:normal;text-indent:0;text-align:center;text-decoration-line:none;text-decoration-style:solid;text-decoration-color:#000000;letter-spacing:0px;word-spacing:0px;text-transform:none;writing-mode:lr-tb;direction:ltr;text-orientation:mixed;dominant-baseline:auto;baseline-shift:baseline;white-space:pre;shape-inside:url(#rect83351-9-2-8);shape-padding:0;shape-margin:0;inline-size:0;display:inline;fill:#f5715f;fill-opacity:1;stroke:#000000;stroke-width:3;stroke-linecap:round;stroke-linejoin:round;stroke-miterlimit:4;stroke-dasharray:none;stroke-dashoffset:0;stroke-opacity:1;paint-order:stroke fill markers;stop-color:#000000"
     x="7.8984375"
     y="0"
     transform="translate(28.322063,27.046067)"><tspan
       x="137.73085"
       y="125.30995"
       id="tspan1371">A</tspan></text><path
     style="display:inline;fill:#ffd8b2;fill-opacity:1;stroke:#000000;stroke-width:3;stroke-linecap:round;stroke-linejoin:round;stroke-miterlimit:4;stroke-dasharray:none;stroke-opacity:1;paint-order:stroke fill markers"
     d="m 145.28932,132.55307 c -8.77976,0 -15.95102,-7.14036 -15.95102,-15.88229 0,-8.74193 7.17126,-15.88229 15.95102,-15.88229 8.77976,0 15.95102,7.14036 15.95102,15.88229 0,8.74193 -7.17126,15.88229 -15.95102,15.88229 z m 0,-29.09529 c -7.3053,0 -13.27018,5.93918 -13.27018,13.213 0,7.27382 5.96488,13.213 13.27018,13.213 7.3053,0 13.27018,-5.93918 13.27018,-13.213 0,-7.27382 -5.96488,-13.213 -13.27018,-13.213 z"
     id="path43-1-7-7" /><text
     xml:space="preserve"
     id="text83349-4-6"
     style="font-style:normal;font-variant:normal;font-weight:normal;font-stretch:normal;font-size:21.3333px;line-height:1.25;font-family:Comfortaa;-inkscape-font-specification:'Comfortaa, Normal';font-variant-ligatures:normal;font-variant-position:normal;font-variant-caps:normal;font-variant-numeric:normal;font-variant-alternates:normal;font-variant-east-asian:normal;text-indent:0;text-align:center;text-decoration-line:none;text-decoration-style:solid;text-decoration-color:#000000;letter-spacing:0px;word-spacing:0px;text-transform:none;writing-mode:lr-tb;direction:ltr;text-orientation:mixed;dominant-baseline:auto;baseline-shift:baseline;white-space:pre;shape-inside:url(#rect83351-5-7-1);shape-padding:0;shape-margin:0;inline-size:0;display:inline;fill:#eeeb4e;fill-opacity:1;stroke:#000000;stroke-width:3;stroke-linecap:round;stroke-linejoin:round;stroke-miterlimit:4;stroke-dasharray:none;stroke-dashoffset:0;stroke-opacity:1;paint-order:stroke fill markers;stop-color:#000000"
     x="7.8984375"
     y="0"
     transform="translate(-0.004983,-0.403572)"><tspan
       x="137.68818"
       y="125.30995"
       id="tspan1373">X</tspan></text></g><g
   inkscape:groupmode="layer"
   id="layer9"
   inkscape:label="D-pad"
   style="display:inline"><path
     style="display:inline;fill:#ffd8b2;fill-opacity:1;stroke:#000000;stroke-width:3;stroke-linecap:round;stroke-linejoin:round;stroke-miterlimit:4;stroke-dasharray:none;stroke-opacity:1;paint-order:stroke fill markers"
     d="M 65.9354,151.93881 H 48.174811 c -2.479781,0 -4.423392,-2.00196 -4.423392,-4.40433 V 130.31754 H 26.459977 c -2.479781,0 -4.490414,-2.00197 -4.490414,-4.47106 v -18.35139 c 0,-2.46909 2.010633,-4.47106 4.490414,-4.47106 H 43.751419 V 85.807089 c 0,-2.469095 2.010632,-4.404332 4.423392,-4.404332 H 65.9354 c 2.479781,0 4.423393,2.001969 4.423393,4.404332 v 17.216941 h 17.291442 c 2.47978,0 4.490413,2.00197 4.490413,4.47106 v 18.35139 c 0,2.46909 -2.010633,4.47106 -4.490413,4.47106 H 70.358793 v 17.21694 c 0,2.40237 -1.943612,4.40433 -4.423393,4.40433 z M 26.459977,105.69332 c -1.005317,0 -1.80957,0.80079 -1.80957,1.80177 v 18.35139 c 0,1.00098 0.804253,1.80177 1.80957,1.80177 h 17.492505 c 0.469148,0 1.20638,0.0667 1.742548,0.60059 0.469148,0.4004 0.670211,1.06772 0.670211,1.80177 v 17.48387 c 0,1.00099 0.804253,1.80177 1.80957,1.80177 H 65.9354 c 1.005317,0 1.80957,-0.80078 1.80957,-1.80177 v -17.5506 c 0,-0.66732 0.268084,-1.26791 0.670211,-1.66831 0.402126,-0.40039 1.005316,-0.60059 1.742548,-0.60059 h 17.492506 c 1.005316,0 1.809569,-0.80078 1.809569,-1.80177 v -18.35139 c 0,-1.00098 -0.804253,-1.80177 -1.809569,-1.80177 H 70.090708 c -0.670211,0 -1.273401,-0.2002 -1.742548,-0.60059 -0.402127,-0.40039 -0.670211,-1.00098 -0.670211,-1.66831 V 86.007286 c 0,-1.000984 -0.804253,-1.801772 -1.80957,-1.801772 H 48.10779 v 0 c -0.469148,0 -0.938296,0.200197 -1.273401,0.533858 -0.335106,0.333662 -0.536169,0.800788 -0.536169,1.267914 v 17.350404 c 0,0.46713 0,1.06772 -0.469147,1.66831 -0.536169,0.60059 -1.273401,0.66732 -1.876591,0.66732 z"
     id="path23-1"
     inkscape:export-filename="C:\All\Batocera\batocera-assets\controller-overlays\generic.png"
     inkscape:export-xdpi="96"
     inkscape:export-ydpi="96"
     sodipodi:nodetypes="ssscsssscsssscsssscsscsssscssssssssssssscssscsssscscc" /><text
     xml:space="preserve"
     id="text83349-9"
     style="font-style:normal;font-variant:normal;font-weight:normal;font-stretch:normal;font-size:17.3333px;line-height:1.25;font-family:Comfortaa;-inkscape-font-specification:'Comfortaa, Normal';font-variant-ligatures:normal;font-variant-position:normal;font-variant-caps:normal;font-variant-numeric:normal;font-variant-alternates:normal;font-variant-east-asian:normal;text-indent:0;text-align:center;text-decoration-line:none;text-decoration-style:solid;text-decoration-color:#000000;letter-spacing:1px;word-spacing:0px;text-transform:none;writing-mode:lr-tb;direction:ltr;text-orientation:mixed;dominant-baseline:auto;baseline-shift:baseline;white-space:pre;shape-inside:url(#rect83351-4-1);shape-padding:0;shape-margin:0;inline-size:0;display:inline;fill:#ffd8b2;fill-opacity:1;stroke:#000000;stroke-width:3;stroke-linecap:round;stroke-linejoin:round;stroke-miterlimit:4;stroke-dasharray:none;stroke-dashoffset:0;stroke-opacity:1;paint-order:stroke fill markers;stop-color:#000000"
     x="7.8984375"
     y="0"
     transform="translate(-106.25263,1.7900086)"><tspan
       x="133.20184"
       y="121.64941"
       id="tspan1375">D-PAD</tspan></text></g><g
   inkscape:groupmode="layer"
   id="layer10"
   inkscape:label="Dual-sticks"
   style="display:inline"><path
     style="color:#000000;display:inline;fill:#ffd8b2;stroke:#000000;stroke-width:3;stroke-linecap:round;stroke-linejoin:round;stroke-miterlimit:4;stroke-dasharray:none;stroke-opacity:1;paint-order:stroke fill markers"
     d="m 68.914062,172.97656 c -17.921727,0 -32.478515,14.55679 -32.478515,32.47852 0,17.92173 14.556788,32.47851 32.478515,32.47851 17.921728,0 32.478518,-14.55678 32.478518,-32.47851 0,-17.92173 -14.55679,-32.47852 -32.478518,-32.47852 z m 0,2.60547 c 16.513883,0 29.873047,13.35917 29.873047,29.87305 0,16.51388 -13.359164,29.87304 -29.873047,29.87304 -16.513882,0 -29.873046,-13.35916 -29.873046,-29.87304 0,-16.51388 13.359164,-29.87305 29.873046,-29.87305 z"
     id="circle74" /><path
     style="color:#000000;display:inline;fill:#ffd8b2;stroke:#000000;stroke-width:3;stroke-linecap:round;stroke-linejoin:round;stroke-miterlimit:4;stroke-dasharray:none;stroke-opacity:1;paint-order:stroke fill markers"
     d="m 68.914062,183.61523 c -12.046366,0 -21.839843,9.79348 -21.839843,21.83985 0,12.04636 9.793477,21.83984 21.839843,21.83984 12.046367,0 21.839844,-9.79348 21.839844,-21.83984 0,-12.04637 -9.793477,-21.83985 -21.839844,-21.83985 z m 0,2.60547 c 10.638516,0 19.234375,8.59586 19.234375,19.23438 0,10.63851 -8.595859,19.23437 -19.234375,19.23437 -10.638515,0 -19.234375,-8.59586 -19.234375,-19.23437 0,-10.63852 8.59586,-19.23438 19.234375,-19.23438 z"
     id="circle76" /><path
     style="color:#000000;display:inline;opacity:0.5;fill:#ffd8b2;fill-opacity:1;stroke:#020202;stroke-width:3;stroke-linecap:round;stroke-linejoin:round;stroke-miterlimit:4;stroke-dasharray:none;stroke-opacity:1;paint-order:stroke fill markers"
     d="m 160.6875,183.61523 c -12.04637,0 -21.83984,9.79348 -21.83984,21.83985 0,12.04636 9.79347,21.83984 21.83984,21.83984 12.04637,0 21.83984,-9.79348 21.83984,-21.83984 0,-12.04637 -9.79347,-21.83985 -21.83984,-21.83985 z m 0,2.60547 c 10.63852,0 19.23437,8.59586 19.23437,19.23438 0,10.63851 -8.59585,19.23437 -19.23437,19.23437 -10.63852,0 -19.23633,-8.59586 -19.23633,-19.23437 0,-10.63852 8.59781,-19.23438 19.23633,-19.23438 z"
     id="circle78" /><path
     style="color:#000000;display:inline;opacity:0.5;fill:#ffd8b2;fill-opacity:1;stroke:#020202;stroke-width:3;stroke-linecap:round;stroke-linejoin:round;stroke-miterlimit:4;stroke-dasharray:none;stroke-opacity:1;paint-order:stroke fill markers"
     d="m 160.6875,172.97656 c -17.92173,0 -32.47852,14.55679 -32.47852,32.47852 0,17.92173 14.55679,32.47851 32.47852,32.47851 17.92173,0 32.47656,-14.55678 32.47656,-32.47851 0,-17.92173 -14.55483,-32.47852 -32.47656,-32.47852 z m 0,2.60547 c 16.51388,0 29.87305,13.35917 29.87305,29.87305 0,16.51388 -13.35917,29.87305 -29.87305,29.87304 -16.51388,0 -29.87305,-13.35916 -29.87305,-29.87304 0,-16.51388 13.35917,-29.87305 29.87305,-29.87305 z"
     id="circle80" /><rect
     style="display:inline;opacity:0.5;fill:#000000;fill-opacity:1;stroke:none;stroke-width:1.49999;stroke-linecap:round;stroke-linejoin:round;stroke-miterlimit:4;stroke-dasharray:none;stroke-opacity:1;paint-order:stroke fill markers"
     id="rect38642-2-0-9"
     width="54.275833"
     height="9.2304678"
     x="41.776146"
     y="240.2191"
     ry="1.0566431"
     rx="1.4738251" /><text
     xml:space="preserve"
     id="text127462-3"
     style="font-style:normal;font-variant:normal;font-weight:bold;font-stretch:normal;font-size:8px;line-height:1.25;font-family:Comfortaa;-inkscape-font-specification:'Comfortaa Bold';font-variant-ligatures:normal;font-variant-caps:normal;font-variant-numeric:normal;font-variant-east-asian:normal;text-align:center;text-decoration-color:#000000;letter-spacing:0px;word-spacing:0px;white-space:pre;shape-inside:url(#rect127464-7-2);display:inline;fill:#ffd8b2;fill-opacity:1;stroke:none;stroke-width:1.5;stroke-linecap:round;stroke-linejoin:round;stroke-miterlimit:4;stroke-dasharray:none;stroke-opacity:1;paint-order:stroke fill markers;stop-color:#000000"
     x="10.010417"
     y="0"
     transform="translate(-40.527635,93.293509)"><tspan
       x="85.431793"
       y="154.66483"
       id="tspan1377">LEFT STICK</tspan></text></g><g
   inkscape:groupmode="layer"
   id="layer4"
   inkscape:label="Shoulder buttons (1st tier)"
   style="display:inline"><path
     style="display:inline;opacity:0.5;fill:#ffd8b2;fill-opacity:1;stroke:#000000;stroke-width:3;stroke-linecap:round;stroke-linejoin:round;stroke-miterlimit:4;stroke-dasharray:none;stroke-opacity:1;paint-order:stroke fill markers"
     d="m 88.194036,62.416739 c 0,2.40236 -1.94362,4.40433 -4.423397,4.40433 H 45.237376 c -5.169111,0 -9.366625,2.253288 -11.769875,3.190862 -1.008359,0.393388 -2.640119,0.0927 -3.630493,-0.634171 -1.092083,-0.80152 -1.867445,-2.063385 -1.867445,-3.609485 V 47.931889 c 0,-1.465209 0.744902,-2.822151 1.851739,-3.586936 3.600128,-2.487561 10.169708,-4.817391 15.416074,-4.817391 h 38.533263 c 2.479777,0 4.423397,2.00197 4.423397,4.40433 z m -2.61383,-18.48485 c 0,-1.00098 -0.80425,-1.80177 -1.809567,-1.80177 H 45.237376 c -5.009559,0 -10.512577,2.372748 -13.841215,4.294538 -0.466325,0.269233 -0.81668,0.906185 -0.812776,1.507236 v 17.836386 c 0,0.530172 0.240232,1.058638 0.633774,1.3742 0.43007,0.344852 1.042385,0.548035 1.61637,0.349699 2.626598,-0.907598 6.293475,-3.346968 12.872597,-3.336165 l 38.064513,0.0625 c 1.005316,0.0017 1.809567,-0.80079 1.809567,-1.80177 z"
     id="path23-1-9-3"
     sodipodi:nodetypes="csssascssscccssscsassscc" /><path
     style="display:inline;opacity:0.5;fill:#ffd8b2;fill-opacity:1;stroke:#020202;stroke-width:3;stroke-linecap:round;stroke-linejoin:round;stroke-miterlimit:4;stroke-dasharray:none;stroke-opacity:1;paint-order:stroke fill markers"
     d="m 151.53181,62.416739 c 0,2.40236 1.94362,4.40433 4.42341,4.40433 h 38.53325 c 5.16911,0 9.36663,2.253288 11.76988,3.190862 1.00836,0.393388 2.64012,0.0927 3.63049,-0.634171 1.09209,-0.80152 1.86745,-2.063385 1.86745,-3.609485 V 47.931889 c 0,-1.465209 -0.7449,-2.822151 -1.85174,-3.586936 -3.60013,-2.487561 -10.16971,-4.817391 -15.41608,-4.817391 h -38.53325 c -2.47979,0 -4.42341,2.00197 -4.42341,4.40433 z m 2.61383,-18.48485 c 0,-1.00098 0.80425,-1.80177 1.80958,-1.80177 h 38.53326 c 5.00956,0 10.51258,2.372748 13.84121,4.294538 0.46633,0.269233 0.81668,0.906185 0.81278,1.507236 v 17.836386 c 0,0.530172 -0.24023,1.058638 -0.63378,1.3742 -0.43007,0.344852 -1.04238,0.548035 -1.61636,0.349699 -2.6266,-0.907598 -6.29348,-3.346968 -12.8726,-3.336165 l -38.06451,0.0625 c -1.00533,0.0017 -1.80958,-0.80079 -1.80958,-1.80177 z"
     id="path23-1-9-3-6"
     sodipodi:nodetypes="csssascssscccssscsassscc" /></g><g
   inkscape:groupmode="layer"
   id="layer6"
   inkscape:label="Shoulder triggers (2nd tier)"><path
     style="display:inline;fill:#ffd8b2;fill-opacity:1;stroke:#000000;stroke-width:3;stroke-linecap:round;stroke-linejoin:round;stroke-miterlimit:4;stroke-dasharray:none;stroke-opacity:1;paint-order:stroke fill markers"
     d="m 88.194036,30.37142 c 0,2.40236 -1.94362,4.40433 -4.423397,4.40433 H 45.237376 c -5.169111,0 -9.366625,1.791211 -11.769875,2.728785 -1.008359,0.393388 -2.640119,0.0927 -3.630493,-0.634171 -1.092084,-0.801521 -1.867445,-2.063385 -1.867445,-3.609485 0,-19.156188 8.855266,-30.7786364 55.801076,-30.7786364 2.479777,0 4.423397,2.00197 4.423397,4.4043304 z M 85.580206,6.88657 c 0,-1.0009804 -0.80425,-1.8017704 -1.809567,-1.8017704 -42.945827,0 -53.187254,10.2122044 -53.187254,28.1760834 0,0.530172 0.240232,1.058637 0.633774,1.3742 0.43007,0.344851 1.042385,0.548035 1.61637,0.349699 2.626598,-0.907598 6.293475,-2.884891 12.872597,-2.874088 l 38.064513,0.0625 c 1.005316,0.0017 1.809567,-0.80079 1.809567,-1.80177 z"
     id="path23-1-9-3-3"
     sodipodi:nodetypes="csssasscccssassscc" /><path
     style="display:inline;fill:#ffd8b2;fill-opacity:1;stroke:#000000;stroke-width:3;stroke-linecap:round;stroke-linejoin:round;stroke-miterlimit:4;stroke-dasharray:none;stroke-opacity:1;paint-order:stroke fill markers"
     d="m 151.53182,30.37142 c 0,2.40236 1.94362,4.40433 4.42339,4.40433 h 38.53327 c 5.16911,0 9.36662,1.791211 11.76987,2.728785 1.00836,0.393388 2.64012,0.0927 3.6305,-0.634171 1.09208,-0.801521 1.86744,-2.063385 1.86744,-3.609485 0,-19.156188 -8.85527,-30.7786361 -55.80108,-30.7786361 -2.47977,0 -4.42339,2.00197 -4.42339,4.4043304 z m 2.61383,-23.4848497 c 0,-1.0009804 0.80425,-1.8017704 1.80956,-1.8017704 42.94583,0 53.18726,10.2122041 53.18726,28.1760831 0,0.530172 -0.24023,1.058637 -0.63378,1.3742 -0.43007,0.344851 -1.04238,0.548035 -1.61637,0.349699 -2.62659,-0.907598 -6.29347,-2.884891 -12.87259,-2.874088 l -38.06452,0.0625 c -1.00531,0.0017 -1.80956,-0.80079 -1.80956,-1.80177 z"
     id="path23-1-9-3-3-88"
     sodipodi:nodetypes="csssasscccssassscc" /><text
     xml:space="preserve"
     id="text83349-9-6-0-2"
     style="font-style:normal;font-variant:normal;font-weight:normal;font-stretch:normal;font-size:18.6667px;line-height:1.25;font-family:Comfortaa;-inkscape-font-specification:'Comfortaa, Normal';font-variant-ligatures:normal;font-variant-position:normal;font-variant-caps:normal;font-variant-numeric:normal;font-variant-alternates:normal;font-variant-east-asian:normal;text-indent:0;text-align:center;text-decoration-line:none;text-decoration-style:solid;text-decoration-color:#000000;letter-spacing:2px;word-spacing:0px;text-transform:none;writing-mode:lr-tb;direction:ltr;text-orientation:mixed;dominant-baseline:auto;baseline-shift:baseline;white-space:pre;shape-inside:url(#rect83351-4-1-4-4-4);shape-padding:0;shape-margin:0;inline-size:0;display:inline;fill:#ffd8b2;fill-opacity:1;stroke:#000000;stroke-width:3;stroke-linecap:round;stroke-linejoin:round;stroke-miterlimit:4;stroke-dasharray:none;stroke-dashoffset:0;stroke-opacity:1;paint-order:stroke fill markers;stop-color:#000000"
     x="7.8984375"
     y="0"
     transform="translate(16.843966,-95.232378)"><tspan
       x="150.0884"
       y="122.86965"
       id="tspan1379">RT</tspan></text><text
     xml:space="preserve"
     id="text83349-9-6-6"
     style="font-style:normal;font-variant:normal;font-weight:normal;font-stretch:normal;font-size:18.6667px;line-height:1.25;font-family:Comfortaa;-inkscape-font-specification:'Comfortaa, Normal';font-variant-ligatures:normal;font-variant-position:normal;font-variant-caps:normal;font-variant-numeric:normal;font-variant-alternates:normal;font-variant-east-asian:normal;text-indent:0;text-align:center;text-decoration-line:none;text-decoration-style:solid;text-decoration-color:#000000;letter-spacing:0.25px;word-spacing:0px;text-transform:none;writing-mode:lr-tb;direction:ltr;text-orientation:mixed;dominant-baseline:auto;baseline-shift:baseline;white-space:pre;shape-inside:url(#rect83351-4-1-4-9);shape-padding:0;shape-margin:0;inline-size:0;display:inline;fill:#ffd8b2;fill-opacity:1;stroke:#000000;stroke-width:3;stroke-linecap:round;stroke-linejoin:round;stroke-miterlimit:4;stroke-dasharray:none;stroke-dashoffset:0;stroke-opacity:1;paint-order:stroke fill markers;stop-color:#000000"
     x="7.8984375"
     y="0"
     transform="translate(-104.14609,-95.232378)"><tspan
       x="151.92472"
       y="122.86965"
       id="tspan1381">LT</tspan></text></g></svg>
