<?xml version="1.0" encoding="UTF-8" standalone="no"?>
<!-- Generator: Adobe Illustrator 24.0.1, SVG Export Plug-In . SVG Version: 6.00 Build 0)  -->

<svg
   version="1.1"
   id="Layer_3"
   x="0px"
   y="0px"
   viewBox="0 0 240 250"
   xml:space="preserve"
   sodipodi:docname="mame.svg"
   inkscape:version="1.1.1 (3bf5ae0d25, 2021-09-20)"
   inkscape:export-filename="C:\All\Batocera\batocera-assets\controller-overlays\mame-fbneo.png"
   inkscape:export-xdpi="96"
   inkscape:export-ydpi="96"
   width="240"
   height="250"
   xmlns:inkscape="http://www.inkscape.org/namespaces/inkscape"
   xmlns:sodipodi="http://sodipodi.sourceforge.net/DTD/sodipodi-0.dtd"
   xmlns="http://www.w3.org/2000/svg"
   xmlns:svg="http://www.w3.org/2000/svg"><defs
   id="defs75"><inkscape:path-effect
     effect="envelope"
     id="path-effect76373"
     is_visible="true"
     lpeversion="1"
     yy="true"
     xx="true"
     bendpath1="M 23.537096,16.621557 H 86.140921"
     bendpath2="M 86.140921,16.621557 V 39.916004"
     bendpath3="M 23.537096,39.916004 H 86.140921"
     bendpath4="M 23.537096,16.621557 V 39.916004" /><inkscape:path-effect
     effect="lattice2"
     gridpoint0="23.537096,16.621557"
     gridpoint1="86.140921,16.621557"
     gridpoint2="23.537096,39.916004"
     gridpoint3="86.140921,39.916004"
     gridpoint4="39.188052,16.621557"
     gridpoint5="70.489964,16.621557"
     gridpoint6="39.188052,39.916004"
     gridpoint7="70.489964,39.916004"
     gridpoint8x9="54.839008,16.621557"
     gridpoint10x11="54.839008,39.916004"
     gridpoint12="23.537096,22.445169"
     gridpoint13="86.140921,22.445169"
     gridpoint14="23.537096,34.092392"
     gridpoint15="86.140921,34.092392"
     gridpoint16="39.188052,22.445169"
     gridpoint17="70.489964,22.445169"
     gridpoint18="39.188052,34.092392"
     gridpoint19="70.489964,34.092392"
     gridpoint20x21="54.839008,22.445169"
     gridpoint22x23="54.839008,34.092392"
     gridpoint24x26="23.537096,28.268781"
     gridpoint25x27="86.140921,28.268781"
     gridpoint28x30="39.188052,28.268781"
     gridpoint29x31="70.489964,28.268781"
     gridpoint32x33x34x35="54.839008,28.268781"
     id="path-effect76371"
     is_visible="true"
     lpeversion="1"
     horizontal_mirror="false"
     vertical_mirror="false"
     perimetral="true"
     live_update="true" /><inkscape:path-effect
     effect="attach_path"
     id="path-effect76369"
     lpeversion="1"
     endcurveend="11.768548,10.555296 , -11.059262,26.691553"
     is_visible="true"
     startpath=""
     startposition="0"
     startcurvestart="0,0 , 20,0"
     startcurveend="23.658422,11.889874 , 28.614092,-5.9449372"
     endpath=""
     endposition="0"
     endcurvestart="0,0 , 20,0" /><inkscape:path-effect
     effect="envelope"
     id="path-effect76348"
     is_visible="true"
     lpeversion="1"
     yy="true"
     xx="true"
     bendpath1="M 23.537096,16.621557 61.997198,10.797945"
     bendpath2="M 86.140921,16.621557 V 39.916004"
     bendpath3="M 23.537096,42.342509 86.140921,39.916004"
     bendpath4="M 23.537096,16.621557 V 50.592625"
     bendpath4-nodetypes="cc"
     bendpath3-nodetypes="cc"
     bendpath1-nodetypes="cc" /><rect
     x="76.739281"
     y="147.34442"
     width="33.36795"
     height="20.843538"
     id="rect127464" /><rect
     x="128.2495"
     y="105.78697"
     width="33.960148"
     height="33.738186"
     id="rect83351" /><rect
     x="127.67705"
     y="105.52645"
     width="34.594753"
     height="33.972546"
     id="rect34999" /><rect
     x="161.5537"
     y="139.78229"
     width="33.151905"
     height="33.894112"
     id="rect24475" /><rect
     x="128.2495"
     y="105.78697"
     width="33.960148"
     height="33.738186"
     id="rect83351-3" /><rect
     x="128.2495"
     y="105.78697"
     width="33.960148"
     height="33.738186"
     id="rect83351-9" /><rect
     x="128.2495"
     y="105.78697"
     width="33.960148"
     height="33.738186"
     id="rect83351-5" /><rect
     x="76.739281"
     y="147.34442"
     width="32.54847"
     height="20.780947"
     id="rect127464-0" /><rect
     x="128.2495"
     y="105.78697"
     width="69.439232"
     height="31.708288"
     id="rect83351-4" /><rect
     x="128.2495"
     y="105.78697"
     width="33.960148"
     height="33.738186"
     id="rect83351-52" /><rect
     x="128.2495"
     y="105.78697"
     width="33.960148"
     height="33.738186"
     id="rect83351-52-6" /><rect
     x="128.2495"
     y="105.78697"
     width="33.960148"
     height="33.738186"
     id="rect83351-37" /><rect
     x="128.2495"
     y="105.78697"
     width="33.960148"
     height="33.738186"
     id="rect83351-3-9" /><rect
     x="128.2495"
     y="105.78697"
     width="33.960148"
     height="33.738186"
     id="rect83351-9-2" /><rect
     x="128.2495"
     y="105.78697"
     width="33.960148"
     height="33.738186"
     id="rect83351-5-7" /><rect
     x="76.739281"
     y="147.34442"
     width="33.36795"
     height="20.843538"
     id="rect127464-7" /><rect
     x="76.739281"
     y="147.34442"
     width="32.54847"
     height="20.780947"
     id="rect127464-0-5" /><rect
     x="128.2495"
     y="105.78697"
     width="69.439232"
     height="31.708288"
     id="rect83351-4-1" /><rect
     x="128.2495"
     y="105.78697"
     width="33.960148"
     height="33.738186"
     id="rect83351-52-67" /><rect
     x="128.2495"
     y="105.78697"
     width="33.960148"
     height="33.738186"
     id="rect83351-52-6-8" /><rect
     x="128.2495"
     y="105.78697"
     width="69.439232"
     height="31.708288"
     id="rect83351-4-1-4" /><rect
     x="128.2495"
     y="105.78697"
     width="69.439232"
     height="31.708288"
     id="rect83351-4-1-4-4" /><rect
     x="128.2495"
     y="105.78697"
     width="69.439232"
     height="31.708288"
     id="rect83351-4-1-4-9" /><rect
     x="128.2495"
     y="105.78697"
     width="69.439232"
     height="31.708288"
     id="rect83351-4-1-4-4-4" /><rect
     x="76.739281"
     y="147.34442"
     width="65.207236"
     height="14.330957"
     id="rect127464-7-2" /><rect
     x="76.739281"
     y="147.34442"
     width="65.207237"
     height="14.330957"
     id="rect127464-7-2-8" /></defs><sodipodi:namedview
   id="namedview73"
   pagecolor="#ffffff"
   bordercolor="#666666"
   borderopacity="1.0"
   inkscape:pageshadow="2"
   inkscape:pageopacity="0"
   inkscape:pagecheckerboard="true"
   showgrid="false"
   inkscape:current-layer="layer8"
   inkscape:snap-bbox="true"
   inkscape:bbox-nodes="true"
   inkscape:bbox-paths="true"
   inkscape:object-nodes="false"
   inkscape:snap-others="true"
   inkscape:snap-bbox-edge-midpoints="false"
   inkscape:snap-bbox-midpoints="false"
   inkscape:object-paths="false"
   inkscape:snap-smooth-nodes="false" />














<g
   inkscape:groupmode="layer"
   id="layer8"
   inkscape:label="Start/Select"><rect
     style="display:inline;opacity:0.5;fill:#000000;fill-opacity:1;stroke:none;stroke-width:1.5;stroke-linecap:round;stroke-linejoin:round;stroke-miterlimit:4;stroke-dasharray:none;stroke-opacity:1;paint-order:stroke fill markers"
     id="rect38642"
     width="36.274895"
     height="9.2304678"
     x="76.722847"
     y="162.9826"
     ry="1.0566431"
     rx="0.98502129" /><path
     style="display:inline;fill:#ffd8b2;fill-opacity:1;stroke:#000000;stroke-width:3;stroke-linecap:round;stroke-linejoin:round;stroke-miterlimit:4;stroke-dasharray:none;stroke-opacity:1;paint-order:stroke fill markers"
     d="m 110.18398,156.73557 c 0,2.40236 -1.94361,4.40433 -4.42339,4.40433 H 83.999999 c -2.479781,0 -4.423392,-2.00197 -4.423392,-4.40433 v -10 c 0,-2.40236 1.943611,-4.40433 4.423392,-4.40433 h 21.760591 c 2.47978,0 4.42339,2.00197 4.42339,4.40433 z m -2.61382,-10 c 0,-1.00098 -0.80425,-1.80177 -1.80957,-1.80177 H 83.999999 c -1.005317,0 -1.80957,0.80079 -1.80957,1.80177 v 10 c 0,1.00098 0.804253,1.80177 1.80957,1.80177 h 21.760591 c 1.00532,0 1.80957,-0.80079 1.80957,-1.80177 z"
     id="path23-1-9"
     sodipodi:nodetypes="cssccsscccssccsscc" /><path
     style="display:inline;fill:#ffd8b2;fill-opacity:1;stroke:#000000;stroke-width:3;stroke-linecap:round;stroke-linejoin:round;stroke-miterlimit:4;stroke-dasharray:none;stroke-opacity:1;paint-order:stroke fill markers"
     d="m 148.8403,151.73557 c 0,2.40236 -2.0471,3.69544 -4.42339,4.40433 l -16.7606,5 c -2.68327,0.80047 -5.42339,-2.00197 -5.42339,-4.40433 v -10 c 0,-2.40236 2.48123,-5.28203 5.42339,-4.40433 l 16.7606,5 c 2.37629,0.70889 4.42339,2.00197 4.42339,4.40433 z m -2.61382,0 c 0,-1.00098 -0.82978,-1.57664 -1.80957,-1.80177 l -16.7606,-5 c -1.67188,-0.49875 -2.80957,0.80079 -2.80957,1.80177 v 10 c 0,1.00098 1.31582,2.24738 2.80957,1.80177 l 16.7606,-5 c 0.97979,-0.22513 1.80957,-0.80079 1.80957,-1.80177 z"
     id="path23-1-9-7"
     sodipodi:nodetypes="cssccsscscsssscs" /><text
     xml:space="preserve"
     id="text127462"
     style="font-style:normal;font-variant:normal;font-weight:bold;font-stretch:normal;font-size:8px;line-height:1.25;font-family:Comfortaa;-inkscape-font-specification:'Comfortaa Bold';font-variant-ligatures:normal;font-variant-caps:normal;font-variant-numeric:normal;font-variant-east-asian:normal;text-align:center;text-decoration-color:#000000;letter-spacing:0px;word-spacing:0px;white-space:pre;shape-inside:url(#rect127464-7);display:inline;fill:#ffd8b2;fill-opacity:1;stroke:none;stroke-width:1.5;stroke-linecap:round;stroke-linejoin:round;stroke-miterlimit:4;stroke-dasharray:none;stroke-opacity:1;paint-order:stroke fill markers;stop-color:#000000"
     x="10.010417"
     y="0"
     transform="translate(1.6004651,16.057013)"><tspan
       x="82.09584"
       y="154.66483"
       id="tspan984">COIN</tspan></text><rect
     style="display:inline;opacity:0.5;fill:#000000;fill-opacity:1;stroke:none;stroke-width:1.5;stroke-linecap:round;stroke-linejoin:round;stroke-miterlimit:4;stroke-dasharray:none;stroke-opacity:1;paint-order:stroke fill markers"
     id="rect38642-7"
     width="36.274895"
     height="9.2304678"
     x="117.37916"
     y="162.9826"
     ry="1.0566431"
     rx="0.98502129" /><text
     xml:space="preserve"
     id="text127462-9"
     style="font-style:normal;font-variant:normal;font-weight:bold;font-stretch:normal;font-size:8px;line-height:1.25;font-family:Comfortaa;-inkscape-font-specification:'Comfortaa Bold';font-variant-ligatures:normal;font-variant-caps:normal;font-variant-numeric:normal;font-variant-east-asian:normal;text-align:center;text-decoration-color:#000000;letter-spacing:0px;word-spacing:0px;white-space:pre;shape-inside:url(#rect127464-0-5);display:inline;fill:#ffd8b2;fill-opacity:1;stroke:none;stroke-width:1.5;stroke-linecap:round;stroke-linejoin:round;stroke-miterlimit:4;stroke-dasharray:none;stroke-opacity:1;paint-order:stroke fill markers;stop-color:#000000"
     x="10.010417"
     y="0"
     transform="translate(42.334933,16.053013)"><tspan
       x="80.113693"
       y="154.66483"
       id="tspan986">START</tspan></text></g><g
   inkscape:groupmode="layer"
   id="layer7"
   inkscape:label="Face buttons"
   style="display:inline"><path
     style="display:inline;fill:#ffd8b2;fill-opacity:1;stroke:#000000;stroke-width:3;stroke-linecap:round;stroke-linejoin:round;stroke-miterlimit:4;stroke-dasharray:none;stroke-opacity:1;paint-order:stroke fill markers"
     d="m 201.81383,132.55308 c -8.77976,0 -15.95102,-7.14036 -15.95102,-15.88229 0,-8.74194 7.17126,-15.8823 15.95102,-15.8823 8.77976,0 15.95102,7.14036 15.95102,15.8823 0,8.74193 -7.17126,15.88229 -15.95102,15.88229 z m 0,-29.09529 c -7.3053,0 -13.27018,5.93917 -13.27018,13.213 0,7.27382 5.96488,13.21299 13.27018,13.21299 7.3053,0 13.27018,-5.93917 13.27018,-13.21299 0,-7.27383 -5.96488,-13.213 -13.27018,-13.213 z"
     id="path43-1-81" /><path
     style="display:inline;fill:#ffd8b2;fill-opacity:1;stroke:#000000;stroke-width:3;stroke-linecap:round;stroke-linejoin:round;stroke-miterlimit:4;stroke-dasharray:none;stroke-opacity:1;paint-order:stroke fill markers"
     d="m 173.55158,104.4126 c -8.77976,0 -15.95102,-7.14036 -15.95102,-15.882289 0,-8.741933 7.17126,-15.882291 15.95102,-15.882291 8.77976,0 15.95102,7.140358 15.95102,15.882291 0,8.741929 -7.17126,15.882289 -15.95102,15.882289 z m 0,-29.095288 c -7.3053,0 -13.27018,5.939176 -13.27018,13.212999 0,7.273819 5.96488,13.212999 13.27018,13.212999 7.3053,0 13.27018,-5.93918 13.27018,-13.212999 0,-7.273823 -5.96488,-13.212999 -13.27018,-13.212999 z"
     id="path43-1-7" /><path
     style="display:inline;fill:#ffd8b2;fill-opacity:1;stroke:#000000;stroke-width:3;stroke-linecap:round;stroke-linejoin:round;stroke-miterlimit:4;stroke-dasharray:none;stroke-opacity:1;paint-order:stroke fill markers"
     d="m 173.55158,160.69356 c -8.77976,0 -15.95102,-7.14036 -15.95102,-15.88229 0,-8.74194 7.17126,-15.8823 15.95102,-15.8823 8.77976,0 15.95102,7.14036 15.95102,15.8823 0,8.74193 -7.17126,15.88229 -15.95102,15.88229 z m 0,-29.09529 c -7.3053,0 -13.27018,5.93917 -13.27018,13.213 0,7.27382 5.96488,13.21299 13.27018,13.21299 7.3053,0 13.27018,-5.93917 13.27018,-13.21299 0,-7.27383 -5.96488,-13.213 -13.27018,-13.213 z"
     id="path43-1-81-1" /><path
     style="display:inline;fill:#ffd8b2;fill-opacity:1;stroke:#000000;stroke-width:3;stroke-linecap:round;stroke-linejoin:round;stroke-miterlimit:4;stroke-dasharray:none;stroke-opacity:1;paint-order:stroke fill markers"
     d="m 145.28932,132.55308 c -8.77976,0 -15.95102,-7.14036 -15.95102,-15.88229 0,-8.74194 7.17126,-15.8823 15.95102,-15.8823 8.77976,0 15.95102,7.14036 15.95102,15.8823 0,8.74193 -7.17126,15.88229 -15.95102,15.88229 z m 0,-29.09529 c -7.3053,0 -13.27018,5.93917 -13.27018,13.213 0,7.27382 5.96488,13.21299 13.27018,13.21299 7.3053,0 13.27018,-5.93917 13.27018,-13.21299 0,-7.27383 -5.96488,-13.213 -13.27018,-13.213 z"
     id="path43-1" /><text
     xml:space="preserve"
     id="text83349"
     style="font-style:normal;font-variant:normal;font-weight:normal;font-stretch:normal;font-size:21.3333px;line-height:1.25;font-family:Comfortaa;-inkscape-font-specification:'Comfortaa, Normal';font-variant-ligatures:normal;font-variant-position:normal;font-variant-caps:normal;font-variant-numeric:normal;font-variant-alternates:normal;font-variant-east-asian:normal;text-indent:0;text-align:center;text-decoration-line:none;text-decoration-style:solid;text-decoration-color:#000000;letter-spacing:0px;word-spacing:0px;text-transform:none;writing-mode:lr-tb;direction:ltr;text-orientation:mixed;dominant-baseline:auto;baseline-shift:baseline;white-space:pre;shape-inside:url(#rect83351-37);shape-padding:0;shape-margin:0;inline-size:0;display:inline;fill:#ffd8b2;fill-opacity:1;stroke:#000000;stroke-width:3;stroke-linecap:round;stroke-linejoin:round;stroke-miterlimit:4;stroke-dasharray:none;stroke-dashoffset:0;stroke-opacity:1;paint-order:stroke fill markers;stop-color:#000000"
     x="7.8984375"
     y="0"
     transform="translate(-0.04684845,-0.30850999)"><tspan
       x="138.98951"
       y="125.30995"
       id="tspan988">3</tspan></text><text
     xml:space="preserve"
     id="text83349-0"
     style="font-style:normal;font-variant:normal;font-weight:normal;font-stretch:normal;font-size:21.3333px;line-height:1.25;font-family:Comfortaa;-inkscape-font-specification:'Comfortaa, Normal';font-variant-ligatures:normal;font-variant-position:normal;font-variant-caps:normal;font-variant-numeric:normal;font-variant-alternates:normal;font-variant-east-asian:normal;text-indent:0;text-align:center;text-decoration-line:none;text-decoration-style:solid;text-decoration-color:#000000;letter-spacing:0px;word-spacing:0px;text-transform:none;writing-mode:lr-tb;direction:ltr;text-orientation:mixed;dominant-baseline:auto;baseline-shift:baseline;white-space:pre;shape-inside:url(#rect83351-3-9);shape-padding:0;shape-margin:0;inline-size:0;display:inline;fill:#ffd8b2;fill-opacity:1;stroke:#000000;stroke-width:3;stroke-linecap:round;stroke-linejoin:round;stroke-miterlimit:4;stroke-dasharray:none;stroke-dashoffset:0;stroke-opacity:1;paint-order:stroke fill markers;stop-color:#000000"
     x="7.8984375"
     y="0"
     transform="translate(28.344269,27.842637)"><tspan
       x="141.19752"
       y="125.30995"
       id="tspan990">1</tspan></text><text
     xml:space="preserve"
     id="text83349-6"
     style="font-style:normal;font-variant:normal;font-weight:normal;font-stretch:normal;font-size:21.3333px;line-height:1.25;font-family:Comfortaa;-inkscape-font-specification:'Comfortaa, Normal';font-variant-ligatures:normal;font-variant-position:normal;font-variant-caps:normal;font-variant-numeric:normal;font-variant-alternates:normal;font-variant-east-asian:normal;text-indent:0;text-align:center;text-decoration-line:none;text-decoration-style:solid;text-decoration-color:#000000;letter-spacing:0px;word-spacing:0px;text-transform:none;writing-mode:lr-tb;direction:ltr;text-orientation:mixed;dominant-baseline:auto;baseline-shift:baseline;white-space:pre;shape-inside:url(#rect83351-9-2);shape-padding:0;shape-margin:0;inline-size:0;display:inline;fill:#ffd8b2;fill-opacity:1;stroke:#000000;stroke-width:3;stroke-linecap:round;stroke-linejoin:round;stroke-miterlimit:4;stroke-dasharray:none;stroke-dashoffset:0;stroke-opacity:1;paint-order:stroke fill markers;stop-color:#000000"
     x="7.8984375"
     y="0"
     transform="translate(56.392331,-0.6823445)"><tspan
       x="139.03218"
       y="125.30995"
       id="tspan992">2</tspan></text><text
     xml:space="preserve"
     id="text83349-4"
     style="font-style:normal;font-variant:normal;font-weight:normal;font-stretch:normal;font-size:21.3333px;line-height:1.25;font-family:Comfortaa;-inkscape-font-specification:'Comfortaa, Normal';font-variant-ligatures:normal;font-variant-position:normal;font-variant-caps:normal;font-variant-numeric:normal;font-variant-alternates:normal;font-variant-east-asian:normal;text-indent:0;text-align:center;text-decoration-line:none;text-decoration-style:solid;text-decoration-color:#000000;letter-spacing:0px;word-spacing:0px;text-transform:none;writing-mode:lr-tb;direction:ltr;text-orientation:mixed;dominant-baseline:auto;baseline-shift:baseline;white-space:pre;shape-inside:url(#rect83351-5-7);shape-padding:0;shape-margin:0;inline-size:0;display:inline;fill:#ffd8b2;fill-opacity:1;stroke:#000000;stroke-width:3;stroke-linecap:round;stroke-linejoin:round;stroke-miterlimit:4;stroke-dasharray:none;stroke-dashoffset:0;stroke-opacity:1;paint-order:stroke fill markers;stop-color:#000000"
     x="7.8984375"
     y="0"
     transform="translate(28.631414,-28.438318)"><tspan
       x="138.32818"
       y="125.30995"
       id="tspan994">4</tspan></text></g><g
   inkscape:groupmode="layer"
   id="layer9"
   inkscape:label="D-pad"
   style="display:inline"><path
     style="display:inline;fill:#ffd8b2;fill-opacity:1;stroke:#000000;stroke-width:3;stroke-linecap:round;stroke-linejoin:round;stroke-miterlimit:4;stroke-dasharray:none;stroke-opacity:1;paint-order:stroke fill markers"
     d="M 65.9354,151.93881 H 48.174811 c -2.479781,0 -4.423392,-2.00196 -4.423392,-4.40433 V 130.31754 H 26.459977 c -2.479781,0 -4.490414,-2.00197 -4.490414,-4.47106 v -18.35139 c 0,-2.46909 2.010633,-4.47106 4.490414,-4.47106 H 43.751419 V 85.807089 c 0,-2.469095 2.010632,-4.404332 4.423392,-4.404332 H 65.9354 c 2.479781,0 4.423393,2.001969 4.423393,4.404332 v 17.216941 h 17.291442 c 2.47978,0 4.490413,2.00197 4.490413,4.47106 v 18.35139 c 0,2.46909 -2.010633,4.47106 -4.490413,4.47106 H 70.358793 v 17.21694 c 0,2.40237 -1.943612,4.40433 -4.423393,4.40433 z M 26.459977,105.69332 c -1.005317,0 -1.80957,0.80079 -1.80957,1.80177 v 18.35139 c 0,1.00098 0.804253,1.80177 1.80957,1.80177 h 17.492505 c 0.469148,0 1.20638,0.0667 1.742548,0.60059 0.469148,0.4004 0.670211,1.06772 0.670211,1.80177 v 17.48387 c 0,1.00099 0.804253,1.80177 1.80957,1.80177 H 65.9354 c 1.005317,0 1.80957,-0.80078 1.80957,-1.80177 v -17.5506 c 0,-0.66732 0.268084,-1.26791 0.670211,-1.66831 0.402126,-0.40039 1.005316,-0.60059 1.742548,-0.60059 h 17.492506 c 1.005316,0 1.809569,-0.80078 1.809569,-1.80177 v -18.35139 c 0,-1.00098 -0.804253,-1.80177 -1.809569,-1.80177 H 70.090708 c -0.670211,0 -1.273401,-0.2002 -1.742548,-0.60059 -0.402127,-0.40039 -0.670211,-1.00098 -0.670211,-1.66831 V 86.007286 c 0,-1.000984 -0.804253,-1.801772 -1.80957,-1.801772 H 48.10779 v 0 c -0.469148,0 -0.938296,0.200197 -1.273401,0.533858 -0.335106,0.333662 -0.536169,0.800788 -0.536169,1.267914 v 17.350404 c 0,0.46713 0,1.06772 -0.469147,1.66831 -0.536169,0.60059 -1.273401,0.66732 -1.876591,0.66732 z"
     id="path23-1"
     inkscape:export-filename="C:\All\Batocera\batocera-assets\controller-overlays\generic.png"
     inkscape:export-xdpi="96"
     inkscape:export-ydpi="96"
     sodipodi:nodetypes="ssscsssscsssscsssscsscsssscssssssssssssscssscsssscscc" /><text
     xml:space="preserve"
     id="text83349-9"
     style="font-style:normal;font-variant:normal;font-weight:normal;font-stretch:normal;font-size:17.3333px;line-height:1.25;font-family:Comfortaa;-inkscape-font-specification:'Comfortaa, Normal';font-variant-ligatures:normal;font-variant-position:normal;font-variant-caps:normal;font-variant-numeric:normal;font-variant-alternates:normal;font-variant-east-asian:normal;text-indent:0;text-align:center;text-decoration-line:none;text-decoration-style:solid;text-decoration-color:#000000;letter-spacing:1px;word-spacing:0px;text-transform:none;writing-mode:lr-tb;direction:ltr;text-orientation:mixed;dominant-baseline:auto;baseline-shift:baseline;white-space:pre;shape-inside:url(#rect83351-4-1);shape-padding:0;shape-margin:0;inline-size:0;display:inline;fill:#ffd8b2;fill-opacity:1;stroke:#000000;stroke-width:3;stroke-linecap:round;stroke-linejoin:round;stroke-miterlimit:4;stroke-dasharray:none;stroke-dashoffset:0;stroke-opacity:1;paint-order:stroke fill markers;stop-color:#000000"
     x="7.8984375"
     y="0"
     transform="translate(-106.25263,1.7900086)"><tspan
       x="133.20184"
       y="121.64941"
       id="tspan996">D-PAD</tspan></text></g><g
   inkscape:groupmode="layer"
   id="layer10"
   inkscape:label="Dual-sticks"
   style="display:inline"><path
     style="color:#000000;display:inline;fill:#ffd8b2;stroke:#000000;stroke-width:3;stroke-linecap:round;stroke-linejoin:round;stroke-miterlimit:4;stroke-dasharray:none;stroke-opacity:1;paint-order:stroke fill markers"
     d="m 68.914062,172.97656 c -17.921727,0 -32.478515,14.55679 -32.478515,32.47852 0,17.92173 14.556788,32.47851 32.478515,32.47851 17.921728,0 32.478518,-14.55678 32.478518,-32.47851 0,-17.92173 -14.55679,-32.47852 -32.478518,-32.47852 z m 0,2.60547 c 16.513883,0 29.873047,13.35917 29.873047,29.87305 0,16.51388 -13.359164,29.87304 -29.873047,29.87304 -16.513882,0 -29.873046,-13.35916 -29.873046,-29.87304 0,-16.51388 13.359164,-29.87305 29.873046,-29.87305 z"
     id="circle74" /><path
     style="color:#000000;display:inline;fill:#ffd8b2;stroke:#000000;stroke-width:3;stroke-linecap:round;stroke-linejoin:round;stroke-miterlimit:4;stroke-dasharray:none;stroke-opacity:1;paint-order:stroke fill markers"
     d="m 68.914062,183.61523 c -12.046366,0 -21.839843,9.79348 -21.839843,21.83985 0,12.04636 9.793477,21.83984 21.839843,21.83984 12.046367,0 21.839844,-9.79348 21.839844,-21.83984 0,-12.04637 -9.793477,-21.83985 -21.839844,-21.83985 z m 0,2.60547 c 10.638516,0 19.234375,8.59586 19.234375,19.23438 0,10.63851 -8.595859,19.23437 -19.234375,19.23437 -10.638515,0 -19.234375,-8.59586 -19.234375,-19.23437 0,-10.63852 8.59586,-19.23438 19.234375,-19.23438 z"
     id="circle76" /><path
     style="color:#000000;display:inline;opacity:0.5;fill:#ffd8b2;fill-opacity:1;stroke:#000000;stroke-width:3;stroke-linecap:round;stroke-linejoin:round;stroke-miterlimit:4;stroke-dasharray:none;stroke-opacity:1;paint-order:stroke fill markers"
     d="m 160.6875,183.61523 c -12.04637,0 -21.83984,9.79348 -21.83984,21.83985 0,12.04636 9.79347,21.83984 21.83984,21.83984 12.04637,0 21.83984,-9.79348 21.83984,-21.83984 0,-12.04637 -9.79347,-21.83985 -21.83984,-21.83985 z m 0,2.60547 c 10.63852,0 19.23437,8.59586 19.23437,19.23438 0,10.63851 -8.59585,19.23437 -19.23437,19.23437 -10.63852,0 -19.23633,-8.59586 -19.23633,-19.23437 0,-10.63852 8.59781,-19.23438 19.23633,-19.23438 z"
     id="circle78" /><path
     style="color:#000000;display:inline;opacity:0.5;fill:#ffd8b2;fill-opacity:1;stroke:#000000;stroke-width:3;stroke-linecap:round;stroke-linejoin:round;stroke-miterlimit:4;stroke-dasharray:none;stroke-opacity:1;paint-order:stroke fill markers"
     d="m 160.6875,172.97656 c -17.92173,0 -32.47852,14.55679 -32.47852,32.47852 0,17.92173 14.55679,32.47851 32.47852,32.47851 17.92173,0 32.47656,-14.55678 32.47656,-32.47851 0,-17.92173 -14.55483,-32.47852 -32.47656,-32.47852 z m 0,2.60547 c 16.51388,0 29.87305,13.35917 29.87305,29.87305 0,16.51388 -13.35917,29.87305 -29.87305,29.87304 -16.51388,0 -29.87305,-13.35916 -29.87305,-29.87304 0,-16.51388 13.35917,-29.87305 29.87305,-29.87305 z"
     id="circle80" /><rect
     style="display:inline;opacity:0.5;fill:#000000;fill-opacity:1;stroke:none;stroke-width:1.49999;stroke-linecap:round;stroke-linejoin:round;stroke-miterlimit:4;stroke-dasharray:none;stroke-opacity:1;paint-order:stroke fill markers"
     id="rect38642-2-0-9"
     width="54.275833"
     height="9.2304678"
     x="41.776146"
     y="240.2191"
     ry="1.0566431"
     rx="1.4738251" /><text
     xml:space="preserve"
     id="text127462-3"
     style="font-style:normal;font-variant:normal;font-weight:bold;font-stretch:normal;font-size:8px;line-height:1.25;font-family:Comfortaa;-inkscape-font-specification:'Comfortaa Bold';font-variant-ligatures:normal;font-variant-caps:normal;font-variant-numeric:normal;font-variant-east-asian:normal;text-align:center;text-decoration-color:#000000;letter-spacing:0px;word-spacing:0px;white-space:pre;shape-inside:url(#rect127464-7-2);display:inline;fill:#ffd8b2;fill-opacity:1;stroke:none;stroke-width:1.5;stroke-linecap:round;stroke-linejoin:round;stroke-miterlimit:4;stroke-dasharray:none;stroke-opacity:1;paint-order:stroke fill markers;stop-color:#000000"
     x="10.010417"
     y="0"
     transform="translate(-40.527635,93.293509)"><tspan
       x="96.331772"
       y="154.66483"
       id="tspan998">D-PAD</tspan></text></g><g
   inkscape:groupmode="layer"
   id="layer4"
   inkscape:label="Shoulder buttons (1st tier)"><path
     style="display:inline;fill:#ffd8b2;fill-opacity:1;stroke:#000000;stroke-width:3;stroke-linecap:round;stroke-linejoin:round;stroke-miterlimit:4;stroke-dasharray:none;stroke-opacity:1;paint-order:stroke fill markers"
     d="m 88.194036,62.416739 c 0,2.40236 -1.94362,4.40433 -4.423397,4.40433 H 45.237376 c -5.169111,0 -9.366625,2.253288 -11.769875,3.190862 -1.008359,0.393388 -2.640119,0.0927 -3.630493,-0.634171 -1.092083,-0.80152 -1.867445,-2.063385 -1.867445,-3.609485 V 47.931889 c 0,-1.465209 0.744902,-2.822151 1.851739,-3.586936 3.600128,-2.487561 10.169708,-4.817391 15.416074,-4.817391 h 38.533263 c 2.479777,0 4.423397,2.00197 4.423397,4.40433 z m -2.61383,-18.48485 c 0,-1.00098 -0.80425,-1.80177 -1.809567,-1.80177 H 45.237376 c -5.009559,0 -10.512577,2.372748 -13.841215,4.294538 -0.466325,0.269233 -0.81668,0.906185 -0.812776,1.507236 v 17.836386 c 0,0.530172 0.240232,1.058638 0.633774,1.3742 0.43007,0.344852 1.042385,0.548035 1.61637,0.349699 2.626598,-0.907598 6.293475,-3.346968 12.872597,-3.336165 l 38.064513,0.0625 c 1.005316,0.0017 1.809567,-0.80079 1.809567,-1.80177 z"
     id="path23-1-9-3"
     sodipodi:nodetypes="csssascssscccssscsassscc" /><text
     xml:space="preserve"
     id="text83349-9-6-0"
     style="font-style:normal;font-variant:normal;font-weight:normal;font-stretch:normal;font-size:18.6667px;line-height:1.25;font-family:Comfortaa;-inkscape-font-specification:'Comfortaa, Normal';font-variant-ligatures:normal;font-variant-position:normal;font-variant-caps:normal;font-variant-numeric:normal;font-variant-alternates:normal;font-variant-east-asian:normal;text-indent:0;text-align:center;text-decoration-line:none;text-decoration-style:solid;text-decoration-color:#000000;letter-spacing:2px;word-spacing:0px;text-transform:none;writing-mode:lr-tb;direction:ltr;text-orientation:mixed;dominant-baseline:auto;baseline-shift:baseline;white-space:pre;shape-inside:url(#rect83351-4-1-4-4);shape-padding:0;shape-margin:0;inline-size:0;display:inline;fill:#ffd8b2;fill-opacity:1;stroke:#000000;stroke-width:3;stroke-linecap:round;stroke-linejoin:round;stroke-miterlimit:4;stroke-dasharray:none;stroke-dashoffset:0;stroke-opacity:1;paint-order:stroke fill markers;stop-color:#000000"
     x="7.8984375"
     y="0"
     transform="translate(18.487643,-62.384694)"><tspan
       x="157.56573"
       y="122.86965"
       id="tspan1000">6</tspan></text><path
     style="display:inline;fill:#ffd8b2;fill-opacity:1;stroke:#000000;stroke-width:3;stroke-linecap:round;stroke-linejoin:round;stroke-miterlimit:4;stroke-dasharray:none;stroke-opacity:1;paint-order:stroke fill markers"
     d="m 151.53181,62.416739 c 0,2.40236 1.94362,4.40433 4.42341,4.40433 h 38.53325 c 5.16911,0 9.36663,2.253288 11.76988,3.190862 1.00836,0.393388 2.64012,0.0927 3.63049,-0.634171 1.09209,-0.80152 1.86745,-2.063385 1.86745,-3.609485 V 47.931889 c 0,-1.465209 -0.7449,-2.822151 -1.85174,-3.586936 -3.60013,-2.487561 -10.16971,-4.817391 -15.41608,-4.817391 h -38.53325 c -2.47979,0 -4.42341,2.00197 -4.42341,4.40433 z m 2.61383,-18.48485 c 0,-1.00098 0.80425,-1.80177 1.80958,-1.80177 h 38.53326 c 5.00956,0 10.51258,2.372748 13.84121,4.294538 0.46633,0.269233 0.81668,0.906185 0.81278,1.507236 v 17.836386 c 0,0.530172 -0.24023,1.058638 -0.63378,1.3742 -0.43007,0.344852 -1.04238,0.548035 -1.61636,0.349699 -2.6266,-0.907598 -6.29348,-3.346968 -12.8726,-3.336165 l -38.06451,0.0625 c -1.00533,0.0017 -1.80958,-0.80079 -1.80958,-1.80177 z"
     id="path23-1-9-3-6"
     sodipodi:nodetypes="csssascssscccssscsassscc" /><text
     xml:space="preserve"
     id="text83349-9-6"
     style="font-style:normal;font-variant:normal;font-weight:normal;font-stretch:normal;font-size:18.6667px;line-height:1.25;font-family:Comfortaa;-inkscape-font-specification:'Comfortaa, Normal';font-variant-ligatures:normal;font-variant-position:normal;font-variant-caps:normal;font-variant-numeric:normal;font-variant-alternates:normal;font-variant-east-asian:normal;text-indent:0;text-align:center;text-decoration-line:none;text-decoration-style:solid;text-decoration-color:#000000;letter-spacing:-0.25px;word-spacing:0px;text-transform:none;writing-mode:lr-tb;direction:ltr;text-orientation:mixed;dominant-baseline:auto;baseline-shift:baseline;white-space:pre;shape-inside:url(#rect83351-4-1-4);shape-padding:0;shape-margin:0;inline-size:0;display:inline;fill:#ffd8b2;fill-opacity:1;stroke:#000000;stroke-width:3;stroke-linecap:round;stroke-linejoin:round;stroke-miterlimit:4;stroke-dasharray:none;stroke-dashoffset:0;stroke-opacity:1;paint-order:stroke fill markers;stop-color:#000000"
     x="7.8984375"
     y="0"
     transform="translate(-104.98127,-62.384694)"><tspan
       x="157.11773"
       y="122.86965"
       id="tspan1002">5</tspan></text></g><g
   inkscape:groupmode="layer"
   id="layer6"
   inkscape:label="Shoulder triggers (2nd tier)"><path
     style="display:inline;opacity:0.5;fill:#ffd8b2;fill-opacity:1;stroke:#000000;stroke-width:3;stroke-linecap:round;stroke-linejoin:round;stroke-miterlimit:4;stroke-dasharray:none;stroke-opacity:1;paint-order:stroke fill markers"
     d="m 88.194036,30.37142 c 0,2.40236 -1.94362,4.40433 -4.423397,4.40433 H 45.237376 c -5.169111,0 -9.366625,1.791211 -11.769875,2.728785 -1.008359,0.393388 -2.640119,0.0927 -3.630493,-0.634171 -1.092084,-0.801521 -1.867445,-2.063385 -1.867445,-3.609485 0,-19.156188 8.855266,-30.7786364 55.801076,-30.7786364 2.479777,0 4.423397,2.00197 4.423397,4.4043304 z M 85.580206,6.88657 c 0,-1.0009804 -0.80425,-1.8017704 -1.809567,-1.8017704 -42.945827,0 -53.187254,10.2122044 -53.187254,28.1760834 0,0.530172 0.240232,1.058637 0.633774,1.3742 0.43007,0.344851 1.042385,0.548035 1.61637,0.349699 2.626598,-0.907598 6.293475,-2.884891 12.872597,-2.874088 l 38.064513,0.0625 c 1.005316,0.0017 1.809567,-0.80079 1.809567,-1.80177 z"
     id="path23-1-9-3-3"
     sodipodi:nodetypes="csssasscccssassscc" /><path
     style="display:inline;opacity:0.5;fill:#ffd8b2;fill-opacity:1;stroke:#000000;stroke-width:3;stroke-linecap:round;stroke-linejoin:round;stroke-miterlimit:4;stroke-dasharray:none;stroke-opacity:1;paint-order:stroke fill markers"
     d="m 151.53182,30.37142 c 0,2.40236 1.94362,4.40433 4.42339,4.40433 h 38.53327 c 5.16911,0 9.36662,1.791211 11.76987,2.728785 1.00836,0.393388 2.64012,0.0927 3.6305,-0.634171 1.09208,-0.801521 1.86744,-2.063385 1.86744,-3.609485 0,-19.156188 -8.85527,-30.7786361 -55.80108,-30.7786361 -2.47977,0 -4.42339,2.00197 -4.42339,4.4043304 z m 2.61383,-23.4848497 c 0,-1.0009804 0.80425,-1.8017704 1.80956,-1.8017704 42.94583,0 53.18726,10.2122041 53.18726,28.1760831 0,0.530172 -0.24023,1.058637 -0.63378,1.3742 -0.43007,0.344851 -1.04238,0.548035 -1.61637,0.349699 -2.62659,-0.907598 -6.29347,-2.884891 -12.87259,-2.874088 l -38.06452,0.0625 c -1.00531,0.0017 -1.80956,-0.80079 -1.80956,-1.80177 z"
     id="path23-1-9-3-3-88"
     sodipodi:nodetypes="csssasscccssassscc" /></g></svg>
