<?xml version="1.0" encoding="UTF-8" standalone="no"?>
<!-- Generator: Adobe Illustrator 24.0.1, SVG Export Plug-In . SVG Version: 6.00 Build 0)  -->

<svg
   version="1.1"
   id="Layer_3"
   x="0px"
   y="0px"
   viewBox="0 0 225 280"
   xml:space="preserve"
   sodipodi:docname="mastersystem.svg"
   inkscape:version="1.1.1 (3bf5ae0d25, 2021-09-20)"
   inkscape:export-filename="C:\All\Batocera\batocera-controller-overlays\mastersystem.png"
   inkscape:export-xdpi="96"
   inkscape:export-ydpi="96"
   width="225"
   height="280"
   xmlns:inkscape="http://www.inkscape.org/namespaces/inkscape"
   xmlns:sodipodi="http://sodipodi.sourceforge.net/DTD/sodipodi-0.dtd"
   xmlns="http://www.w3.org/2000/svg"
   xmlns:svg="http://www.w3.org/2000/svg"><defs
   id="defs75"><inkscape:path-effect
     effect="envelope"
     id="path-effect76373"
     is_visible="true"
     lpeversion="1"
     yy="true"
     xx="true"
     bendpath1="M 23.537096,16.621557 H 86.140921"
     bendpath2="M 86.140921,16.621557 V 39.916004"
     bendpath3="M 23.537096,39.916004 H 86.140921"
     bendpath4="M 23.537096,16.621557 V 39.916004" /><inkscape:path-effect
     effect="lattice2"
     gridpoint0="23.537096,16.621557"
     gridpoint1="86.140921,16.621557"
     gridpoint2="23.537096,39.916004"
     gridpoint3="86.140921,39.916004"
     gridpoint4="39.188052,16.621557"
     gridpoint5="70.489964,16.621557"
     gridpoint6="39.188052,39.916004"
     gridpoint7="70.489964,39.916004"
     gridpoint8x9="54.839008,16.621557"
     gridpoint10x11="54.839008,39.916004"
     gridpoint12="23.537096,22.445169"
     gridpoint13="86.140921,22.445169"
     gridpoint14="23.537096,34.092392"
     gridpoint15="86.140921,34.092392"
     gridpoint16="39.188052,22.445169"
     gridpoint17="70.489964,22.445169"
     gridpoint18="39.188052,34.092392"
     gridpoint19="70.489964,34.092392"
     gridpoint20x21="54.839008,22.445169"
     gridpoint22x23="54.839008,34.092392"
     gridpoint24x26="23.537096,28.268781"
     gridpoint25x27="86.140921,28.268781"
     gridpoint28x30="39.188052,28.268781"
     gridpoint29x31="70.489964,28.268781"
     gridpoint32x33x34x35="54.839008,28.268781"
     id="path-effect76371"
     is_visible="true"
     lpeversion="1"
     horizontal_mirror="false"
     vertical_mirror="false"
     perimetral="true"
     live_update="true" /><inkscape:path-effect
     effect="attach_path"
     id="path-effect76369"
     lpeversion="1"
     endcurveend="11.768548,10.555296 , -11.059262,26.691553"
     is_visible="true"
     startpath=""
     startposition="0"
     startcurvestart="0,0 , 20,0"
     startcurveend="23.658422,11.889874 , 28.614092,-5.9449372"
     endpath=""
     endposition="0"
     endcurvestart="0,0 , 20,0" /><inkscape:path-effect
     effect="envelope"
     id="path-effect76348"
     is_visible="true"
     lpeversion="1"
     yy="true"
     xx="true"
     bendpath1="M 23.537096,16.621557 61.997198,10.797945"
     bendpath2="M 86.140921,16.621557 V 39.916004"
     bendpath3="M 23.537096,42.342509 86.140921,39.916004"
     bendpath4="M 23.537096,16.621557 V 50.592625"
     bendpath4-nodetypes="cc"
     bendpath3-nodetypes="cc"
     bendpath1-nodetypes="cc" /><rect
     x="76.739281"
     y="147.34442"
     width="33.36795"
     height="20.843538"
     id="rect127464" /><rect
     x="128.2495"
     y="105.78697"
     width="33.960148"
     height="33.738186"
     id="rect83351" /><rect
     x="127.67705"
     y="105.52645"
     width="34.594753"
     height="33.972546"
     id="rect34999" /><rect
     x="161.5537"
     y="139.78229"
     width="33.151905"
     height="33.894112"
     id="rect24475" /><rect
     x="128.2495"
     y="105.78697"
     width="33.960148"
     height="33.738186"
     id="rect83351-3" /><rect
     x="128.2495"
     y="105.78697"
     width="33.960148"
     height="33.738186"
     id="rect83351-9" /><rect
     x="128.2495"
     y="105.78697"
     width="33.960148"
     height="33.738186"
     id="rect83351-5" /><rect
     x="76.739281"
     y="147.34442"
     width="32.54847"
     height="20.780947"
     id="rect127464-0" /><rect
     x="128.2495"
     y="105.78697"
     width="69.439232"
     height="31.708288"
     id="rect83351-4" /><rect
     x="128.2495"
     y="105.78697"
     width="33.960148"
     height="33.738186"
     id="rect83351-52" /><rect
     x="128.2495"
     y="105.78697"
     width="33.960148"
     height="33.738186"
     id="rect83351-52-6" /><rect
     x="128.2495"
     y="105.78697"
     width="33.960148"
     height="33.738186"
     id="rect83351-37" /><rect
     x="128.2495"
     y="105.78697"
     width="33.960148"
     height="33.738186"
     id="rect83351-3-9" /><rect
     x="128.2495"
     y="105.78697"
     width="33.960148"
     height="33.738186"
     id="rect83351-9-2" /><rect
     x="128.2495"
     y="105.78697"
     width="33.960148"
     height="33.738186"
     id="rect83351-5-7" /><rect
     x="76.739281"
     y="147.34442"
     width="33.36795"
     height="20.843538"
     id="rect127464-7" /><rect
     x="76.739281"
     y="147.34442"
     width="32.54847"
     height="20.780947"
     id="rect127464-0-5" /><rect
     x="128.2495"
     y="105.78697"
     width="69.439232"
     height="31.708288"
     id="rect83351-4-1" /><rect
     x="128.2495"
     y="105.78697"
     width="33.960148"
     height="33.738186"
     id="rect83351-52-67" /><rect
     x="128.2495"
     y="105.78697"
     width="33.960148"
     height="33.738186"
     id="rect83351-52-6-8" /><rect
     x="128.2495"
     y="105.78697"
     width="69.439232"
     height="31.708288"
     id="rect83351-4-1-4" /><rect
     x="128.2495"
     y="105.78697"
     width="69.439232"
     height="31.708288"
     id="rect83351-4-1-4-4" /><rect
     x="128.2495"
     y="105.78697"
     width="69.439232"
     height="31.708288"
     id="rect83351-4-1-4-9" /><rect
     x="128.2495"
     y="105.78697"
     width="69.439232"
     height="31.708288"
     id="rect83351-4-1-4-4-4" /><rect
     x="76.739281"
     y="147.34442"
     width="65.207237"
     height="14.330957"
     id="rect127464-7-2" /><rect
     x="76.739281"
     y="147.34442"
     width="65.207237"
     height="14.330957"
     id="rect127464-7-2-8" /><rect
     x="76.739281"
     y="147.34442"
     width="32.54847"
     height="20.780947"
     id="rect127464-0-5-6" /><rect
     x="76.739281"
     y="147.34442"
     width="33.36795"
     height="20.843538"
     id="rect127464-7-6" /><rect
     x="76.739281"
     y="147.34442"
     width="65.207237"
     height="14.330957"
     id="rect127464-7-2-1" /><rect
     x="76.739281"
     y="147.34442"
     width="65.207237"
     height="14.330957"
     id="rect127464-7-2-8-2" /><rect
     x="76.739281"
     y="147.34442"
     width="32.54847"
     height="20.780947"
     id="rect127464-0-5-7" /><rect
     x="128.2495"
     y="105.78697"
     width="33.960148"
     height="33.738186"
     id="rect83351-37-1" /><rect
     x="128.2495"
     y="105.78697"
     width="33.960148"
     height="33.738186"
     id="rect83351-3-9-4" /><rect
     x="128.2495"
     y="105.78697"
     width="33.960148"
     height="33.738186"
     id="rect83351-9-2-8" /><rect
     x="128.2495"
     y="105.78697"
     width="33.960148"
     height="33.738186"
     id="rect83351-5-7-0" /><rect
     x="128.2495"
     y="105.78697"
     width="69.439232"
     height="31.708288"
     id="rect83351-4-1-0" /><rect
     x="128.2495"
     y="105.78697"
     width="69.439232"
     height="31.708288"
     id="rect83351-4-1-4-8" /><rect
     x="128.2495"
     y="105.78697"
     width="69.439232"
     height="31.708288"
     id="rect83351-4-1-4-9-4" /><rect
     x="128.2495"
     y="105.78697"
     width="33.960148"
     height="33.738186"
     id="rect83351-52-67-3" /><rect
     x="128.2495"
     y="105.78697"
     width="33.960148"
     height="33.738186"
     id="rect83351-52-6-8-0" /><rect
     x="128.2495"
     y="105.78697"
     width="69.439232"
     height="31.708288"
     id="rect83351-4-1-4-4-5" /><rect
     x="128.2495"
     y="105.78697"
     width="69.439232"
     height="31.708288"
     id="rect83351-4-1-4-4-4-0" /></defs><sodipodi:namedview
   id="namedview73"
   pagecolor="#ffffff"
   bordercolor="#666666"
   borderopacity="1.0"
   inkscape:pageshadow="2"
   inkscape:pageopacity="0"
   inkscape:pagecheckerboard="true"
   showgrid="true"
   inkscape:current-layer="layer2"
   inkscape:snap-bbox="true"
   inkscape:bbox-nodes="true"
   inkscape:bbox-paths="true"
   inkscape:object-nodes="false"
   inkscape:snap-others="true"
   inkscape:snap-bbox-edge-midpoints="true"
   inkscape:snap-bbox-midpoints="false"
   inkscape:object-paths="false"
   inkscape:snap-smooth-nodes="false"
   inkscape:snap-nodes="false"><inkscape:grid
     type="xygrid"
     id="grid1087" /></sodipodi:namedview>














<g
   inkscape:groupmode="layer"
   id="layer2"
   inkscape:label="Backplate"
   style="display:inline"><rect
     style="display:inline;fill:#000000;fill-opacity:0.25;stroke-width:10.7827;stroke-linecap:round;stroke-linejoin:round"
     id="rect937"
     width="223"
     height="278"
     x="1"
     y="1"
     rx="6.977437"
     ry="6.9689116" /></g><g
   inkscape:groupmode="layer"
   id="layer8"
   inkscape:label="Start/Select"><path
     style="display:inline;opacity:0.5;fill:#ffd8b2;fill-opacity:1;stroke:#000000;stroke-width:3.3292;stroke-linecap:round;stroke-linejoin:round;stroke-miterlimit:4;stroke-dasharray:none;stroke-opacity:1;paint-order:stroke fill markers"
     d="m 101.73288,174.96998 c 0,2.66598 -2.156835,4.88764 -4.908735,4.88764 H 72.675686 c -2.751893,0 -4.908783,-2.22166 -4.908783,-4.88764 v -11.09735 c 0,-2.66597 2.15689,-4.88762 4.908783,-4.88762 h 24.148459 c 2.7519,0 4.908735,2.22165 4.908735,4.88762 z m -2.900595,-11.09735 c 0,-1.11082 -0.8925,-1.99948 -2.00814,-1.99948 H 72.675687 c -1.11563,0 -2.008138,0.88866 -2.008138,1.99948 v 11.09735 c 0,1.11081 0.892508,1.99949 2.008138,1.99949 h 24.148458 c 1.11564,0 2.00814,-0.88868 2.00814,-1.99949 z"
     id="path23-1-9"
     sodipodi:nodetypes="cssccsscccssccsscc" /><path
     style="display:inline;fill:#ffd8b2;fill-opacity:1;stroke:#000000;stroke-width:3.3292;stroke-linecap:round;stroke-linejoin:round;stroke-miterlimit:4;stroke-dasharray:none;stroke-opacity:1;paint-order:stroke fill markers"
     d="m 144.65243,169.42977 c 0,2.66599 -2.27176,4.10096 -4.9088,4.88765 l -18.5998,5.54867 c -2.97772,0.8883 -6.01853,-2.22166 -6.01853,-4.88764 V 163.8811 c 0,-2.66597 2.75351,-5.86163 6.01853,-4.88762 l 18.5998,5.54866 c 2.63704,0.78669 4.9088,2.22166 4.9088,4.88763 z m -2.90066,0 c 0,-1.11082 -0.92083,-1.74963 -2.00814,-1.99948 l -18.5998,-5.54867 c -1.85534,-0.55347 -3.11788,0.88866 -3.11788,1.99948 v 11.09735 c 0,1.11081 1.46022,2.49399 3.11788,1.99949 l 18.5998,-5.54867 c 1.08731,-0.24984 2.00814,-0.88868 2.00814,-1.9995 z"
     id="path23-1-9-7"
     sodipodi:nodetypes="cssccsscscsssscs" /><rect
     style="display:inline;opacity:0.5;fill:#000000;fill-opacity:1;stroke:none;stroke-width:1.6646;stroke-linecap:round;stroke-linejoin:round;stroke-miterlimit:4;stroke-dasharray:none;stroke-opacity:1;paint-order:stroke fill markers"
     id="rect38642-7"
     width="40.255474"
     height="10.24336"
     x="109.73893"
     y="182.39297"
     ry="1.1725925"
     rx="1.0931113" /><text
     xml:space="preserve"
     id="text127462-9"
     style="font-style:normal;font-variant:normal;font-weight:bold;font-stretch:normal;font-size:8px;line-height:1.25;font-family:Comfortaa;-inkscape-font-specification:'Comfortaa Bold';font-variant-ligatures:normal;font-variant-caps:normal;font-variant-numeric:normal;font-variant-east-asian:normal;text-align:center;text-decoration-color:#000000;letter-spacing:0px;word-spacing:0px;white-space:pre;shape-inside:url(#rect127464-0-5);display:inline;fill:#ffd8b2;fill-opacity:1;stroke:none;stroke-width:1.5;stroke-linecap:round;stroke-linejoin:round;stroke-miterlimit:4;stroke-dasharray:none;stroke-opacity:1;paint-order:stroke fill markers;stop-color:#000000"
     x="10.010417"
     y="0"
     transform="matrix(1.1097337,0,0,1.1097337,26.459826,19.313621)"><tspan
       x="79.017693"
       y="154.66483"
       id="tspan1177">PAUSE</tspan></text><rect
     style="display:inline;opacity:0.5;fill:#000000;fill-opacity:1;stroke:none;stroke-width:1.6646;stroke-linecap:round;stroke-linejoin:round;stroke-miterlimit:4;stroke-dasharray:none;stroke-opacity:1;paint-order:stroke fill markers"
     id="rect38642-7-0"
     width="40.255474"
     height="10.24336"
     x="151.94762"
     y="181.33961"
     ry="1.1725925"
     rx="1.0931113" /><text
     xml:space="preserve"
     id="text127462-9-2"
     style="font-style:normal;font-variant:normal;font-weight:bold;font-stretch:normal;font-size:8px;line-height:1.25;font-family:Comfortaa;-inkscape-font-specification:'Comfortaa Bold';font-variant-ligatures:normal;font-variant-caps:normal;font-variant-numeric:normal;font-variant-east-asian:normal;text-align:center;text-decoration-color:#000000;letter-spacing:0px;word-spacing:0px;white-space:pre;shape-inside:url(#rect127464-0-5-6);display:inline;fill:#ffd8b2;fill-opacity:1;stroke:none;stroke-width:1.5;stroke-linecap:round;stroke-linejoin:round;stroke-miterlimit:4;stroke-dasharray:none;stroke-opacity:1;paint-order:stroke fill markers;stop-color:#000000"
     x="10.010417"
     y="0"
     transform="matrix(1.1097337,0,0,1.1097337,68.668515,18.286892)"><tspan
       x="80.113693"
       y="154.66483"
       id="tspan1179">START</tspan></text></g><g
   inkscape:groupmode="layer"
   id="layer7"
   inkscape:label="Face buttons"
   style="display:inline"><path
     style="display:inline;fill:#ffd8b2;fill-opacity:1;stroke:#000000;stroke-width:3.3292;stroke-linecap:round;stroke-linejoin:round;stroke-miterlimit:4;stroke-dasharray:none;stroke-opacity:1;paint-order:stroke fill markers"
     d="m 203.43892,148.14232 c -9.74319,0 -17.70138,-7.9239 -17.70138,-17.62511 0,-9.70123 7.95819,-17.62512 17.70138,-17.62512 9.7432,0 17.70139,7.92389 17.70139,17.62512 0,9.70121 -7.95819,17.62511 -17.70139,17.62511 z m 0,-32.28802 c -8.10693,0 -14.72636,6.5909 -14.72636,14.66291 0,8.07201 6.61943,14.6629 14.72636,14.6629 8.10695,0 14.72637,-6.59089 14.72637,-14.6629 0,-8.07201 -6.61942,-14.66291 -14.72637,-14.66291 z"
     id="path43-1-81" /><path
     style="display:inline;opacity:0.5;fill:#ffd8b2;fill-opacity:1;stroke:#000000;stroke-width:3.3292;stroke-linecap:round;stroke-linejoin:round;stroke-miterlimit:4;stroke-dasharray:none;stroke-opacity:1;paint-order:stroke fill markers"
     d="m 172.07535,116.91389 c -9.74318,0 -17.70138,-7.9239 -17.70138,-17.625124 0,-9.70121 7.9582,-17.62511 17.70138,-17.62511 9.7432,0 17.70139,7.9239 17.70139,17.62511 0,9.701224 -7.95819,17.625124 -17.70139,17.625124 z m 0,-32.288024 c -8.10693,0 -14.72636,6.5909 -14.72636,14.6629 0,8.072014 6.61943,14.662924 14.72636,14.662924 8.10695,0 14.72638,-6.59091 14.72638,-14.662924 0,-8.072 -6.61943,-14.6629 -14.72638,-14.6629 z"
     id="path43-1-7" /><path
     style="display:inline;fill:#ffd8b2;fill-opacity:1;stroke:#000000;stroke-width:3.3292;stroke-linecap:round;stroke-linejoin:round;stroke-miterlimit:4;stroke-dasharray:none;stroke-opacity:1;paint-order:stroke fill markers"
     d="m 172.07535,179.37077 c -9.74318,0 -17.70138,-7.9239 -17.70138,-17.62512 0,-9.70122 7.9582,-17.62512 17.70138,-17.62512 9.7432,0 17.70139,7.9239 17.70139,17.62512 0,9.70122 -7.95819,17.62512 -17.70139,17.62512 z m 0,-32.28803 c -8.10693,0 -14.72636,6.59089 -14.72636,14.66291 0,8.072 6.61943,14.6629 14.72636,14.6629 8.10695,0 14.72638,-6.5909 14.72638,-14.6629 0,-8.07202 -6.61943,-14.66291 -14.72638,-14.66291 z"
     id="path43-1-81-1" /><path
     style="display:inline;opacity:0.5;fill:#ffd8b2;fill-opacity:1;stroke:#000000;stroke-width:3.3292;stroke-linecap:round;stroke-linejoin:round;stroke-miterlimit:4;stroke-dasharray:none;stroke-opacity:1;paint-order:stroke fill markers"
     d="m 140.71177,148.14232 c -9.74318,0 -17.70138,-7.9239 -17.70138,-17.62511 0,-9.70123 7.9582,-17.62512 17.70138,-17.62512 9.7432,0 17.70139,7.92389 17.70139,17.62512 0,9.70121 -7.95819,17.62511 -17.70139,17.62511 z m 0,-32.28802 c -8.10693,0 -14.72636,6.5909 -14.72636,14.66291 0,8.07201 6.61943,14.6629 14.72636,14.6629 8.10695,0 14.72638,-6.59089 14.72638,-14.6629 0,-8.07201 -6.61943,-14.66291 -14.72638,-14.66291 z"
     id="path43-1" /><text
     xml:space="preserve"
     id="text83349-0"
     style="font-style:normal;font-variant:normal;font-weight:normal;font-stretch:normal;font-size:21.3333px;line-height:1.25;font-family:Comfortaa;-inkscape-font-specification:'Comfortaa, Normal';font-variant-ligatures:normal;font-variant-position:normal;font-variant-caps:normal;font-variant-numeric:normal;font-variant-alternates:normal;font-variant-east-asian:normal;text-indent:0;text-align:center;text-decoration-line:none;text-decoration-style:solid;text-decoration-color:#000000;letter-spacing:0px;word-spacing:0px;text-transform:none;writing-mode:lr-tb;direction:ltr;text-orientation:mixed;dominant-baseline:auto;baseline-shift:baseline;white-space:pre;shape-inside:url(#rect83351-3-9);shape-padding:0;shape-margin:0;inline-size:0;display:inline;fill:#ffd8b2;fill-opacity:1;stroke:#000000;stroke-width:3;stroke-linecap:round;stroke-linejoin:round;stroke-miterlimit:4;stroke-dasharray:none;stroke-dashoffset:0;stroke-opacity:1;paint-order:stroke fill markers;stop-color:#000000"
     x="7.8984375"
     y="0"
     transform="matrix(1.1097337,0,0,1.1097337,10.933916,31.941619)"><tspan
       x="141.19752"
       y="125.30995"
       id="tspan1181">1</tspan></text><text
     xml:space="preserve"
     id="text83349-6"
     style="font-style:normal;font-variant:normal;font-weight:normal;font-stretch:normal;font-size:21.3333px;line-height:1.25;font-family:Comfortaa;-inkscape-font-specification:'Comfortaa, Normal';font-variant-ligatures:normal;font-variant-position:normal;font-variant-caps:normal;font-variant-numeric:normal;font-variant-alternates:normal;font-variant-east-asian:normal;text-indent:0;text-align:center;text-decoration-line:none;text-decoration-style:solid;text-decoration-color:#000000;letter-spacing:0px;word-spacing:0px;text-transform:none;writing-mode:lr-tb;direction:ltr;text-orientation:mixed;dominant-baseline:auto;baseline-shift:baseline;white-space:pre;shape-inside:url(#rect83351-9-2);shape-padding:0;shape-margin:0;inline-size:0;display:inline;fill:#ffd8b2;fill-opacity:1;stroke:#000000;stroke-width:3;stroke-linecap:round;stroke-linejoin:round;stroke-miterlimit:4;stroke-dasharray:none;stroke-dashoffset:0;stroke-opacity:1;paint-order:stroke fill markers;stop-color:#000000"
     x="7.8984375"
     y="0"
     transform="matrix(1.1097337,0,0,1.1097337,42.272847,0.28648695)"><tspan
       x="139.03218"
       y="125.30995"
       id="tspan1183">2</tspan></text></g><g
   inkscape:groupmode="layer"
   id="layer9"
   inkscape:label="D-pad"
   style="display:inline"><path
     style="display:inline;fill:#ffd8b2;fill-opacity:1;stroke:#000000;stroke-width:3.3292;stroke-linecap:round;stroke-linejoin:round;stroke-miterlimit:4;stroke-dasharray:none;stroke-opacity:1;paint-order:stroke fill markers"
     d="M 52.650058,169.65532 H 32.940535 c -2.751896,0 -4.908787,-2.22164 -4.908787,-4.88763 V 145.66148 H 8.8428535 c -2.751897,0 -4.983164,-2.22166 -4.983164,-4.96169 v -20.36516 c 0,-2.74004 2.231267,-4.96169 4.983164,-4.96169 H 28.031748 V 96.266726 c 0,-2.74004 2.231266,-4.88764 4.908787,-4.88764 h 19.709523 c 2.751897,0 4.908789,2.22165 4.908789,4.88764 v 19.106214 h 19.188894 c 2.751897,0 4.983163,2.22165 4.983163,4.96169 v 20.36516 c 0,2.74003 -2.231267,4.96169 -4.983163,4.96169 H 57.558847 v 19.10621 c 0,2.66599 -2.156892,4.88763 -4.908789,4.88763 z M 8.8428535,118.33515 c -1.115634,0 -2.008141,0.88866 -2.008141,1.99948 v 20.36516 c 0,1.11082 0.892507,1.99948 2.008141,1.99948 H 28.254875 c 0.520629,0 1.33876,0.074 1.933764,0.6665 0.52063,0.44434 0.743756,1.18488 0.743756,1.99948 v 19.40244 c 0,1.11083 0.892505,1.99948 2.00814,1.99948 h 19.709523 c 1.115634,0 2.008141,-0.88865 2.008141,-1.99948 v -19.4765 c 0,-0.74054 0.297502,-1.40703 0.743756,-1.85137 0.446252,-0.44434 1.115632,-0.66649 1.933764,-0.66649 h 19.412022 c 1.115634,0 2.008139,-0.88867 2.008139,-1.9995 v -20.36515 c 0,-1.11082 -0.892505,-1.99948 -2.008139,-1.99948 H 57.261344 c -0.743757,0 -1.413137,-0.22217 -1.933765,-0.6665 -0.446253,-0.44432 -0.743756,-1.11082 -0.743756,-1.85138 V 96.488896 c 0,-1.11084 -0.892506,-1.9995 -2.00814,-1.9995 H 32.86616 v 0 c -0.52063,0 -1.04126,0.22217 -1.413137,0.59244 -0.371878,0.37028 -0.595004,0.88867 -0.595004,1.40706 v 19.254324 c 0,0.51839 0,1.18489 -0.520628,1.85137 -0.595005,0.6665 -1.413136,0.74056 -2.082516,0.74056 z"
     id="path23-1"
     inkscape:export-filename="C:\All\Batocera\batocera-assets\controller-overlays\generic.png"
     inkscape:export-xdpi="96"
     inkscape:export-ydpi="96"
     sodipodi:nodetypes="ssscsssscsssscsssscsscsssscssssssssssssscssscsssscscc" /><text
     xml:space="preserve"
     id="text83349-9"
     style="font-style:normal;font-variant:normal;font-weight:normal;font-stretch:normal;font-size:17.3333px;line-height:1.25;font-family:Comfortaa;-inkscape-font-specification:'Comfortaa, Normal';font-variant-ligatures:normal;font-variant-position:normal;font-variant-caps:normal;font-variant-numeric:normal;font-variant-alternates:normal;font-variant-east-asian:normal;text-indent:0;text-align:center;text-decoration-line:none;text-decoration-style:solid;text-decoration-color:#000000;letter-spacing:1px;word-spacing:0px;text-transform:none;writing-mode:lr-tb;direction:ltr;text-orientation:mixed;dominant-baseline:auto;baseline-shift:baseline;white-space:pre;shape-inside:url(#rect83351-4-1);shape-padding:0;shape-margin:0;inline-size:0;display:inline;fill:#ffd8b2;fill-opacity:1;stroke:#000000;stroke-width:3;stroke-linecap:round;stroke-linejoin:round;stroke-miterlimit:4;stroke-dasharray:none;stroke-dashoffset:0;stroke-opacity:1;paint-order:stroke fill markers;stop-color:#000000"
     x="7.8984375"
     y="0"
     transform="matrix(1.1097337,0,0,1.1097337,-138.43279,3.0301409)"><tspan
       x="133.20184"
       y="121.64941"
       id="tspan1185">D-PAD</tspan></text></g><g
   inkscape:groupmode="layer"
   id="layer10"
   inkscape:label="Dual-sticks"
   style="display:inline"><path
     style="color:#000000;display:inline;fill:#ffd8b2;stroke:#000000;stroke-width:3.3292;stroke-linecap:round;stroke-linejoin:round;stroke-miterlimit:4;stroke-dasharray:none;stroke-opacity:1;paint-order:stroke fill markers"
     d="m 55.955579,193.00162 c -19.888342,0 -36.0425,16.15417 -36.0425,36.04251 0,19.88835 16.154158,36.04249 36.0425,36.04249 19.888345,0 36.042505,-16.15414 36.042505,-36.04249 0,-19.88834 -16.15416,-36.04251 -36.042505,-36.04251 z m 0,2.89138 c 18.326014,0 33.151127,14.82512 33.151127,33.15113 0,18.32601 -14.825114,33.15112 -33.151127,33.15112 -18.32601,0 -33.151124,-14.82511 -33.151124,-33.15112 0,-18.32601 14.825114,-33.15113 33.151124,-33.15113 z"
     id="circle74" /><path
     style="color:#000000;display:inline;fill:#ffd8b2;stroke:#000000;stroke-width:3.3292;stroke-linecap:round;stroke-linejoin:round;stroke-miterlimit:4;stroke-dasharray:none;stroke-opacity:1;paint-order:stroke fill markers"
     d="m 55.955579,204.80771 c -13.368257,0 -24.236408,10.86816 -24.236408,24.23642 0,13.36825 10.868151,24.2364 24.236408,24.2364 13.36826,0 24.236411,-10.86815 24.236411,-24.2364 0,-13.36826 -10.868151,-24.23642 -24.236411,-24.23642 z m 0,2.89138 c 11.80592,0 21.345034,9.53912 21.345034,21.34504 0,11.80591 -9.539114,21.34502 -21.345034,21.34502 -11.805918,0 -21.345033,-9.53911 -21.345033,-21.34502 0,-11.80592 9.539115,-21.34504 21.345033,-21.34504 z"
     id="circle76" /><path
     style="color:#000000;display:inline;opacity:0.5;fill:#ffd8b2;fill-opacity:1;stroke:#000000;stroke-width:3.3292;stroke-linecap:round;stroke-linejoin:round;stroke-miterlimit:4;stroke-dasharray:none;stroke-opacity:1;paint-order:stroke fill markers"
     d="m 157.79965,204.80771 c -13.36825,0 -24.23641,10.86816 -24.23641,24.23642 0,13.36825 10.86816,24.2364 24.23641,24.2364 13.36827,0 24.23641,-10.86815 24.23641,-24.2364 0,-13.36826 -10.86814,-24.23642 -24.23641,-24.23642 z m 0,2.89138 c 11.80593,0 21.34503,9.53912 21.34503,21.34504 0,11.80591 -9.5391,21.34502 -21.34503,21.34502 -11.80592,0 -21.3472,-9.53911 -21.3472,-21.34502 0,-11.80592 9.54128,-21.34504 21.3472,-21.34504 z"
     id="circle78" /><path
     style="color:#000000;display:inline;opacity:0.5;fill:#ffd8b2;fill-opacity:1;stroke:#000000;stroke-width:3.3292;stroke-linecap:round;stroke-linejoin:round;stroke-miterlimit:4;stroke-dasharray:none;stroke-opacity:1;paint-order:stroke fill markers"
     d="m 157.79965,193.00162 c -19.88835,0 -36.0425,16.15417 -36.0425,36.04251 0,19.88835 16.15415,36.04249 36.0425,36.04249 19.88835,0 36.04033,-16.15414 36.04033,-36.04249 0,-19.88834 -16.15198,-36.04251 -36.04033,-36.04251 z m 0,2.89138 c 18.32602,0 33.15114,14.82512 33.15114,33.15113 0,18.32601 -14.82512,33.15113 -33.15114,33.15112 -18.326,0 -33.15112,-14.82511 -33.15112,-33.15112 0,-18.32601 14.82512,-33.15113 33.15112,-33.15113 z"
     id="circle80" /><rect
     style="display:inline;opacity:0.5;fill:#000000;fill-opacity:1;stroke:none;stroke-width:1.66459;stroke-linecap:round;stroke-linejoin:round;stroke-miterlimit:4;stroke-dasharray:none;stroke-opacity:1;paint-order:stroke fill markers"
     id="rect38642-2-0-9"
     width="60.23172"
     height="10.24336"
     x="25.83972"
     y="267.39108"
     ry="1.1725925"
     rx="1.6355532" /><text
     xml:space="preserve"
     id="text127462-3"
     style="font-style:normal;font-variant:normal;font-weight:bold;font-stretch:normal;font-size:8px;line-height:1.25;font-family:Comfortaa;-inkscape-font-specification:'Comfortaa Bold';font-variant-ligatures:normal;font-variant-caps:normal;font-variant-numeric:normal;font-variant-east-asian:normal;text-align:center;text-decoration-color:#000000;letter-spacing:0px;word-spacing:0px;white-space:pre;shape-inside:url(#rect127464-7-2);display:inline;fill:#ffd8b2;fill-opacity:1;stroke:none;stroke-width:1.5;stroke-linecap:round;stroke-linejoin:round;stroke-miterlimit:4;stroke-dasharray:none;stroke-opacity:1;paint-order:stroke fill markers;stop-color:#000000"
     x="10.010417"
     y="0"
     transform="matrix(1.1097337,0,0,1.1097337,-65.495553,104.3428)"><tspan
       x="96.331772"
       y="154.66483"
       id="tspan1187">D-PAD</tspan></text></g><g
   inkscape:groupmode="layer"
   id="layer4"
   inkscape:label="Shoulder buttons (1st tier)"><path
     style="display:inline;opacity:0.5;fill:#ffd8b2;fill-opacity:1;stroke:#000000;stroke-width:3.3292;stroke-linecap:round;stroke-linejoin:round;stroke-miterlimit:4;stroke-dasharray:none;stroke-opacity:1;paint-order:stroke fill markers"
     d="m 77.351215,70.309666 c 0,2.66598 -2.1569,4.88763 -4.908791,4.88763 h -42.76166 c -5.736335,0 -10.394459,2.50055 -13.061426,3.54101 -1.11901,0.43655 -2.929829,0.10287 -4.02888,-0.70376 -1.211922,-0.88948 -2.072367,-2.28981 -2.072367,-4.00557 V 54.235337 c 0,-1.625991 0.826643,-3.131836 2.054938,-3.980544 3.995183,-2.76053 11.285667,-5.346021 17.107735,-5.346021 h 42.76166 c 2.751891,0 4.908791,2.221654 4.908791,4.887634 z M 74.450561,49.796403 c 0,-1.110821 -0.892504,-1.999485 -2.008136,-1.999485 H 29.680764 c -5.559276,0 -11.66616,2.633119 -15.360062,4.765793 -0.517495,0.298777 -0.906297,1.005624 -0.901965,1.67263 v 19.793635 c 0,0.58835 0.266594,1.17481 0.70332,1.525 0.477264,0.38269 1.156771,0.60817 1.793741,0.38807 2.914824,-1.00719 6.984081,-3.71424 14.285154,-3.70225 l 42.241472,0.0694 c 1.115631,0.002 2.008137,-0.88867 2.008137,-1.99949 z"
     id="path23-1-9-3"
     sodipodi:nodetypes="csssascssscccssscsassscc" /><path
     style="display:inline;opacity:0.5;fill:#ffd8b2;fill-opacity:1;stroke:#000000;stroke-width:3.3292;stroke-linecap:round;stroke-linejoin:round;stroke-miterlimit:4;stroke-dasharray:none;stroke-opacity:1;paint-order:stroke fill markers"
     d="m 147.63927,70.309666 c 0,2.66598 2.15691,4.88763 4.90881,4.88763 h 42.76164 c 5.73634,0 10.39448,2.50055 13.06144,3.54101 1.11901,0.43655 2.92982,0.10287 4.02888,-0.70376 1.21192,-0.88948 2.07237,-2.28981 2.07237,-4.00557 V 54.235337 c 0,-1.625991 -0.82665,-3.131836 -2.05494,-3.980544 -3.99518,-2.76053 -11.28567,-5.346021 -17.10775,-5.346021 h -42.76164 c -2.7519,0 -4.90881,2.221654 -4.90881,4.887634 z m 2.90066,-20.513263 c 0,-1.110821 0.8925,-1.999485 2.00815,-1.999485 h 42.76165 c 5.55929,0 11.66618,2.633119 15.36007,4.765793 0.5175,0.298777 0.90629,1.005624 0.90196,1.67263 v 19.793635 c 0,0.58835 -0.26659,1.17481 -0.70332,1.525 -0.47727,0.38269 -1.15676,0.60817 -1.79373,0.38807 -2.91483,-1.00719 -6.98408,-3.71424 -14.28515,-3.70225 l -42.24148,0.0694 c -1.11565,0.002 -2.00815,-0.88867 -2.00815,-1.99949 z"
     id="path23-1-9-3-6"
     sodipodi:nodetypes="csssascssscccssscsassscc" /></g><g
   inkscape:groupmode="layer"
   id="layer6"
   inkscape:label="Shoulder triggers (2nd tier)"><path
     style="display:inline;opacity:0.5;fill:#ffd8b2;fill-opacity:1;stroke:#000000;stroke-width:3.3292;stroke-linecap:round;stroke-linejoin:round;stroke-miterlimit:4;stroke-dasharray:none;stroke-opacity:1;paint-order:stroke fill markers"
     d="m 77.351215,34.747894 c 0,2.66598 -2.1569,4.887634 -4.908791,4.887634 h -42.76166 c -5.736335,0 -10.394459,1.987766 -13.061426,3.028223 -1.11901,0.436556 -2.929829,0.102873 -4.02888,-0.70376 -1.211923,-0.889476 -2.072367,-2.289808 -2.072367,-4.005567 0,-21.258267 9.826987,-34.1560881 61.924333,-34.1560881 2.751891,0 4.908791,2.221653 4.908791,4.887633 z M 74.450561,8.6859659 c 0,-1.110821 -0.892504,-1.999485 -2.008136,-1.999485 -47.658431,0 -59.023688,11.3328261 -59.023688,31.2679471 0,0.588349 0.266594,1.174806 0.70332,1.524997 0.477264,0.382692 1.156771,0.608172 1.793741,0.388071 2.914824,-1.007191 6.984081,-3.20146 14.285154,-3.189472 l 42.241473,0.06936 c 1.11563,0.0019 2.008136,-0.888663 2.008136,-1.999485 z"
     id="path23-1-9-3-3"
     sodipodi:nodetypes="csssasscccssassscc" /><path
     style="display:inline;opacity:0.5;fill:#ffd8b2;fill-opacity:1;stroke:#000000;stroke-width:3.3292;stroke-linecap:round;stroke-linejoin:round;stroke-miterlimit:4;stroke-dasharray:none;stroke-opacity:1;paint-order:stroke fill markers"
     d="m 147.63929,34.747894 c 0,2.66598 2.1569,4.887634 4.90878,4.887634 h 42.76166 c 5.73634,0 10.39447,1.987766 13.06143,3.028223 1.11901,0.436556 2.92982,0.102873 4.02889,-0.70376 1.21191,-0.889476 2.07236,-2.289808 2.07236,-4.005567 0,-21.258267 -9.827,-34.1560881 -61.92434,-34.1560881 -2.75188,0 -4.90878,2.221653 -4.90878,4.887634 z m 2.90065,-26.0619271 c 0,-1.110822 0.8925,-1.999486 2.00813,-1.999486 47.65843,0 59.02369,11.3328261 59.02369,31.2679471 0,0.588349 -0.26659,1.174806 -0.70332,1.524997 -0.47727,0.382692 -1.15676,0.608172 -1.79374,0.388071 -2.91482,-1.007191 -6.98407,-3.20146 -14.28514,-3.189472 l -42.24149,0.06936 c -1.11563,0.0019 -2.00813,-0.888663 -2.00813,-1.999485 z"
     id="path23-1-9-3-3-88"
     sodipodi:nodetypes="csssasscccssassscc" /></g></svg>
