<?xml version="1.0" encoding="UTF-8" standalone="no"?>
<!-- Generator: Adobe Illustrator 24.0.1, SVG Export Plug-In . SVG Version: 6.00 Build 0)  -->

<svg
   version="1.1"
   id="Layer_3"
   x="0px"
   y="0px"
   viewBox="0 0 225 280"
   xml:space="preserve"
   sodipodi:docname="megadrive.svg"
   inkscape:version="1.1.1 (3bf5ae0d25, 2021-09-20)"
   inkscape:export-filename="C:\All\Batocera\batocera-controller-overlays\megadrive.png"
   inkscape:export-xdpi="96"
   inkscape:export-ydpi="96"
   width="225"
   height="280"
   xmlns:inkscape="http://www.inkscape.org/namespaces/inkscape"
   xmlns:sodipodi="http://sodipodi.sourceforge.net/DTD/sodipodi-0.dtd"
   xmlns="http://www.w3.org/2000/svg"
   xmlns:svg="http://www.w3.org/2000/svg"><defs
   id="defs75"><inkscape:path-effect
     effect="envelope"
     id="path-effect76373"
     is_visible="true"
     lpeversion="1"
     yy="true"
     xx="true"
     bendpath1="M 23.537096,16.621557 H 86.140921"
     bendpath2="M 86.140921,16.621557 V 39.916004"
     bendpath3="M 23.537096,39.916004 H 86.140921"
     bendpath4="M 23.537096,16.621557 V 39.916004" /><inkscape:path-effect
     effect="lattice2"
     gridpoint0="23.537096,16.621557"
     gridpoint1="86.140921,16.621557"
     gridpoint2="23.537096,39.916004"
     gridpoint3="86.140921,39.916004"
     gridpoint4="39.188052,16.621557"
     gridpoint5="70.489964,16.621557"
     gridpoint6="39.188052,39.916004"
     gridpoint7="70.489964,39.916004"
     gridpoint8x9="54.839008,16.621557"
     gridpoint10x11="54.839008,39.916004"
     gridpoint12="23.537096,22.445169"
     gridpoint13="86.140921,22.445169"
     gridpoint14="23.537096,34.092392"
     gridpoint15="86.140921,34.092392"
     gridpoint16="39.188052,22.445169"
     gridpoint17="70.489964,22.445169"
     gridpoint18="39.188052,34.092392"
     gridpoint19="70.489964,34.092392"
     gridpoint20x21="54.839008,22.445169"
     gridpoint22x23="54.839008,34.092392"
     gridpoint24x26="23.537096,28.268781"
     gridpoint25x27="86.140921,28.268781"
     gridpoint28x30="39.188052,28.268781"
     gridpoint29x31="70.489964,28.268781"
     gridpoint32x33x34x35="54.839008,28.268781"
     id="path-effect76371"
     is_visible="true"
     lpeversion="1"
     horizontal_mirror="false"
     vertical_mirror="false"
     perimetral="true"
     live_update="true" /><inkscape:path-effect
     effect="attach_path"
     id="path-effect76369"
     lpeversion="1"
     endcurveend="11.768548,10.555296 , -11.059262,26.691553"
     is_visible="true"
     startpath=""
     startposition="0"
     startcurvestart="0,0 , 20,0"
     startcurveend="23.658422,11.889874 , 28.614092,-5.9449372"
     endpath=""
     endposition="0"
     endcurvestart="0,0 , 20,0" /><inkscape:path-effect
     effect="envelope"
     id="path-effect76348"
     is_visible="true"
     lpeversion="1"
     yy="true"
     xx="true"
     bendpath1="M 23.537096,16.621557 61.997198,10.797945"
     bendpath2="M 86.140921,16.621557 V 39.916004"
     bendpath3="M 23.537096,42.342509 86.140921,39.916004"
     bendpath4="M 23.537096,16.621557 V 50.592625"
     bendpath4-nodetypes="cc"
     bendpath3-nodetypes="cc"
     bendpath1-nodetypes="cc" /><rect
     x="76.739281"
     y="147.34442"
     width="33.36795"
     height="20.843538"
     id="rect127464" /><rect
     x="128.2495"
     y="105.78697"
     width="33.960148"
     height="33.738186"
     id="rect83351" /><rect
     x="127.67705"
     y="105.52645"
     width="34.594753"
     height="33.972546"
     id="rect34999" /><rect
     x="161.5537"
     y="139.78229"
     width="33.151905"
     height="33.894112"
     id="rect24475" /><rect
     x="128.2495"
     y="105.78697"
     width="33.960148"
     height="33.738186"
     id="rect83351-3" /><rect
     x="128.2495"
     y="105.78697"
     width="33.960148"
     height="33.738186"
     id="rect83351-9" /><rect
     x="128.2495"
     y="105.78697"
     width="33.960148"
     height="33.738186"
     id="rect83351-5" /><rect
     x="76.739281"
     y="147.34442"
     width="32.54847"
     height="20.780947"
     id="rect127464-0" /><rect
     x="128.2495"
     y="105.78697"
     width="69.439232"
     height="31.708288"
     id="rect83351-4" /><rect
     x="128.2495"
     y="105.78697"
     width="33.960148"
     height="33.738186"
     id="rect83351-52" /><rect
     x="128.2495"
     y="105.78697"
     width="33.960148"
     height="33.738186"
     id="rect83351-52-6" /><rect
     x="128.2495"
     y="105.78697"
     width="33.960148"
     height="33.738186"
     id="rect83351-37" /><rect
     x="128.2495"
     y="105.78697"
     width="33.960148"
     height="33.738186"
     id="rect83351-3-9" /><rect
     x="128.2495"
     y="105.78697"
     width="33.960148"
     height="33.738186"
     id="rect83351-9-2" /><rect
     x="128.2495"
     y="105.78697"
     width="33.960148"
     height="33.738186"
     id="rect83351-5-7" /><rect
     x="76.739281"
     y="147.34442"
     width="33.36795"
     height="20.843538"
     id="rect127464-7" /><rect
     x="76.739281"
     y="147.34442"
     width="32.54847"
     height="20.780947"
     id="rect127464-0-5" /><rect
     x="128.2495"
     y="105.78697"
     width="69.439232"
     height="31.708288"
     id="rect83351-4-1" /><rect
     x="128.2495"
     y="105.78697"
     width="33.960148"
     height="33.738186"
     id="rect83351-52-67" /><rect
     x="128.2495"
     y="105.78697"
     width="33.960148"
     height="33.738186"
     id="rect83351-52-6-8" /><rect
     x="128.2495"
     y="105.78697"
     width="69.439232"
     height="31.708288"
     id="rect83351-4-1-4" /><rect
     x="128.2495"
     y="105.78697"
     width="69.439232"
     height="31.708288"
     id="rect83351-4-1-4-4" /><rect
     x="128.2495"
     y="105.78697"
     width="69.439232"
     height="31.708288"
     id="rect83351-4-1-4-9" /><rect
     x="128.2495"
     y="105.78697"
     width="69.439232"
     height="31.708288"
     id="rect83351-4-1-4-4-4" /><rect
     x="76.739281"
     y="147.34442"
     width="65.207237"
     height="14.330957"
     id="rect127464-7-2" /><rect
     x="76.739281"
     y="147.34442"
     width="65.207237"
     height="14.330957"
     id="rect127464-7-2-8" /><rect
     x="128.2495"
     y="105.78697"
     width="33.960148"
     height="33.738186"
     id="rect83351-9-2-3" /><rect
     x="128.2495"
     y="105.78697"
     width="33.960148"
     height="33.738186"
     id="rect83351-37-9" /><rect
     x="76.739281"
     y="147.34442"
     width="33.36795"
     height="20.843538"
     id="rect127464-7-0" /><rect
     x="76.739281"
     y="147.34442"
     width="65.207237"
     height="14.330957"
     id="rect127464-7-2-9" /><rect
     x="76.739281"
     y="147.34442"
     width="65.207237"
     height="14.330957"
     id="rect127464-7-2-8-9" /><rect
     x="76.739281"
     y="147.34442"
     width="32.54847"
     height="20.780947"
     id="rect127464-0-5-8" /><rect
     x="128.2495"
     y="105.78697"
     width="33.960148"
     height="33.738186"
     id="rect83351-37-0" /><rect
     x="128.2495"
     y="105.78697"
     width="33.960148"
     height="33.738186"
     id="rect83351-3-9-2" /><rect
     x="128.2495"
     y="105.78697"
     width="33.960148"
     height="33.738186"
     id="rect83351-9-2-30" /><rect
     x="128.2495"
     y="105.78697"
     width="33.960148"
     height="33.738186"
     id="rect83351-5-7-6" /><rect
     x="128.2495"
     y="105.78697"
     width="69.439232"
     height="31.708288"
     id="rect83351-4-1-43" /><rect
     x="128.2495"
     y="105.78697"
     width="69.439232"
     height="31.708288"
     id="rect83351-4-1-4-5" /><rect
     x="128.2495"
     y="105.78697"
     width="69.439232"
     height="31.708288"
     id="rect83351-4-1-4-9-3" /><rect
     x="128.2495"
     y="105.78697"
     width="33.960148"
     height="33.738186"
     id="rect83351-52-67-6" /><rect
     x="128.2495"
     y="105.78697"
     width="33.960148"
     height="33.738186"
     id="rect83351-52-6-8-3" /><rect
     x="128.2495"
     y="105.78697"
     width="69.439232"
     height="31.708288"
     id="rect83351-4-1-4-4-0" /><rect
     x="128.2495"
     y="105.78697"
     width="69.439232"
     height="31.708288"
     id="rect83351-4-1-4-4-4-9" /></defs><sodipodi:namedview
   id="namedview73"
   pagecolor="#ffffff"
   bordercolor="#666666"
   borderopacity="1.0"
   inkscape:pageshadow="2"
   inkscape:pageopacity="0"
   inkscape:pagecheckerboard="true"
   showgrid="true"
   inkscape:current-layer="layer2"
   inkscape:snap-bbox="true"
   inkscape:bbox-nodes="true"
   inkscape:bbox-paths="true"
   inkscape:object-nodes="false"
   inkscape:snap-others="true"
   inkscape:snap-bbox-edge-midpoints="true"
   inkscape:snap-bbox-midpoints="false"
   inkscape:object-paths="false"
   inkscape:snap-smooth-nodes="true"
   inkscape:snap-nodes="false"><inkscape:grid
     type="xygrid"
     id="grid1096" /></sodipodi:namedview>














<g
   inkscape:groupmode="layer"
   id="layer2"
   inkscape:label="Backplate"
   style="display:inline"><rect
     style="display:inline;fill:#000000;fill-opacity:0.25;stroke-width:10.7827;stroke-linecap:round;stroke-linejoin:round"
     id="rect937"
     width="223"
     height="278"
     x="1"
     y="1"
     rx="6.977437"
     ry="6.9689116" /></g><g
   inkscape:groupmode="layer"
   id="layer8"
   inkscape:label="Start/Select"><rect
     style="display:inline;opacity:0.5;fill:#000000;fill-opacity:1;stroke:none;stroke-width:1.66336;stroke-linecap:round;stroke-linejoin:round;stroke-miterlimit:4;stroke-dasharray:none;stroke-opacity:1;paint-order:stroke fill markers"
     id="rect38642"
     width="40.225437"
     height="10.235719"
     x="64.739281"
     y="182.39679"
     ry="1.1717176"
     rx="1.0922958" /><path
     style="display:inline;fill:#ffd8b2;fill-opacity:1;stroke:#000000;stroke-width:3.32672;stroke-linecap:round;stroke-linejoin:round;stroke-miterlimit:4;stroke-dasharray:none;stroke-opacity:1;paint-order:stroke fill markers"
     d="m 101.84452,174.9461 c 0,2.66399 -2.15528,4.88398 -4.905121,4.88398 H 72.808955 c -2.749844,0 -4.905126,-2.21999 -4.905126,-4.88398 v -11.08906 c 0,-2.66399 2.155282,-4.88399 4.905126,-4.88399 h 24.130444 c 2.749842,0 4.905121,2.22 4.905121,4.88399 z m -2.89848,-11.08906 c 0,-1.10999 -0.891838,-1.99799 -2.006641,-1.99799 H 72.808955 c -1.114803,0 -2.006644,0.888 -2.006644,1.99799 v 11.08906 c 0,1.10999 0.891841,1.99799 2.006644,1.99799 h 24.130444 c 1.114803,0 2.006641,-0.888 2.006641,-1.99799 z"
     id="path23-1-9"
     sodipodi:nodetypes="cssccsscccssccsscc" /><path
     style="display:inline;fill:#ffd8b2;fill-opacity:1;stroke:#000000;stroke-width:3.32672;stroke-linecap:round;stroke-linejoin:round;stroke-miterlimit:4;stroke-dasharray:none;stroke-opacity:1;paint-order:stroke fill markers"
     d="m 144.71072,169.40157 c 0,2.66399 -2.27004,4.09789 -4.90512,4.88399 l -18.58592,5.54452 c -2.9755,0.88765 -6.01403,-2.21999 -6.01403,-4.88398 v -11.08906 c 0,-2.66399 2.75145,-5.85727 6.01403,-4.88399 l 18.58592,5.54453 c 2.63508,0.78609 4.90512,2.22 4.90512,4.88399 z m -2.89848,0 c 0,-1.10999 -0.92014,-1.74835 -2.00664,-1.99799 l -18.58592,-5.54453 c -1.85396,-0.55307 -3.11555,0.888 -3.11555,1.99799 v 11.08906 c 0,1.10999 1.45912,2.49213 3.11555,1.99799 l 18.58592,-5.54453 c 1.0865,-0.24965 2.00664,-0.888 2.00664,-1.99799 z"
     id="path23-1-9-7"
     sodipodi:nodetypes="cssccsscscsssscs" /><text
     xml:space="preserve"
     id="text127462"
     style="font-style:normal;font-variant:normal;font-weight:bold;font-stretch:normal;font-size:8px;line-height:1.25;font-family:Comfortaa;-inkscape-font-specification:'Comfortaa Bold';font-variant-ligatures:normal;font-variant-caps:normal;font-variant-numeric:normal;font-variant-east-asian:normal;text-align:center;text-decoration-color:#000000;letter-spacing:0px;word-spacing:0px;white-space:pre;shape-inside:url(#rect127464-7);display:inline;fill:#ffd8b2;fill-opacity:1;stroke:none;stroke-width:1.5;stroke-linecap:round;stroke-linejoin:round;stroke-miterlimit:4;stroke-dasharray:none;stroke-opacity:1;paint-order:stroke fill markers;stop-color:#000000"
     x="10.010417"
     y="0"
     transform="matrix(1.1089057,0,0,1.1089057,-18.932517,19.47017)"><tspan
       x="79.879845"
       y="154.66483"
       id="tspan1195">MODE</tspan></text><rect
     style="display:inline;opacity:0.5;fill:#000000;fill-opacity:1;stroke:none;stroke-width:1.66336;stroke-linecap:round;stroke-linejoin:round;stroke-miterlimit:4;stroke-dasharray:none;stroke-opacity:1;paint-order:stroke fill markers"
     id="rect38642-7"
     width="40.225437"
     height="10.235719"
     x="109.82329"
     y="182.39679"
     ry="1.1717176"
     rx="1.0922958" /><text
     xml:space="preserve"
     id="text127462-9"
     style="font-style:normal;font-variant:normal;font-weight:bold;font-stretch:normal;font-size:8px;line-height:1.25;font-family:Comfortaa;-inkscape-font-specification:'Comfortaa Bold';font-variant-ligatures:normal;font-variant-caps:normal;font-variant-numeric:normal;font-variant-east-asian:normal;text-align:center;text-decoration-color:#000000;letter-spacing:0px;word-spacing:0px;white-space:pre;shape-inside:url(#rect127464-0-5);display:inline;fill:#ffd8b2;fill-opacity:1;stroke:none;stroke-width:1.5;stroke-linecap:round;stroke-linejoin:round;stroke-miterlimit:4;stroke-dasharray:none;stroke-opacity:1;paint-order:stroke fill markers;stop-color:#000000"
     x="10.010417"
     y="0"
     transform="matrix(1.1089057,0,0,1.1089057,26.606324,19.465734)"><tspan
       x="80.113693"
       y="154.66483"
       id="tspan1197">START</tspan></text></g><g
   inkscape:groupmode="layer"
   id="layer7"
   inkscape:label="Face buttons"
   style="display:inline"><path
     style="display:inline;fill:#ffd8b2;fill-opacity:1;stroke:#000000;stroke-width:3.32672;stroke-linecap:round;stroke-linejoin:round;stroke-miterlimit:4;stroke-dasharray:none;stroke-opacity:1;paint-order:stroke fill markers"
     d="m 203.45337,148.13 c -9.73592,0 -17.68817,-7.91799 -17.68817,-17.61197 0,-9.69398 7.95225,-17.61197 17.68817,-17.61197 9.73593,0 17.68818,7.91799 17.68818,17.61197 0,9.69398 -7.95225,17.61197 -17.68818,17.61197 z m 0,-32.26394 c -8.10088,0 -14.71537,6.58598 -14.71537,14.65197 0,8.06598 6.61449,14.65196 14.71537,14.65196 8.10089,0 14.71538,-6.58598 14.71538,-14.65196 0,-8.06599 -6.61449,-14.65197 -14.71538,-14.65197 z"
     id="path43-1-81" /><path
     style="display:inline;fill:#ffd8b2;fill-opacity:1;stroke:#000000;stroke-width:3.32672;stroke-linecap:round;stroke-linejoin:round;stroke-miterlimit:4;stroke-dasharray:none;stroke-opacity:1;paint-order:stroke fill markers"
     d="m 172.1132,179.33513 c -9.73592,0 -17.68817,-7.91798 -17.68817,-17.61196 0,-9.69398 7.95225,-17.61197 17.68817,-17.61197 9.73593,0 17.68818,7.91799 17.68818,17.61197 0,9.69398 -7.95225,17.61196 -17.68818,17.61196 z m 0,-32.26393 c -8.10088,0 -14.71537,6.58598 -14.71537,14.65197 0,8.06598 6.61449,14.65196 14.71537,14.65196 8.10089,0 14.71538,-6.58598 14.71538,-14.65196 0,-8.06599 -6.61449,-14.65197 -14.71538,-14.65197 z"
     id="path43-1-81-1" /><text
     xml:space="preserve"
     id="text83349-0"
     style="font-style:normal;font-variant:normal;font-weight:normal;font-stretch:normal;font-size:21.3333px;line-height:1.25;font-family:Comfortaa;-inkscape-font-specification:'Comfortaa, Normal';font-variant-ligatures:normal;font-variant-position:normal;font-variant-caps:normal;font-variant-numeric:normal;font-variant-alternates:normal;font-variant-east-asian:normal;text-indent:0;text-align:center;text-decoration-line:none;text-decoration-style:solid;text-decoration-color:#000000;letter-spacing:0px;word-spacing:0px;text-transform:none;writing-mode:lr-tb;direction:ltr;text-orientation:mixed;dominant-baseline:auto;baseline-shift:baseline;white-space:pre;shape-inside:url(#rect83351-3-9);shape-padding:0;shape-margin:0;inline-size:0;display:inline;fill:#ffd8b2;fill-opacity:1;stroke:#000000;stroke-width:3;stroke-linecap:round;stroke-linejoin:round;stroke-miterlimit:4;stroke-dasharray:none;stroke-dashoffset:0;stroke-opacity:1;paint-order:stroke fill markers;stop-color:#000000"
     x="7.8984375"
     y="0"
     transform="matrix(1.1089057,0,0,1.1089057,11.091998,31.970876)"><tspan
       x="137.81617"
       y="125.30995"
       id="tspan1199">B</tspan></text><text
     xml:space="preserve"
     id="text83349-6"
     style="font-style:normal;font-variant:normal;font-weight:normal;font-stretch:normal;font-size:21.3333px;line-height:1.25;font-family:Comfortaa;-inkscape-font-specification:'Comfortaa, Normal';font-variant-ligatures:normal;font-variant-position:normal;font-variant-caps:normal;font-variant-numeric:normal;font-variant-alternates:normal;font-variant-east-asian:normal;text-indent:0;text-align:center;text-decoration-line:none;text-decoration-style:solid;text-decoration-color:#000000;letter-spacing:0px;word-spacing:0px;text-transform:none;writing-mode:lr-tb;direction:ltr;text-orientation:mixed;dominant-baseline:auto;baseline-shift:baseline;white-space:pre;shape-inside:url(#rect83351-9-2);shape-padding:0;shape-margin:0;inline-size:0;display:inline;fill:#ffd8b2;fill-opacity:1;stroke:#000000;stroke-width:3;stroke-linecap:round;stroke-linejoin:round;stroke-miterlimit:4;stroke-dasharray:none;stroke-dashoffset:0;stroke-opacity:1;paint-order:stroke fill markers;stop-color:#000000"
     x="7.8984375"
     y="0"
     transform="matrix(1.1089057,0,0,1.1089057,41.00398,0.79901047)"><tspan
       x="137.00551"
       y="125.30995"
       id="tspan1201">C</tspan></text><path
     style="display:inline;fill:#ffd8b2;fill-opacity:1;stroke:#000000;stroke-width:3.32672;stroke-linecap:round;stroke-linejoin:round;stroke-miterlimit:4;stroke-dasharray:none;stroke-opacity:1;paint-order:stroke fill markers"
     d="m 140.77302,148.13 c -9.73592,0 -17.68817,-7.91799 -17.68817,-17.61197 0,-9.69398 7.95225,-17.61197 17.68817,-17.61197 9.73593,0 17.68818,7.91799 17.68818,17.61197 0,9.69398 -7.95225,17.61197 -17.68818,17.61197 z m 0,-32.26394 c -8.10089,0 -14.71538,6.58598 -14.71538,14.65197 0,8.06598 6.61449,14.65196 14.71538,14.65196 8.10089,0 14.71538,-6.58598 14.71538,-14.65196 0,-8.06599 -6.61449,-14.65197 -14.71538,-14.65197 z"
     id="path43-1-81-9" /><text
     xml:space="preserve"
     id="text83349-6-0"
     style="font-style:normal;font-variant:normal;font-weight:normal;font-stretch:normal;font-size:21.3333px;line-height:1.25;font-family:Comfortaa;-inkscape-font-specification:'Comfortaa, Normal';font-variant-ligatures:normal;font-variant-position:normal;font-variant-caps:normal;font-variant-numeric:normal;font-variant-alternates:normal;font-variant-east-asian:normal;text-indent:0;text-align:center;text-decoration-line:none;text-decoration-style:solid;text-decoration-color:#000000;letter-spacing:0px;word-spacing:0px;text-transform:none;writing-mode:lr-tb;direction:ltr;text-orientation:mixed;dominant-baseline:auto;baseline-shift:baseline;white-space:pre;shape-inside:url(#rect83351-9-2-3);shape-padding:0;shape-margin:0;inline-size:0;display:inline;fill:#ffd8b2;fill-opacity:1;stroke:#000000;stroke-width:3;stroke-linecap:round;stroke-linejoin:round;stroke-miterlimit:4;stroke-dasharray:none;stroke-dashoffset:0;stroke-opacity:1;paint-order:stroke fill markers;stop-color:#000000"
     x="7.8984375"
     y="0"
     transform="matrix(1.1089057,0,0,1.1089057,-20.272804,-0.07248629)"><tspan
       x="137.73085"
       y="125.30995"
       id="tspan1203">A</tspan></text><path
     style="display:inline;fill:#ffd8b2;fill-opacity:1;stroke:#000000;stroke-width:3.32672;stroke-linecap:round;stroke-linejoin:round;stroke-miterlimit:4;stroke-dasharray:none;stroke-opacity:1;paint-order:stroke fill markers"
     d="m 172.1132,116.92487 c -9.73592,0 -17.68817,-7.91799 -17.68817,-17.611964 0,-9.694003 7.95225,-17.611989 17.68817,-17.611989 9.73593,0 17.68818,7.917986 17.68818,17.611989 0,9.693974 -7.95225,17.611964 -17.68818,17.611964 z m 0,-32.263951 c -8.10088,0 -14.71537,6.58598 -14.71537,14.651987 0,8.065984 6.61449,14.651964 14.71537,14.651964 8.10089,0 14.71538,-6.58598 14.71538,-14.651964 0,-8.066007 -6.61449,-14.651987 -14.71538,-14.651987 z"
     id="path43-1" /><text
     xml:space="preserve"
     id="text83349"
     style="font-style:normal;font-variant:normal;font-weight:normal;font-stretch:normal;font-size:21.3333px;line-height:1.25;font-family:Comfortaa;-inkscape-font-specification:'Comfortaa, Normal';font-variant-ligatures:normal;font-variant-position:normal;font-variant-caps:normal;font-variant-numeric:normal;font-variant-alternates:normal;font-variant-east-asian:normal;text-indent:0;text-align:center;text-decoration-line:none;text-decoration-style:solid;text-decoration-color:#000000;letter-spacing:0px;word-spacing:0px;text-transform:none;writing-mode:lr-tb;direction:ltr;text-orientation:mixed;dominant-baseline:auto;baseline-shift:baseline;white-space:pre;shape-inside:url(#rect83351-37-9);shape-padding:0;shape-margin:0;inline-size:0;display:inline;fill:#ffd8b2;fill-opacity:1;stroke:#000000;stroke-width:3;stroke-linecap:round;stroke-linejoin:round;stroke-miterlimit:4;stroke-dasharray:none;stroke-dashoffset:0;stroke-opacity:1;paint-order:stroke fill markers;stop-color:#000000"
     x="7.8984375"
     y="0"
     transform="matrix(1.1089057,0,0,1.1089057,11.08069,-29.898018)"><tspan
       x="138.31752"
       y="125.30995"
       id="tspan1205">Y</tspan></text></g><g
   inkscape:groupmode="layer"
   id="layer9"
   inkscape:label="D-pad"
   style="display:inline"><path
     style="display:inline;fill:#ffd8b2;fill-opacity:1;stroke:#000000;stroke-width:3.32672;stroke-linecap:round;stroke-linejoin:round;stroke-miterlimit:4;stroke-dasharray:none;stroke-opacity:1;paint-order:stroke fill markers"
     d="M 52.777017,169.62694 H 33.082199 c -2.749843,0 -4.905124,-2.21998 -4.905124,-4.88398 V 145.65099 H 9.0024958 c -2.7498433,0 -4.9794457,-2.21999 -4.9794457,-4.95798 v -20.34996 c 0,-2.73799 2.2296024,-4.95799 4.9794457,-4.95799 H 28.177075 V 96.29309 c 0,-2.737993 2.229601,-4.883991 4.905124,-4.883991 h 19.694818 c 2.749843,0 4.905126,2.219996 4.905126,4.883991 v 19.09197 h 19.174578 c 2.749843,0 4.979446,2.22 4.979446,4.95799 v 20.34996 c 0,2.73799 -2.229603,4.95798 -4.979446,4.95798 H 57.682144 v 19.09197 c 0,2.664 -2.155284,4.88398 -4.905127,4.88398 z M 9.0024958,118.34505 c -1.1148018,0 -2.0066425,0.88801 -2.0066425,1.998 v 20.34996 c 0,1.10999 0.8918407,1.99799 2.0066425,1.99799 H 28.400034 c 0.520241,0 1.337761,0.074 1.932321,0.666 0.520241,0.44401 0.743201,1.184 0.743201,1.99799 v 19.38797 c 0,1.11 0.891841,1.99799 2.006643,1.99799 h 19.694818 c 1.114802,0 2.006642,-0.88799 2.006642,-1.99799 V 145.281 c 0,-0.74 0.29728,-1.406 0.743201,-1.85 0.445921,-0.444 1.114801,-0.666 1.932322,-0.666 h 19.397539 c 1.114801,0 2.006642,-0.88799 2.006642,-1.99799 v -20.34996 c 0,-1.11 -0.891841,-1.998 -2.006642,-1.998 H 57.384863 c -0.743202,0 -1.412082,-0.222 -1.932322,-0.666 -0.44592,-0.44399 -0.743201,-1.10999 -0.743201,-1.84999 V 96.515093 c 0,-1.109997 -0.891841,-1.997998 -2.006643,-1.997998 H 33.007879 v 0 c -0.520241,0 -1.040482,0.222003 -1.412082,0.592001 -0.3716,0.370001 -0.594561,0.887994 -0.594561,1.405997 v 19.239967 c 0,0.518 0,1.184 -0.52024,1.85 -0.594561,0.666 -1.412081,0.73999 -2.080962,0.73999 z"
     id="path23-1"
     inkscape:export-filename="C:\All\Batocera\batocera-assets\controller-overlays\generic.png"
     inkscape:export-xdpi="96"
     inkscape:export-ydpi="96"
     sodipodi:nodetypes="ssscsssscsssscsssscsscsssscssssssssssssscssscsssscscc" /><text
     xml:space="preserve"
     id="text83349-9"
     style="font-style:normal;font-variant:normal;font-weight:normal;font-stretch:normal;font-size:17.3333px;line-height:1.25;font-family:Comfortaa;-inkscape-font-specification:'Comfortaa, Normal';font-variant-ligatures:normal;font-variant-position:normal;font-variant-caps:normal;font-variant-numeric:normal;font-variant-alternates:normal;font-variant-east-asian:normal;text-indent:0;text-align:center;text-decoration-line:none;text-decoration-style:solid;text-decoration-color:#000000;letter-spacing:1px;word-spacing:0px;text-transform:none;writing-mode:lr-tb;direction:ltr;text-orientation:mixed;dominant-baseline:auto;baseline-shift:baseline;white-space:pre;shape-inside:url(#rect83351-4-1);shape-padding:0;shape-margin:0;inline-size:0;display:inline;fill:#ffd8b2;fill-opacity:1;stroke:#000000;stroke-width:3;stroke-linecap:round;stroke-linejoin:round;stroke-miterlimit:4;stroke-dasharray:none;stroke-dashoffset:0;stroke-opacity:1;paint-order:stroke fill markers;stop-color:#000000"
     x="7.8984375"
     y="0"
     transform="matrix(1.1089057,0,0,1.1089057,-138.16328,3.1260701)"><tspan
       x="133.20184"
       y="121.64941"
       id="tspan1207">D-PAD</tspan></text></g><g
   inkscape:groupmode="layer"
   id="layer10"
   inkscape:label="Dual-sticks"
   style="display:inline"><path
     style="color:#000000;display:inline;fill:#ffd8b2;stroke:#000000;stroke-width:3.32672;stroke-linecap:round;stroke-linejoin:round;stroke-miterlimit:4;stroke-dasharray:none;stroke-opacity:1;paint-order:stroke fill markers"
     d="m 56.080072,192.95582 c -19.873505,0 -36.01561,16.14211 -36.01561,36.01562 0,19.87351 16.142105,36.0156 36.01561,36.0156 19.873508,0 36.015614,-16.14209 36.015614,-36.0156 0,-19.87351 -16.142107,-36.01562 -36.015614,-36.01562 z m 0,2.88922 c 18.312339,0 33.126393,14.81406 33.126393,33.1264 0,18.31234 -14.814054,33.12638 -33.126393,33.12638 -18.312337,0 -33.126391,-14.81404 -33.126391,-33.12638 0,-18.31234 14.814054,-33.1264 33.126391,-33.1264 z"
     id="circle74" /><path
     style="color:#000000;display:inline;fill:#ffd8b2;stroke:#000000;stroke-width:3.32672;stroke-linecap:round;stroke-linejoin:round;stroke-miterlimit:4;stroke-dasharray:none;stroke-opacity:1;paint-order:stroke fill markers"
     d="m 56.080072,204.75311 c -13.358284,0 -24.218326,10.86004 -24.218326,24.21833 0,13.35828 10.860042,24.21832 24.218326,24.21832 13.358285,0 24.218329,-10.86004 24.218329,-24.21832 0,-13.35829 -10.860044,-24.21833 -24.218329,-24.21833 z m 0,2.88922 c 11.797111,0 21.32911,9.53199 21.32911,21.32911 0,11.7971 -9.531999,21.3291 -21.32911,21.3291 -11.79711,0 -21.329108,-9.532 -21.329108,-21.3291 0,-11.79712 9.531998,-21.32911 21.329108,-21.32911 z"
     id="circle76" /><path
     style="color:#000000;display:inline;opacity:0.5;fill:#ffd8b2;fill-opacity:1;stroke:#000000;stroke-width:3.32672;stroke-linecap:round;stroke-linejoin:round;stroke-miterlimit:4;stroke-dasharray:none;stroke-opacity:1;paint-order:stroke fill markers"
     d="m 157.84815,204.75311 c -13.35829,0 -24.21832,10.86004 -24.21832,24.21833 0,13.35828 10.86003,24.21832 24.21832,24.21832 13.35829,0 24.21833,-10.86004 24.21833,-24.21832 0,-13.35829 -10.86004,-24.21833 -24.21833,-24.21833 z m 0,2.88922 c 11.79712,0 21.32911,9.53199 21.32911,21.32911 0,11.7971 -9.53199,21.3291 -21.32911,21.3291 -11.79711,0 -21.33127,-9.532 -21.33127,-21.3291 0,-11.79712 9.53416,-21.32911 21.33127,-21.32911 z"
     id="circle78" /><path
     style="color:#000000;display:inline;opacity:0.5;fill:#ffd8b2;fill-opacity:1;stroke:#000000;stroke-width:3.32672;stroke-linecap:round;stroke-linejoin:round;stroke-miterlimit:4;stroke-dasharray:none;stroke-opacity:1;paint-order:stroke fill markers"
     d="m 157.84815,192.95582 c -19.87351,0 -36.01561,16.14211 -36.01561,36.01562 0,19.87351 16.1421,36.0156 36.01561,36.0156 19.87351,0 36.01345,-16.14209 36.01345,-36.0156 0,-19.87351 -16.13994,-36.01562 -36.01345,-36.01562 z m 0,2.88922 c 18.31234,0 33.1264,14.81406 33.1264,33.1264 0,18.31234 -14.81406,33.1264 -33.1264,33.12638 -18.31233,0 -33.12639,-14.81404 -33.12639,-33.12638 0,-18.31234 14.81406,-33.1264 33.12639,-33.1264 z"
     id="circle80" /><rect
     style="display:inline;opacity:0.5;fill:#000000;fill-opacity:1;stroke:none;stroke-width:1.66335;stroke-linecap:round;stroke-linejoin:round;stroke-miterlimit:4;stroke-dasharray:none;stroke-opacity:1;paint-order:stroke fill markers"
     id="rect38642-2-0-9"
     width="60.186783"
     height="10.235719"
     x="25.986683"
     y="267.3949"
     ry="1.1717176"
     rx="1.634333" /><text
     xml:space="preserve"
     id="text127462-3"
     style="font-style:normal;font-variant:normal;font-weight:bold;font-stretch:normal;font-size:8px;line-height:1.25;font-family:Comfortaa;-inkscape-font-specification:'Comfortaa Bold';font-variant-ligatures:normal;font-variant-caps:normal;font-variant-numeric:normal;font-variant-east-asian:normal;text-align:center;text-decoration-color:#000000;letter-spacing:0px;word-spacing:0px;white-space:pre;shape-inside:url(#rect127464-7-2);display:inline;fill:#ffd8b2;fill-opacity:1;stroke:none;stroke-width:1.5;stroke-linecap:round;stroke-linejoin:round;stroke-miterlimit:4;stroke-dasharray:none;stroke-opacity:1;paint-order:stroke fill markers;stop-color:#000000"
     x="10.010417"
     y="0"
     transform="matrix(1.1089057,0,0,1.1089057,-65.280449,104.46828)"><tspan
       x="96.331772"
       y="154.66483"
       id="tspan1209">D-PAD</tspan></text></g><g
   inkscape:groupmode="layer"
   id="layer4"
   inkscape:label="Shoulder buttons (1st tier)"><path
     style="display:inline;fill:#ffd8b2;fill-opacity:1;stroke:#000000;stroke-width:3.32672;stroke-linecap:round;stroke-linejoin:round;stroke-miterlimit:4;stroke-dasharray:none;stroke-opacity:1;paint-order:stroke fill markers"
     d="m 77.459745,70.355397 c 0,2.663991 -2.15529,4.883987 -4.90513,4.883987 H 29.82486 c -5.732057,0 -10.386703,2.498682 -13.05168,3.538369 -1.118176,0.436222 -2.927643,0.102796 -4.025875,-0.703246 -1.211017,-0.888804 -2.07082,-2.288093 -2.07082,-4.002572 V 54.293064 c 0,-1.624778 0.826026,-3.129499 2.053403,-3.977573 3.992202,-2.758471 11.277247,-5.342033 17.094972,-5.342033 h 42.729755 c 2.74984,0 4.90513,2.219996 4.90513,4.883987 z M 74.561254,49.857442 c 0,-1.109993 -0.891837,-1.997994 -2.006639,-1.997994 H 29.82486 c -5.555128,0 -11.657457,2.631154 -15.348601,4.762238 -0.517111,0.298554 -0.905621,1.004874 -0.901292,1.671383 v 19.77887 c 0,0.587911 0.266395,1.17393 0.702796,1.523858 0.476907,0.382409 1.155906,0.607719 1.792401,0.387783 2.91265,-1.00644 6.978871,-3.711472 14.274496,-3.699492 l 42.209955,0.06931 c 1.114801,0.0019 2.006641,-0.888001 2.006641,-1.997993 z"
     id="path23-1-9-3"
     sodipodi:nodetypes="csssascssscccssscsassscc" /><text
     xml:space="preserve"
     id="text83349-9-6-0"
     style="font-style:normal;font-variant:normal;font-weight:normal;font-stretch:normal;font-size:18.6667px;line-height:1.25;font-family:Comfortaa;-inkscape-font-specification:'Comfortaa, Normal';font-variant-ligatures:normal;font-variant-position:normal;font-variant-caps:normal;font-variant-numeric:normal;font-variant-alternates:normal;font-variant-east-asian:normal;text-indent:0;text-align:center;text-decoration-line:none;text-decoration-style:solid;text-decoration-color:#000000;letter-spacing:2px;word-spacing:0px;text-transform:none;writing-mode:lr-tb;direction:ltr;text-orientation:mixed;dominant-baseline:auto;baseline-shift:baseline;white-space:pre;shape-inside:url(#rect83351-4-1-4-4);shape-padding:0;shape-margin:0;inline-size:0;display:inline;fill:#ffd8b2;fill-opacity:1;stroke:#000000;stroke-width:3;stroke-linecap:round;stroke-linejoin:round;stroke-miterlimit:4;stroke-dasharray:none;stroke-dashoffset:0;stroke-opacity:1;paint-order:stroke fill markers;stop-color:#000000"
     x="7.8984375"
     y="0"
     transform="matrix(1.1089057,0,0,1.1089057,0.36892295,-68.037624)"><tspan
       x="156.21239"
       y="122.86965"
       id="tspan1211">Z</tspan></text><path
     style="display:inline;fill:#ffd8b2;fill-opacity:1;stroke:#000000;stroke-width:3.32672;stroke-linecap:round;stroke-linejoin:round;stroke-miterlimit:4;stroke-dasharray:none;stroke-opacity:1;paint-order:stroke fill markers"
     d="m 147.69536,70.355397 c 0,2.663991 2.15529,4.883987 4.90514,4.883987 h 42.72974 c 5.73206,0 10.38671,2.498682 13.05169,3.538369 1.11817,0.436222 2.92764,0.102796 4.02587,-0.703246 1.21102,-0.888804 2.07082,-2.288093 2.07082,-4.002572 V 54.293064 c 0,-1.624778 -0.82602,-3.129499 -2.0534,-3.977573 -3.9922,-2.758471 -11.27725,-5.342033 -17.09498,-5.342033 H 152.6005 c -2.74985,0 -4.90514,2.219996 -4.90514,4.883987 z m 2.89849,-20.497955 c 0,-1.109993 0.89183,-1.997994 2.00665,-1.997994 h 42.72975 c 5.55513,0 11.65746,2.631154 15.3486,4.762238 0.51711,0.298554 0.90562,1.004874 0.9013,1.671383 v 19.77887 c 0,0.587911 -0.2664,1.17393 -0.70281,1.523858 -0.4769,0.382409 -1.1559,0.607719 -1.79239,0.387783 -2.91265,-1.00644 -6.97887,-3.711472 -14.2745,-3.699492 l -42.20995,0.06931 c -1.11482,0.0019 -2.00665,-0.888001 -2.00665,-1.997993 z"
     id="path23-1-9-3-6"
     sodipodi:nodetypes="csssascssscccssscsassscc" /><text
     xml:space="preserve"
     id="text83349-9-6"
     style="font-style:normal;font-variant:normal;font-weight:normal;font-stretch:normal;font-size:18.6667px;line-height:1.25;font-family:Comfortaa;-inkscape-font-specification:'Comfortaa, Normal';font-variant-ligatures:normal;font-variant-position:normal;font-variant-caps:normal;font-variant-numeric:normal;font-variant-alternates:normal;font-variant-east-asian:normal;text-indent:0;text-align:center;text-decoration-line:none;text-decoration-style:solid;text-decoration-color:#000000;letter-spacing:-0.25px;word-spacing:0px;text-transform:none;writing-mode:lr-tb;direction:ltr;text-orientation:mixed;dominant-baseline:auto;baseline-shift:baseline;white-space:pre;shape-inside:url(#rect83351-4-1-4);shape-padding:0;shape-margin:0;inline-size:0;display:inline;fill:#ffd8b2;fill-opacity:1;stroke:#000000;stroke-width:3;stroke-linecap:round;stroke-linejoin:round;stroke-miterlimit:4;stroke-dasharray:none;stroke-dashoffset:0;stroke-opacity:1;paint-order:stroke fill markers;stop-color:#000000"
     x="7.8984375"
     y="0"
     transform="matrix(1.1089057,0,0,1.1089057,-136.64997,-68.037624)"><tspan
       x="156.37106"
       y="122.86965"
       id="tspan1213">X</tspan></text></g><g
   inkscape:groupmode="layer"
   id="layer6"
   inkscape:label="Shoulder triggers (2nd tier)"><path
     style="display:inline;opacity:0.5;fill:#ffd8b2;fill-opacity:1;stroke:#000000;stroke-width:3.32672;stroke-linecap:round;stroke-linejoin:round;stroke-miterlimit:4;stroke-dasharray:none;stroke-opacity:1;paint-order:stroke fill markers"
     d="m 77.459745,34.82016 c 0,2.663991 -2.15529,4.883987 -4.90513,4.883987 H 29.82486 c -5.732057,0 -10.386703,1.986284 -13.05168,3.025965 -1.118176,0.43623 -2.927643,0.102796 -4.025875,-0.703236 -1.211018,-0.888811 -2.07082,-2.288099 -2.07082,-4.002578 0,-21.242407 9.819654,-34.1306056 61.87813,-34.1306056 2.74984,0 4.90513,2.2199959 4.90513,4.8839866 z M 74.561254,8.7776757 c 0,-1.1099924 -0.891837,-1.997993 -2.006639,-1.997993 -47.622872,0 -58.979649,11.3243713 -58.979649,31.2446193 0,0.587911 0.266394,1.173929 0.702795,1.523858 0.476908,0.382408 1.155907,0.607719 1.792402,0.387784 2.91265,-1.006441 6.978871,-3.199073 14.274497,-3.187093 l 42.209955,0.06931 c 1.114801,0.0019 2.006639,-0.888001 2.006639,-1.997993 z"
     id="path23-1-9-3-3"
     sodipodi:nodetypes="csssasscccssassscc" /><path
     style="display:inline;opacity:0.5;fill:#ffd8b2;fill-opacity:1;stroke:#000000;stroke-width:3.32672;stroke-linecap:round;stroke-linejoin:round;stroke-miterlimit:4;stroke-dasharray:none;stroke-opacity:1;paint-order:stroke fill markers"
     d="m 147.69537,34.82016 c 0,2.663991 2.15529,4.883987 4.90512,4.883987 h 42.72976 c 5.73206,0 10.3867,1.986284 13.05168,3.025965 1.11817,0.43623 2.92764,0.102796 4.02588,-0.703236 1.21101,-0.888811 2.07081,-2.288099 2.07081,-4.002578 0,-21.242407 -9.81965,-34.1306056 -61.87813,-34.1306056 -2.74983,0 -4.90512,2.2199959 -4.90512,4.8839866 z m 2.89849,-26.0424843 c 0,-1.1099924 0.89184,-1.997993 2.00663,-1.997993 47.62287,0 58.97966,11.3243713 58.97966,31.2446193 0,0.587911 -0.2664,1.173929 -0.70281,1.523858 -0.4769,0.382408 -1.1559,0.607719 -1.7924,0.387784 -2.91264,-1.006441 -6.97886,-3.199073 -14.27449,-3.187093 l -42.20996,0.06931 c -1.11479,0.0019 -2.00663,-0.888001 -2.00663,-1.997993 z"
     id="path23-1-9-3-3-88"
     sodipodi:nodetypes="csssasscccssassscc" /></g></svg>
