<?xml version="1.0" encoding="UTF-8" standalone="no"?>
<!-- Generator: Adobe Illustrator 24.0.1, SVG Export Plug-In . SVG Version: 6.00 Build 0)  -->

<svg
   version="1.1"
   id="Layer_3"
   x="0px"
   y="0px"
   viewBox="0 0 225 280"
   xml:space="preserve"
   sodipodi:docname="psx.svg"
   inkscape:version="1.1.1 (3bf5ae0d25, 2021-09-20)"
   inkscape:export-filename="C:\All\Batocera\batocera-controller-overlays\psx.png"
   inkscape:export-xdpi="96"
   inkscape:export-ydpi="96"
   width="225"
   height="280"
   xmlns:inkscape="http://www.inkscape.org/namespaces/inkscape"
   xmlns:sodipodi="http://sodipodi.sourceforge.net/DTD/sodipodi-0.dtd"
   xmlns="http://www.w3.org/2000/svg"
   xmlns:svg="http://www.w3.org/2000/svg"><defs
   id="defs75"><inkscape:path-effect
     effect="envelope"
     id="path-effect76373"
     is_visible="true"
     lpeversion="1"
     yy="true"
     xx="true"
     bendpath1="M 23.537096,16.621557 H 86.140921"
     bendpath2="M 86.140921,16.621557 V 39.916004"
     bendpath3="M 23.537096,39.916004 H 86.140921"
     bendpath4="M 23.537096,16.621557 V 39.916004" /><inkscape:path-effect
     effect="lattice2"
     gridpoint0="23.537096,16.621557"
     gridpoint1="86.140921,16.621557"
     gridpoint2="23.537096,39.916004"
     gridpoint3="86.140921,39.916004"
     gridpoint4="39.188052,16.621557"
     gridpoint5="70.489964,16.621557"
     gridpoint6="39.188052,39.916004"
     gridpoint7="70.489964,39.916004"
     gridpoint8x9="54.839008,16.621557"
     gridpoint10x11="54.839008,39.916004"
     gridpoint12="23.537096,22.445169"
     gridpoint13="86.140921,22.445169"
     gridpoint14="23.537096,34.092392"
     gridpoint15="86.140921,34.092392"
     gridpoint16="39.188052,22.445169"
     gridpoint17="70.489964,22.445169"
     gridpoint18="39.188052,34.092392"
     gridpoint19="70.489964,34.092392"
     gridpoint20x21="54.839008,22.445169"
     gridpoint22x23="54.839008,34.092392"
     gridpoint24x26="23.537096,28.268781"
     gridpoint25x27="86.140921,28.268781"
     gridpoint28x30="39.188052,28.268781"
     gridpoint29x31="70.489964,28.268781"
     gridpoint32x33x34x35="54.839008,28.268781"
     id="path-effect76371"
     is_visible="true"
     lpeversion="1"
     horizontal_mirror="false"
     vertical_mirror="false"
     perimetral="true"
     live_update="true" /><inkscape:path-effect
     effect="attach_path"
     id="path-effect76369"
     lpeversion="1"
     endcurveend="11.768548,10.555296 , -11.059262,26.691553"
     is_visible="true"
     startpath=""
     startposition="0"
     startcurvestart="0,0 , 20,0"
     startcurveend="23.658422,11.889874 , 28.614092,-5.9449372"
     endpath=""
     endposition="0"
     endcurvestart="0,0 , 20,0" /><inkscape:path-effect
     effect="envelope"
     id="path-effect76348"
     is_visible="true"
     lpeversion="1"
     yy="true"
     xx="true"
     bendpath1="M 23.537096,16.621557 61.997198,10.797945"
     bendpath2="M 86.140921,16.621557 V 39.916004"
     bendpath3="M 23.537096,42.342509 86.140921,39.916004"
     bendpath4="M 23.537096,16.621557 V 50.592625"
     bendpath4-nodetypes="cc"
     bendpath3-nodetypes="cc"
     bendpath1-nodetypes="cc" /><rect
     x="76.739281"
     y="147.34442"
     width="33.36795"
     height="20.843538"
     id="rect127464" /><rect
     x="128.2495"
     y="105.78697"
     width="33.960148"
     height="33.738186"
     id="rect83351" /><rect
     x="127.67705"
     y="105.52645"
     width="34.594753"
     height="33.972546"
     id="rect34999" /><rect
     x="161.5537"
     y="139.78229"
     width="33.151905"
     height="33.894112"
     id="rect24475" /><rect
     x="128.2495"
     y="105.78697"
     width="33.960148"
     height="33.738186"
     id="rect83351-3" /><rect
     x="128.2495"
     y="105.78697"
     width="33.960148"
     height="33.738186"
     id="rect83351-9" /><rect
     x="128.2495"
     y="105.78697"
     width="33.960148"
     height="33.738186"
     id="rect83351-5" /><rect
     x="76.739281"
     y="147.34442"
     width="32.54847"
     height="20.780947"
     id="rect127464-0" /><rect
     x="128.2495"
     y="105.78697"
     width="69.439232"
     height="31.708288"
     id="rect83351-4" /><rect
     x="128.2495"
     y="105.78697"
     width="33.960148"
     height="33.738186"
     id="rect83351-52" /><rect
     x="128.2495"
     y="105.78697"
     width="33.960148"
     height="33.738186"
     id="rect83351-52-6" /><rect
     x="128.2495"
     y="105.78697"
     width="33.960148"
     height="33.738186"
     id="rect83351-37" /><rect
     x="128.2495"
     y="105.78697"
     width="33.960148"
     height="33.738186"
     id="rect83351-3-9" /><rect
     x="128.2495"
     y="105.78697"
     width="33.960148"
     height="33.738186"
     id="rect83351-9-2" /><rect
     x="128.2495"
     y="105.78697"
     width="33.960148"
     height="33.738186"
     id="rect83351-5-7" /><rect
     x="76.739281"
     y="147.34442"
     width="33.36795"
     height="20.843538"
     id="rect127464-7" /><rect
     x="76.739281"
     y="147.34442"
     width="32.54847"
     height="20.780947"
     id="rect127464-0-5" /><rect
     x="128.2495"
     y="105.78697"
     width="69.439232"
     height="31.708288"
     id="rect83351-4-1" /><rect
     x="128.2495"
     y="105.78697"
     width="33.960148"
     height="33.738186"
     id="rect83351-52-67" /><rect
     x="128.2495"
     y="105.78697"
     width="33.960148"
     height="33.738186"
     id="rect83351-52-6-8" /><rect
     x="128.2495"
     y="105.78697"
     width="69.439232"
     height="31.708288"
     id="rect83351-4-1-4" /><rect
     x="128.2495"
     y="105.78697"
     width="69.439232"
     height="31.708288"
     id="rect83351-4-1-4-4" /><rect
     x="128.2495"
     y="105.78697"
     width="69.439232"
     height="31.708288"
     id="rect83351-4-1-4-9" /><rect
     x="128.2495"
     y="105.78697"
     width="69.439232"
     height="31.708288"
     id="rect83351-4-1-4-4-4" /><rect
     x="76.739281"
     y="147.34442"
     width="65.207237"
     height="14.330957"
     id="rect127464-7-2" /><rect
     x="76.739281"
     y="147.34442"
     width="65.207237"
     height="14.330957"
     id="rect127464-7-2-8" /><rect
     x="128.2495"
     y="105.78697"
     width="69.439232"
     height="31.708288"
     id="rect83351-4-1-4-4-4-0" /><rect
     x="128.2495"
     y="105.78697"
     width="69.439232"
     height="31.708288"
     id="rect83351-4-1-4-9-7" /><rect
     x="128.2495"
     y="105.78697"
     width="69.439232"
     height="31.708288"
     id="rect83351-4-1-4-1" /><rect
     x="76.739281"
     y="147.34442"
     width="65.207237"
     height="14.330957"
     id="rect127464-7-2-9" /><rect
     x="76.739281"
     y="147.34442"
     width="65.207237"
     height="14.330957"
     id="rect127464-7-2-8-9" /><rect
     x="76.739281"
     y="147.34442"
     width="33.36795"
     height="20.843538"
     id="rect127464-7-6" /><rect
     x="76.739281"
     y="147.34442"
     width="32.54847"
     height="20.780947"
     id="rect127464-0-5-2" /><rect
     x="128.2495"
     y="105.78697"
     width="33.960148"
     height="33.738186"
     id="rect83351-37-7" /><rect
     x="128.2495"
     y="105.78697"
     width="33.960148"
     height="33.738186"
     id="rect83351-3-9-7" /><rect
     x="128.2495"
     y="105.78697"
     width="33.960148"
     height="33.738186"
     id="rect83351-9-2-2" /><rect
     x="128.2495"
     y="105.78697"
     width="33.960148"
     height="33.738186"
     id="rect83351-5-7-6" /><rect
     x="128.2495"
     y="105.78697"
     width="69.439232"
     height="31.708288"
     id="rect83351-4-1-1" /><rect
     x="128.2495"
     y="105.78697"
     width="69.439232"
     height="31.708288"
     id="rect83351-4-1-4-41" /><rect
     x="128.2495"
     y="105.78697"
     width="69.439232"
     height="31.708288"
     id="rect83351-4-1-4-9-6" /><rect
     x="128.2495"
     y="105.78697"
     width="33.960148"
     height="33.738186"
     id="rect83351-52-67-0" /><rect
     x="128.2495"
     y="105.78697"
     width="33.960148"
     height="33.738186"
     id="rect83351-52-6-8-6" /><rect
     x="76.739281"
     y="147.34442"
     width="65.207237"
     height="14.330957"
     id="rect127464-7-2-5" /><rect
     x="76.739281"
     y="147.34442"
     width="65.207237"
     height="14.330957"
     id="rect127464-7-2-8-0" /><rect
     x="128.2495"
     y="105.78697"
     width="69.439232"
     height="31.708288"
     id="rect83351-4-1-4-4-1" /><rect
     x="128.2495"
     y="105.78697"
     width="69.439232"
     height="31.708288"
     id="rect83351-4-1-4-4-4-5" /><rect
     x="76.739281"
     y="147.34442"
     width="33.36795"
     height="20.843538"
     id="rect127464-7-3" /><rect
     x="76.739281"
     y="147.34442"
     width="32.54847"
     height="20.780947"
     id="rect127464-0-5-9" /><rect
     x="76.739281"
     y="147.34442"
     width="65.207237"
     height="14.330957"
     id="rect127464-7-2-2" /><rect
     x="76.739281"
     y="147.34442"
     width="65.207237"
     height="14.330957"
     id="rect127464-7-2-8-7" /></defs><sodipodi:namedview
   id="namedview73"
   pagecolor="#ffffff"
   bordercolor="#666666"
   borderopacity="1.0"
   inkscape:pageshadow="2"
   inkscape:pageopacity="0"
   inkscape:pagecheckerboard="true"
   showgrid="false"
   inkscape:current-layer="layer2"
   inkscape:snap-bbox="true"
   inkscape:bbox-nodes="false"
   inkscape:bbox-paths="true"
   inkscape:object-nodes="false"
   inkscape:snap-others="true"
   inkscape:snap-bbox-edge-midpoints="true"
   inkscape:snap-bbox-midpoints="false"
   inkscape:object-paths="false"
   inkscape:snap-smooth-nodes="true" />














<g
   inkscape:groupmode="layer"
   id="layer2"
   inkscape:label="Backplate"><rect
     style="display:inline;fill:#000000;fill-opacity:0.25;stroke-width:10.7827;stroke-linecap:round;stroke-linejoin:round"
     id="rect937"
     width="223"
     height="278"
     x="1"
     y="1"
     rx="6.977437"
     ry="6.9689116" /></g><g
   inkscape:groupmode="layer"
   id="layer8"
   inkscape:label="Start/Select"><path
     style="display:inline;fill:#ffd8b2;fill-opacity:1;stroke:#000000;stroke-width:3.3292;stroke-linecap:round;stroke-linejoin:round;stroke-miterlimit:4;stroke-dasharray:none;stroke-opacity:1;paint-order:stroke fill markers"
     d="m 101.7542,174.97842 c 0,2.66597 -2.156897,4.88764 -4.90879,4.88764 H 72.696951 c -2.751895,0 -4.908787,-2.22167 -4.908787,-4.88764 v -11.09733 c 0,-2.66599 2.156892,-4.88764 4.908787,-4.88764 H 96.84541 c 2.751893,0 4.90879,2.22165 4.90879,4.88764 z m -2.90065,-11.09733 c 0,-1.11083 -0.892504,-1.99949 -2.00814,-1.99949 H 72.696951 c -1.115633,0 -2.00814,0.88866 -2.00814,1.99949 v 11.09733 c 0,1.11084 0.892507,1.99949 2.00814,1.99949 H 96.84541 c 1.115636,0 2.00814,-0.88865 2.00814,-1.99949 z"
     id="path23-1-9"
     sodipodi:nodetypes="cssccsscccssccsscc" /><path
     style="display:inline;fill:#ffd8b2;fill-opacity:1;stroke:#000000;stroke-width:3.3292;stroke-linecap:round;stroke-linejoin:round;stroke-miterlimit:4;stroke-dasharray:none;stroke-opacity:1;paint-order:stroke fill markers"
     d="m 144.65242,169.42975 c 0,2.66599 -2.27174,4.10096 -4.90878,4.88763 l -18.5998,5.54868 c -2.97772,0.8883 -6.01853,-2.22167 -6.01853,-4.88764 v -11.09733 c 0,-2.66599 2.7535,-5.86165 6.01853,-4.88764 l 18.5998,5.54867 c 2.63704,0.78668 4.90878,2.22166 4.90878,4.88763 z m -2.90065,0 c 0,-1.11081 -0.92083,-1.74965 -2.00813,-1.99948 l -18.5998,-5.54867 c -1.85536,-0.55348 -3.11789,0.88866 -3.11789,1.99949 v 11.09733 c 0,1.11084 1.46021,2.494 3.11789,1.99949 l 18.5998,-5.54867 c 1.0873,-0.24983 2.00813,-0.88866 2.00813,-1.99949 z"
     id="path23-1-9-7"
     sodipodi:nodetypes="cssccsscscsssscs" /><rect
     style="display:inline;opacity:0.5;fill:#000000;fill-opacity:1;stroke:none;stroke-width:1.6646;stroke-linecap:round;stroke-linejoin:round;stroke-miterlimit:4;stroke-dasharray:none;stroke-opacity:1;paint-order:stroke fill markers"
     id="rect38642"
     width="40.25547"
     height="10.243361"
     x="64.621254"
     y="182.39297"
     ry="1.1725925"
     rx="1.0931113" /><text
     xml:space="preserve"
     id="text127462"
     style="font-style:normal;font-variant:normal;font-weight:bold;font-stretch:normal;font-size:8px;line-height:1.25;font-family:Comfortaa;-inkscape-font-specification:'Comfortaa Bold';font-variant-ligatures:normal;font-variant-caps:normal;font-variant-numeric:normal;font-variant-east-asian:normal;text-align:center;text-decoration-color:#000000;letter-spacing:0px;word-spacing:0px;white-space:pre;shape-inside:url(#rect127464-7-3);display:inline;fill:#ffd8b2;fill-opacity:1;stroke:none;stroke-width:1.5;stroke-linecap:round;stroke-linejoin:round;stroke-miterlimit:4;stroke-dasharray:none;stroke-opacity:1;paint-order:stroke fill markers;stop-color:#000000"
     x="10.010417"
     y="0"
     transform="matrix(1.1097336,0,0,1.1097336,-19.113016,19.344706)"><tspan
       x="76.751854"
       y="154.66483"
       id="tspan1107">SELECT</tspan></text><rect
     style="display:inline;opacity:0.5;fill:#000000;fill-opacity:1;stroke:none;stroke-width:1.6646;stroke-linecap:round;stroke-linejoin:round;stroke-miterlimit:4;stroke-dasharray:none;stroke-opacity:1;paint-order:stroke fill markers"
     id="rect38642-7"
     width="40.25547"
     height="10.243361"
     x="109.73895"
     y="182.39297"
     ry="1.1725925"
     rx="1.0931113" /><text
     xml:space="preserve"
     id="text127462-9"
     style="font-style:normal;font-variant:normal;font-weight:bold;font-stretch:normal;font-size:8px;line-height:1.25;font-family:Comfortaa;-inkscape-font-specification:'Comfortaa Bold';font-variant-ligatures:normal;font-variant-caps:normal;font-variant-numeric:normal;font-variant-east-asian:normal;text-align:center;text-decoration-color:#000000;letter-spacing:0px;word-spacing:0px;white-space:pre;shape-inside:url(#rect127464-0-5-9);display:inline;fill:#ffd8b2;fill-opacity:1;stroke:none;stroke-width:1.5;stroke-linecap:round;stroke-linejoin:round;stroke-miterlimit:4;stroke-dasharray:none;stroke-opacity:1;paint-order:stroke fill markers;stop-color:#000000"
     x="10.010417"
     y="0"
     transform="matrix(1.1097336,0,0,1.1097336,26.459827,19.340267)"><tspan
       x="80.113693"
       y="154.66483"
       id="tspan1109">START</tspan></text></g><g
   inkscape:groupmode="layer"
   id="layer7"
   inkscape:label="Face buttons"
   style="display:inline"><path
     style="display:inline;fill:#ffd8b2;fill-opacity:1;stroke:#000000;stroke-width:3.3292;stroke-linecap:round;stroke-linejoin:round;stroke-miterlimit:4;stroke-dasharray:none;stroke-opacity:1;paint-order:stroke fill markers"
     d="m 203.43893,148.14231 c -9.7432,0 -17.70139,-7.92392 -17.70139,-17.62512 0,-9.70123 7.95819,-17.62512 17.70139,-17.62512 9.74319,0 17.70138,7.92389 17.70138,17.62512 0,9.7012 -7.95819,17.62512 -17.70138,17.62512 z m 0,-32.28804 c -8.10694,0 -14.72637,6.59089 -14.72637,14.66292 0,8.072 6.61943,14.66289 14.72637,14.66289 8.10693,0 14.72636,-6.59089 14.72636,-14.66289 0,-8.07203 -6.61943,-14.66292 -14.72636,-14.66292 z"
     id="path43-1-81" /><path
     style="display:inline;fill:#ffd8b2;fill-opacity:1;stroke:#000000;stroke-width:3.3292;stroke-linecap:round;stroke-linejoin:round;stroke-miterlimit:4;stroke-dasharray:none;stroke-opacity:1;paint-order:stroke fill markers"
     d="m 172.07535,116.91386 c -9.74318,0 -17.70138,-7.9239 -17.70138,-17.62512 0,-9.701199 7.9582,-17.625099 17.70138,-17.625099 9.7432,0 17.7014,7.9239 17.7014,17.625099 0,9.70122 -7.9582,17.62512 -17.7014,17.62512 z m 0,-32.288016 c -8.10692,0 -14.72635,6.590902 -14.72635,14.662896 0,8.07201 6.61943,14.66292 14.72635,14.66292 8.10694,0 14.72637,-6.59091 14.72637,-14.66292 0,-8.071994 -6.61943,-14.662896 -14.72637,-14.662896 z"
     id="path43-1-7" /><path
     style="display:inline;fill:#ffd8b2;fill-opacity:1;stroke:#000000;stroke-width:3.3292;stroke-linecap:round;stroke-linejoin:round;stroke-miterlimit:4;stroke-dasharray:none;stroke-opacity:1;paint-order:stroke fill markers"
     d="m 172.07535,179.37075 c -9.74318,0 -17.70138,-7.92391 -17.70138,-17.62512 0,-9.70123 7.9582,-17.62513 17.70138,-17.62513 9.7432,0 17.7014,7.9239 17.7014,17.62513 0,9.70121 -7.9582,17.62512 -17.7014,17.62512 z m 0,-32.28803 c -8.10692,0 -14.72635,6.59089 -14.72635,14.66291 0,8.072 6.61943,14.66289 14.72635,14.66289 8.10694,0 14.72637,-6.59089 14.72637,-14.66289 0,-8.07202 -6.61943,-14.66291 -14.72637,-14.66291 z"
     id="path43-1-81-1" /><path
     style="display:inline;fill:#ffd8b2;fill-opacity:1;stroke:#000000;stroke-width:3.3292;stroke-linecap:round;stroke-linejoin:round;stroke-miterlimit:4;stroke-dasharray:none;stroke-opacity:1;paint-order:stroke fill markers"
     d="m 140.71177,148.14231 c -9.74319,0 -17.70138,-7.92392 -17.70138,-17.62512 0,-9.70123 7.95819,-17.62512 17.70138,-17.62512 9.7432,0 17.70138,7.92389 17.70138,17.62512 0,9.7012 -7.95818,17.62512 -17.70138,17.62512 z m 0,-32.28804 c -8.10694,0 -14.72637,6.59089 -14.72637,14.66292 0,8.072 6.61943,14.66289 14.72637,14.66289 8.10695,0 14.72637,-6.59089 14.72637,-14.66289 0,-8.07203 -6.61942,-14.66292 -14.72637,-14.66292 z"
     id="path43-1" /><g
     id="g159988"
     transform="matrix(1.3425818,0,0,1.3425818,158.56765,148.2379)"
     style="stroke:#000000;stroke-width:2.4797;stroke-linecap:round;stroke-linejoin:round;stroke-miterlimit:4;stroke-dasharray:none;stroke-opacity:1;paint-order:stroke fill markers">
	<g
   id="g159984"
   style="stroke:#000000;stroke-width:2.4797;stroke-linecap:round;stroke-linejoin:round;stroke-miterlimit:4;stroke-dasharray:none;stroke-opacity:1;paint-order:stroke fill markers">
		<linearGradient
   id="SVGID_1_"
   gradientUnits="userSpaceOnUse"
   x1="10.0615"
   y1="0"
   x2="10.0615"
   y2="18.009199">
			<stop
   offset="0"
   style="stop-color:#5B5B5F"
   id="stop159971" />
			<stop
   offset="0.0231"
   style="stop-color:#59595D"
   id="stop159973" />
			<stop
   offset="0.4507"
   style="stop-color:#333335"
   id="stop159975" />
			<stop
   offset="0.7912"
   style="stop-color:#1C1C1D"
   id="stop159977" />
			<stop
   offset="1"
   style="stop-color:#141414"
   id="stop159979" />
		</linearGradient>
		
	</g>
	<polygon
   fill="#6273a8"
   points="10.061,8.468 5.608,4.015 4.016,5.608 8.469,10.061 4.016,14.514 5.608,16.106 10.061,11.653 14.514,16.106 16.107,14.514 11.654,10.061 16.107,5.608 14.514,4.015 "
   id="polygon159986"
   style="stroke:#000000;stroke-width:2.4797;stroke-linecap:round;stroke-linejoin:round;stroke-miterlimit:4;stroke-dasharray:none;stroke-opacity:1;paint-order:stroke fill markers" />
</g><g
     id="g160464"
     transform="matrix(1.3425818,0,0,1.3425818,190.01578,117.09405)"
     style="stroke:#000000;stroke-width:2.4797;stroke-linecap:round;stroke-linejoin:round;stroke-miterlimit:4;stroke-dasharray:none;stroke-opacity:1;paint-order:stroke fill markers"><g
       display="none"
       id="g160426"
       style="stroke:#000000;stroke-width:2.4797;stroke-linecap:round;stroke-linejoin:round;stroke-miterlimit:4;stroke-dasharray:none;stroke-opacity:1;paint-order:stroke fill markers">
	<path
   display="inline"
   fill="#cc3366"
   d="m 158.14,70.903 c 23.665,0 42.917,19.252 42.917,42.917 0,23.664 -19.252,42.917 -42.917,42.917 -23.665,0 -42.918,-19.253 -42.918,-42.917 0,-23.664 19.253,-42.917 42.918,-42.917 m 0,-14 c -31.434,0 -56.918,25.483 -56.918,56.917 0,31.435 25.484,56.917 56.918,56.917 31.434,0 56.917,-25.482 56.917,-56.917 0,-31.433 -25.483,-56.917 -56.917,-56.917 z"
   id="path160424"
   style="stroke:#000000;stroke-width:2.4797;stroke-linecap:round;stroke-linejoin:round;stroke-miterlimit:4;stroke-dasharray:none;stroke-opacity:1;paint-order:stroke fill markers" />
</g><g
       id="g160445"
       style="stroke:#000000;stroke-width:2.4797;stroke-linecap:round;stroke-linejoin:round;stroke-miterlimit:4;stroke-dasharray:none;stroke-opacity:1;paint-order:stroke fill markers">
	<g
   id="g160441"
   style="stroke:#000000;stroke-width:2.4797;stroke-linecap:round;stroke-linejoin:round;stroke-miterlimit:4;stroke-dasharray:none;stroke-opacity:1;paint-order:stroke fill markers">
		<linearGradient
   id="SVGID_1_-3"
   gradientUnits="userSpaceOnUse"
   x1="9.9980001"
   y1="0"
   x2="9.9980001"
   y2="17.896">
			<stop
   offset="0"
   style="stop-color:#5B5B5F"
   id="stop160428" />
			<stop
   offset="0.0231"
   style="stop-color:#59595D"
   id="stop160430" />
			<stop
   offset="0.4507"
   style="stop-color:#333335"
   id="stop160432" />
			<stop
   offset="0.7912"
   style="stop-color:#1C1C1D"
   id="stop160434" />
			<stop
   offset="1"
   style="stop-color:#141414"
   id="stop160436" />
		</linearGradient>
		
	</g>
	<path
   fill="#cc3333"
   d="m 9.998,5.177 c 2.658,0 4.82,2.163 4.82,4.82 0,2.657 -2.162,4.82 -4.82,4.82 -2.658,0 -4.819,-2.163 -4.819,-4.82 0,-2.657 2.161,-4.82 4.819,-4.82 m 0,-1.884 c -3.703,0 -6.705,3.002 -6.705,6.705 0,3.703 3.002,6.705 6.705,6.705 3.704,0 6.706,-3.002 6.706,-6.705 0,-3.703 -3.002,-6.705 -6.706,-6.705 z"
   id="path160443"
   style="stroke:#000000;stroke-width:2.4797;stroke-linecap:round;stroke-linejoin:round;stroke-miterlimit:4;stroke-dasharray:none;stroke-opacity:1;paint-order:stroke fill markers" />
</g></g><g
     id="g160483"
     transform="matrix(1.3425818,0,0,1.3425818,158.59315,85.807888)"
     style="stroke:#000000;stroke-width:2.4797;stroke-linecap:round;stroke-linejoin:round;stroke-miterlimit:4;stroke-dasharray:none;stroke-opacity:1;paint-order:stroke fill markers">
	<g
   id="g160479"
   style="stroke:#000000;stroke-width:2.4797;stroke-linecap:round;stroke-linejoin:round;stroke-miterlimit:4;stroke-dasharray:none;stroke-opacity:1;paint-order:stroke fill markers">
		<linearGradient
   id="SVGID_1_-9"
   gradientUnits="userSpaceOnUse"
   x1="10.0415"
   y1="0"
   x2="10.0415"
   y2="17.973801">
			<stop
   offset="0"
   style="stop-color:#5B5B5F"
   id="stop160466" />
			<stop
   offset="0.0231"
   style="stop-color:#59595D"
   id="stop160468" />
			<stop
   offset="0.4507"
   style="stop-color:#333335"
   id="stop160470" />
			<stop
   offset="0.7912"
   style="stop-color:#1C1C1D"
   id="stop160472" />
			<stop
   offset="1"
   style="stop-color:#141414"
   id="stop160474" />
		</linearGradient>
		
	</g>
	<path
   fill="#068c85"
   d="m 10.042,5.904 1.924,3.333 1.925,3.333 H 10.042 6.192 L 8.116,9.237 10.042,5.904 m 0,-3.55 L 6.58,8.35 3.119,14.345 h 6.923 6.923 L 13.502,8.35 Z"
   id="path160481"
   style="stroke:#000000;stroke-width:2.4797;stroke-linecap:round;stroke-linejoin:round;stroke-miterlimit:4;stroke-dasharray:none;stroke-opacity:1;paint-order:stroke fill markers" />
</g><g
     id="g160531"
     transform="matrix(1.3425818,0,0,1.3425818,127.28596,117.09136)"
     style="stroke:#000000;stroke-width:2.4797;stroke-linecap:round;stroke-linejoin:round;stroke-miterlimit:4;stroke-dasharray:none;stroke-opacity:1;paint-order:stroke fill markers"><g
       id="g160513"
       style="stroke:#000000;stroke-width:2.4797;stroke-linecap:round;stroke-linejoin:round;stroke-miterlimit:4;stroke-dasharray:none;stroke-opacity:1;paint-order:stroke fill markers">
	<linearGradient
   id="SVGID_1_-7"
   gradientUnits="userSpaceOnUse"
   x1="10.0005"
   y1="0"
   x2="10.0005"
   y2="17.900299">
		<stop
   offset="0"
   style="stop-color:#5B5B5F"
   id="stop160500" />
		<stop
   offset="0.0231"
   style="stop-color:#59595D"
   id="stop160502" />
		<stop
   offset="0.4507"
   style="stop-color:#333335"
   id="stop160504" />
		<stop
   offset="0.7912"
   style="stop-color:#1C1C1D"
   id="stop160506" />
		<stop
   offset="1"
   style="stop-color:#141414"
   id="stop160508" />
	</linearGradient>
	
</g><path
       fill="#cc6699"
       d="m 14.122,5.878 v 8.244 H 5.878 V 5.878 h 8.244 M 16.007,3.993 H 3.993 v 12.014 h 12.014 z"
       id="path160515"
       style="stroke:#000000;stroke-width:2.4797;stroke-linecap:round;stroke-linejoin:round;stroke-miterlimit:4;stroke-dasharray:none;stroke-opacity:1;paint-order:stroke fill markers" /></g></g><g
   inkscape:groupmode="layer"
   id="layer9"
   inkscape:label="D-pad"
   style="display:inline"><path
     style="display:inline;fill:#ffd8b2;fill-opacity:1;stroke:#000000;stroke-width:3.3292;stroke-linecap:round;stroke-linejoin:round;stroke-miterlimit:4;stroke-dasharray:none;stroke-opacity:1;paint-order:stroke fill markers"
     d="M 52.650059,169.6553 H 32.940536 c -2.751897,0 -4.908787,-2.22165 -4.908787,-4.88763 V 145.66144 H 8.8428535 c -2.7518958,0 -4.9831626,-2.22164 -4.9831626,-4.96167 V 120.3346 c 0,-2.74002 2.2312668,-4.96169 4.9831626,-4.96169 H 28.031749 V 96.2667 c 0,-2.74003 2.231267,-4.887628 4.908788,-4.887628 H 52.65006 c 2.751897,0 4.908788,2.221648 4.908788,4.887628 v 19.10621 h 19.188895 c 2.751896,0 4.983162,2.22167 4.983162,4.96169 v 20.36517 c 0,2.74003 -2.231266,4.96167 -4.983162,4.96167 H 57.558848 v 19.10623 c 0,2.66598 -2.156892,4.88763 -4.908789,4.88763 z M 8.8428535,118.33512 c -1.1156329,0 -2.0081402,0.88867 -2.0081402,1.99948 v 20.36517 c 0,1.11081 0.8925073,1.99947 2.0081402,1.99947 H 28.254874 c 0.52063,0 1.338762,0.074 1.933765,0.66649 0.520629,0.44435 0.743757,1.18488 0.743757,1.9995 v 19.40244 c 0,1.11082 0.892508,1.99948 2.008141,1.99948 H 52.65006 c 1.115633,0 2.008141,-0.88866 2.008141,-1.99948 v -19.47649 c 0,-0.74057 0.297501,-1.40706 0.743756,-1.85138 0.446251,-0.44434 1.115631,-0.6665 1.933763,-0.6665 h 19.412023 c 1.115633,0 2.00814,-0.88866 2.00814,-1.99949 v -20.36516 c 0,-1.11082 -0.892507,-1.99947 -2.00814,-1.99947 h -19.4864 c -0.743756,0 -1.413136,-0.22218 -1.933763,-0.6665 -0.446255,-0.44433 -0.743755,-1.11083 -0.743755,-1.85138 V 96.48887 c 0,-1.11082 -0.892508,-1.99948 -2.00814,-1.99948 H 32.866161 v 0 c -0.520629,0 -1.041257,0.22217 -1.413136,0.59243 -0.371879,0.37027 -0.595006,0.88866 -0.595006,1.40705 v 19.25432 c 0,0.51838 0,1.18489 -0.520627,1.85139 -0.595004,0.66648 -1.413137,0.74054 -2.082518,0.74054 z"
     id="path23-1"
     inkscape:export-filename="C:\All\Batocera\batocera-assets\controller-overlays\generic.png"
     inkscape:export-xdpi="96"
     inkscape:export-ydpi="96"
     sodipodi:nodetypes="ssscsssscsssscsssscsscsssscssssssssssssscssscsssscscc" /><text
     xml:space="preserve"
     id="text83349-9"
     style="font-style:normal;font-variant:normal;font-weight:normal;font-stretch:normal;font-size:17.3333px;line-height:1.25;font-family:Comfortaa;-inkscape-font-specification:'Comfortaa, Normal';font-variant-ligatures:normal;font-variant-position:normal;font-variant-caps:normal;font-variant-numeric:normal;font-variant-alternates:normal;font-variant-east-asian:normal;text-indent:0;text-align:center;text-decoration-line:none;text-decoration-style:solid;text-decoration-color:#000000;letter-spacing:1px;word-spacing:0px;text-transform:none;writing-mode:lr-tb;direction:ltr;text-orientation:mixed;dominant-baseline:auto;baseline-shift:baseline;white-space:pre;shape-inside:url(#rect83351-4-1);shape-padding:0;shape-margin:0;inline-size:0;display:inline;fill:#ffd8b2;fill-opacity:1;stroke:#000000;stroke-width:3;stroke-linecap:round;stroke-linejoin:round;stroke-miterlimit:4;stroke-dasharray:none;stroke-dashoffset:0;stroke-opacity:1;paint-order:stroke fill markers;stop-color:#000000"
     x="7.8984375"
     y="0"
     transform="matrix(1.1097336,0,0,1.1097336,-138.43279,3.0301222)"><tspan
       x="133.20184"
       y="121.64941"
       id="tspan1111">D-PAD</tspan></text></g><g
   inkscape:groupmode="layer"
   id="layer10"
   inkscape:label="Dual-sticks"
   style="display:inline"><text
     xml:space="preserve"
     id="text83349-05"
     style="font-style:normal;font-variant:normal;font-weight:normal;font-stretch:normal;font-size:21.3333px;line-height:1.25;font-family:Comfortaa;-inkscape-font-specification:'Comfortaa, Normal';font-variant-ligatures:normal;font-variant-position:normal;font-variant-caps:normal;font-variant-numeric:normal;font-variant-alternates:normal;font-variant-east-asian:normal;text-indent:0;text-align:center;text-decoration-line:none;text-decoration-style:solid;text-decoration-color:#000000;letter-spacing:1px;word-spacing:0px;text-transform:none;writing-mode:lr-tb;direction:ltr;text-orientation:mixed;dominant-baseline:auto;baseline-shift:baseline;white-space:pre;shape-inside:url(#rect83351-52-67);shape-padding:0;shape-margin:0;inline-size:0;display:inline;fill:#ffd8b2;fill-opacity:1;stroke:#000000;stroke-width:3;stroke-linecap:round;stroke-linejoin:round;stroke-miterlimit:4;stroke-dasharray:none;stroke-dashoffset:0;stroke-opacity:1;paint-order:stroke fill markers;stop-color:#000000"
     x="7.8984375"
     y="0"
     transform="matrix(1.1097336,0,0,1.1097336,-105.30114,99.22824)"><tspan
       x="131.73753"
       y="125.30995"
       id="tspan1113">L3</tspan></text><path
     style="color:#000000;display:inline;fill:#ffd8b2;stroke:#000000;stroke-width:3.3292;stroke-linecap:round;stroke-linejoin:round;stroke-miterlimit:4;stroke-dasharray:none;stroke-opacity:1;paint-order:stroke fill markers"
     d="m 55.955581,193.0016 c -19.888345,0 -36.042502,16.15415 -36.042502,36.04251 0,19.88834 16.154158,36.04249 36.042502,36.04249 19.888343,0 36.042502,-16.15415 36.042502,-36.04249 0,-19.88836 -16.154158,-36.04251 -36.042502,-36.04251 z m 0,2.89138 c 18.326012,0 33.151125,14.8251 33.151125,33.15113 0,18.32599 -14.825113,33.1511 -33.151125,33.1511 -18.326012,0 -33.151126,-14.82511 -33.151126,-33.1511 0,-18.32603 14.825114,-33.15113 33.151126,-33.15113 z"
     id="circle74" /><path
     style="color:#000000;display:inline;fill:#ffd8b2;stroke:#000000;stroke-width:3.3292;stroke-linecap:round;stroke-linejoin:round;stroke-miterlimit:4;stroke-dasharray:none;stroke-opacity:1;paint-order:stroke fill markers"
     d="m 55.955581,204.80768 c -13.368259,0 -24.236409,10.86816 -24.236409,24.23643 0,13.36824 10.86815,24.2364 24.236409,24.2364 13.368258,0 24.236409,-10.86816 24.236409,-24.2364 0,-13.36827 -10.868151,-24.23643 -24.236409,-24.23643 z m 0,2.89138 c 11.805917,0 21.345032,9.53911 21.345032,21.34505 0,11.8059 -9.539115,21.34502 -21.345032,21.34502 -11.805918,0 -21.345033,-9.53912 -21.345033,-21.34502 0,-11.80594 9.539114,-21.34505 21.345033,-21.34505 z"
     id="circle76" /><path
     style="color:#000000;display:inline;fill:#ffd8b2;stroke:#000000;stroke-width:3.3292;stroke-linecap:round;stroke-linejoin:round;stroke-miterlimit:4;stroke-dasharray:none;stroke-opacity:1;paint-order:stroke fill markers"
     d="m 157.79965,204.80768 c -13.36826,0 -24.23639,10.86816 -24.23639,24.23643 0,13.36824 10.86813,24.2364 24.23639,24.2364 13.36827,0 24.23642,-10.86816 24.23642,-24.2364 0,-13.36827 -10.86815,-24.23643 -24.23642,-24.23643 z m 0,2.89138 c 11.80593,0 21.34503,9.53911 21.34503,21.34505 0,11.8059 -9.5391,21.34502 -21.34503,21.34502 -11.80592,0 -21.34719,-9.53912 -21.34719,-21.34502 0,-11.80594 9.54127,-21.34505 21.34719,-21.34505 z"
     id="circle78" /><path
     style="color:#000000;display:inline;fill:#ffd8b2;stroke:#000000;stroke-width:3.3292;stroke-linecap:round;stroke-linejoin:round;stroke-miterlimit:4;stroke-dasharray:none;stroke-opacity:1;paint-order:stroke fill markers"
     d="m 157.79965,193.0016 c -19.88834,0 -36.0425,16.15415 -36.0425,36.04251 0,19.88834 16.15416,36.04249 36.0425,36.04249 19.88835,0 36.04033,-16.15415 36.04033,-36.04249 0,-19.88836 -16.15198,-36.04251 -36.04033,-36.04251 z m 0,2.89138 c 18.32602,0 33.15113,14.8251 33.15113,33.15113 0,18.32599 -14.82511,33.15111 -33.15113,33.1511 -18.326,0 -33.15112,-14.82511 -33.15112,-33.1511 0,-18.32603 14.82512,-33.15113 33.15112,-33.15113 z"
     id="circle80" /><text
     xml:space="preserve"
     id="text83349-05-9"
     style="font-style:normal;font-variant:normal;font-weight:normal;font-stretch:normal;font-size:21.3333px;line-height:1.25;font-family:Comfortaa;-inkscape-font-specification:'Comfortaa, Normal';font-variant-ligatures:normal;font-variant-position:normal;font-variant-caps:normal;font-variant-numeric:normal;font-variant-alternates:normal;font-variant-east-asian:normal;text-indent:0;text-align:center;text-decoration-line:none;text-decoration-style:solid;text-decoration-color:#000000;letter-spacing:1px;word-spacing:0px;text-transform:none;writing-mode:lr-tb;direction:ltr;text-orientation:mixed;dominant-baseline:auto;baseline-shift:baseline;white-space:pre;shape-inside:url(#rect83351-52-6-8);shape-padding:0;shape-margin:0;inline-size:0;display:inline;fill:#ffd8b2;fill-opacity:1;stroke:#000000;stroke-width:3;stroke-linecap:round;stroke-linejoin:round;stroke-miterlimit:4;stroke-dasharray:none;stroke-dashoffset:0;stroke-opacity:1;paint-order:stroke fill markers;stop-color:#000000"
     x="7.8984375"
     y="0"
     transform="matrix(1.1097336,0,0,1.1097336,-3.3876199,99.22824)"><tspan
       x="131.89754"
       y="125.30995"
       id="tspan1115">R3</tspan></text><rect
     style="display:inline;opacity:0.5;fill:#000000;fill-opacity:1;stroke:none;stroke-width:1.66458;stroke-linecap:round;stroke-linejoin:round;stroke-miterlimit:4;stroke-dasharray:none;stroke-opacity:1;paint-order:stroke fill markers"
     id="rect38642-2-0-9"
     width="60.23172"
     height="10.243361"
     x="25.839725"
     y="267.39108"
     ry="1.1725925"
     rx="1.6355534" /><text
     xml:space="preserve"
     id="text127462-3"
     style="font-style:normal;font-variant:normal;font-weight:bold;font-stretch:normal;font-size:8px;line-height:1.25;font-family:Comfortaa;-inkscape-font-specification:'Comfortaa Bold';font-variant-ligatures:normal;font-variant-caps:normal;font-variant-numeric:normal;font-variant-east-asian:normal;text-align:center;text-decoration-color:#000000;letter-spacing:0px;word-spacing:0px;white-space:pre;shape-inside:url(#rect127464-7-2-2);display:inline;fill:#ffd8b2;fill-opacity:1;stroke:none;stroke-width:1.5;stroke-linecap:round;stroke-linejoin:round;stroke-miterlimit:4;stroke-dasharray:none;stroke-opacity:1;paint-order:stroke fill markers;stop-color:#000000"
     x="10.010417"
     y="0"
     transform="matrix(1.1097336,0,0,1.1097336,-65.495552,104.34281)"><tspan
       x="85.431793"
       y="154.66483"
       id="tspan1117">LEFT STICK</tspan></text><rect
     style="display:inline;opacity:0.5;fill:#000000;fill-opacity:1;stroke:none;stroke-width:1.66458;stroke-linecap:round;stroke-linejoin:round;stroke-miterlimit:4;stroke-dasharray:none;stroke-opacity:1;paint-order:stroke fill markers"
     id="rect38642-2-0"
     width="60.23172"
     height="10.243361"
     x="127.6827"
     y="267.39108"
     ry="1.1725925"
     rx="1.6355534" /><text
     xml:space="preserve"
     id="text127462-3-6"
     style="font-style:normal;font-variant:normal;font-weight:bold;font-stretch:normal;font-size:8px;line-height:1.25;font-family:Comfortaa;-inkscape-font-specification:'Comfortaa Bold';font-variant-ligatures:normal;font-variant-caps:normal;font-variant-numeric:normal;font-variant-east-asian:normal;text-align:center;text-decoration-color:#000000;letter-spacing:0px;word-spacing:0px;white-space:pre;shape-inside:url(#rect127464-7-2-8-7);display:inline;fill:#ffd8b2;fill-opacity:1;stroke:none;stroke-width:1.5;stroke-linecap:round;stroke-linejoin:round;stroke-miterlimit:4;stroke-dasharray:none;stroke-opacity:1;paint-order:stroke fill markers;stop-color:#000000"
     x="10.010417"
     y="0"
     transform="matrix(1.1097336,0,0,1.1097336,36.347429,104.34281)"><tspan
       x="82.963791"
       y="154.66483"
       id="tspan1119">RIGHT STICK</tspan></text></g><g
   inkscape:groupmode="layer"
   id="layer4"
   inkscape:label="Shoulder buttons (1st tier)"
   style="display:inline"><path
     style="display:inline;fill:#ffd8b2;fill-opacity:1;stroke:#000000;stroke-width:3.3292;stroke-linecap:round;stroke-linejoin:round;stroke-miterlimit:4;stroke-dasharray:none;stroke-opacity:1;paint-order:stroke fill markers"
     d="m 77.351216,70.309643 c 0,2.66598 -2.156902,4.887635 -4.908792,4.887635 H 29.680765 c -5.736335,0 -10.394459,2.500549 -13.061426,3.541006 -1.11901,0.436556 -2.929829,0.102874 -4.02888,-0.70376 -1.211922,-0.889475 -2.072367,-2.289809 -2.072367,-4.005569 V 54.235319 c 0,-1.625992 0.826643,-3.131836 2.054938,-3.980544 3.995183,-2.760531 11.285666,-5.346021 17.107735,-5.346021 h 42.761659 c 2.75189,0 4.908792,2.221654 4.908792,4.887634 z M 74.450562,49.796385 c 0,-1.110822 -0.892505,-1.999486 -2.008138,-1.999486 H 29.680765 c -5.559276,0 -11.66616,2.633118 -15.36006,4.765794 -0.517498,0.298776 -0.906298,1.005625 -0.901966,1.67263 V 74.02896 c 0,0.58835 0.266593,1.174806 0.70332,1.524996 0.477264,0.382695 1.156771,0.608173 1.793741,0.388074 2.914824,-1.007191 6.98408,-3.714244 14.285152,-3.702255 l 42.241472,0.06936 c 1.115633,0.0018 2.008138,-0.888664 2.008138,-1.999486 z"
     id="path23-1-9-3"
     sodipodi:nodetypes="csssascssscccssscsassscc" /><path
     style="display:inline;fill:#ffd8b2;fill-opacity:1;stroke:#000000;stroke-width:3.3292;stroke-linecap:round;stroke-linejoin:round;stroke-miterlimit:4;stroke-dasharray:none;stroke-opacity:1;paint-order:stroke fill markers"
     d="m 147.63928,70.309643 c 0,2.66598 2.1569,4.887635 4.9088,4.887635 h 42.76163 c 5.73634,0 10.39448,2.500549 13.06145,3.541006 1.11901,0.436556 2.92983,0.102874 4.02887,-0.70376 1.21194,-0.889475 2.07237,-2.289809 2.07237,-4.005569 V 54.235319 c 0,-1.625992 -0.82664,-3.131836 -2.05493,-3.980544 -3.99519,-2.760531 -11.28566,-5.346021 -17.10776,-5.346021 h -42.76163 c -2.7519,0 -4.9088,2.221654 -4.9088,4.887634 z m 2.90065,-20.513258 c 0,-1.110822 0.89249,-1.999486 2.00815,-1.999486 h 42.76165 c 5.55928,0 11.66617,2.633118 15.36007,4.765794 0.51749,0.298776 0.90629,1.005625 0.90197,1.67263 V 74.02896 c 0,0.58835 -0.2666,1.174806 -0.70332,1.524996 -0.47728,0.382695 -1.15678,0.608173 -1.79374,0.388074 -2.91483,-1.007191 -6.9841,-3.714244 -14.28516,-3.702255 l -42.24147,0.06936 c -1.11566,0.0018 -2.00815,-0.888664 -2.00815,-1.999486 z"
     id="path23-1-9-3-6"
     sodipodi:nodetypes="csssascssscccssscsassscc" /><text
     xml:space="preserve"
     id="text83349-9-6-0"
     style="font-style:normal;font-variant:normal;font-weight:normal;font-stretch:normal;font-size:18.6667px;line-height:1.25;font-family:Comfortaa;-inkscape-font-specification:'Comfortaa, Normal';font-variant-ligatures:normal;font-variant-position:normal;font-variant-caps:normal;font-variant-numeric:normal;font-variant-alternates:normal;font-variant-east-asian:normal;text-indent:0;text-align:center;text-decoration-line:none;text-decoration-style:solid;text-decoration-color:#000000;letter-spacing:2px;word-spacing:0px;text-transform:none;writing-mode:lr-tb;direction:ltr;text-orientation:mixed;dominant-baseline:auto;baseline-shift:baseline;white-space:pre;shape-inside:url(#rect83351-4-1-4-4);shape-padding:0;shape-margin:0;inline-size:0;display:inline;fill:#ffd8b2;fill-opacity:1;stroke:#000000;stroke-width:3;stroke-linecap:round;stroke-linejoin:round;stroke-miterlimit:4;stroke-dasharray:none;stroke-dashoffset:0;stroke-opacity:1;paint-order:stroke fill markers;stop-color:#000000"
     x="7.8984375"
     y="0"
     transform="matrix(1.1097336,0,0,1.1097336,0.20283583,-68.186705)"><tspan
       x="152.67374"
       y="122.86965"
       id="tspan1121">R1</tspan></text><text
     xml:space="preserve"
     id="text83349-9-6"
     style="font-style:normal;font-variant:normal;font-weight:normal;font-stretch:normal;font-size:18.6667px;line-height:1.25;font-family:Comfortaa;-inkscape-font-specification:'Comfortaa, Normal';font-variant-ligatures:normal;font-variant-position:normal;font-variant-caps:normal;font-variant-numeric:normal;font-variant-alternates:normal;font-variant-east-asian:normal;text-indent:0;text-align:center;text-decoration-line:none;text-decoration-style:solid;text-decoration-color:#000000;letter-spacing:-0.25px;word-spacing:0px;text-transform:none;writing-mode:lr-tb;direction:ltr;text-orientation:mixed;dominant-baseline:auto;baseline-shift:baseline;white-space:pre;shape-inside:url(#rect83351-4-1-4-1);shape-padding:0;shape-margin:0;inline-size:0;display:inline;fill:#ffd8b2;fill-opacity:1;stroke:#000000;stroke-width:3;stroke-linecap:round;stroke-linejoin:round;stroke-miterlimit:4;stroke-dasharray:none;stroke-dashoffset:0;stroke-opacity:1;paint-order:stroke fill markers;stop-color:#000000"
     x="7.8984375"
     y="0"
     transform="matrix(1.1097336,0,0,1.1097336,-136.91835,-68.186705)"><tspan
       x="153.65873"
       y="122.86965"
       id="tspan1123">L1</tspan></text></g><g
   inkscape:groupmode="layer"
   id="layer6"
   inkscape:label="Shoulder triggers (2nd tier)"
   style="display:inline"><path
     style="display:inline;fill:#ffd8b2;fill-opacity:1;stroke:#000000;stroke-width:3.3292;stroke-linecap:round;stroke-linejoin:round;stroke-miterlimit:4;stroke-dasharray:none;stroke-opacity:1;paint-order:stroke fill markers"
     d="m 77.351216,34.747875 c 0,2.665981 -2.156902,4.887633 -4.908792,4.887633 H 29.680765 c -5.736335,0 -10.394459,1.987768 -13.061426,3.028226 -1.11901,0.436555 -2.929829,0.102871 -4.02888,-0.703761 -1.211924,-0.889475 -2.072367,-2.289809 -2.072367,-4.005567 0,-21.258266 9.826987,-34.1560877 61.924332,-34.1560877 2.75189,0 4.908792,2.221653 4.908792,4.887633 z M 74.450562,8.6859483 c 0,-1.110823 -0.892505,-1.999488 -2.008138,-1.999488 -47.658429,0 -59.023685,11.3328287 -59.023685,31.2679497 0,0.588348 0.266593,1.174805 0.70332,1.524996 0.477264,0.382693 1.156771,0.608173 1.793741,0.388073 2.914824,-1.007192 6.98408,-3.201461 14.285152,-3.189472 l 42.241472,0.06935 c 1.115633,0.0018 2.008138,-0.888664 2.008138,-1.999485 z"
     id="path23-1-9-3-3"
     sodipodi:nodetypes="csssasscccssassscc" /><path
     style="display:inline;fill:#ffd8b2;fill-opacity:1;stroke:#000000;stroke-width:3.3292;stroke-linecap:round;stroke-linejoin:round;stroke-miterlimit:4;stroke-dasharray:none;stroke-opacity:1;paint-order:stroke fill markers"
     d="m 147.63929,34.747875 c 0,2.665981 2.1569,4.887633 4.90877,4.887633 h 42.76167 c 5.73634,0 10.39446,1.987768 13.06143,3.028226 1.11901,0.436555 2.92983,0.102871 4.02888,-0.703761 1.21193,-0.889475 2.07236,-2.289809 2.07236,-4.005567 0,-21.258266 -9.82699,-34.1560877 -61.92434,-34.1560877 -2.75187,0 -4.90877,2.221653 -4.90877,4.887633 z m 2.90065,-26.0619267 c 0,-1.110822 0.89249,-1.999486 2.00812,-1.999486 47.65845,0 59.02371,11.3328267 59.02371,31.2679477 0,0.588348 -0.2666,1.174805 -0.70332,1.524996 -0.47728,0.382693 -1.15678,0.608173 -1.79375,0.388073 -2.91482,-1.007192 -6.98409,-3.201461 -14.28515,-3.189472 l -42.24149,0.06935 c -1.11563,0.0018 -2.00812,-0.888664 -2.00812,-1.999485 z"
     id="path23-1-9-3-3-88"
     sodipodi:nodetypes="csssasscccssassscc" /><text
     xml:space="preserve"
     id="text83349-9-6-0-2"
     style="font-style:normal;font-variant:normal;font-weight:normal;font-stretch:normal;font-size:18.6667px;line-height:1.25;font-family:Comfortaa;-inkscape-font-specification:'Comfortaa, Normal';font-variant-ligatures:normal;font-variant-position:normal;font-variant-caps:normal;font-variant-numeric:normal;font-variant-alternates:normal;font-variant-east-asian:normal;text-indent:0;text-align:center;text-decoration-line:none;text-decoration-style:solid;text-decoration-color:#000000;letter-spacing:2px;word-spacing:0px;text-transform:none;writing-mode:lr-tb;direction:ltr;text-orientation:mixed;dominant-baseline:auto;baseline-shift:baseline;white-space:pre;shape-inside:url(#rect83351-4-1-4-4-4-0);shape-padding:0;shape-margin:0;inline-size:0;display:inline;fill:#ffd8b2;fill-opacity:1;stroke:#000000;stroke-width:3;stroke-linecap:round;stroke-linejoin:round;stroke-miterlimit:4;stroke-dasharray:none;stroke-dashoffset:0;stroke-opacity:1;paint-order:stroke fill markers;stop-color:#000000"
     x="7.8984375"
     y="0"
     transform="matrix(1.1097336,0,0,1.1097336,-0.34609731,-104.63888)"><tspan
       x="150.77906"
       y="122.86965"
       id="tspan1125">R2</tspan></text><text
     xml:space="preserve"
     id="text83349-9-6-6"
     style="font-style:normal;font-variant:normal;font-weight:normal;font-stretch:normal;font-size:18.6667px;line-height:1.25;font-family:Comfortaa;-inkscape-font-specification:'Comfortaa, Normal';font-variant-ligatures:normal;font-variant-position:normal;font-variant-caps:normal;font-variant-numeric:normal;font-variant-alternates:normal;font-variant-east-asian:normal;text-indent:0;text-align:center;text-decoration-line:none;text-decoration-style:solid;text-decoration-color:#000000;letter-spacing:1.75px;word-spacing:0px;text-transform:none;writing-mode:lr-tb;direction:ltr;text-orientation:mixed;dominant-baseline:auto;baseline-shift:baseline;white-space:pre;shape-inside:url(#rect83351-4-1-4-9-7);shape-padding:0;shape-margin:0;inline-size:0;display:inline;fill:#ffd8b2;fill-opacity:1;stroke:#000000;stroke-width:3;stroke-linecap:round;stroke-linejoin:round;stroke-miterlimit:4;stroke-dasharray:none;stroke-dashoffset:0;stroke-opacity:1;paint-order:stroke fill markers;stop-color:#000000"
     x="7.8984375"
     y="0"
     transform="matrix(1.1097336,0,0,1.1097336,-137.46728,-104.63888)"><tspan
       x="150.76405"
       y="122.86965"
       id="tspan1127">L2</tspan></text></g></svg>
