<?xml version="1.0" encoding="UTF-8" standalone="no"?>
<!-- Generator: Adobe Illustrator 24.0.1, SVG Export Plug-In . SVG Version: 6.00 Build 0)  -->

<svg
   version="1.1"
   id="Layer_3"
   x="0px"
   y="0px"
   viewBox="0 0 225 280"
   xml:space="preserve"
   sodipodi:docname="adam.svg"
   inkscape:version="1.1.1 (3bf5ae0d25, 2021-09-20)"
   inkscape:export-filename="C:\All\Batocera\batocera-controller-overlays\adam.png"
   inkscape:export-xdpi="96"
   inkscape:export-ydpi="96"
   width="225"
   height="280"
   xmlns:inkscape="http://www.inkscape.org/namespaces/inkscape"
   xmlns:sodipodi="http://sodipodi.sourceforge.net/DTD/sodipodi-0.dtd"
   xmlns:xlink="http://www.w3.org/1999/xlink"
   xmlns="http://www.w3.org/2000/svg"
   xmlns:svg="http://www.w3.org/2000/svg"><defs
   id="defs75"><inkscape:path-effect
     effect="taper_stroke"
     id="path-effect15526"
     is_visible="true"
     lpeversion="1"
     stroke_width="8"
     attach_start="2.8221401"
     end_offset="1.1778599"
     start_smoothing="0.5"
     end_smoothing="0.5"
     jointype="extrapolated"
     start_shape="center"
     end_shape="center"
     miter_limit="100" /><inkscape:path-effect
     effect="spiro"
     id="path-effect15491"
     is_visible="true"
     lpeversion="1" /><inkscape:path-effect
     effect="envelope"
     id="path-effect76373"
     is_visible="true"
     lpeversion="1"
     yy="true"
     xx="true"
     bendpath1="M 23.537096,16.621557 H 86.140921"
     bendpath2="M 86.140921,16.621557 V 39.916004"
     bendpath3="M 23.537096,39.916004 H 86.140921"
     bendpath4="M 23.537096,16.621557 V 39.916004" /><inkscape:path-effect
     effect="lattice2"
     gridpoint0="23.537096,16.621557"
     gridpoint1="86.140921,16.621557"
     gridpoint2="23.537096,39.916004"
     gridpoint3="86.140921,39.916004"
     gridpoint4="39.188052,16.621557"
     gridpoint5="70.489964,16.621557"
     gridpoint6="39.188052,39.916004"
     gridpoint7="70.489964,39.916004"
     gridpoint8x9="54.839008,16.621557"
     gridpoint10x11="54.839008,39.916004"
     gridpoint12="23.537096,22.445169"
     gridpoint13="86.140921,22.445169"
     gridpoint14="23.537096,34.092392"
     gridpoint15="86.140921,34.092392"
     gridpoint16="39.188052,22.445169"
     gridpoint17="70.489964,22.445169"
     gridpoint18="39.188052,34.092392"
     gridpoint19="70.489964,34.092392"
     gridpoint20x21="54.839008,22.445169"
     gridpoint22x23="54.839008,34.092392"
     gridpoint24x26="23.537096,28.268781"
     gridpoint25x27="86.140921,28.268781"
     gridpoint28x30="39.188052,28.268781"
     gridpoint29x31="70.489964,28.268781"
     gridpoint32x33x34x35="54.839008,28.268781"
     id="path-effect76371"
     is_visible="true"
     lpeversion="1"
     horizontal_mirror="false"
     vertical_mirror="false"
     perimetral="true"
     live_update="true" /><inkscape:path-effect
     effect="attach_path"
     id="path-effect76369"
     lpeversion="1"
     endcurveend="11.768548,10.555296 , -11.059262,26.691553"
     is_visible="true"
     startpath=""
     startposition="0"
     startcurvestart="0,0 , 20,0"
     startcurveend="23.658422,11.889874 , 28.614092,-5.9449372"
     endpath=""
     endposition="0"
     endcurvestart="0,0 , 20,0" /><inkscape:path-effect
     effect="envelope"
     id="path-effect76348"
     is_visible="true"
     lpeversion="1"
     yy="true"
     xx="true"
     bendpath1="M 23.537096,16.621557 61.997198,10.797945"
     bendpath2="M 86.140921,16.621557 V 39.916004"
     bendpath3="M 23.537096,42.342509 86.140921,39.916004"
     bendpath4="M 23.537096,16.621557 V 50.592625"
     bendpath4-nodetypes="cc"
     bendpath3-nodetypes="cc"
     bendpath1-nodetypes="cc" /><rect
     x="76.739281"
     y="147.34442"
     width="33.36795"
     height="20.843538"
     id="rect127464" /><rect
     x="128.2495"
     y="105.78697"
     width="33.960148"
     height="33.738186"
     id="rect83351" /><rect
     x="127.67705"
     y="105.52645"
     width="34.594753"
     height="33.972546"
     id="rect34999" /><rect
     x="161.5537"
     y="139.78229"
     width="33.151905"
     height="33.894112"
     id="rect24475" /><rect
     x="128.2495"
     y="105.78697"
     width="33.960148"
     height="33.738186"
     id="rect83351-3" /><rect
     x="128.2495"
     y="105.78697"
     width="33.960148"
     height="33.738186"
     id="rect83351-9" /><rect
     x="128.2495"
     y="105.78697"
     width="33.960148"
     height="33.738186"
     id="rect83351-5" /><rect
     x="76.739281"
     y="147.34442"
     width="32.54847"
     height="20.780947"
     id="rect127464-0" /><rect
     x="128.2495"
     y="105.78697"
     width="69.439232"
     height="31.708288"
     id="rect83351-4" /><rect
     x="128.2495"
     y="105.78697"
     width="33.960148"
     height="33.738186"
     id="rect83351-52" /><rect
     x="128.2495"
     y="105.78697"
     width="33.960148"
     height="33.738186"
     id="rect83351-52-6" /><rect
     x="128.2495"
     y="105.78697"
     width="33.960148"
     height="33.738186"
     id="rect83351-37" /><rect
     x="128.2495"
     y="105.78697"
     width="33.960148"
     height="33.738186"
     id="rect83351-3-9" /><rect
     x="128.2495"
     y="105.78697"
     width="33.960148"
     height="33.738186"
     id="rect83351-9-2" /><rect
     x="128.2495"
     y="105.78697"
     width="33.960148"
     height="33.738186"
     id="rect83351-5-7" /><rect
     x="76.739281"
     y="147.34442"
     width="33.36795"
     height="20.843538"
     id="rect127464-7" /><rect
     x="76.739281"
     y="147.34442"
     width="32.54847"
     height="20.780947"
     id="rect127464-0-5" /><rect
     x="128.2495"
     y="105.78697"
     width="69.439232"
     height="31.708288"
     id="rect83351-4-1" /><rect
     x="128.2495"
     y="105.78697"
     width="33.960148"
     height="33.738186"
     id="rect83351-52-67" /><rect
     x="128.2495"
     y="105.78697"
     width="33.960148"
     height="33.738186"
     id="rect83351-52-6-8" /><rect
     x="128.2495"
     y="105.78697"
     width="69.439232"
     height="31.708288"
     id="rect83351-4-1-4" /><rect
     x="128.2495"
     y="105.78697"
     width="69.439232"
     height="31.708288"
     id="rect83351-4-1-4-4" /><rect
     x="128.2495"
     y="105.78697"
     width="69.439232"
     height="31.708288"
     id="rect83351-4-1-4-9" /><rect
     x="128.2495"
     y="105.78697"
     width="69.439232"
     height="31.708288"
     id="rect83351-4-1-4-4-4" /><rect
     x="76.739281"
     y="147.34442"
     width="65.207237"
     height="14.330957"
     id="rect127464-7-2" /><rect
     x="76.739281"
     y="147.34442"
     width="65.207237"
     height="14.330957"
     id="rect127464-7-2-8" /><inkscape:path-effect
     effect="fill_between_many"
     method="bsplinespiro"
     linkedpaths="#path15489,0,1"
     id="path-effect15528" /><rect
     x="76.739281"
     y="147.34442"
     width="32.54847"
     height="20.780947"
     id="rect127464-0-5-2-9-3" /></defs><sodipodi:namedview
   id="namedview73"
   pagecolor="#ffffff"
   bordercolor="#666666"
   borderopacity="1.0"
   inkscape:pageshadow="2"
   inkscape:pageopacity="0"
   inkscape:pagecheckerboard="true"
   showgrid="false"
   inkscape:current-layer="layer1"
   inkscape:snap-bbox="true"
   inkscape:bbox-nodes="true"
   inkscape:bbox-paths="true"
   inkscape:object-nodes="true"
   inkscape:snap-others="true"
   inkscape:snap-bbox-edge-midpoints="false"
   inkscape:snap-bbox-midpoints="false"
   inkscape:object-paths="false"
   inkscape:snap-smooth-nodes="false"
   inkscape:snap-page="true"
   fit-margin-top="0"
   fit-margin-left="0"
   fit-margin-right="0"
   fit-margin-bottom="0"
   inkscape:snap-grids="true"
   inkscape:snap-global="false"><inkscape:grid
     type="xygrid"
     id="grid1019" /></sodipodi:namedview>














<g
   inkscape:groupmode="layer"
   id="layer1"
   inkscape:label="Backplate"
   style="display:inline"
   sodipodi:insensitive="true"><rect
     style="fill:#000000;fill-opacity:0.25;stroke-width:10.7827;stroke-linecap:round;stroke-linejoin:round"
     id="rect937"
     width="223"
     height="278"
     x="1"
     y="1"
     rx="6.977437"
     ry="6.9689116" /></g><g
   inkscape:groupmode="layer"
   id="layer8"
   inkscape:label="Start/Select"><rect
     style="display:inline;opacity:0.5;fill:#000000;fill-opacity:1;stroke:none;stroke-width:1.6646;stroke-linecap:round;stroke-linejoin:round;stroke-miterlimit:4;stroke-dasharray:none;stroke-opacity:1;paint-order:stroke fill markers"
     id="rect38642"
     width="40.25547"
     height="10.243361"
     x="64.621254"
     y="182.39297"
     ry="1.1725925"
     rx="1.0931113" /><path
     style="display:inline;fill:#ffd8b2;fill-opacity:1;stroke:#000000;stroke-width:3.3292;stroke-linecap:round;stroke-linejoin:round;stroke-miterlimit:4;stroke-dasharray:none;stroke-opacity:1;paint-order:stroke fill markers"
     d="m 101.7542,175.07504 c 0,2.66598 -2.156893,4.88764 -4.908788,4.88764 h -24.14846 c -2.751896,0 -4.908786,-2.22166 -4.908786,-4.88764 v -11.09733 c 0,-2.66598 2.15689,-4.88764 4.908786,-4.88764 h 24.14846 c 2.751895,0 4.908788,2.22166 4.908788,4.88764 z m -2.900648,-11.09733 c 0,-1.11083 -0.892503,-1.99949 -2.00814,-1.99949 h -24.14846 c -1.115634,0 -2.008141,0.88866 -2.008141,1.99949 v 11.09733 c 0,1.11083 0.892507,1.99949 2.008141,1.99949 h 24.14846 c 1.115637,0 2.00814,-0.88866 2.00814,-1.99949 z"
     id="path23-1-9"
     sodipodi:nodetypes="cssccsscccssccsscc" /><path
     style="display:inline;fill:#ffd8b2;fill-opacity:1;stroke:#000000;stroke-width:3.3292;stroke-linecap:round;stroke-linejoin:round;stroke-miterlimit:4;stroke-dasharray:none;stroke-opacity:1;paint-order:stroke fill markers"
     d="m 144.65241,169.52638 c 0,2.66598 -2.27173,4.10095 -4.90878,4.88763 l -18.5998,5.54867 c -2.97772,0.88831 -6.01852,-2.22166 -6.01852,-4.88764 v -11.09733 c 0,-2.66598 2.7535,-5.86164 6.01852,-4.88764 l 18.5998,5.54867 c 2.63705,0.78668 4.90878,2.22166 4.90878,4.88764 z m -2.90064,0 c 0,-1.11082 -0.92083,-1.74966 -2.00814,-1.99948 l -18.5998,-5.54868 c -1.85534,-0.55348 -3.11788,0.88866 -3.11788,1.99949 v 11.09733 c 0,1.11083 1.46021,2.494 3.11788,1.99949 l 18.5998,-5.54867 c 1.08731,-0.24983 2.00814,-0.88866 2.00814,-1.99948 z"
     id="path23-1-9-7"
     sodipodi:nodetypes="cssccsscscsssscs" /><text
     xml:space="preserve"
     id="text127462"
     style="font-style:normal;font-variant:normal;font-weight:bold;font-stretch:normal;font-size:8px;line-height:1.25;font-family:Comfortaa;-inkscape-font-specification:'Comfortaa Bold';font-variant-ligatures:normal;font-variant-caps:normal;font-variant-numeric:normal;font-variant-east-asian:normal;text-align:center;text-decoration-color:#000000;letter-spacing:0px;word-spacing:0px;white-space:pre;shape-inside:url(#rect127464-7);display:inline;fill:#ffd8b2;fill-opacity:1;stroke:none;stroke-width:1.5;stroke-linecap:round;stroke-linejoin:round;stroke-miterlimit:4;stroke-dasharray:none;stroke-opacity:1;paint-order:stroke fill markers;stop-color:#000000"
     x="10.010417"
     y="0"
     transform="matrix(1.1097336,0,0,1.1097336,-19.113016,19.344706)"><tspan
       x="91.099831"
       y="154.66483"
       id="tspan1026">9</tspan></text><rect
     style="display:inline;opacity:0.5;fill:#000000;fill-opacity:1;stroke:none;stroke-width:1.66458;stroke-linecap:round;stroke-linejoin:round;stroke-miterlimit:4;stroke-dasharray:none;stroke-opacity:1;paint-order:stroke fill markers"
     id="rect38642-2-0-9"
     width="60.23172"
     height="10.243361"
     x="25.839725"
     y="267.39108"
     ry="1.1725925"
     rx="1.6355534" /><text
     xml:space="preserve"
     id="text127462-3"
     style="font-style:normal;font-variant:normal;font-weight:bold;font-stretch:normal;font-size:8px;line-height:1.25;font-family:Comfortaa;-inkscape-font-specification:'Comfortaa Bold';font-variant-ligatures:normal;font-variant-caps:normal;font-variant-numeric:normal;font-variant-east-asian:normal;text-align:center;text-decoration-color:#000000;letter-spacing:0px;word-spacing:0px;white-space:pre;shape-inside:url(#rect127464-7-2);display:inline;fill:#ffd8b2;fill-opacity:1;stroke:none;stroke-width:1.5;stroke-linecap:round;stroke-linejoin:round;stroke-miterlimit:4;stroke-dasharray:none;stroke-opacity:1;paint-order:stroke fill markers;stop-color:#000000"
     x="10.010417"
     y="0"
     transform="matrix(1.1097336,0,0,1.1097336,-65.495552,104.34281)"><tspan
       x="97.115768"
       y="154.66483"
       id="tspan1028">STICK</tspan></text><rect
     style="display:inline;opacity:0.5;fill:#000000;fill-opacity:1;stroke:none;stroke-width:1.6646;stroke-linecap:round;stroke-linejoin:round;stroke-miterlimit:4;stroke-dasharray:none;stroke-opacity:1;paint-order:stroke fill markers"
     id="rect38642-7"
     width="40.25547"
     height="10.243361"
     x="109.73895"
     y="182.39297"
     ry="1.1725925"
     rx="1.0931113" /><text
     xml:space="preserve"
     id="text127462-9"
     style="font-style:normal;font-variant:normal;font-weight:bold;font-stretch:normal;font-size:8px;line-height:1.25;font-family:Comfortaa;-inkscape-font-specification:'Comfortaa Bold';font-variant-ligatures:normal;font-variant-caps:normal;font-variant-numeric:normal;font-variant-east-asian:normal;text-align:center;text-decoration-color:#000000;letter-spacing:0px;word-spacing:0px;white-space:pre;shape-inside:url(#rect127464-0-5);display:inline;fill:#ffd8b2;fill-opacity:1;stroke:none;stroke-width:1.5;stroke-linecap:round;stroke-linejoin:round;stroke-miterlimit:4;stroke-dasharray:none;stroke-opacity:1;paint-order:stroke fill markers;stop-color:#000000"
     x="10.010417"
     y="0"
     transform="matrix(1.1097336,0,0,1.1097336,26.459827,19.340267)"><tspan
       x="90.981674"
       y="154.66483"
       id="tspan1030">=</tspan></text></g><g
   inkscape:groupmode="layer"
   id="layer7"
   inkscape:label="Face buttons"
   style="display:inline"><path
     style="display:inline;fill:#ffd8b2;fill-opacity:1;stroke:#000000;stroke-width:3.3292;stroke-linecap:round;stroke-linejoin:round;stroke-miterlimit:4;stroke-dasharray:none;stroke-opacity:1;paint-order:stroke fill markers"
     d="m 203.43892,148.23892 c -9.74319,0 -17.70138,-7.92389 -17.70138,-17.62511 0,-9.70123 7.95819,-17.62512 17.70138,-17.62512 9.7432,0 17.70139,7.92389 17.70139,17.62512 0,9.70122 -7.95819,17.62511 -17.70139,17.62511 z m 0,-32.28802 c -8.10694,0 -14.72637,6.5909 -14.72637,14.66291 0,8.07201 6.61943,14.6629 14.72637,14.6629 8.10694,0 14.72637,-6.59089 14.72637,-14.6629 0,-8.07201 -6.61943,-14.66291 -14.72637,-14.66291 z"
     id="path43-1-81" /><path
     style="display:inline;fill:#ffd8b2;fill-opacity:1;stroke:#000000;stroke-width:3.3292;stroke-linecap:round;stroke-linejoin:round;stroke-miterlimit:4;stroke-dasharray:none;stroke-opacity:1;paint-order:stroke fill markers"
     d="m 172.07535,117.01049 c -9.74318,0 -17.70138,-7.9239 -17.70138,-17.62512 0,-9.701218 7.9582,-17.625113 17.70138,-17.625113 9.7432,0 17.70138,7.923895 17.70138,17.625113 0,9.70122 -7.95818,17.62512 -17.70138,17.62512 z m 0,-32.288031 c -8.10693,0 -14.72636,6.590905 -14.72636,14.662911 0,8.072 6.61943,14.66291 14.72636,14.66291 8.10694,0 14.72636,-6.59091 14.72636,-14.66291 0,-8.072006 -6.61942,-14.662911 -14.72636,-14.662911 z"
     id="path43-1-7" /><path
     style="display:inline;fill:#ffd8b2;fill-opacity:1;stroke:#000000;stroke-width:3.3292;stroke-linecap:round;stroke-linejoin:round;stroke-miterlimit:4;stroke-dasharray:none;stroke-opacity:1;paint-order:stroke fill markers"
     d="m 172.07535,179.46736 c -9.74318,0 -17.70138,-7.92389 -17.70138,-17.62512 0,-9.70121 7.9582,-17.62511 17.70138,-17.62511 9.7432,0 17.70138,7.9239 17.70138,17.62511 0,9.70123 -7.95818,17.62512 -17.70138,17.62512 z m 0,-32.28802 c -8.10693,0 -14.72636,6.5909 -14.72636,14.6629 0,8.07202 6.61943,14.6629 14.72636,14.6629 8.10694,0 14.72636,-6.59088 14.72636,-14.6629 0,-8.072 -6.61942,-14.6629 -14.72636,-14.6629 z"
     id="path43-1-81-1" /><path
     style="display:inline;fill:#ffd8b2;fill-opacity:1;stroke:#000000;stroke-width:3.3292;stroke-linecap:round;stroke-linejoin:round;stroke-miterlimit:4;stroke-dasharray:none;stroke-opacity:1;paint-order:stroke fill markers"
     d="m 140.71178,148.23892 c -9.7432,0 -17.70139,-7.92389 -17.70139,-17.62511 0,-9.70123 7.95819,-17.62512 17.70139,-17.62512 9.74319,0 17.70137,7.92389 17.70137,17.62512 0,9.70122 -7.95818,17.62511 -17.70137,17.62511 z m 0,-32.28802 c -8.10695,0 -14.72638,6.5909 -14.72638,14.66291 0,8.07201 6.61943,14.6629 14.72638,14.6629 8.10694,0 14.72637,-6.59089 14.72637,-14.6629 0,-8.07201 -6.61943,-14.66291 -14.72637,-14.66291 z"
     id="path43-1" /><text
     xml:space="preserve"
     id="text83349"
     style="font-style:normal;font-variant:normal;font-weight:normal;font-stretch:normal;font-size:21.6268px;line-height:1.25;font-family:Comfortaa;-inkscape-font-specification:'Comfortaa, Normal';font-variant-ligatures:normal;font-variant-position:normal;font-variant-caps:normal;font-variant-numeric:normal;font-variant-alternates:normal;font-variant-east-asian:normal;text-indent:0;text-align:center;text-decoration-line:none;text-decoration-style:solid;text-decoration-color:#000000;letter-spacing:0px;word-spacing:0px;text-transform:none;writing-mode:lr-tb;direction:ltr;text-orientation:mixed;dominant-baseline:auto;baseline-shift:baseline;white-space:pre;shape-inside:url(#rect83351-37);shape-padding:0;shape-margin:0;inline-size:0;display:inline;fill:#ffd8b2;fill-opacity:1;stroke:#000000;stroke-width:3;stroke-linecap:round;stroke-linejoin:round;stroke-miterlimit:4;stroke-dasharray:none;stroke-dashoffset:0;stroke-opacity:1;paint-order:stroke fill markers;stop-color:#000000"
     x="7.8984375"
     y="0"
     transform="matrix(1.1097336,0,0,1.1097336,-20.479388,0.92464605)"><tspan
       x="138.94691"
       y="125.57854"
       id="tspan1032">2</tspan></text><text
     xml:space="preserve"
     id="text83349-0"
     style="font-style:normal;font-variant:normal;font-weight:normal;font-stretch:normal;font-size:21.6268px;line-height:1.25;font-family:Comfortaa;-inkscape-font-specification:'Comfortaa, Normal';font-variant-ligatures:normal;font-variant-position:normal;font-variant-caps:normal;font-variant-numeric:normal;font-variant-alternates:normal;font-variant-east-asian:normal;text-indent:0;text-align:center;text-decoration-line:none;text-decoration-style:solid;text-decoration-color:#000000;letter-spacing:0px;word-spacing:0px;text-transform:none;writing-mode:lr-tb;direction:ltr;text-orientation:mixed;dominant-baseline:auto;baseline-shift:baseline;white-space:pre;shape-inside:url(#rect83351-3-9);shape-padding:0;shape-margin:0;inline-size:0;display:inline;fill:#ffd8b2;fill-opacity:1;stroke:#000000;stroke-width:3;stroke-linecap:round;stroke-linejoin:round;stroke-miterlimit:4;stroke-dasharray:none;stroke-dashoffset:0;stroke-opacity:1;paint-order:stroke fill markers;stop-color:#000000"
     x="7.8984375"
     y="0"
     transform="matrix(1.1097336,0,0,1.1097336,10.933916,31.916268)"><tspan
       x="139.05505"
       y="125.57854"
       id="tspan1034">0</tspan></text><text
     xml:space="preserve"
     id="text83349-4"
     style="font-style:normal;font-variant:normal;font-weight:normal;font-stretch:normal;font-size:21.6268px;line-height:1.25;font-family:Comfortaa;-inkscape-font-specification:'Comfortaa, Normal';font-variant-ligatures:normal;font-variant-position:normal;font-variant-caps:normal;font-variant-numeric:normal;font-variant-alternates:normal;font-variant-east-asian:normal;text-indent:0;text-align:center;text-decoration-line:none;text-decoration-style:solid;text-decoration-color:#000000;letter-spacing:0px;word-spacing:0px;text-transform:none;writing-mode:lr-tb;direction:ltr;text-orientation:mixed;dominant-baseline:auto;baseline-shift:baseline;white-space:pre;shape-inside:url(#rect83351-5-7);shape-padding:0;shape-margin:0;inline-size:0;display:inline;fill:#ffd8b2;fill-opacity:1;stroke:#000000;stroke-width:2.99982;stroke-linecap:round;stroke-linejoin:round;stroke-miterlimit:4;stroke-dasharray:none;stroke-dashoffset:0;stroke-opacity:1;paint-order:stroke fill markers;stop-color:#000000"
     x="7.8984375"
     y="0"
     transform="matrix(1.1097336,0,0,1.1097336,10.837381,-30.766415)"><tspan
       x="141.14204"
       y="125.57854"
       id="tspan1036">1</tspan></text><g
     id="g2122"
     transform="matrix(1.078134,0,0,1.0847852,-49.974651,-11.464116)"
     style="stroke-width:3.07826;stroke-miterlimit:4;stroke-dasharray:none"><path
       style="opacity:1;fill:#ff0000;fill-opacity:1;stroke:#000000;stroke-width:3.07826;stroke-linecap:round;stroke-linejoin:round;stroke-miterlimit:4;stroke-dasharray:none;stroke-opacity:1;paint-order:stroke fill markers"
       d="m 242.64045,134.28852 c 0,-3.21702 -2.21378,-5.10537 -3.93596,-6.83747 -1.72218,-1.7321 -2.93685,-4.26951 -3.0348,-6.87644 -3.25377,3.38196 -3.85308,7.21845 -2.36277,10.34714 -1.42984,-0.71443 -2.64549,-1.99367 -3.17497,-4.00564 -0.72458,1.23153 -2.6758,4.33101 -2.6758,7.37241 0,3.0414 4.18132,7.09764 7.6584,7.08251 3.44479,-0.015 7.5259,-3.86549 7.5259,-7.08251 z"
       id="path950"
       sodipodi:nodetypes="zzccczaz" /><path
       style="opacity:1;fill:#f1ff00;fill-opacity:1;stroke-width:3.07826;stroke-linecap:round;stroke-linejoin:round;stroke-miterlimit:4;stroke-dasharray:none"
       sodipodi:type="inkscape:offset"
       inkscape:radius="-2.4986186"
       inkscape:original="M 235.66992 120.57422 C 232.41615 123.95618 231.81633 127.79318 233.30664 130.92188 C 231.8768 130.20745 230.66229 128.92799 230.13281 126.91602 C 229.40823 128.14755 227.45703 131.24766 227.45703 134.28906 C 227.45703 137.33046 231.63815 141.38622 235.11523 141.37109 C 238.56002 141.35609 242.64062 137.50608 242.64062 134.28906 C 242.64062 131.07204 240.42726 129.18327 238.70508 127.45117 C 236.9829 125.71907 235.76787 123.18115 235.66992 120.57422 z "
       xlink:href="#path950"
       id="path1753"
       inkscape:href="#path950"
       d="m 235.10352,126.55469 c -0.19416,1.16899 -0.0257,2.27553 0.45898,3.29297 a 2.4988685,2.4988685 0 0 1 -3.37305,3.30859 c -0.58491,-0.29226 -1.0711,-0.82722 -1.59765,-1.27734 -0.30101,0.83103 -0.63672,1.68737 -0.63672,2.41015 0,0.37572 0.60236,1.79858 1.73828,2.86719 1.13592,1.06861 2.64743,1.72012 3.41016,1.7168 0.79587,-0.003 2.25965,-0.62982 3.35351,-1.66016 1.09386,-1.03034 1.68555,-2.37177 1.68555,-2.92383 0,-2.07096 -1.37244,-3.22904 -3.20899,-5.07617 -0.74948,-0.7538 -1.27463,-1.72247 -1.83007,-2.6582 z" /></g><rect
     style="display:inline;opacity:0.5;fill:#000000;fill-opacity:1;stroke:none;stroke-width:1.94695;stroke-linecap:round;stroke-linejoin:round;stroke-miterlimit:4;stroke-dasharray:none;stroke-opacity:1;paint-order:stroke fill markers"
     id="rect38642-7-3-08"
     width="22.271612"
     height="10.243354"
     x="192.30307"
     y="150.43651"
     ry="1.1725917"
     rx="0.6047712" /><text
     xml:space="preserve"
     id="text127462-9-3-5"
     style="font-style:normal;font-variant:normal;font-weight:bold;font-stretch:normal;font-size:8px;line-height:1.25;font-family:Comfortaa;-inkscape-font-specification:'Comfortaa Bold';font-variant-ligatures:normal;font-variant-caps:normal;font-variant-numeric:normal;font-variant-east-asian:normal;text-align:center;text-decoration-color:#000000;letter-spacing:0px;word-spacing:0px;white-space:pre;shape-inside:url(#rect127464-0-5-2-9-3);display:inline;fill:#ffd8b2;fill-opacity:1;stroke:none;stroke-width:1.5;stroke-linecap:round;stroke-linejoin:round;stroke-miterlimit:4;stroke-dasharray:none;stroke-opacity:1;paint-order:stroke fill markers;stop-color:#000000"
     x="10.010417"
     y="0"
     transform="matrix(1.1097329,0,0,1.1097329,100.23605,-12.611663)"><tspan
       x="83.969688"
       y="154.66483"
       id="tspan1038">FIRE</tspan></text><g
     id="g2031"
     transform="matrix(0.90740688,0,0,0.90855209,-2.810382,10.245402)"
     style="stroke:#000000;stroke-width:3.66639;stroke-miterlimit:4;stroke-dasharray:none;stroke-opacity:1;paint-order:stroke fill markers"><path
       style="fill:#ea0000;fill-opacity:1;stroke:#000000;stroke-width:3.66639;stroke-linecap:round;stroke-linejoin:round;stroke-miterlimit:4;stroke-dasharray:none;stroke-opacity:1;paint-order:stroke fill markers"
       d="m 265.14569,144.53864 c -1.08077,-4.16537 -5.7191,-6.82848 -4.79056,-12.83395 -4.73961,7.02966 1.08484,11.57497 4.79056,12.83395 z"
       id="path16750-3"
       sodipodi:nodetypes="ccc" /><path
       style="display:inline;fill:#ea0000;fill-opacity:1;stroke:#000000;stroke-width:3.66639;stroke-linecap:round;stroke-linejoin:round;stroke-miterlimit:4;stroke-dasharray:none;stroke-opacity:1;paint-order:stroke fill markers"
       d="m 267.1004,144.91149 c -0.75639,-8.05299 -13.2656,-9.54391 3.58707,-24.85544 -3.39367,8.82232 7.88185,12.63946 -3.58707,24.85544 z"
       id="path15831-0"
       sodipodi:nodetypes="ccc" /><path
       style="display:inline;fill:#ea0000;fill-opacity:1;stroke:#000000;stroke-width:3.66639;stroke-linecap:round;stroke-linejoin:round;stroke-miterlimit:4;stroke-dasharray:none;stroke-opacity:1;paint-order:stroke fill markers"
       d="m 270.14031,144.27659 c 6.55215,-2.99254 9.17347,-9.86399 3.04658,-15.16482 2.65648,6.69228 0.0297,12.48666 -3.04658,15.16482 z"
       id="path16748-7"
       sodipodi:nodetypes="ccc" /></g></g><g
   inkscape:groupmode="layer"
   id="layer9"
   inkscape:label="D-pad"
   style="display:inline"><path
     style="display:inline;fill:#ffd8b2;fill-opacity:1;stroke:#000000;stroke-width:3.3292;stroke-linecap:round;stroke-linejoin:round;stroke-miterlimit:4;stroke-dasharray:none;stroke-opacity:1;paint-order:stroke fill markers"
     d="M 52.650059,169.75192 H 32.940536 c -2.751896,0 -4.908788,-2.22165 -4.908788,-4.88763 V 145.75807 H 8.8428548 c -2.7518962,0 -4.9831633,-2.22166 -4.9831633,-4.96169 v -20.36515 c 0,-2.74003 2.2312671,-4.96169 4.9831633,-4.96169 H 28.031748 V 96.363318 c 0,-2.740038 2.231267,-4.887635 4.908788,-4.887635 h 19.709523 c 2.751896,0 4.908788,2.221651 4.908788,4.887635 v 19.106222 h 19.188895 c 2.751895,0 4.983162,2.22166 4.983162,4.96169 v 20.36515 c 0,2.74003 -2.231267,4.96169 -4.983162,4.96169 H 57.558847 v 19.10622 c 0,2.66598 -2.156892,4.88763 -4.908788,4.88763 z M 8.8428548,118.43174 c -1.1156333,0 -2.0081405,0.88866 -2.0081405,1.99949 v 20.36515 c 0,1.11082 0.8925072,1.99949 2.0081405,1.99949 H 28.254875 c 0.52063,0 1.338761,0.074 1.933765,0.6665 0.520629,0.44433 0.743755,1.18487 0.743755,1.99948 v 19.40244 c 0,1.11083 0.892507,1.99948 2.008141,1.99948 h 19.709523 c 1.115634,0 2.00814,-0.88865 2.00814,-1.99948 v -19.4765 c 0,-0.74055 0.297502,-1.40704 0.743756,-1.85138 0.446254,-0.44432 1.115633,-0.66649 1.933765,-0.66649 h 19.412022 c 1.115632,0 2.008139,-0.88865 2.008139,-1.99949 v -20.36515 c 0,-1.11082 -0.892507,-1.99949 -2.008139,-1.99949 H 57.261344 c -0.743756,0 -1.413135,-0.22216 -1.933764,-0.66649 -0.446255,-0.44432 -0.743755,-1.11082 -0.743755,-1.85138 V 96.585483 c 0,-1.110825 -0.892507,-1.999486 -2.008141,-1.999486 H 32.866161 v 0 c -0.52063,0 -1.041259,0.222165 -1.413137,0.59244 -0.371878,0.370275 -0.595004,0.888661 -0.595004,1.407046 v 19.254327 c 0,0.5184 0,1.18489 -0.520628,1.85139 -0.595005,0.66649 -1.413136,0.74054 -2.082517,0.74054 z"
     id="path23-1"
     inkscape:export-filename="C:\All\Batocera\batocera-assets\controller-overlays\generic.png"
     inkscape:export-xdpi="96"
     inkscape:export-ydpi="96"
     sodipodi:nodetypes="ssscsssscsssscsssscsscsssscssssssssssssscssscsssscscc" /><text
     xml:space="preserve"
     id="text83349-9"
     style="font-style:normal;font-variant:normal;font-weight:normal;font-stretch:normal;font-size:17.3333px;line-height:1.25;font-family:Comfortaa;-inkscape-font-specification:'Comfortaa, Normal';font-variant-ligatures:normal;font-variant-position:normal;font-variant-caps:normal;font-variant-numeric:normal;font-variant-alternates:normal;font-variant-east-asian:normal;text-indent:0;text-align:center;text-decoration-line:none;text-decoration-style:solid;text-decoration-color:#000000;letter-spacing:1px;word-spacing:0px;text-transform:none;writing-mode:lr-tb;direction:ltr;text-orientation:mixed;dominant-baseline:auto;baseline-shift:baseline;white-space:pre;shape-inside:url(#rect83351-4-1);shape-padding:0;shape-margin:0;inline-size:0;display:inline;fill:#ffd8b2;fill-opacity:1;stroke:#000000;stroke-width:3;stroke-linecap:round;stroke-linejoin:round;stroke-miterlimit:4;stroke-dasharray:none;stroke-dashoffset:0;stroke-opacity:1;paint-order:stroke fill markers;stop-color:#000000"
     x="7.8984375"
     y="0"
     transform="matrix(1.1097336,0,0,1.1097336,-138.43279,3.1267384)"><tspan
       x="135.03049"
       y="121.64941"
       id="tspan1040">STICK</tspan></text><text
     xml:space="preserve"
     id="text83349-9-6"
     style="font-style:normal;font-variant:normal;font-weight:normal;font-stretch:normal;font-size:19.2238px;line-height:1.25;font-family:Comfortaa;-inkscape-font-specification:'Comfortaa, Normal';font-variant-ligatures:normal;font-variant-position:normal;font-variant-caps:normal;font-variant-numeric:normal;font-variant-alternates:normal;font-variant-east-asian:normal;text-indent:0;text-align:center;text-decoration-line:none;text-decoration-style:solid;text-decoration-color:#000000;letter-spacing:-0.25px;word-spacing:0px;text-transform:none;writing-mode:lr-tb;direction:ltr;text-orientation:mixed;dominant-baseline:auto;baseline-shift:baseline;white-space:pre;shape-inside:url(#rect83351-4-1-4);shape-padding:0;shape-margin:0;inline-size:0;display:inline;fill:#ffd8b2;fill-opacity:1;stroke:#000000;stroke-width:3;stroke-linecap:round;stroke-linejoin:round;stroke-miterlimit:4;stroke-dasharray:none;stroke-dashoffset:0;stroke-opacity:1;paint-order:stroke fill markers;stop-color:#000000"
     x="7.8984375"
     y="0"
     transform="matrix(1.1097336,0,0,1.1097336,-136.91835,-68.523304)"><tspan
       x="156.75083"
       y="123.37947"
       id="tspan1042">4</tspan></text><text
     xml:space="preserve"
     id="text83349-9-6-6"
     style="font-style:normal;font-variant:normal;font-weight:normal;font-stretch:normal;font-size:19.2238px;line-height:1.25;font-family:Comfortaa;-inkscape-font-specification:'Comfortaa, Normal';font-variant-ligatures:normal;font-variant-position:normal;font-variant-caps:normal;font-variant-numeric:normal;font-variant-alternates:normal;font-variant-east-asian:normal;text-indent:0;text-align:center;text-decoration-line:none;text-decoration-style:solid;text-decoration-color:#000000;letter-spacing:1.75px;word-spacing:0px;text-transform:none;writing-mode:lr-tb;direction:ltr;text-orientation:mixed;dominant-baseline:auto;baseline-shift:baseline;white-space:pre;shape-inside:url(#rect83351-4-1-4-9);shape-padding:0;shape-margin:0;inline-size:0;display:inline;fill:#ffd8b2;fill-opacity:1;stroke:#000000;stroke-width:3;stroke-linecap:round;stroke-linejoin:round;stroke-miterlimit:4;stroke-dasharray:none;stroke-dashoffset:0;stroke-opacity:1;paint-order:stroke fill markers;stop-color:#000000"
     x="7.8984375"
     y="0"
     transform="matrix(1.1097336,0,0,1.1097336,-137.46729,-104.32939)"><tspan
       x="157.40445"
       y="123.37947"
       id="tspan1044">6</tspan></text></g><g
   inkscape:groupmode="layer"
   id="layer10"
   inkscape:label="Dual-sticks"
   style="display:inline"><text
     xml:space="preserve"
     id="text83349-05"
     style="font-style:normal;font-variant:normal;font-weight:normal;font-stretch:normal;font-size:21.6268px;line-height:1.25;font-family:Comfortaa;-inkscape-font-specification:'Comfortaa, Normal';font-variant-ligatures:normal;font-variant-position:normal;font-variant-caps:normal;font-variant-numeric:normal;font-variant-alternates:normal;font-variant-east-asian:normal;text-indent:0;text-align:center;text-decoration-line:none;text-decoration-style:solid;text-decoration-color:#000000;letter-spacing:1px;word-spacing:0px;text-transform:none;writing-mode:lr-tb;direction:ltr;text-orientation:mixed;dominant-baseline:auto;baseline-shift:baseline;white-space:pre;shape-inside:url(#rect83351-52-67);shape-padding:0;shape-margin:0;inline-size:0;display:inline;fill:#ffd8b2;fill-opacity:1;stroke:#000000;stroke-width:3;stroke-linecap:round;stroke-linejoin:round;stroke-miterlimit:4;stroke-dasharray:none;stroke-dashoffset:0;stroke-opacity:1;paint-order:stroke fill markers;stop-color:#000000"
     x="7.8984375"
     y="0"
     transform="matrix(1.1097336,0,0,1.1097336,-105.30116,99.324855)"><tspan
       x="138.81716"
       y="125.57854"
       id="tspan1046">8</tspan></text><path
     style="color:#000000;display:inline;fill:#ffd8b2;stroke:#000000;stroke-width:3.3292;stroke-linecap:round;stroke-linejoin:round;stroke-miterlimit:4;stroke-dasharray:none;stroke-opacity:1;paint-order:stroke fill markers"
     d="m 55.955581,193.09822 c -19.888344,0 -36.042502,16.15416 -36.042502,36.04251 0,19.88834 16.154158,36.04249 36.042502,36.04249 19.888344,0 36.042503,-16.15415 36.042503,-36.04249 0,-19.88835 -16.154159,-36.04251 -36.042503,-36.04251 z m 0,2.89137 c 18.32601,0 33.151125,14.82513 33.151125,33.15114 0,18.326 -14.825115,33.15111 -33.151125,33.15111 -18.32601,0 -33.151125,-14.82511 -33.151125,-33.15111 0,-18.32601 14.825115,-33.15114 33.151125,-33.15114 z"
     id="circle74" /><path
     style="color:#000000;display:inline;fill:#ffd8b2;stroke:#000000;stroke-width:3.3292;stroke-linecap:round;stroke-linejoin:round;stroke-miterlimit:4;stroke-dasharray:none;stroke-opacity:1;paint-order:stroke fill markers"
     d="m 55.955581,204.9043 c -13.368258,0 -24.236409,10.86815 -24.236409,24.23643 0,13.36824 10.868151,24.2364 24.236409,24.2364 13.368258,0 24.236409,-10.86816 24.236409,-24.2364 0,-13.36828 -10.868151,-24.23643 -24.236409,-24.23643 z m 0,2.89138 c 11.805918,0 21.345032,9.53912 21.345032,21.34505 0,11.8059 -9.539114,21.34502 -21.345032,21.34502 -11.805919,0 -21.345034,-9.53912 -21.345034,-21.34502 0,-11.80593 9.539115,-21.34505 21.345034,-21.34505 z"
     id="circle76" /><path
     style="color:#000000;display:inline;fill:#ffd8b2;stroke:#000000;stroke-width:3.3292;stroke-linecap:round;stroke-linejoin:round;stroke-miterlimit:4;stroke-dasharray:none;stroke-opacity:1;paint-order:stroke fill markers"
     d="m 157.79966,204.9043 c -13.36827,0 -24.23642,10.86815 -24.23642,24.23643 0,13.36824 10.86815,24.2364 24.23642,24.2364 13.36825,0 24.2364,-10.86816 24.2364,-24.2364 0,-13.36828 -10.86815,-24.23643 -24.2364,-24.23643 z m 0,2.89138 c 11.80592,0 21.34502,9.53912 21.34502,21.34505 0,11.8059 -9.5391,21.34502 -21.34502,21.34502 -11.80593,0 -21.34721,-9.53912 -21.34721,-21.34502 0,-11.80593 9.54128,-21.34505 21.34721,-21.34505 z"
     id="circle78" /><path
     style="color:#000000;display:inline;opacity:0.5;fill:#ffd8b2;stroke:#000000;stroke-width:3.3292;stroke-linecap:round;stroke-linejoin:round;stroke-miterlimit:4;stroke-dasharray:none;stroke-opacity:1;paint-order:stroke fill markers"
     d="m 157.79966,193.09822 c -19.88836,0 -36.04251,16.15416 -36.04251,36.04251 0,19.88834 16.15415,36.04249 36.04251,36.04249 19.88834,0 36.04032,-16.15415 36.04032,-36.04249 0,-19.88835 -16.15198,-36.04251 -36.04032,-36.04251 z m 0,2.89137 c 18.326,0 33.15112,14.82513 33.15112,33.15114 0,18.326 -14.82512,33.15113 -33.15112,33.15111 -18.32602,0 -33.15114,-14.82511 -33.15114,-33.15111 0,-18.32601 14.82512,-33.15114 33.15114,-33.15114 z"
     id="circle80" /><text
     xml:space="preserve"
     id="text83349-05-9"
     style="font-style:normal;font-variant:normal;font-weight:normal;font-stretch:normal;font-size:21.6268px;line-height:1.25;font-family:Comfortaa;-inkscape-font-specification:'Comfortaa, Normal';font-variant-ligatures:normal;font-variant-position:normal;font-variant-caps:normal;font-variant-numeric:normal;font-variant-alternates:normal;font-variant-east-asian:normal;text-indent:0;text-align:center;text-decoration-line:none;text-decoration-style:solid;text-decoration-color:#000000;letter-spacing:1px;word-spacing:0px;text-transform:none;writing-mode:lr-tb;direction:ltr;text-orientation:mixed;dominant-baseline:auto;baseline-shift:baseline;white-space:pre;shape-inside:url(#rect83351-52-6-8);shape-padding:0;shape-margin:0;inline-size:0;display:inline;fill:#ffd8b2;fill-opacity:1;stroke:#000000;stroke-width:3;stroke-linecap:round;stroke-linejoin:round;stroke-miterlimit:4;stroke-dasharray:none;stroke-dashoffset:0;stroke-opacity:1;paint-order:stroke fill markers;stop-color:#000000"
     x="7.8984375"
     y="0"
     transform="matrix(1.1097336,0,0,1.1097336,-3.3876193,99.324855)"><tspan
       x="139.08749"
       y="125.57854"
       id="tspan1048">7</tspan></text></g><g
   inkscape:groupmode="layer"
   id="layer4"
   inkscape:label="Shoulder buttons (1st tier)"><path
     style="display:inline;fill:#ffd8b2;fill-opacity:1;stroke:#000000;stroke-width:3.3292;stroke-linecap:round;stroke-linejoin:round;stroke-miterlimit:4;stroke-dasharray:none;stroke-opacity:1;paint-order:stroke fill markers"
     d="m 77.351216,70.40626 c 0,2.66598 -2.1569,4.887633 -4.908793,4.887633 H 29.680766 c -5.736337,0 -10.39446,2.500549 -13.061427,3.541007 -1.119009,0.436556 -2.929828,0.102872 -4.028879,-0.703761 -1.211922,-0.889474 -2.072367,-2.289807 -2.072367,-4.005567 V 54.331935 c 0,-1.625992 0.826643,-3.131836 2.054937,-3.980543 3.995182,-2.760531 11.285667,-5.346022 17.107736,-5.346022 h 42.761657 c 2.751893,0 4.908793,2.221654 4.908793,4.887634 z M 74.450561,49.893001 c 0,-1.110821 -0.892503,-1.999486 -2.008138,-1.999486 H 29.680766 c -5.559276,0 -11.666161,2.633119 -15.360063,4.765793 -0.517496,0.298777 -0.906297,1.005625 -0.901964,1.672631 v 19.793638 c 0,0.588349 0.266593,1.174806 0.70332,1.524996 0.477263,0.382694 1.15677,0.608172 1.79374,0.388073 2.914825,-1.007192 6.984081,-3.714244 14.285154,-3.702255 l 42.24147,0.06936 c 1.115634,0.0018 2.008138,-0.888664 2.008138,-1.999486 z"
     id="path23-1-9-3"
     sodipodi:nodetypes="csssascssscccssscsassscc" /><text
     xml:space="preserve"
     id="text83349-9-6-0"
     style="font-style:normal;font-variant:normal;font-weight:normal;font-stretch:normal;font-size:19.2238px;line-height:1.25;font-family:Comfortaa;-inkscape-font-specification:'Comfortaa, Normal';font-variant-ligatures:normal;font-variant-position:normal;font-variant-caps:normal;font-variant-numeric:normal;font-variant-alternates:normal;font-variant-east-asian:normal;text-indent:0;text-align:center;text-decoration-line:none;text-decoration-style:solid;text-decoration-color:#000000;letter-spacing:2px;word-spacing:0px;text-transform:none;writing-mode:lr-tb;direction:ltr;text-orientation:mixed;dominant-baseline:auto;baseline-shift:baseline;white-space:pre;shape-inside:url(#rect83351-4-1-4-4);shape-padding:0;shape-margin:0;inline-size:0;display:inline;fill:#ffd8b2;fill-opacity:1;stroke:#000000;stroke-width:3;stroke-linecap:round;stroke-linejoin:round;stroke-miterlimit:4;stroke-dasharray:none;stroke-dashoffset:0;stroke-opacity:1;paint-order:stroke fill markers;stop-color:#000000"
     x="7.8984375"
     y="0"
     transform="matrix(1.1097336,0,0,1.1097336,0.20283627,-68.523304)"><tspan
       x="157.34677"
       y="123.37947"
       id="tspan1050">3</tspan></text><text
     xml:space="preserve"
     id="text83349-9-6-0-2"
     style="font-style:normal;font-variant:normal;font-weight:normal;font-stretch:normal;font-size:19.2238px;line-height:1.25;font-family:Comfortaa;-inkscape-font-specification:'Comfortaa, Normal';font-variant-ligatures:normal;font-variant-position:normal;font-variant-caps:normal;font-variant-numeric:normal;font-variant-alternates:normal;font-variant-east-asian:normal;text-indent:0;text-align:center;text-decoration-line:none;text-decoration-style:solid;text-decoration-color:#000000;letter-spacing:2px;word-spacing:0px;text-transform:none;writing-mode:lr-tb;direction:ltr;text-orientation:mixed;dominant-baseline:auto;baseline-shift:baseline;white-space:pre;shape-inside:url(#rect83351-4-1-4-4-4);shape-padding:0;shape-margin:0;inline-size:0;display:inline;fill:#ffd8b2;fill-opacity:1;stroke:#000000;stroke-width:3;stroke-linecap:round;stroke-linejoin:round;stroke-miterlimit:4;stroke-dasharray:none;stroke-dashoffset:0;stroke-opacity:1;paint-order:stroke fill markers;stop-color:#000000"
     x="7.8984375"
     y="0"
     transform="matrix(1.1097336,0,0,1.1097336,-0.34609679,-104.32939)"><tspan
       x="156.94308"
       y="123.37947"
       id="tspan1052">5</tspan></text><path
     style="display:inline;fill:#ffd8b2;fill-opacity:1;stroke:#000000;stroke-width:3.3292;stroke-linecap:round;stroke-linejoin:round;stroke-miterlimit:4;stroke-dasharray:none;stroke-opacity:1;paint-order:stroke fill markers"
     d="m 147.63928,70.40626 c 0,2.66598 2.1569,4.887633 4.9088,4.887633 h 42.76165 c 5.73634,0 10.39446,2.500549 13.06142,3.541007 1.11902,0.436556 2.92983,0.102872 4.02889,-0.703761 1.21192,-0.889474 2.07236,-2.289807 2.07236,-4.005567 V 54.331935 c 0,-1.625992 -0.82664,-3.131836 -2.05493,-3.980543 -3.99519,-2.760531 -11.28567,-5.346022 -17.10774,-5.346022 h -42.76165 c -2.7519,0 -4.9088,2.221654 -4.9088,4.887634 z m 2.90065,-20.513259 c 0,-1.110821 0.8925,-1.999486 2.00815,-1.999486 h 42.76166 c 5.55927,0 11.66617,2.633119 15.36006,4.765793 0.5175,0.298777 0.90629,1.005625 0.90196,1.672631 v 19.793638 c 0,0.588349 -0.26659,1.174806 -0.70332,1.524996 -0.47727,0.382694 -1.15677,0.608172 -1.79374,0.388073 -2.91482,-1.007192 -6.98409,-3.714244 -14.28515,-3.702255 l -42.24147,0.06936 c -1.11565,0.0018 -2.00815,-0.888664 -2.00815,-1.999486 z"
     id="path23-1-9-3-6"
     sodipodi:nodetypes="csssascssscccssscsassscc" /></g><g
   inkscape:groupmode="layer"
   id="layer6"
   inkscape:label="Shoulder triggers (2nd tier)"><path
     style="display:inline;fill:#ffd8b2;fill-opacity:1;stroke:#000000;stroke-width:3.3292;stroke-linecap:round;stroke-linejoin:round;stroke-miterlimit:4;stroke-dasharray:none;stroke-opacity:1;paint-order:stroke fill markers"
     d="m 77.351216,34.844491 c 0,2.66598 -2.1569,4.887634 -4.908793,4.887634 H 29.680766 c -5.736337,0 -10.39446,1.987767 -13.061427,3.028225 -1.119009,0.436555 -2.929828,0.102871 -4.028879,-0.703762 -1.211923,-0.889475 -2.072367,-2.289808 -2.072367,-4.005567 0,-21.258265 9.826986,-34.1560872 61.92433,-34.1560872 2.751893,0 4.908793,2.2216534 4.908793,4.8876336 z M 74.450561,8.782564 c 0,-1.1108216 -0.892503,-1.9994851 -2.008138,-1.9994851 -47.658428,0 -59.023684,11.3328251 -59.023684,31.2679461 0,0.58835 0.266593,1.174806 0.70332,1.524997 0.477263,0.382693 1.15677,0.608172 1.79374,0.388072 2.914825,-1.007191 6.984081,-3.20146 14.285154,-3.189471 l 42.24147,0.06936 c 1.115634,0.0018 2.008138,-0.888663 2.008138,-1.999484 z"
     id="path23-1-9-3-3"
     sodipodi:nodetypes="csssasscccssassscc" /><path
     style="display:inline;fill:#ffd8b2;fill-opacity:1;stroke:#000000;stroke-width:3.3292;stroke-linecap:round;stroke-linejoin:round;stroke-miterlimit:4;stroke-dasharray:none;stroke-opacity:1;paint-order:stroke fill markers"
     d="m 147.63929,34.844491 c 0,2.66598 2.1569,4.887634 4.90878,4.887634 h 42.76167 c 5.73634,0 10.39445,1.987767 13.06141,3.028225 1.11902,0.436555 2.92983,0.102871 4.0289,-0.703762 1.21191,-0.889475 2.07235,-2.289808 2.07235,-4.005567 0,-21.258265 -9.82699,-34.1560869 -61.92433,-34.1560869 -2.75188,0 -4.90878,2.2216534 -4.90878,4.8876336 z m 2.90065,-26.0619267 c 0,-1.1108216 0.8925,-1.9994851 2.00813,-1.9994851 47.65844,0 59.02369,11.3328248 59.02369,31.2679458 0,0.58835 -0.26659,1.174806 -0.70332,1.524997 -0.47727,0.382693 -1.15677,0.608172 -1.79375,0.388072 -2.91481,-1.007191 -6.98408,-3.20146 -14.28514,-3.189471 l -42.24148,0.06936 c -1.11563,0.0018 -2.00813,-0.888663 -2.00813,-1.999484 z"
     id="path23-1-9-3-3-88"
     sodipodi:nodetypes="csssasscccssassscc" /></g></svg>
