<?xml version="1.0" encoding="UTF-8" standalone="no"?>
<!-- Generator: Adobe Illustrator 24.0.1, SVG Export Plug-In . SVG Version: 6.00 Build 0)  -->

<svg
   version="1.1"
   id="Layer_3"
   x="0px"
   y="0px"
   viewBox="0 0 225 280"
   xml:space="preserve"
   sodipodi:docname="cassettevision.svg"
   inkscape:version="1.4.2 (ebf0e940d0, 2025-05-08)"
   inkscape:export-filename="C:\All\Batocera\batocera-controller-overlays\snes.png"
   inkscape:export-xdpi="96"
   inkscape:export-ydpi="96"
   width="225"
   height="280"
   xmlns:inkscape="http://www.inkscape.org/namespaces/inkscape"
   xmlns:sodipodi="http://sodipodi.sourceforge.net/DTD/sodipodi-0.dtd"
   xmlns="http://www.w3.org/2000/svg"
   xmlns:svg="http://www.w3.org/2000/svg"><defs
   id="defs75"><rect
     x="60.716846"
     y="90.824373"
     width="60.716849"
     height="32.616487"
     id="rect1" /><inkscape:path-effect
     effect="envelope"
     id="path-effect76373"
     is_visible="true"
     lpeversion="1"
     yy="true"
     xx="true"
     bendpath1="M 23.537096,16.621557 H 86.140921"
     bendpath2="M 86.140921,16.621557 V 39.916004"
     bendpath3="M 23.537096,39.916004 H 86.140921"
     bendpath4="M 23.537096,16.621557 V 39.916004" /><inkscape:path-effect
     effect="lattice2"
     gridpoint0="23.537096,16.621557"
     gridpoint1="86.140921,16.621557"
     gridpoint2="23.537096,39.916004"
     gridpoint3="86.140921,39.916004"
     gridpoint4="39.188052,16.621557"
     gridpoint5="70.489964,16.621557"
     gridpoint6="39.188052,39.916004"
     gridpoint7="70.489964,39.916004"
     gridpoint8x9="54.839008,16.621557"
     gridpoint10x11="54.839008,39.916004"
     gridpoint12="23.537096,22.445169"
     gridpoint13="86.140921,22.445169"
     gridpoint14="23.537096,34.092392"
     gridpoint15="86.140921,34.092392"
     gridpoint16="39.188052,22.445169"
     gridpoint17="70.489964,22.445169"
     gridpoint18="39.188052,34.092392"
     gridpoint19="70.489964,34.092392"
     gridpoint20x21="54.839008,22.445169"
     gridpoint22x23="54.839008,34.092392"
     gridpoint24x26="23.537096,28.268781"
     gridpoint25x27="86.140921,28.268781"
     gridpoint28x30="39.188052,28.268781"
     gridpoint29x31="70.489964,28.268781"
     gridpoint32x33x34x35="54.839008,28.268781"
     id="path-effect76371"
     is_visible="true"
     lpeversion="1"
     horizontal_mirror="false"
     vertical_mirror="false"
     perimetral="true"
     live_update="true" /><inkscape:path-effect
     effect="attach_path"
     id="path-effect76369"
     lpeversion="1"
     endcurveend="11.768548,10.555296 , -11.059262,26.691553"
     is_visible="true"
     startpath=""
     startposition="0"
     startcurvestart="0,0 , 20,0"
     startcurveend="23.658422,11.889874 , 28.614092,-5.9449372"
     endpath=""
     endposition="0"
     endcurvestart="0,0 , 20,0" /><inkscape:path-effect
     effect="envelope"
     id="path-effect76348"
     is_visible="true"
     lpeversion="1"
     yy="true"
     xx="true"
     bendpath1="M 23.537096,16.621557 61.997198,10.797945"
     bendpath2="M 86.140921,16.621557 V 39.916004"
     bendpath3="M 23.537096,42.342509 86.140921,39.916004"
     bendpath4="M 23.537096,16.621557 V 50.592625"
     bendpath4-nodetypes="cc"
     bendpath3-nodetypes="cc"
     bendpath1-nodetypes="cc" /><rect
     x="76.739281"
     y="147.34442"
     width="33.36795"
     height="20.843538"
     id="rect127464" /><rect
     x="128.2495"
     y="105.78697"
     width="33.960148"
     height="33.738186"
     id="rect83351" /><rect
     x="127.67705"
     y="105.52645"
     width="34.594753"
     height="33.972546"
     id="rect34999" /><rect
     x="161.5537"
     y="139.78229"
     width="33.151905"
     height="33.894112"
     id="rect24475" /><rect
     x="128.2495"
     y="105.78697"
     width="33.960148"
     height="33.738186"
     id="rect83351-3" /><rect
     x="128.2495"
     y="105.78697"
     width="33.960148"
     height="33.738186"
     id="rect83351-9" /><rect
     x="128.2495"
     y="105.78697"
     width="33.960148"
     height="33.738186"
     id="rect83351-5" /><rect
     x="76.739281"
     y="147.34442"
     width="32.54847"
     height="20.780947"
     id="rect127464-0" /><rect
     x="128.2495"
     y="105.78697"
     width="69.439232"
     height="31.708288"
     id="rect83351-4" /><rect
     x="128.2495"
     y="105.78697"
     width="33.960148"
     height="33.738186"
     id="rect83351-52" /><rect
     x="128.2495"
     y="105.78697"
     width="33.960148"
     height="33.738186"
     id="rect83351-52-6" /><rect
     x="128.2495"
     y="105.78697"
     width="33.960148"
     height="33.738186"
     id="rect83351-37" /><rect
     x="128.2495"
     y="105.78697"
     width="33.960148"
     height="33.738186"
     id="rect83351-3-9" /><rect
     x="128.2495"
     y="105.78697"
     width="33.960148"
     height="33.738186"
     id="rect83351-9-2" /><rect
     x="128.2495"
     y="105.78697"
     width="33.960148"
     height="33.738186"
     id="rect83351-5-7" /><rect
     x="76.739281"
     y="147.34442"
     width="33.36795"
     height="20.843538"
     id="rect127464-7" /><rect
     x="76.739281"
     y="147.34442"
     width="32.54847"
     height="20.780947"
     id="rect127464-0-5" /><rect
     x="128.2495"
     y="105.78697"
     width="69.439232"
     height="31.708288"
     id="rect83351-4-1" /><rect
     x="128.2495"
     y="105.78697"
     width="33.960148"
     height="33.738186"
     id="rect83351-52-67" /><rect
     x="128.2495"
     y="105.78697"
     width="33.960148"
     height="33.738186"
     id="rect83351-52-6-8" /><rect
     x="128.2495"
     y="105.78697"
     width="69.439232"
     height="31.708288"
     id="rect83351-4-1-4" /><rect
     x="128.2495"
     y="105.78697"
     width="69.439232"
     height="31.708288"
     id="rect83351-4-1-4-4" /><rect
     x="128.2495"
     y="105.78697"
     width="69.439232"
     height="31.708288"
     id="rect83351-4-1-4-9" /><rect
     x="128.2495"
     y="105.78697"
     width="69.439232"
     height="31.708288"
     id="rect83351-4-1-4-4-4" /><rect
     x="76.739281"
     y="147.34442"
     width="65.207237"
     height="14.330957"
     id="rect127464-7-2" /><rect
     x="76.739281"
     y="147.34442"
     width="65.207237"
     height="14.330957"
     id="rect127464-7-2-8" /><rect
     x="76.739281"
     y="147.34442"
     width="33.36795"
     height="20.843538"
     id="rect127464-7-6" /><rect
     x="76.739281"
     y="147.34442"
     width="32.54847"
     height="20.780947"
     id="rect127464-0-5-2" /><rect
     x="128.2495"
     y="105.78697"
     width="33.960148"
     height="33.738186"
     id="rect83351-37-7" /><rect
     x="128.2495"
     y="105.78697"
     width="33.960148"
     height="33.738186"
     id="rect83351-3-9-1" /><rect
     x="128.2495"
     y="105.78697"
     width="33.960148"
     height="33.738186"
     id="rect83351-9-2-5" /><rect
     x="128.2495"
     y="105.78697"
     width="33.960148"
     height="33.738186"
     id="rect83351-5-7-3" /><rect
     x="128.2495"
     y="105.78697"
     width="69.439232"
     height="31.708288"
     id="rect83351-4-1-49" /><rect
     x="128.2495"
     y="105.78697"
     width="69.439232"
     height="31.708288"
     id="rect83351-4-1-4-6" /><rect
     x="128.2495"
     y="105.78697"
     width="69.439232"
     height="31.708288"
     id="rect83351-4-1-4-9-1" /><rect
     x="128.2495"
     y="105.78697"
     width="33.960148"
     height="33.738186"
     id="rect83351-52-67-5" /><rect
     x="128.2495"
     y="105.78697"
     width="33.960148"
     height="33.738186"
     id="rect83351-52-6-8-8" /><rect
     x="76.739281"
     y="147.34442"
     width="65.207237"
     height="14.330957"
     id="rect127464-7-2-2" /><rect
     x="76.739281"
     y="147.34442"
     width="65.207237"
     height="14.330957"
     id="rect127464-7-2-8-0" /><rect
     x="128.2495"
     y="105.78697"
     width="69.439232"
     height="31.708288"
     id="rect83351-4-1-4-4-5" /><rect
     x="128.2495"
     y="105.78697"
     width="69.439232"
     height="31.708288"
     id="rect83351-4-1-4-4-4-9" /><rect
     x="76.739281"
     y="147.34442"
     width="33.36795"
     height="20.843538"
     id="rect127464-7-7" /><rect
     x="76.739281"
     y="147.34442"
     width="32.54847"
     height="20.780947"
     id="rect127464-0-5-4" /><rect
     x="76.739281"
     y="147.34442"
     width="65.207237"
     height="14.330957"
     id="rect127464-7-2-9" /><rect
     x="128.2495"
     y="105.78697"
     width="69.439232"
     height="31.708288"
     id="rect83351-4-1-7" /><rect
     x="76.739281"
     y="147.34442"
     width="65.207237"
     height="14.330957"
     id="rect127464-7-2-9-9" /><rect
     x="60.716846"
     y="90.824371"
     width="60.71685"
     height="32.616486"
     id="rect1-4" /><rect
     x="76.739281"
     y="147.34442"
     width="49.194022"
     height="13.608762"
     id="rect127464-7-7-4" /><rect
     x="76.739281"
     y="147.34442"
     width="49.194023"
     height="13.608762"
     id="rect127464-7-7-4-7" /></defs><sodipodi:namedview
   id="namedview73"
   pagecolor="#ffffff"
   bordercolor="#666666"
   borderopacity="1.0"
   inkscape:pageshadow="2"
   inkscape:pageopacity="0"
   inkscape:pagecheckerboard="true"
   showgrid="false"
   inkscape:current-layer="layer9"
   inkscape:snap-bbox="true"
   inkscape:bbox-nodes="false"
   inkscape:bbox-paths="false"
   inkscape:object-nodes="true"
   inkscape:snap-others="true"
   inkscape:snap-bbox-edge-midpoints="true"
   inkscape:snap-bbox-midpoints="false"
   inkscape:object-paths="true"
   inkscape:snap-smooth-nodes="true"
   inkscape:showpageshadow="2"
   inkscape:deskcolor="#d1d1d1"
   inkscape:zoom="1.9928571"
   inkscape:cx="112.65233"
   inkscape:cy="140"
   inkscape:window-width="1366"
   inkscape:window-height="768"
   inkscape:window-x="0"
   inkscape:window-y="0"
   inkscape:window-maximized="1"><inkscape:grid
     type="xygrid"
     id="grid913"
     originx="0"
     originy="0"
     spacingy="1"
     spacingx="1"
     units="px" /></sodipodi:namedview>














<g
   inkscape:groupmode="layer"
   id="layer2"
   inkscape:label="Backplate"><rect
     style="display:inline;fill:#000000;fill-opacity:0.25;stroke-width:10.7827;stroke-linecap:round;stroke-linejoin:round"
     id="rect937"
     width="223"
     height="278"
     x="1"
     y="1"
     rx="6.977437"
     ry="6.9689116" /><rect
     style="display:inline;opacity:0.5;fill:#000000;fill-opacity:1;stroke:none;stroke-width:1.6646;stroke-linecap:round;stroke-linejoin:round;stroke-miterlimit:4;stroke-dasharray:none;stroke-opacity:1;paint-order:stroke fill markers"
     id="rect38642"
     width="40.25547"
     height="10.243361"
     x="64.621254"
     y="182.39297"
     ry="1.1725925"
     rx="1.0931113" /><text
     xml:space="preserve"
     id="text127462"
     style="font-style:normal;font-variant:normal;font-weight:bold;font-stretch:normal;font-size:8px;line-height:1.25;font-family:Comfortaa;-inkscape-font-specification:'Comfortaa Bold';font-variant-ligatures:normal;font-variant-caps:normal;font-variant-numeric:normal;font-variant-east-asian:normal;text-align:center;text-decoration-color:#000000;letter-spacing:0px;word-spacing:0px;white-space:pre;shape-inside:url(#rect127464-7-7);display:inline;fill:#ffd8b2;fill-opacity:1;stroke:none;stroke-width:1.5;stroke-linecap:round;stroke-linejoin:round;stroke-miterlimit:4;stroke-dasharray:none;stroke-opacity:1;paint-order:stroke fill markers;stop-color:#000000"
     x="10.010417"
     y="0"
     transform="matrix(1.1097336,0,0,1.1097336,-19.113016,19.344706)"><tspan
       x="76.751823"
       y="154.66483"
       id="tspan8">SELECT</tspan></text><rect
     style="display:inline;opacity:0.5;fill:#000000;fill-opacity:1;stroke:none;stroke-width:1.6646;stroke-linecap:round;stroke-linejoin:round;stroke-miterlimit:4;stroke-dasharray:none;stroke-opacity:1;paint-order:stroke fill markers"
     id="rect38642-7"
     width="40.25547"
     height="10.243361"
     x="109.73895"
     y="182.39297"
     ry="1.1725925"
     rx="1.0931113" /><text
     xml:space="preserve"
     id="text127462-9"
     style="font-style:normal;font-variant:normal;font-weight:bold;font-stretch:normal;font-size:8px;line-height:1.25;font-family:Comfortaa;-inkscape-font-specification:'Comfortaa Bold';font-variant-ligatures:normal;font-variant-caps:normal;font-variant-numeric:normal;font-variant-east-asian:normal;text-align:center;text-decoration-color:#000000;letter-spacing:0px;word-spacing:0px;white-space:pre;shape-inside:url(#rect127464-0-5-4);display:inline;fill:#ffd8b2;fill-opacity:1;stroke:none;stroke-width:1.5;stroke-linecap:round;stroke-linejoin:round;stroke-miterlimit:4;stroke-dasharray:none;stroke-opacity:1;paint-order:stroke fill markers;stop-color:#000000"
     x="10.010417"
     y="0"
     transform="matrix(1.1097336,0,0,1.1097336,26.459827,19.340267)"><tspan
       x="80.113686"
       y="154.66483"
       id="tspan9">START</tspan></text></g><g
   inkscape:groupmode="layer"
   id="layer8"
   inkscape:label="Start/Select"><path
     style="display:inline;fill:#ffd8b2;fill-opacity:1;stroke:#000000;stroke-width:3.33388;stroke-linecap:round;stroke-linejoin:round;stroke-miterlimit:4;stroke-dasharray:none;stroke-opacity:1;paint-order:stroke fill markers"
     d="m 101.7391,175.02756 c 0,2.66973 -2.159923,4.89453 -4.915687,4.89453 H 72.641008 c -2.755763,0 -4.915687,-2.2248 -4.915687,-4.89453 v -11.11294 c 0,-2.66972 2.159924,-4.89448 4.915687,-4.89448 h 24.182405 c 2.755764,0 4.915687,2.22476 4.915687,4.89448 z m -2.904723,-11.11294 c 0,-1.11237 -0.893759,-2.00228 -2.010964,-2.00228 H 72.641008 c -1.117202,0 -2.010964,0.88991 -2.010964,2.00228 v 11.11294 c 0,1.11238 0.893762,2.0023 2.010964,2.0023 h 24.182405 c 1.117205,0 2.010964,-0.88992 2.010964,-2.0023 z"
     id="path23-1-9"
     sodipodi:nodetypes="cssccsscccssccsscc" /><path
     style="display:inline;fill:#ffd8b2;fill-opacity:1;stroke:#000000;stroke-width:3.33388;stroke-linecap:round;stroke-linejoin:round;stroke-miterlimit:4;stroke-dasharray:none;stroke-opacity:1;paint-order:stroke fill markers"
     d="m 144.69762,169.47109 c 0,2.66974 -2.27493,4.10671 -4.91567,4.89452 l -18.62597,5.55648 c -2.98191,0.88953 -6.02696,-2.2248 -6.02696,-4.89453 v -11.11294 c 0,-2.66972 2.75736,-5.86987 6.02696,-4.89448 l 18.62597,5.55646 c 2.64074,0.78777 4.91567,2.22477 4.91567,4.89449 z m -2.90475,0 c 0,-1.11238 -0.92211,-1.75212 -2.01092,-2.00229 l -18.62597,-5.55646 c -1.85795,-0.55426 -3.12225,0.88991 -3.12225,2.00228 v 11.11294 c 0,1.11238 1.46225,2.49749 3.12225,2.0023 l 18.62597,-5.55645 c 1.08881,-0.25021 2.01092,-0.88992 2.01092,-2.00232 z"
     id="path23-1-9-7"
     sodipodi:nodetypes="cssccsscscsssscs" /></g><g
   inkscape:groupmode="layer"
   id="layer7"
   inkscape:label="Face buttons"
   style="display:inline"><path
     style="display:inline;fill:#ffd8b2;fill-opacity:1;stroke:#000000;stroke-width:3.33388;stroke-linecap:round;stroke-linejoin:round;stroke-miterlimit:4;stroke-dasharray:none;stroke-opacity:1;paint-order:stroke fill markers"
     d="m 203.56675,148.15374 c -9.75687,0 -17.72625,-7.93505 -17.72625,-17.6499 0,-9.71486 7.96938,-17.64991 17.72625,-17.64991 9.7569,0 17.72627,7.93505 17.72627,17.64991 0,9.71485 -7.96937,17.6499 -17.72627,17.6499 z m 0,-32.33343 c -8.11833,0 -14.74706,6.60016 -14.74706,14.68353 0,8.08335 6.62873,14.68352 14.74706,14.68352 8.11833,0 14.74708,-6.60017 14.74708,-14.68352 0,-8.08337 -6.62875,-14.68353 -14.74708,-14.68353 z"
     id="path43-1-81" /><path
     style="display:inline;fill:#ffd8b2;fill-opacity:1;stroke:#000000;stroke-width:3.33388;stroke-linecap:round;stroke-linejoin:round;stroke-miterlimit:4;stroke-dasharray:none;stroke-opacity:1;paint-order:stroke fill markers"
     d="m 172.15911,116.88138 c -9.75689,0 -17.72628,-7.93502 -17.72628,-17.649872 0,-9.714851 7.96939,-17.649885 17.72628,-17.649885 9.75688,0 17.72626,7.935034 17.72626,17.649885 0,9.714852 -7.96938,17.649872 -17.72626,17.649872 z m 0,-32.33339 c -8.11834,0 -14.74708,6.600168 -14.74708,14.683518 0,8.083362 6.62874,14.683522 14.74708,14.683522 8.11833,0 14.74706,-6.60016 14.74706,-14.683522 0,-8.08335 -6.62873,-14.683518 -14.74706,-14.683518 z"
     id="path43-1-7" /><path
     style="display:inline;fill:#ffd8b2;fill-opacity:1;stroke:#000000;stroke-width:3.33388;stroke-linecap:round;stroke-linejoin:round;stroke-miterlimit:4;stroke-dasharray:none;stroke-opacity:1;paint-order:stroke fill markers"
     d="m 172.1591,179.42605 c -9.75688,0 -17.72627,-7.93504 -17.72627,-17.64989 0,-9.71485 7.96939,-17.64989 17.72627,-17.64989 9.75689,0 17.72627,7.93504 17.72627,17.64989 0,9.71485 -7.96938,17.64989 -17.72627,17.64989 z m 0,-32.33341 c -8.11834,0 -14.74707,6.60018 -14.74707,14.68352 0,8.08336 6.62873,14.6835 14.74707,14.6835 8.11834,0 14.74707,-6.60014 14.74707,-14.6835 0,-8.08334 -6.62873,-14.68352 -14.74707,-14.68352 z"
     id="path43-1-81-1" /><path
     style="display:inline;fill:#ffd8b2;fill-opacity:1;stroke:#000000;stroke-width:3.33388;stroke-linecap:round;stroke-linejoin:round;stroke-miterlimit:4;stroke-dasharray:none;stroke-opacity:1;paint-order:stroke fill markers"
     d="m 140.75144,148.15374 c -9.75689,0 -17.72628,-7.93505 -17.72628,-17.6499 0,-9.71486 7.96939,-17.64991 17.72628,-17.64991 9.75689,0 17.72624,7.93505 17.72624,17.64991 0,9.71485 -7.96935,17.6499 -17.72624,17.6499 z m 0,-32.33343 c -8.11833,0 -14.74708,6.60016 -14.74708,14.68353 0,8.08335 6.62875,14.68352 14.74708,14.68352 8.11833,0 14.74706,-6.60017 14.74706,-14.68352 0,-8.08337 -6.62873,-14.68353 -14.74706,-14.68353 z"
     id="path43-1" /><text
     xml:space="preserve"
     id="text83349"
     style="font-style:normal;font-variant:normal;font-weight:normal;font-stretch:normal;font-size:21.3333px;line-height:1.25;font-family:Comfortaa;-inkscape-font-specification:'Comfortaa, Normal';font-variant-ligatures:normal;font-variant-position:normal;font-variant-caps:normal;font-variant-numeric:normal;font-variant-alternates:normal;font-variant-east-asian:normal;text-indent:0;text-align:center;text-decoration-line:none;text-decoration-style:solid;text-decoration-color:#000000;letter-spacing:0px;word-spacing:0px;text-transform:none;writing-mode:lr-tb;direction:ltr;text-orientation:mixed;dominant-baseline:auto;baseline-shift:baseline;white-space:pre;shape-inside:url(#rect83351-37);shape-padding:0;shape-margin:0;inline-size:0;display:inline;fill:#ffd8b2;fill-opacity:1;stroke:#000000;stroke-width:3;stroke-linecap:round;stroke-linejoin:round;stroke-miterlimit:4;stroke-dasharray:none;stroke-dashoffset:0;stroke-opacity:1;paint-order:stroke fill markers;stop-color:#000000"
     x="7.8984375"
     y="0"
     transform="matrix(1.1112935,0,0,1.1112935,-20.627846,1.0146931)"><tspan
       x="138.98951"
       y="125.30995"
       id="tspan10">3</tspan></text><text
     xml:space="preserve"
     id="text83349-0"
     style="font-style:normal;font-variant:normal;font-weight:normal;font-stretch:normal;font-size:21.3333px;line-height:1.25;font-family:Comfortaa;-inkscape-font-specification:'Comfortaa, Normal';font-variant-ligatures:normal;font-variant-position:normal;font-variant-caps:normal;font-variant-numeric:normal;font-variant-alternates:normal;font-variant-east-asian:normal;text-indent:0;text-align:center;text-decoration-line:none;text-decoration-style:solid;text-decoration-color:#000000;letter-spacing:0px;word-spacing:0px;text-transform:none;writing-mode:lr-tb;direction:ltr;text-orientation:mixed;dominant-baseline:auto;baseline-shift:baseline;white-space:pre;shape-inside:url(#rect83351-3-9);shape-padding:0;shape-margin:0;inline-size:0;display:inline;fill:#ffd8b2;fill-opacity:1;stroke:#000000;stroke-width:3;stroke-linecap:round;stroke-linejoin:round;stroke-miterlimit:4;stroke-dasharray:none;stroke-dashoffset:0;stroke-opacity:1;paint-order:stroke fill markers;stop-color:#000000"
     x="7.8984375"
     y="0"
     transform="matrix(1.1112935,0,0,1.1112935,10.791154,31.74449)"><tspan
       x="139.03218"
       y="125.30995"
       id="tspan11">2</tspan></text><text
     xml:space="preserve"
     id="text83349-6"
     style="font-style:normal;font-variant:normal;font-weight:normal;font-stretch:normal;font-size:21.3333px;line-height:1.25;font-family:Comfortaa;-inkscape-font-specification:'Comfortaa, Normal';font-variant-ligatures:normal;font-variant-position:normal;font-variant-caps:normal;font-variant-numeric:normal;font-variant-alternates:normal;font-variant-east-asian:normal;text-indent:0;text-align:center;text-decoration-line:none;text-decoration-style:solid;text-decoration-color:#000000;letter-spacing:0px;word-spacing:0px;text-transform:none;writing-mode:lr-tb;direction:ltr;text-orientation:mixed;dominant-baseline:auto;baseline-shift:baseline;white-space:pre;shape-inside:url(#rect83351-9-2);shape-padding:0;shape-margin:0;inline-size:0;display:inline;fill:#ffd8b2;fill-opacity:1;stroke:#000000;stroke-width:3;stroke-linecap:round;stroke-linejoin:round;stroke-miterlimit:4;stroke-dasharray:none;stroke-dashoffset:0;stroke-opacity:1;paint-order:stroke fill markers;stop-color:#000000"
     x="7.8984375"
     y="0"
     transform="matrix(1.1112935,0,0,1.1112935,42.174137,-0.3678708)"><tspan
       x="138.32818"
       y="125.30995"
       id="tspan14">4</tspan></text><text
     xml:space="preserve"
     id="text83349-4"
     style="font-style:normal;font-variant:normal;font-weight:normal;font-stretch:normal;font-size:21.3333px;line-height:1.25;font-family:Comfortaa;-inkscape-font-specification:'Comfortaa, Normal';font-variant-ligatures:normal;font-variant-position:normal;font-variant-caps:normal;font-variant-numeric:normal;font-variant-alternates:normal;font-variant-east-asian:normal;text-indent:0;text-align:center;text-decoration-line:none;text-decoration-style:solid;text-decoration-color:#000000;letter-spacing:0px;word-spacing:0px;text-transform:none;writing-mode:lr-tb;direction:ltr;text-orientation:mixed;dominant-baseline:auto;baseline-shift:baseline;white-space:pre;shape-inside:url(#rect83351-5-7);shape-padding:0;shape-margin:0;inline-size:0;display:inline;fill:#ffd8b2;fill-opacity:1;stroke:#000000;stroke-width:3;stroke-linecap:round;stroke-linejoin:round;stroke-miterlimit:4;stroke-dasharray:none;stroke-dashoffset:0;stroke-opacity:1;paint-order:stroke fill markers;stop-color:#000000"
     x="7.8984375"
     y="0"
     transform="matrix(1.1112935,0,0,1.1112935,10.694482,-30.872466)"><tspan
       x="141.1975"
       y="125.30995"
       id="tspan15">1</tspan></text></g><g
   inkscape:groupmode="layer"
   id="layer9"
   inkscape:label="D-pad"
   style="display:inline"><path
     style="display:inline;fill:#ffd8b2;fill-opacity:1;stroke:#000000;stroke-width:3.33388;stroke-linecap:round;stroke-linejoin:round;stroke-miterlimit:4;stroke-dasharray:none;stroke-opacity:1;paint-order:stroke fill markers"
     d="M 52.565936,169.69697 H 32.828707 c -2.755764,0 -4.915688,-2.22479 -4.915688,-4.89451 V 145.66938 H 8.6971525 c -2.7557651,0 -4.9901688,-2.22477 -4.9901688,-4.96865 v -20.39379 c 0,-2.74387 2.2344037,-4.96866 4.9901688,-4.96866 H 27.913019 V 96.20521 c 0,-2.743889 2.234404,-4.894505 4.915688,-4.894505 h 19.737229 c 2.755765,0 4.915687,2.224774 4.915687,4.894505 v 19.13307 h 19.21587 c 2.755762,0 4.990166,2.22479 4.990166,4.96866 v 20.39379 c 0,2.74388 -2.234404,4.96865 -4.990166,4.96865 h -19.21587 v 19.13308 c 0,2.66972 -2.159922,4.89451 -4.915687,4.89451 z M 8.6971525,118.30464 c -1.1172026,0 -2.0109642,0.88992 -2.0109642,2.0023 v 20.39379 c 0,1.11238 0.8937616,2.00231 2.0109642,2.00231 H 28.13646 c 0.521362,0 1.340643,0.0741 1.936483,0.66741 0.52136,0.44499 0.744801,1.18656 0.744801,2.00231 v 19.4297 c 0,1.11239 0.893761,2.0023 2.010963,2.0023 h 19.737229 c 1.117202,0 2.010963,-0.88991 2.010963,-2.0023 V 145.2986 c 0,-0.74159 0.29792,-1.40902 0.744802,-1.85399 0.446878,-0.44495 1.117201,-0.66742 1.93648,-0.66742 h 19.439312 c 1.117201,0 2.010959,-0.88991 2.010959,-2.00231 v -20.39377 c 0,-1.1124 -0.893758,-2.0023 -2.010959,-2.0023 h -19.51379 c -0.744801,0 -1.415124,-0.22249 -1.936484,-0.66742 -0.446881,-0.44495 -0.744801,-1.11239 -0.744801,-1.854 V 96.427689 c 0,-1.112387 -0.89376,-2.002298 -2.010963,-2.002298 H 32.754227 v 0 c -0.52136,0 -1.042722,0.222477 -1.415122,0.593273 -0.372401,0.370797 -0.595841,0.889909 -0.595841,1.409025 v 19.281401 c 0,0.51912 0,1.18654 -0.521362,1.85398 -0.59584,0.66742 -1.415122,0.74157 -2.085442,0.74157 z"
     id="path23-1"
     inkscape:export-filename="C:\All\Batocera\batocera-assets\controller-overlays\generic.png"
     inkscape:export-xdpi="96"
     inkscape:export-ydpi="96"
     sodipodi:nodetypes="ssscsssscsssscsssscsscsssscssssssssssssscssscsssscscc" /><text
     xml:space="preserve"
     id="text83349-9"
     style="font-style:normal;font-variant:normal;font-weight:normal;font-stretch:normal;font-size:17.3333px;line-height:1.25;font-family:Comfortaa;-inkscape-font-specification:'Comfortaa, Normal';font-variant-ligatures:normal;font-variant-position:normal;font-variant-caps:normal;font-variant-numeric:normal;font-variant-alternates:normal;font-variant-east-asian:normal;text-indent:0;text-align:center;text-decoration-line:none;text-decoration-style:solid;text-decoration-color:#000000;letter-spacing:1px;word-spacing:0px;text-transform:none;writing-mode:lr-tb;direction:ltr;text-orientation:mixed;dominant-baseline:auto;baseline-shift:baseline;white-space:pre;shape-inside:url(#rect83351-4-1);shape-padding:0;shape-margin:0;inline-size:0;display:inline;fill:#ffd8b2;fill-opacity:1;stroke:#000000;stroke-width:3;stroke-linecap:round;stroke-linejoin:round;stroke-miterlimit:4;stroke-dasharray:none;stroke-dashoffset:0;stroke-opacity:1;paint-order:stroke fill markers;stop-color:#000000"
     x="7.8984375"
     y="0"
     transform="matrix(1.1112935,0,0,1.1112935,-138.78551,2.8375709)"><tspan
       x="133.20178"
       y="121.64941"
       id="tspan16">D-PAD</tspan></text><rect
     style="display:inline;opacity:0.5;fill:#000000;fill-opacity:1;stroke:none;stroke-width:1.51197;stroke-linecap:round;stroke-linejoin:round;stroke-miterlimit:4;stroke-dasharray:none;stroke-opacity:1;paint-order:stroke fill markers"
     id="rect38642-2-0-9-8-6"
     width="49.694084"
     height="10.243361"
     x="16.354837"
     y="171.67741"
     ry="1.1725925"
     rx="1.3494108" /><rect
     style="display:inline;opacity:0.5;fill:#000000;fill-opacity:1;stroke:none;stroke-width:1.51197;stroke-linecap:round;stroke-linejoin:round;stroke-miterlimit:4;stroke-dasharray:none;stroke-opacity:1;paint-order:stroke fill markers"
     id="rect38642-2-0-9-8-6-5"
     width="49.694084"
     height="10.243361"
     x="17.114697"
     y="78.67025"
     ry="1.1725925"
     rx="1.3494108" /><text
     xml:space="preserve"
     id="text127462-0"
     style="font-style:normal;font-variant:normal;font-weight:bold;font-stretch:normal;font-size:8px;line-height:1.25;font-family:Comfortaa;-inkscape-font-specification:'Comfortaa Bold';font-variant-ligatures:normal;font-variant-caps:normal;font-variant-numeric:normal;font-variant-east-asian:normal;text-align:center;text-decoration-color:#000000;letter-spacing:0px;word-spacing:0px;white-space:pre;shape-inside:url(#rect127464-7-7-4);display:inline;fill:#ffd8b2;fill-opacity:1;stroke:none;stroke-width:1.5;stroke-linecap:round;stroke-linejoin:round;stroke-miterlimit:4;stroke-dasharray:none;stroke-opacity:1;paint-order:stroke fill markers;stop-color:#000000"
     x="10.010417"
     y="0"
     transform="matrix(1.1097336,0,0,1.1097336,-70.963265,8.5182633)"><tspan
       x="81.520912"
       y="154.66483"
       id="tspan17">COURSE-</tspan></text><text
     xml:space="preserve"
     id="text127462-0-1"
     style="font-style:normal;font-variant:normal;font-weight:bold;font-stretch:normal;font-size:8px;line-height:1.25;font-family:Comfortaa;-inkscape-font-specification:'Comfortaa Bold';font-variant-ligatures:normal;font-variant-caps:normal;font-variant-numeric:normal;font-variant-east-asian:normal;text-align:center;text-decoration-color:#000000;letter-spacing:0px;word-spacing:0px;white-space:pre;shape-inside:url(#rect127464-7-7-4-7);display:inline;fill:#ffd8b2;fill-opacity:1;stroke:none;stroke-width:1.5;stroke-linecap:round;stroke-linejoin:round;stroke-miterlimit:4;stroke-dasharray:none;stroke-opacity:1;paint-order:stroke fill markers;stop-color:#000000"
     x="10.010417"
     y="0"
     transform="matrix(1.1097336,0,0,1.1097336,-69.779473,-84.442316)"><tspan
       x="80.896912"
       y="154.66483"
       id="tspan18">COURSE+</tspan></text></g><g
   inkscape:groupmode="layer"
   id="layer10"
   inkscape:label="Dual-sticks"
   style="display:inline"><path
     style="color:#000000;display:inline;fill:#ffd8b2;stroke:#000000;stroke-width:3.33388;stroke-linecap:round;stroke-linejoin:round;stroke-miterlimit:4;stroke-dasharray:none;stroke-opacity:1;paint-order:stroke fill markers"
     d="m 55.876104,193.07606 c -19.9163,0 -36.093166,16.17688 -36.093166,36.09319 0,19.9163 16.176866,36.09317 36.093166,36.09317 19.9163,0 36.093166,-16.17687 36.093166,-36.09317 0,-19.91631 -16.176866,-36.09319 -36.093166,-36.09319 z m 0,2.89547 c 18.351772,0 33.197723,14.84595 33.197723,33.19772 0,18.35175 -14.845951,33.19772 -33.197723,33.19772 -18.351772,0 -33.197724,-14.84597 -33.197724,-33.19772 0,-18.35177 14.845952,-33.19772 33.197724,-33.19772 z"
     id="circle74" /><path
     style="color:#000000;display:inline;fill:#ffd8b2;stroke:#000000;stroke-width:3.33388;stroke-linecap:round;stroke-linejoin:round;stroke-miterlimit:4;stroke-dasharray:none;stroke-opacity:1;paint-order:stroke fill markers"
     d="m 55.876104,204.89877 c -13.38705,0 -24.270477,10.88341 -24.270477,24.27048 0,13.38704 10.883427,24.27047 24.270477,24.27047 13.387048,0 24.270477,-10.88343 24.270477,-24.27047 0,-13.38707 -10.883429,-24.27048 -24.270477,-24.27048 z m 0,2.89542 c 11.822514,0 21.375037,9.55251 21.375037,21.37506 0,11.8225 -9.552523,21.37501 -21.375037,21.37501 -11.822512,0 -21.375037,-9.55251 -21.375037,-21.37501 0,-11.82255 9.552525,-21.37506 21.375037,-21.37506 z"
     id="circle76" /><path
     style="color:#000000;display:inline;opacity:0.5;fill:#ffd8b2;fill-opacity:1;stroke:#000000;stroke-width:3.33388;stroke-linecap:round;stroke-linejoin:round;stroke-miterlimit:4;stroke-dasharray:none;stroke-opacity:1;paint-order:stroke fill markers"
     d="m 157.86333,204.89877 c -13.38706,0 -24.27048,10.88341 -24.27048,24.27048 0,13.38704 10.88342,24.27047 24.27048,24.27047 13.38705,0 24.27049,-10.88343 24.27049,-24.27047 0,-13.38707 -10.88344,-24.27048 -24.27049,-24.27048 z m 0,2.89542 c 11.8225,0 21.37503,9.55251 21.37503,21.37506 0,11.8225 -9.55253,21.37501 -21.37503,21.37501 -11.82253,0 -21.3772,-9.55251 -21.3772,-21.37501 0,-11.82255 9.55467,-21.37506 21.3772,-21.37506 z"
     id="circle78" /><path
     style="color:#000000;display:inline;opacity:0.5;fill:#ffd8b2;fill-opacity:1;stroke:#000000;stroke-width:3.33388;stroke-linecap:round;stroke-linejoin:round;stroke-miterlimit:4;stroke-dasharray:none;stroke-opacity:1;paint-order:stroke fill markers"
     d="m 157.86333,193.07606 c -19.9163,0 -36.09315,16.17688 -36.09315,36.09319 0,19.9163 16.17685,36.09317 36.09315,36.09317 19.91632,0 36.091,-16.17687 36.091,-36.09317 0,-19.91631 -16.17468,-36.09319 -36.091,-36.09319 z m 0,2.89547 c 18.35178,0 33.19774,14.84595 33.19774,33.19772 0,18.35175 -14.84596,33.19773 -33.19774,33.19772 -18.35179,0 -33.19773,-14.84597 -33.19773,-33.19772 0,-18.35177 14.84594,-33.19772 33.19773,-33.19772 z"
     id="circle80" /><rect
     style="display:inline;opacity:0.5;fill:#000000;fill-opacity:1;stroke:none;stroke-width:1.66458;stroke-linecap:round;stroke-linejoin:round;stroke-miterlimit:4;stroke-dasharray:none;stroke-opacity:1;paint-order:stroke fill markers"
     id="rect38642-2-0-9-8"
     width="60.23172"
     height="10.243361"
     x="25.696226"
     y="267.42969"
     ry="1.1725925"
     rx="1.6355534" /><text
     xml:space="preserve"
     id="text127462-3"
     style="font-style:normal;font-variant:normal;font-weight:bold;font-stretch:normal;font-size:8px;line-height:1.25;font-family:Comfortaa;-inkscape-font-specification:'Comfortaa Bold';font-variant-ligatures:normal;font-variant-caps:normal;font-variant-numeric:normal;font-variant-east-asian:normal;text-align:center;text-decoration-color:#000000;letter-spacing:0px;word-spacing:0px;white-space:pre;shape-inside:url(#rect127464-7-2);display:inline;fill:#ffd8b2;fill-opacity:1;stroke:none;stroke-width:1.5;stroke-linecap:round;stroke-linejoin:round;stroke-miterlimit:4;stroke-dasharray:none;stroke-opacity:1;paint-order:stroke fill markers;stop-color:#000000"
     x="10.010417"
     y="0"
     transform="matrix(1.1112935,0,0,1.1112935,-65.745749,104.14503)"><tspan
       x="83.699753"
       y="154.66483"
       id="tspan19">PADDLES 1,2</tspan></text></g><g
   inkscape:groupmode="layer"
   id="layer4"
   inkscape:label="Shoulder buttons (1st tier)"><text
     xml:space="preserve"
     id="text83349-9-6-0-2"
     style="font-style:normal;font-variant:normal;font-weight:normal;font-stretch:normal;font-size:18.6667px;line-height:1.25;font-family:Comfortaa;-inkscape-font-specification:'Comfortaa, Normal';font-variant-ligatures:normal;font-variant-position:normal;font-variant-caps:normal;font-variant-numeric:normal;font-variant-alternates:normal;font-variant-east-asian:normal;text-indent:0;text-align:center;text-decoration-line:none;text-decoration-style:solid;text-decoration-color:#000000;letter-spacing:2px;word-spacing:0px;text-transform:none;writing-mode:lr-tb;direction:ltr;text-orientation:mixed;dominant-baseline:auto;baseline-shift:baseline;white-space:pre;shape-inside:url(#rect83351-4-1-4-4-4);shape-padding:0;shape-margin:0;inline-size:0;display:inline;fill:#ffd8b2;fill-opacity:1;stroke:#000000;stroke-width:3;stroke-linecap:round;stroke-linejoin:round;stroke-miterlimit:4;stroke-dasharray:none;stroke-dashoffset:0;stroke-opacity:1;paint-order:stroke fill markers;stop-color:#000000"
     x="7.8984375"
     y="0"
     transform="translate(18.179655,-95.232378)" /><path
     style="display:inline;opacity:0.5;fill:#ffd8b2;fill-opacity:1;stroke:#000000;stroke-width:3.33388;stroke-linecap:round;stroke-linejoin:round;stroke-miterlimit:4;stroke-dasharray:none;stroke-opacity:1;paint-order:stroke fill markers"
     d="m 77.301816,34.59991 c 0,2.669727 -2.159933,4.894501 -4.915694,4.894501 H 29.564356 c -5.744402,0 -10.409072,1.990564 -13.079788,3.032483 -1.120583,0.437169 -2.933947,0.103017 -4.034543,-0.70475 -1.213627,-0.890725 -2.07528,-2.293027 -2.07528,-4.011197 0,-21.288149 9.8408,-34.2041021 62.011377,-34.2041021 2.755761,0 4.915694,2.2247758 4.915694,4.8945045 z M 74.397081,8.5013463 c 0,-1.1123831 -0.893757,-2.0022957 -2.010959,-2.0022957 -47.725422,0 -59.106652,11.3487564 -59.106652,31.3119004 0,0.589176 0.266969,1.176455 0.704306,1.527139 0.477935,0.383232 1.158396,0.609027 1.796263,0.388619 2.918922,-1.008607 6.993899,-3.205962 14.305236,-3.193956 l 42.300847,0.06945 c 1.117201,0.0019 2.010959,-0.889909 2.010959,-2.002292 z"
     id="path23-1-9-3-3"
     sodipodi:nodetypes="csssasscccssassscc" /><path
     style="display:inline;opacity:0.5;fill:#ffd8b2;fill-opacity:1;stroke:#000000;stroke-width:3.33388;stroke-linecap:round;stroke-linejoin:round;stroke-miterlimit:4;stroke-dasharray:none;stroke-opacity:1;paint-order:stroke fill markers"
     d="m 147.68868,34.59991 c 0,2.669727 2.15993,4.894501 4.91566,4.894501 h 42.82181 c 5.74438,0 10.40907,1.990564 13.07978,3.032483 1.12058,0.437169 2.93395,0.103017 4.03456,-0.70475 1.21361,-0.890725 2.07527,-2.293027 2.07527,-4.011197 0,-21.288149 -9.8408,-34.2041011 -62.01142,-34.2041011 -2.75573,0 -4.91566,2.2247759 -4.91566,4.8945035 z m 2.90475,-26.0985637 c 0,-1.1123831 0.89374,-2.0022957 2.01091,-2.0022957 47.72547,0 59.10669,11.3487564 59.10669,31.3119004 0,0.589176 -0.26696,1.176455 -0.70432,1.527139 -0.47794,0.383232 -1.15837,0.609027 -1.79626,0.388619 -2.91891,-1.008607 -6.9939,-3.205962 -14.30523,-3.193956 l -42.30088,0.06945 c -1.11717,0.0019 -2.01091,-0.889909 -2.01091,-2.002292 z"
     id="path23-1-9-3-3-88"
     sodipodi:nodetypes="csssasscccssassscc" /><text
     xml:space="preserve"
     id="text83349-9-6"
     style="font-style:normal;font-variant:normal;font-weight:normal;font-stretch:normal;font-size:18.6667px;line-height:1.25;font-family:Comfortaa;-inkscape-font-specification:'Comfortaa, Normal';font-variant-ligatures:normal;font-variant-position:normal;font-variant-caps:normal;font-variant-numeric:normal;font-variant-alternates:normal;font-variant-east-asian:normal;text-indent:0;text-align:center;text-decoration-line:none;text-decoration-style:solid;text-decoration-color:#000000;letter-spacing:-0.25px;word-spacing:0px;text-transform:none;writing-mode:lr-tb;direction:ltr;text-orientation:mixed;dominant-baseline:auto;baseline-shift:baseline;white-space:pre;shape-inside:url(#rect83351-4-1-4);shape-padding:0;shape-margin:0;inline-size:0;display:inline;fill:#ffd8b2;fill-opacity:1;stroke:#000000;stroke-width:3;stroke-linecap:round;stroke-linejoin:round;stroke-miterlimit:4;stroke-dasharray:none;stroke-dashoffset:0;stroke-opacity:1;paint-order:stroke fill markers;stop-color:#000000"
     x="7.8984375"
     y="0"
     transform="matrix(1.1112935,0,0,1.1112935,-137.26894,-68.479363)" /><path
     style="display:inline;fill:#ffd8b2;fill-opacity:1;stroke:#000000;stroke-width:3.33388;stroke-linecap:round;stroke-linejoin:round;stroke-miterlimit:4;stroke-dasharray:none;stroke-opacity:1;paint-order:stroke fill markers"
     d="m 77.301816,70.211665 c 0,2.669729 -2.159933,4.894507 -4.915694,4.894507 H 29.564356 c -5.744402,0 -10.409072,2.504061 -13.079788,3.545982 -1.120583,0.437171 -2.933947,0.103017 -4.034543,-0.704749 -1.213625,-0.890725 -2.07528,-2.293028 -2.07528,-4.011199 V 54.114745 c 0,-1.628278 0.827806,-3.136239 2.057827,-3.986138 4.000797,-2.764411 11.301529,-5.353535 17.131784,-5.353535 h 42.821766 c 2.755761,0 4.915694,2.224774 4.915694,4.894502 z M 74.397081,49.669571 c 0,-1.112383 -0.893757,-2.002294 -2.010959,-2.002294 H 29.564356 c -5.567093,0 -11.682562,2.636818 -15.381655,4.772491 -0.518223,0.299198 -0.90757,1.007037 -0.903231,1.674981 v 19.821462 c 0,0.589177 0.266969,1.176458 0.704306,1.527139 0.477935,0.383233 1.158396,0.609028 1.796263,0.388618 2.918922,-1.008608 6.993899,-3.719463 14.305236,-3.707459 l 42.300847,0.06946 c 1.117201,0.0019 2.010959,-0.889915 2.010959,-2.002297 z"
     id="path23-1-9-3"
     sodipodi:nodetypes="csssascssscccssscsassscc" /><text
     xml:space="preserve"
     id="text83349-9-6-0"
     style="font-style:normal;font-variant:normal;font-weight:normal;font-stretch:normal;font-size:18.6667px;line-height:1.25;font-family:Comfortaa;-inkscape-font-specification:'Comfortaa, Normal';font-variant-ligatures:normal;font-variant-position:normal;font-variant-caps:normal;font-variant-numeric:normal;font-variant-alternates:normal;font-variant-east-asian:normal;text-indent:0;text-align:center;text-decoration-line:none;text-decoration-style:solid;text-decoration-color:#000000;letter-spacing:2px;word-spacing:0px;text-transform:none;writing-mode:lr-tb;direction:ltr;text-orientation:mixed;dominant-baseline:auto;baseline-shift:baseline;white-space:pre;shape-inside:url(#rect83351-4-1-4-4);shape-padding:0;shape-margin:0;inline-size:0;display:inline;fill:#ffd8b2;fill-opacity:1;stroke:#000000;stroke-width:3;stroke-linecap:round;stroke-linejoin:round;stroke-miterlimit:4;stroke-dasharray:none;stroke-dashoffset:0;stroke-opacity:1;paint-order:stroke fill markers;stop-color:#000000"
     x="7.8984375"
     y="0"
     transform="matrix(1.1112935,0,0,1.1112935,0.04498805,-68.479363)"><tspan
       x="140.33369"
       y="122.86965"
       id="tspan20">AUX</tspan></text><path
     style="display:inline;fill:#ffd8b2;fill-opacity:1;stroke:#000000;stroke-width:3.33388;stroke-linecap:round;stroke-linejoin:round;stroke-miterlimit:4;stroke-dasharray:none;stroke-opacity:1;paint-order:stroke fill markers"
     d="m 147.68867,70.211665 c 0,2.669729 2.15993,4.894507 4.91568,4.894507 h 42.82178 c 5.74439,0 10.40909,2.504061 13.0798,3.545982 1.12058,0.437171 2.93395,0.103017 4.03455,-0.704749 1.21362,-0.890725 2.07528,-2.293028 2.07528,-4.011199 V 54.114745 c 0,-1.628278 -0.8278,-3.136239 -2.05784,-3.986138 -4.00081,-2.764411 -11.30152,-5.353535 -17.13179,-5.353535 h -42.82178 c -2.75575,0 -4.91568,2.224774 -4.91568,4.894502 z m 2.90475,-20.542094 c 0,-1.112383 0.89374,-2.002294 2.01093,-2.002294 h 42.8218 c 5.5671,0 11.68257,2.636818 15.38164,4.772491 0.51821,0.299198 0.9076,1.007037 0.90324,1.674981 v 19.821462 c 0,0.589177 -0.26696,1.176458 -0.70432,1.527139 -0.47794,0.383233 -1.15837,0.609028 -1.79625,0.388618 -2.91892,-1.008608 -6.99391,-3.719463 -14.30524,-3.707459 l -42.30087,0.06946 c -1.11719,0.0019 -2.01093,-0.889915 -2.01093,-2.002297 z"
     id="path23-1-9-3-6"
     sodipodi:nodetypes="csssascssscccssscsassscc" /></g><g
   inkscape:groupmode="layer"
   id="layer6"
   inkscape:label="Shoulder triggers (2nd tier)" /></svg>
