<?xml version="1.0" encoding="UTF-8" standalone="no"?>
<!-- Generator: Adobe Illustrator 24.0.1, SVG Export Plug-In . SVG Version: 6.00 Build 0)  -->

<svg
   version="1.1"
   id="Layer_3"
   x="0px"
   y="0px"
   viewBox="0 0 225 280"
   xml:space="preserve"
   sodipodi:docname="dice.svg"
   inkscape:version="1.4 (e7c3feb1, 2024-10-09)"
   inkscape:export-filename="C:\All\Batocera\batocera-controller-overlays\mame.png"
   inkscape:export-xdpi="96"
   inkscape:export-ydpi="96"
   width="225"
   height="280"
   xmlns:inkscape="http://www.inkscape.org/namespaces/inkscape"
   xmlns:sodipodi="http://sodipodi.sourceforge.net/DTD/sodipodi-0.dtd"
   xmlns="http://www.w3.org/2000/svg"
   xmlns:svg="http://www.w3.org/2000/svg"><defs
   id="defs75"><inkscape:path-effect
     effect="envelope"
     id="path-effect76373"
     is_visible="true"
     lpeversion="1"
     yy="true"
     xx="true"
     bendpath1="M 23.537096,16.621557 H 86.140921"
     bendpath2="M 86.140921,16.621557 V 39.916004"
     bendpath3="M 23.537096,39.916004 H 86.140921"
     bendpath4="M 23.537096,16.621557 V 39.916004" /><inkscape:path-effect
     effect="lattice2"
     gridpoint0="23.537096,16.621557"
     gridpoint1="86.140921,16.621557"
     gridpoint2="23.537096,39.916004"
     gridpoint3="86.140921,39.916004"
     gridpoint4="39.188052,16.621557"
     gridpoint5="70.489964,16.621557"
     gridpoint6="39.188052,39.916004"
     gridpoint7="70.489964,39.916004"
     gridpoint8x9="54.839008,16.621557"
     gridpoint10x11="54.839008,39.916004"
     gridpoint12="23.537096,22.445169"
     gridpoint13="86.140921,22.445169"
     gridpoint14="23.537096,34.092392"
     gridpoint15="86.140921,34.092392"
     gridpoint16="39.188052,22.445169"
     gridpoint17="70.489964,22.445169"
     gridpoint18="39.188052,34.092392"
     gridpoint19="70.489964,34.092392"
     gridpoint20x21="54.839008,22.445169"
     gridpoint22x23="54.839008,34.092392"
     gridpoint24x26="23.537096,28.268781"
     gridpoint25x27="86.140921,28.268781"
     gridpoint28x30="39.188052,28.268781"
     gridpoint29x31="70.489964,28.268781"
     gridpoint32x33x34x35="54.839008,28.268781"
     id="path-effect76371"
     is_visible="true"
     lpeversion="1"
     horizontal_mirror="false"
     vertical_mirror="false"
     perimetral="true"
     live_update="true" /><inkscape:path-effect
     effect="attach_path"
     id="path-effect76369"
     lpeversion="1"
     endcurveend="11.768548,10.555296 , -11.059262,26.691553"
     is_visible="true"
     startpath=""
     startposition="0"
     startcurvestart="0,0 , 20,0"
     startcurveend="23.658422,11.889874 , 28.614092,-5.9449372"
     endpath=""
     endposition="0"
     endcurvestart="0,0 , 20,0" /><inkscape:path-effect
     effect="envelope"
     id="path-effect76348"
     is_visible="true"
     lpeversion="1"
     yy="true"
     xx="true"
     bendpath1="M 23.537096,16.621557 61.997198,10.797945"
     bendpath2="M 86.140921,16.621557 V 39.916004"
     bendpath3="M 23.537096,42.342509 86.140921,39.916004"
     bendpath4="M 23.537096,16.621557 V 50.592625"
     bendpath4-nodetypes="cc"
     bendpath3-nodetypes="cc"
     bendpath1-nodetypes="cc" /><rect
     x="76.739281"
     y="147.34442"
     width="33.36795"
     height="20.843538"
     id="rect127464" /><rect
     x="128.2495"
     y="105.78697"
     width="33.960148"
     height="33.738186"
     id="rect83351" /><rect
     x="127.67705"
     y="105.52645"
     width="34.594753"
     height="33.972546"
     id="rect34999" /><rect
     x="161.5537"
     y="139.78229"
     width="33.151905"
     height="33.894112"
     id="rect24475" /><rect
     x="128.2495"
     y="105.78697"
     width="33.960148"
     height="33.738186"
     id="rect83351-3" /><rect
     x="128.2495"
     y="105.78697"
     width="33.960148"
     height="33.738186"
     id="rect83351-9" /><rect
     x="128.2495"
     y="105.78697"
     width="33.960148"
     height="33.738186"
     id="rect83351-5" /><rect
     x="76.739281"
     y="147.34442"
     width="32.54847"
     height="20.780947"
     id="rect127464-0" /><rect
     x="128.2495"
     y="105.78697"
     width="69.439232"
     height="31.708288"
     id="rect83351-4" /><rect
     x="128.2495"
     y="105.78697"
     width="33.960148"
     height="33.738186"
     id="rect83351-52" /><rect
     x="128.2495"
     y="105.78697"
     width="33.960148"
     height="33.738186"
     id="rect83351-52-6" /><rect
     x="128.2495"
     y="105.78697"
     width="33.960148"
     height="33.738186"
     id="rect83351-37" /><rect
     x="128.2495"
     y="105.78697"
     width="33.960148"
     height="33.738186"
     id="rect83351-3-9" /><rect
     x="128.2495"
     y="105.78697"
     width="33.960148"
     height="33.738186"
     id="rect83351-9-2" /><rect
     x="128.2495"
     y="105.78697"
     width="33.960148"
     height="33.738186"
     id="rect83351-5-7" /><rect
     x="76.739281"
     y="147.34442"
     width="33.36795"
     height="20.843538"
     id="rect127464-7" /><rect
     x="76.739281"
     y="147.34442"
     width="32.54847"
     height="20.780947"
     id="rect127464-0-5" /><rect
     x="128.2495"
     y="105.78697"
     width="69.439232"
     height="31.708288"
     id="rect83351-4-1" /><rect
     x="128.2495"
     y="105.78697"
     width="33.960148"
     height="33.738186"
     id="rect83351-52-67" /><rect
     x="128.2495"
     y="105.78697"
     width="33.960148"
     height="33.738186"
     id="rect83351-52-6-8" /><rect
     x="128.2495"
     y="105.78697"
     width="69.439232"
     height="31.708288"
     id="rect83351-4-1-4" /><rect
     x="128.2495"
     y="105.78697"
     width="69.439232"
     height="31.708288"
     id="rect83351-4-1-4-4" /><rect
     x="128.2495"
     y="105.78697"
     width="69.439232"
     height="31.708288"
     id="rect83351-4-1-4-9" /><rect
     x="128.2495"
     y="105.78697"
     width="69.439232"
     height="31.708288"
     id="rect83351-4-1-4-4-4" /><rect
     x="76.739281"
     y="147.34442"
     width="65.207237"
     height="14.330957"
     id="rect127464-7-2" /><rect
     x="76.739281"
     y="147.34442"
     width="65.207237"
     height="14.330957"
     id="rect127464-7-2-8" /><rect
     x="76.739281"
     y="147.34442"
     width="33.36795"
     height="20.843538"
     id="rect127464-7-9" /><rect
     x="76.739281"
     y="147.34442"
     width="65.207237"
     height="14.330957"
     id="rect127464-7-2-3" /><rect
     x="76.739281"
     y="147.34442"
     width="65.207237"
     height="14.330957"
     id="rect127464-7-2-8-0" /><rect
     x="76.739281"
     y="147.34442"
     width="32.54847"
     height="20.780947"
     id="rect127464-0-5-6" /><rect
     x="128.2495"
     y="105.78697"
     width="33.960148"
     height="33.738186"
     id="rect83351-37-0" /><rect
     x="128.2495"
     y="105.78697"
     width="33.960148"
     height="33.738186"
     id="rect83351-3-9-7" /><rect
     x="128.2495"
     y="105.78697"
     width="33.960148"
     height="33.738186"
     id="rect83351-9-2-3" /><rect
     x="128.2495"
     y="105.78697"
     width="33.960148"
     height="33.738186"
     id="rect83351-5-7-1" /><rect
     x="128.2495"
     y="105.78697"
     width="69.439232"
     height="31.708288"
     id="rect83351-4-1-0" /><rect
     x="128.2495"
     y="105.78697"
     width="69.439232"
     height="31.708288"
     id="rect83351-4-1-4-7" /><rect
     x="128.2495"
     y="105.78697"
     width="69.439232"
     height="31.708288"
     id="rect83351-4-1-4-9-9" /><rect
     x="128.2495"
     y="105.78697"
     width="33.960148"
     height="33.738186"
     id="rect83351-52-67-1" /><rect
     x="128.2495"
     y="105.78697"
     width="33.960148"
     height="33.738186"
     id="rect83351-52-6-8-9" /><rect
     x="128.2495"
     y="105.78697"
     width="69.439232"
     height="31.708288"
     id="rect83351-4-1-4-4-2" /><rect
     x="128.2495"
     y="105.78697"
     width="69.439232"
     height="31.708288"
     id="rect83351-4-1-4-4-4-6" /></defs><sodipodi:namedview
   id="namedview73"
   pagecolor="#ffffff"
   bordercolor="#666666"
   borderopacity="1.0"
   inkscape:pageshadow="2"
   inkscape:pageopacity="0"
   inkscape:pagecheckerboard="true"
   showgrid="false"
   inkscape:current-layer="layer7"
   inkscape:snap-bbox="true"
   inkscape:bbox-nodes="true"
   inkscape:bbox-paths="true"
   inkscape:object-nodes="false"
   inkscape:snap-others="true"
   inkscape:snap-bbox-edge-midpoints="true"
   inkscape:snap-bbox-midpoints="false"
   inkscape:object-paths="false"
   inkscape:snap-smooth-nodes="false"
   inkscape:snap-nodes="false"
   inkscape:showpageshadow="2"
   inkscape:deskcolor="#d1d1d1"
   inkscape:zoom="1.56"
   inkscape:cx="111.85897"
   inkscape:cy="139.74359"
   inkscape:window-width="1440"
   inkscape:window-height="847"
   inkscape:window-x="0"
   inkscape:window-y="25"
   inkscape:window-maximized="0" />














<g
   inkscape:groupmode="layer"
   id="layer2"
   inkscape:label="Backplate"
   style="display:inline"><rect
     style="display:inline;fill:#000000;fill-opacity:0.25;stroke-width:10.7827;stroke-linecap:round;stroke-linejoin:round"
     id="rect937"
     width="223"
     height="278"
     x="1"
     y="1"
     rx="6.977437"
     ry="6.9689116" /></g><g
   inkscape:groupmode="layer"
   id="layer8"
   inkscape:label="Start/Select"><path
     style="display:inline;fill:#ffd8b2;fill-opacity:1;stroke:#000000;stroke-width:3.3292;stroke-linecap:round;stroke-linejoin:round;stroke-miterlimit:4;stroke-dasharray:none;stroke-opacity:1;paint-order:stroke fill markers"
     d="m 101.7542,174.97845 c 0,2.66598 -2.156893,4.88763 -4.908788,4.88763 h -24.14846 c -2.751897,0 -4.908787,-2.22165 -4.908787,-4.88763 v -11.09734 c 0,-2.66598 2.15689,-4.88763 4.908787,-4.88763 h 24.14846 c 2.751895,0 4.908788,2.22165 4.908788,4.88763 z m -2.900648,-11.09734 c 0,-1.11082 -0.892503,-1.99948 -2.00814,-1.99948 h -24.14846 c -1.115634,0 -2.008141,0.88866 -2.008141,1.99948 v 11.09734 c 0,1.11082 0.892507,1.99948 2.008141,1.99948 h 24.14846 c 1.115637,0 2.00814,-0.88866 2.00814,-1.99948 z"
     id="path23-1-9"
     sodipodi:nodetypes="cssccsscccssccsscc" /><path
     style="display:inline;fill:#ffd8b2;fill-opacity:1;stroke:#000000;stroke-width:3.3292;stroke-linecap:round;stroke-linejoin:round;stroke-miterlimit:4;stroke-dasharray:none;stroke-opacity:1;paint-order:stroke fill markers"
     d="m 144.65242,169.42977 c 0,2.66598 -2.27174,4.10095 -4.90879,4.88763 l -18.5998,5.54867 c -2.97771,0.88831 -6.01852,-2.22165 -6.01852,-4.88763 V 163.8811 c 0,-2.66598 2.75351,-5.86165 6.01852,-4.88763 l 18.5998,5.54867 c 2.63705,0.78667 4.90879,2.22165 4.90879,4.88763 z m -2.90065,0 c 0,-1.11082 -0.92083,-1.74965 -2.00814,-1.99949 l -18.5998,-5.54866 c -1.85534,-0.55348 -3.11787,0.88866 -3.11787,1.99948 v 11.09734 c 0,1.11082 1.46021,2.49399 3.11787,1.99948 l 18.5998,-5.54867 c 1.08731,-0.24983 2.00814,-0.88866 2.00814,-1.99948 z"
     id="path23-1-9-7"
     sodipodi:nodetypes="cssccsscscsssscs" /><rect
     style="display:inline;opacity:0.5;fill:#000000;fill-opacity:1;stroke:none;stroke-width:1.6646;stroke-linecap:round;stroke-linejoin:round;stroke-miterlimit:4;stroke-dasharray:none;stroke-opacity:1;paint-order:stroke fill markers"
     id="rect38642-1"
     width="40.25547"
     height="10.243361"
     x="64.621254"
     y="182.39297"
     ry="1.1725925"
     rx="1.0931113" /><text
     xml:space="preserve"
     id="text127462"
     style="font-style:normal;font-variant:normal;font-weight:bold;font-stretch:normal;font-size:8px;line-height:1.25;font-family:Comfortaa;-inkscape-font-specification:'Comfortaa Bold';font-variant-ligatures:normal;font-variant-caps:normal;font-variant-numeric:normal;font-variant-east-asian:normal;text-align:center;text-decoration-color:#000000;letter-spacing:0px;word-spacing:0px;white-space:pre;shape-inside:url(#rect127464-7);display:inline;fill:#ffd8b2;fill-opacity:1;stroke:none;stroke-width:1.5;stroke-linecap:round;stroke-linejoin:round;stroke-miterlimit:4;stroke-dasharray:none;stroke-opacity:1;paint-order:stroke fill markers;stop-color:#000000"
     x="10.010417"
     y="0"
     transform="matrix(1.1097336,0,0,1.1097336,-18.744583,19.344709)"><tspan
       x="82.095825"
       y="154.66483"
       id="tspan1">COIN</tspan></text><rect
     style="display:inline;opacity:0.5;fill:#000000;fill-opacity:1;stroke:none;stroke-width:1.6646;stroke-linecap:round;stroke-linejoin:round;stroke-miterlimit:4;stroke-dasharray:none;stroke-opacity:1;paint-order:stroke fill markers"
     id="rect38642-7"
     width="40.25547"
     height="10.243361"
     x="109.73891"
     y="182.39297"
     ry="1.1725924"
     rx="1.0931113" /><text
     xml:space="preserve"
     id="text127462-9"
     style="font-style:normal;font-variant:normal;font-weight:bold;font-stretch:normal;font-size:8px;line-height:1.25;font-family:Comfortaa;-inkscape-font-specification:'Comfortaa Bold';font-variant-ligatures:normal;font-variant-caps:normal;font-variant-numeric:normal;font-variant-east-asian:normal;text-align:center;text-decoration-color:#000000;letter-spacing:0px;word-spacing:0px;white-space:pre;shape-inside:url(#rect127464-0-5);display:inline;fill:#ffd8b2;fill-opacity:1;stroke:none;stroke-width:1.5;stroke-linecap:round;stroke-linejoin:round;stroke-miterlimit:4;stroke-dasharray:none;stroke-opacity:1;paint-order:stroke fill markers;stop-color:#000000"
     x="10.010417"
     y="0"
     transform="matrix(1.1097336,0,0,1.1097336,26.459827,19.34027)"><tspan
       x="80.113686"
       y="154.66483"
       id="tspan2">START</tspan></text></g><g
   inkscape:groupmode="layer"
   id="layer7"
   inkscape:label="Face buttons"
   style="display:inline"><path
     style="display:inline;fill:#ffd8b2;fill-opacity:1;stroke:#000000;stroke-width:3.3292;stroke-linecap:round;stroke-linejoin:round;stroke-miterlimit:4;stroke-dasharray:none;stroke-opacity:1;paint-order:stroke fill markers"
     d="m 203.43893,148.14231 c -9.7432,0 -17.70139,-7.92389 -17.70139,-17.62511 0,-9.70122 7.95819,-17.62512 17.70139,-17.62512 9.74319,0 17.70138,7.9239 17.70138,17.62512 0,9.70122 -7.95819,17.62511 -17.70138,17.62511 z m 0,-32.28802 c -8.10694,0 -14.72637,6.5909 -14.72637,14.66291 0,8.07201 6.61943,14.6629 14.72637,14.6629 8.10693,0 14.72636,-6.59089 14.72636,-14.6629 0,-8.07201 -6.61943,-14.66291 -14.72636,-14.66291 z"
     id="path43-1-81" /><path
     style="display:inline;fill:#ffd8b2;fill-opacity:1;stroke:#000000;stroke-width:3.3292;stroke-linecap:round;stroke-linejoin:round;stroke-miterlimit:4;stroke-dasharray:none;stroke-opacity:1;paint-order:stroke fill markers"
     d="m 172.07536,116.91388 c -9.7432,0 -17.70139,-7.9239 -17.70139,-17.625108 0,-9.70122 7.95819,-17.62511 17.70139,-17.62511 9.74319,0 17.70138,7.92389 17.70138,17.62511 0,9.701208 -7.95819,17.625108 -17.70138,17.625108 z m 0,-32.288018 c -8.10694,0 -14.72637,6.5909 -14.72637,14.66291 0,8.071998 6.61943,14.662908 14.72637,14.662908 8.10693,0 14.72636,-6.59091 14.72636,-14.662908 0,-8.07201 -6.61943,-14.66291 -14.72636,-14.66291 z"
     id="path43-1-7" /><path
     style="display:inline;fill:#ffd8b2;fill-opacity:1;stroke:#000000;stroke-width:3.3292;stroke-linecap:round;stroke-linejoin:round;stroke-miterlimit:4;stroke-dasharray:none;stroke-opacity:1;paint-order:stroke fill markers"
     d="m 172.07536,179.37075 c -9.7432,0 -17.70139,-7.9239 -17.70139,-17.62511 0,-9.70122 7.95819,-17.62512 17.70139,-17.62512 9.74319,0 17.70138,7.9239 17.70138,17.62512 0,9.70121 -7.95819,17.62511 -17.70138,17.62511 z m 0,-32.28802 c -8.10694,0 -14.72637,6.5909 -14.72637,14.66291 0,8.072 6.61943,14.6629 14.72637,14.6629 8.10693,0 14.72636,-6.5909 14.72636,-14.6629 0,-8.07201 -6.61943,-14.66291 -14.72636,-14.66291 z"
     id="path43-1-81-1" /><path
     style="display:inline;fill:#ffd8b2;fill-opacity:1;stroke:#000000;stroke-width:3.3292;stroke-linecap:round;stroke-linejoin:round;stroke-miterlimit:4;stroke-dasharray:none;stroke-opacity:1;paint-order:stroke fill markers"
     d="m 140.71178,148.14231 c -9.7432,0 -17.70139,-7.92389 -17.70139,-17.62511 0,-9.70122 7.95819,-17.62512 17.70139,-17.62512 9.74319,0 17.70138,7.9239 17.70138,17.62512 0,9.70122 -7.95819,17.62511 -17.70138,17.62511 z m 0,-32.28802 c -8.10694,0 -14.72637,6.5909 -14.72637,14.66291 0,8.07201 6.61943,14.6629 14.72637,14.6629 8.10693,0 14.72636,-6.59089 14.72636,-14.6629 0,-8.07201 -6.61943,-14.66291 -14.72636,-14.66291 z"
     id="path43-1" /><text
     xml:space="preserve"
     id="text83349"
     style="font-style:normal;font-variant:normal;font-weight:normal;font-stretch:normal;font-size:21.3333px;line-height:1.25;font-family:Comfortaa;-inkscape-font-specification:'Comfortaa, Normal';font-variant-ligatures:normal;font-variant-position:normal;font-variant-caps:normal;font-variant-numeric:normal;font-variant-alternates:normal;font-variant-east-asian:normal;text-indent:0;text-align:center;text-decoration-line:none;text-decoration-style:solid;text-decoration-color:#000000;letter-spacing:0px;word-spacing:0px;text-transform:none;writing-mode:lr-tb;direction:ltr;text-orientation:mixed;dominant-baseline:auto;baseline-shift:baseline;white-space:pre;shape-inside:url(#rect83351-37);shape-padding:0;shape-margin:0;inline-size:0;display:inline;fill:#ffd8b2;fill-opacity:1;stroke:#000000;stroke-width:3;stroke-linecap:round;stroke-linejoin:round;stroke-miterlimit:4;stroke-dasharray:none;stroke-dashoffset:0;stroke-opacity:1;paint-order:stroke fill markers;stop-color:#000000"
     x="7.8984375"
     y="0"
     transform="matrix(1.1097336,0,0,1.1097336,-20.572662,0.70134209)"><tspan
       x="138.98951"
       y="125.30995"
       id="tspan3">3</tspan></text><text
     xml:space="preserve"
     id="text83349-0"
     style="font-style:normal;font-variant:normal;font-weight:normal;font-stretch:normal;font-size:21.3333px;line-height:1.25;font-family:Comfortaa;-inkscape-font-specification:'Comfortaa, Normal';font-variant-ligatures:normal;font-variant-position:normal;font-variant-caps:normal;font-variant-numeric:normal;font-variant-alternates:normal;font-variant-east-asian:normal;text-indent:0;text-align:center;text-decoration-line:none;text-decoration-style:solid;text-decoration-color:#000000;letter-spacing:0px;word-spacing:0px;text-transform:none;writing-mode:lr-tb;direction:ltr;text-orientation:mixed;dominant-baseline:auto;baseline-shift:baseline;white-space:pre;shape-inside:url(#rect83351-3-9);shape-padding:0;shape-margin:0;inline-size:0;display:inline;fill:#ffd8b2;fill-opacity:1;stroke:#000000;stroke-width:3;stroke-linecap:round;stroke-linejoin:round;stroke-miterlimit:4;stroke-dasharray:none;stroke-dashoffset:0;stroke-opacity:1;paint-order:stroke fill markers;stop-color:#000000"
     x="7.8984375"
     y="0"
     transform="matrix(1.1097336,0,0,1.1097336,10.933916,31.941617)"><tspan
       x="141.1975"
       y="125.30995"
       id="tspan4">1</tspan></text><text
     xml:space="preserve"
     id="text83349-6"
     style="font-style:normal;font-variant:normal;font-weight:normal;font-stretch:normal;font-size:21.3333px;line-height:1.25;font-family:Comfortaa;-inkscape-font-specification:'Comfortaa, Normal';font-variant-ligatures:normal;font-variant-position:normal;font-variant-caps:normal;font-variant-numeric:normal;font-variant-alternates:normal;font-variant-east-asian:normal;text-indent:0;text-align:center;text-decoration-line:none;text-decoration-style:solid;text-decoration-color:#000000;letter-spacing:0px;word-spacing:0px;text-transform:none;writing-mode:lr-tb;direction:ltr;text-orientation:mixed;dominant-baseline:auto;baseline-shift:baseline;white-space:pre;shape-inside:url(#rect83351-9-2);shape-padding:0;shape-margin:0;inline-size:0;display:inline;fill:#ffd8b2;fill-opacity:1;stroke:#000000;stroke-width:3;stroke-linecap:round;stroke-linejoin:round;stroke-miterlimit:4;stroke-dasharray:none;stroke-dashoffset:0;stroke-opacity:1;paint-order:stroke fill markers;stop-color:#000000"
     x="7.8984375"
     y="0"
     transform="matrix(1.1097336,0,0,1.1097336,42.059794,0.28648509)"><tspan
       x="139.03218"
       y="125.30995"
       id="tspan5">2</tspan></text><text
     xml:space="preserve"
     id="text83349-4"
     style="font-style:normal;font-variant:normal;font-weight:normal;font-stretch:normal;font-size:21.3333px;line-height:1.25;font-family:Comfortaa;-inkscape-font-specification:'Comfortaa, Normal';font-variant-ligatures:normal;font-variant-position:normal;font-variant-caps:normal;font-variant-numeric:normal;font-variant-alternates:normal;font-variant-east-asian:normal;text-indent:0;text-align:center;text-decoration-line:none;text-decoration-style:solid;text-decoration-color:#000000;letter-spacing:0px;word-spacing:0px;text-transform:none;writing-mode:lr-tb;direction:ltr;text-orientation:mixed;dominant-baseline:auto;baseline-shift:baseline;white-space:pre;shape-inside:url(#rect83351-5-7);shape-padding:0;shape-margin:0;display:inline;fill:#ffd8b2;fill-opacity:1;stroke:#000000;stroke-width:3;stroke-linecap:round;stroke-linejoin:round;stroke-miterlimit:4;stroke-dasharray:none;stroke-dashoffset:0;stroke-opacity:1;paint-order:stroke fill markers;stop-color:#000000"
     x="7.8984375"
     y="0"
     transform="matrix(1.1097336,0,0,1.1097336,11.252571,-30.515252)" /></g><g
   inkscape:groupmode="layer"
   id="layer9"
   inkscape:label="D-pad"
   style="display:inline"><path
     style="display:inline;fill:#ffd8b2;fill-opacity:1;stroke:#000000;stroke-width:3.3292;stroke-linecap:round;stroke-linejoin:round;stroke-miterlimit:4;stroke-dasharray:none;stroke-opacity:1;paint-order:stroke fill markers"
     d="M 52.650059,169.65532 H 32.940536 c -2.751897,0 -4.908787,-2.22164 -4.908787,-4.88763 V 145.66147 H 8.842854 c -2.751897,0 -4.983164,-2.22165 -4.983164,-4.96168 v -20.36516 c 0,-2.74003 2.231267,-4.96168 4.983164,-4.96168 H 28.031749 V 96.266732 c 0,-2.74005 2.231266,-4.88765 4.908787,-4.88765 h 19.709523 c 2.751896,0 4.908788,2.22165 4.908788,4.88765 v 19.106218 h 19.188895 c 2.751895,0 4.983162,2.22165 4.983162,4.96168 v 20.36516 c 0,2.74003 -2.231267,4.96168 -4.983162,4.96168 H 57.558847 v 19.10622 c 0,2.66599 -2.156892,4.88763 -4.908788,4.88763 z M 8.842854,118.33515 c -1.115635,0 -2.008141,0.88866 -2.008141,1.99948 v 20.36516 c 0,1.11082 0.892506,1.99948 2.008141,1.99948 h 19.412021 c 0.520629,0 1.338761,0.074 1.933764,0.6665 0.52063,0.44433 0.743756,1.18488 0.743756,1.99948 v 19.40244 c 0,1.11083 0.892507,1.99948 2.008141,1.99948 h 19.709523 c 1.115634,0 2.00814,-0.88865 2.00814,-1.99948 V 145.2912 c 0,-0.74055 0.297502,-1.40704 0.743756,-1.85138 0.446253,-0.44433 1.115633,-0.6665 1.933764,-0.6665 h 19.412023 c 1.115633,0 2.008139,-0.88865 2.008139,-1.99948 v -20.36516 c 0,-1.11082 -0.892506,-1.99948 -2.008139,-1.99948 H 57.261344 c -0.743756,0 -1.413136,-0.22217 -1.933764,-0.6665 -0.446254,-0.44432 -0.743756,-1.11082 -0.743756,-1.85138 V 96.488882 c 0,-1.11082 -0.892507,-1.99948 -2.008141,-1.99948 H 32.86616 v 0 c -0.520629,0 -1.041258,0.22216 -1.413136,0.59244 -0.371878,0.37027 -0.595004,0.88866 -0.595004,1.40704 v 19.254338 c 0,0.51839 0,1.18488 -0.520629,1.85138 -0.595004,0.66649 -1.413136,0.74055 -2.082516,0.74055 z"
     id="path23-1"
     inkscape:export-filename="C:\All\Batocera\batocera-assets\controller-overlays\generic.png"
     inkscape:export-xdpi="96"
     inkscape:export-ydpi="96"
     sodipodi:nodetypes="ssscsssscsssscsssscsscsssscssssssssssssscssscsssscscc" /><text
     xml:space="preserve"
     id="text83349-9"
     style="font-style:normal;font-variant:normal;font-weight:normal;font-stretch:normal;font-size:17.3333px;line-height:1.25;font-family:Comfortaa;-inkscape-font-specification:'Comfortaa, Normal';font-variant-ligatures:normal;font-variant-position:normal;font-variant-caps:normal;font-variant-numeric:normal;font-variant-alternates:normal;font-variant-east-asian:normal;text-indent:0;text-align:center;text-decoration-line:none;text-decoration-style:solid;text-decoration-color:#000000;letter-spacing:1px;word-spacing:0px;text-transform:none;writing-mode:lr-tb;direction:ltr;text-orientation:mixed;dominant-baseline:auto;baseline-shift:baseline;white-space:pre;shape-inside:url(#rect83351-4-1);shape-padding:0;shape-margin:0;inline-size:0;display:inline;fill:#ffd8b2;fill-opacity:1;stroke:#000000;stroke-width:3;stroke-linecap:round;stroke-linejoin:round;stroke-miterlimit:4;stroke-dasharray:none;stroke-dashoffset:0;stroke-opacity:1;paint-order:stroke fill markers;stop-color:#000000"
     x="7.8984375"
     y="0"
     transform="matrix(1.1097336,0,0,1.1097336,-138.43279,3.0301391)"><tspan
       x="135.03043"
       y="121.64941"
       id="tspan6">STICK</tspan></text></g><g
   inkscape:groupmode="layer"
   id="layer10"
   inkscape:label="Dual-sticks"
   style="display:inline"><path
     style="color:#000000;display:inline;fill:#ffd8b2;stroke:#000000;stroke-width:3.3292;stroke-linecap:round;stroke-linejoin:round;stroke-miterlimit:4;stroke-dasharray:none;stroke-opacity:1;paint-order:stroke fill markers"
     d="m 55.95558,193.00162 c -19.888343,0 -36.0425,16.15416 -36.0425,36.04251 0,19.88834 16.154157,36.04249 36.0425,36.04249 19.888345,0 36.042504,-16.15415 36.042504,-36.04249 0,-19.88835 -16.154159,-36.04251 -36.042504,-36.04251 z m 0,2.89138 c 18.326012,0 33.151125,14.82512 33.151125,33.15113 0,18.32601 -14.825113,33.15111 -33.151125,33.15111 -18.32601,0 -33.151124,-14.8251 -33.151124,-33.15111 0,-18.32601 14.825114,-33.15113 33.151124,-33.15113 z"
     id="circle74" /><path
     style="color:#000000;display:inline;fill:#ffd8b2;stroke:#000000;stroke-width:3.3292;stroke-linecap:round;stroke-linejoin:round;stroke-miterlimit:4;stroke-dasharray:none;stroke-opacity:1;paint-order:stroke fill markers"
     d="m 55.95558,204.80771 c -13.368257,0 -24.236408,10.86816 -24.236408,24.23642 0,13.36825 10.868151,24.2364 24.236408,24.2364 13.368259,0 24.23641,-10.86815 24.23641,-24.2364 0,-13.36826 -10.868151,-24.23642 -24.23641,-24.23642 z m 0,2.89138 c 11.805919,0 21.345033,9.53911 21.345033,21.34504 0,11.80591 -9.539114,21.34502 -21.345033,21.34502 -11.805918,0 -21.345033,-9.53911 -21.345033,-21.34502 0,-11.80593 9.539115,-21.34504 21.345033,-21.34504 z"
     id="circle76" /><path
     style="color:#000000;display:inline;opacity:0.5;fill:#ffd8b2;fill-opacity:1;stroke:#000000;stroke-width:3.3292;stroke-linecap:round;stroke-linejoin:round;stroke-miterlimit:4;stroke-dasharray:none;stroke-opacity:1;paint-order:stroke fill markers"
     d="m 157.79965,204.8077 c -13.36826,0 -24.2364,10.86815 -24.2364,24.23642 0,13.36825 10.86814,24.2364 24.2364,24.2364 13.36827,0 24.23641,-10.86815 24.23641,-24.2364 0,-13.36827 -10.86814,-24.23642 -24.23641,-24.23642 z m 0,2.89138 c 11.80593,0 21.34503,9.53911 21.34503,21.34504 0,11.80591 -9.5391,21.34502 -21.34503,21.34502 -11.80592,0 -21.3472,-9.53911 -21.3472,-21.34502 0,-11.80593 9.54128,-21.34504 21.3472,-21.34504 z"
     id="circle78" /><path
     style="color:#000000;display:inline;opacity:0.5;fill:#ffd8b2;fill-opacity:1;stroke:#000000;stroke-width:3.3292;stroke-linecap:round;stroke-linejoin:round;stroke-miterlimit:4;stroke-dasharray:none;stroke-opacity:1;paint-order:stroke fill markers"
     d="m 157.79965,193.00161 c -19.88834,0 -36.0425,16.15416 -36.0425,36.04251 0,19.88834 16.15416,36.04249 36.0425,36.04249 19.88835,0 36.04034,-16.15415 36.04034,-36.04249 0,-19.88835 -16.15199,-36.04251 -36.04034,-36.04251 z m 0,2.89138 c 18.32601,0 33.15113,14.82512 33.15113,33.15113 0,18.326 -14.82512,33.15112 -33.15113,33.15111 -18.326,0 -33.15112,-14.82511 -33.15112,-33.15111 0,-18.32601 14.82512,-33.15113 33.15112,-33.15113 z"
     id="circle80" /><rect
     style="display:inline;opacity:0.5;fill:#000000;fill-opacity:1;stroke:none;stroke-width:1.66459;stroke-linecap:round;stroke-linejoin:round;stroke-miterlimit:4;stroke-dasharray:none;stroke-opacity:1;paint-order:stroke fill markers"
     id="rect38642-2-0-9"
     width="60.231716"
     height="10.243361"
     x="25.839722"
     y="267.39108"
     ry="1.1725924"
     rx="1.6355532" /><text
     xml:space="preserve"
     id="text127462-3"
     style="font-style:normal;font-variant:normal;font-weight:bold;font-stretch:normal;font-size:8px;line-height:1.25;font-family:Comfortaa;-inkscape-font-specification:'Comfortaa Bold';font-variant-ligatures:normal;font-variant-caps:normal;font-variant-numeric:normal;font-variant-east-asian:normal;text-align:center;text-decoration-color:#000000;letter-spacing:0px;word-spacing:0px;white-space:pre;shape-inside:url(#rect127464-7-2);display:inline;fill:#ffd8b2;fill-opacity:1;stroke:none;stroke-width:1.5;stroke-linecap:round;stroke-linejoin:round;stroke-miterlimit:4;stroke-dasharray:none;stroke-opacity:1;paint-order:stroke fill markers;stop-color:#000000"
     x="10.010417"
     y="0"
     transform="matrix(1.1097336,0,0,1.1097336,-65.495552,104.34282)"><tspan
       x="97.115753"
       y="154.66483"
       id="tspan7">STICK</tspan></text></g><g
   inkscape:groupmode="layer"
   id="layer4"
   inkscape:label="Shoulder buttons (1st tier)"><path
     style="display:inline;fill:#ffd8b2;fill-opacity:1;stroke:#000000;stroke-width:3.3292;stroke-linecap:round;stroke-linejoin:round;stroke-miterlimit:4;stroke-dasharray:none;stroke-opacity:1;paint-order:stroke fill markers"
     d="m 77.351216,70.309662 c 0,2.66598 -2.156901,4.88763 -4.908793,4.88763 H 29.680765 c -5.736336,0 -10.394459,2.50055 -13.061426,3.54101 -1.11901,0.43655 -2.929829,0.10287 -4.02888,-0.70376 -1.211921,-0.88948 -2.072367,-2.28981 -2.072367,-4.00557 v -19.79364 c 0,-1.62599 0.826643,-3.131832 2.054937,-3.98054 3.995184,-2.76053 11.285667,-5.346021 17.107736,-5.346021 h 42.761658 c 2.751892,0 4.908793,2.221654 4.908793,4.887634 z M 74.450561,49.796401 c 0,-1.110821 -0.892504,-1.999485 -2.008138,-1.999485 H 29.680765 c -5.559276,0 -11.66616,2.633119 -15.360062,4.765796 -0.517496,0.29877 -0.906297,1.00562 -0.901964,1.67263 v 19.79364 c 0,0.58834 0.266593,1.1748 0.70332,1.52499 0.477263,0.3827 1.15677,0.60817 1.79374,0.38807 2.914824,-1.00719 6.984081,-3.71424 14.285154,-3.70225 l 42.24147,0.0694 c 1.115633,0.002 2.008138,-0.88866 2.008138,-1.99949 z"
     id="path23-1-9-3"
     sodipodi:nodetypes="csssascssscccssscsassscc" /><text
     xml:space="preserve"
     id="text83349-9-6-0"
     style="font-style:normal;font-variant:normal;font-weight:normal;font-stretch:normal;font-size:18.6667px;line-height:1.25;font-family:Comfortaa;-inkscape-font-specification:'Comfortaa, Normal';font-variant-ligatures:normal;font-variant-position:normal;font-variant-caps:normal;font-variant-numeric:normal;font-variant-alternates:normal;font-variant-east-asian:normal;text-indent:0;text-align:center;text-decoration-line:none;text-decoration-style:solid;text-decoration-color:#000000;letter-spacing:2px;word-spacing:0px;text-transform:none;writing-mode:lr-tb;direction:ltr;text-orientation:mixed;dominant-baseline:auto;baseline-shift:baseline;white-space:pre;shape-inside:url(#rect83351-4-1-4-4);shape-padding:0;shape-margin:0;display:inline;fill:#ffd8b2;fill-opacity:1;stroke:#000000;stroke-width:3;stroke-linecap:round;stroke-linejoin:round;stroke-miterlimit:4;stroke-dasharray:none;stroke-dashoffset:0;stroke-opacity:1;paint-order:stroke fill markers;stop-color:#000000"
     x="7.8984375"
     y="0"
     transform="matrix(1.1097336,0,0,1.1097336,-0.004314,-68.186687)" /><path
     style="display:inline;fill:#ffd8b2;fill-opacity:1;stroke:#000000;stroke-width:3.3292;stroke-linecap:round;stroke-linejoin:round;stroke-miterlimit:4;stroke-dasharray:none;stroke-opacity:1;paint-order:stroke fill markers"
     d="m 147.63928,70.309662 c 0,2.66598 2.1569,4.88763 4.9088,4.88763 h 42.76165 c 5.73633,0 10.39446,2.50055 13.06143,3.54101 1.11901,0.43655 2.92983,0.10287 4.02888,-0.70376 1.21193,-0.88948 2.07237,-2.28981 2.07237,-4.00557 v -19.79364 c 0,-1.62599 -0.82664,-3.131832 -2.05494,-3.98054 -3.99519,-2.76053 -11.28567,-5.346021 -17.10774,-5.346021 h -42.76165 c -2.7519,0 -4.9088,2.221654 -4.9088,4.887634 z m 2.90065,-20.513261 c 0,-1.110821 0.89251,-1.999485 2.00815,-1.999485 h 42.76166 c 5.55928,0 11.66616,2.633119 15.36006,4.765796 0.5175,0.29877 0.90629,1.00562 0.90196,1.67263 v 19.79364 c 0,0.58834 -0.26659,1.1748 -0.70332,1.52499 -0.47727,0.3827 -1.15677,0.60817 -1.79373,0.38807 -2.91483,-1.00719 -6.98409,-3.71424 -14.28516,-3.70225 l -42.24147,0.0694 c -1.11564,0.002 -2.00815,-0.88866 -2.00815,-1.99949 z"
     id="path23-1-9-3-6"
     sodipodi:nodetypes="csssascssscccssscsassscc" /><text
     xml:space="preserve"
     id="text83349-9-6"
     style="font-style:normal;font-variant:normal;font-weight:normal;font-stretch:normal;font-size:12.0149px;line-height:1.25;font-family:Comfortaa;-inkscape-font-specification:'Comfortaa, Normal';font-variant-ligatures:normal;font-variant-position:normal;font-variant-caps:normal;font-variant-numeric:normal;font-variant-alternates:normal;font-variant-east-asian:normal;text-indent:0;text-align:center;text-decoration-line:none;text-decoration-style:solid;text-decoration-color:#000000;letter-spacing:-0.25px;word-spacing:0px;text-transform:none;writing-mode:lr-tb;direction:ltr;text-orientation:mixed;dominant-baseline:auto;baseline-shift:baseline;white-space:pre;shape-inside:url(#rect83351-4-1-4);shape-padding:0;shape-margin:0;display:inline;fill:#ffd8b2;fill-opacity:1;stroke:#000000;stroke-width:3;stroke-linecap:round;stroke-linejoin:round;stroke-miterlimit:4;stroke-dasharray:none;stroke-dashoffset:0;stroke-opacity:1;paint-order:stroke fill markers;stop-color:#000000"
     x="7.8984375"
     y="0"
     transform="matrix(1.1097336,0,0,1.1097336,-137.02192,-64.186687)"><tspan
       x="137.94292"
       y="116.78236"
       id="tspan8">DOLLAR</tspan></text></g><g
   inkscape:groupmode="layer"
   id="layer6"
   inkscape:label="Shoulder triggers (2nd tier)"><path
     style="display:inline;opacity:0.5;fill:#ffd8b2;fill-opacity:1;stroke:#000000;stroke-width:3.3292;stroke-linecap:round;stroke-linejoin:round;stroke-miterlimit:4;stroke-dasharray:none;stroke-opacity:1;paint-order:stroke fill markers"
     d="m 77.351216,34.747893 c 0,2.665979 -2.156901,4.887633 -4.908793,4.887633 H 29.680765 c -5.736336,0 -10.394459,1.987767 -13.061426,3.028224 -1.11901,0.436556 -2.929829,0.102873 -4.02888,-0.703761 -1.211922,-0.889474 -2.072367,-2.289807 -2.072367,-4.005567 0,-21.258266 9.826987,-34.1560879 61.924331,-34.1560879 2.751892,0 4.908793,2.221654 4.908793,4.887634 z M 74.450561,8.6859641 c 0,-1.110821 -0.892504,-1.999485 -2.008138,-1.999485 -47.658428,0 -59.023684,11.3328269 -59.023684,31.2679479 0,0.58835 0.266593,1.174805 0.70332,1.524996 0.477263,0.382693 1.15677,0.608173 1.79374,0.388073 2.914824,-1.007192 6.984081,-3.201461 14.285154,-3.189472 l 42.24147,0.06936 c 1.115633,0.0019 2.008138,-0.888664 2.008138,-1.999485 z"
     id="path23-1-9-3-3"
     sodipodi:nodetypes="csssasscccssassscc" /><path
     style="display:inline;opacity:0.5;fill:#ffd8b2;fill-opacity:1;stroke:#000000;stroke-width:3.3292;stroke-linecap:round;stroke-linejoin:round;stroke-miterlimit:4;stroke-dasharray:none;stroke-opacity:1;paint-order:stroke fill markers"
     d="m 147.63929,34.747893 c 0,2.665979 2.1569,4.887633 4.90878,4.887633 h 42.76167 c 5.73633,0 10.39445,1.987767 13.06142,3.028224 1.11901,0.436556 2.92983,0.102873 4.02889,-0.703761 1.21192,-0.889474 2.07236,-2.289807 2.07236,-4.005567 0,-21.258266 -9.82699,-34.1560879 -61.92434,-34.1560879 -2.75188,0 -4.90878,2.221654 -4.90878,4.887634 z m 2.90065,-26.0619289 c 0,-1.110821 0.89251,-1.999485 2.00813,-1.999485 47.65844,0 59.02369,11.3328269 59.02369,31.2679479 0,0.58835 -0.26659,1.174805 -0.70332,1.524996 -0.47727,0.382693 -1.15677,0.608173 -1.79374,0.388073 -2.91482,-1.007192 -6.98408,-3.201461 -14.28515,-3.189472 l -42.24148,0.06936 c -1.11562,0.0019 -2.00813,-0.888664 -2.00813,-1.999485 z"
     id="path23-1-9-3-3-88"
     sodipodi:nodetypes="csssasscccssassscc" /></g></svg>
