<?xml version="1.0" encoding="UTF-8" standalone="no"?>
<!-- Generator: Adobe Illustrator 24.0.1, SVG Export Plug-In . SVG Version: 6.00 Build 0)  -->

<svg
   version="1.1"
   id="Layer_3"
   x="0px"
   y="0px"
   viewBox="0 0 225 280"
   xml:space="preserve"
   sodipodi:docname="nds.svg"
   inkscape:version="1.1.1 (3bf5ae0d25, 2021-09-20)"
   inkscape:export-filename="C:\All\Batocera\batocera-controller-overlays\nds.png"
   inkscape:export-xdpi="96"
   inkscape:export-ydpi="96"
   width="225"
   height="280"
   xmlns:inkscape="http://www.inkscape.org/namespaces/inkscape"
   xmlns:sodipodi="http://sodipodi.sourceforge.net/DTD/sodipodi-0.dtd"
   xmlns="http://www.w3.org/2000/svg"
   xmlns:svg="http://www.w3.org/2000/svg"><defs
   id="defs75"><inkscape:path-effect
     effect="envelope"
     id="path-effect76373"
     is_visible="true"
     lpeversion="1"
     yy="true"
     xx="true"
     bendpath1="M 23.537096,16.621557 H 86.140921"
     bendpath2="M 86.140921,16.621557 V 39.916004"
     bendpath3="M 23.537096,39.916004 H 86.140921"
     bendpath4="M 23.537096,16.621557 V 39.916004" /><inkscape:path-effect
     effect="lattice2"
     gridpoint0="23.537096,16.621557"
     gridpoint1="86.140921,16.621557"
     gridpoint2="23.537096,39.916004"
     gridpoint3="86.140921,39.916004"
     gridpoint4="39.188052,16.621557"
     gridpoint5="70.489964,16.621557"
     gridpoint6="39.188052,39.916004"
     gridpoint7="70.489964,39.916004"
     gridpoint8x9="54.839008,16.621557"
     gridpoint10x11="54.839008,39.916004"
     gridpoint12="23.537096,22.445169"
     gridpoint13="86.140921,22.445169"
     gridpoint14="23.537096,34.092392"
     gridpoint15="86.140921,34.092392"
     gridpoint16="39.188052,22.445169"
     gridpoint17="70.489964,22.445169"
     gridpoint18="39.188052,34.092392"
     gridpoint19="70.489964,34.092392"
     gridpoint20x21="54.839008,22.445169"
     gridpoint22x23="54.839008,34.092392"
     gridpoint24x26="23.537096,28.268781"
     gridpoint25x27="86.140921,28.268781"
     gridpoint28x30="39.188052,28.268781"
     gridpoint29x31="70.489964,28.268781"
     gridpoint32x33x34x35="54.839008,28.268781"
     id="path-effect76371"
     is_visible="true"
     lpeversion="1"
     horizontal_mirror="false"
     vertical_mirror="false"
     perimetral="true"
     live_update="true" /><inkscape:path-effect
     effect="attach_path"
     id="path-effect76369"
     lpeversion="1"
     endcurveend="11.768548,10.555296 , -11.059262,26.691553"
     is_visible="true"
     startpath=""
     startposition="0"
     startcurvestart="0,0 , 20,0"
     startcurveend="23.658422,11.889874 , 28.614092,-5.9449372"
     endpath=""
     endposition="0"
     endcurvestart="0,0 , 20,0" /><inkscape:path-effect
     effect="envelope"
     id="path-effect76348"
     is_visible="true"
     lpeversion="1"
     yy="true"
     xx="true"
     bendpath1="M 23.537096,16.621557 61.997198,10.797945"
     bendpath2="M 86.140921,16.621557 V 39.916004"
     bendpath3="M 23.537096,42.342509 86.140921,39.916004"
     bendpath4="M 23.537096,16.621557 V 50.592625"
     bendpath4-nodetypes="cc"
     bendpath3-nodetypes="cc"
     bendpath1-nodetypes="cc" /><rect
     x="76.739281"
     y="147.34442"
     width="33.36795"
     height="20.843538"
     id="rect127464" /><rect
     x="128.2495"
     y="105.78697"
     width="33.960148"
     height="33.738186"
     id="rect83351" /><rect
     x="127.67705"
     y="105.52645"
     width="34.594753"
     height="33.972546"
     id="rect34999" /><rect
     x="161.5537"
     y="139.78229"
     width="33.151905"
     height="33.894112"
     id="rect24475" /><rect
     x="128.2495"
     y="105.78697"
     width="33.960148"
     height="33.738186"
     id="rect83351-3" /><rect
     x="128.2495"
     y="105.78697"
     width="33.960148"
     height="33.738186"
     id="rect83351-9" /><rect
     x="128.2495"
     y="105.78697"
     width="33.960148"
     height="33.738186"
     id="rect83351-5" /><rect
     x="76.739281"
     y="147.34442"
     width="32.54847"
     height="20.780947"
     id="rect127464-0" /><rect
     x="128.2495"
     y="105.78697"
     width="69.439232"
     height="31.708288"
     id="rect83351-4" /><rect
     x="128.2495"
     y="105.78697"
     width="33.960148"
     height="33.738186"
     id="rect83351-52" /><rect
     x="128.2495"
     y="105.78697"
     width="33.960148"
     height="33.738186"
     id="rect83351-52-6" /><rect
     x="128.2495"
     y="105.78697"
     width="33.960148"
     height="33.738186"
     id="rect83351-37" /><rect
     x="128.2495"
     y="105.78697"
     width="33.960148"
     height="33.738186"
     id="rect83351-3-9" /><rect
     x="128.2495"
     y="105.78697"
     width="33.960148"
     height="33.738186"
     id="rect83351-9-2" /><rect
     x="128.2495"
     y="105.78697"
     width="33.960148"
     height="33.738186"
     id="rect83351-5-7" /><rect
     x="76.739281"
     y="147.34442"
     width="33.36795"
     height="20.843538"
     id="rect127464-7" /><rect
     x="76.739281"
     y="147.34442"
     width="32.54847"
     height="20.780947"
     id="rect127464-0-5" /><rect
     x="128.2495"
     y="105.78697"
     width="69.439232"
     height="31.708288"
     id="rect83351-4-1" /><rect
     x="128.2495"
     y="105.78697"
     width="33.960148"
     height="33.738186"
     id="rect83351-52-67" /><rect
     x="128.2495"
     y="105.78697"
     width="33.960148"
     height="33.738186"
     id="rect83351-52-6-8" /><rect
     x="128.2495"
     y="105.78697"
     width="69.439232"
     height="31.708288"
     id="rect83351-4-1-4" /><rect
     x="128.2495"
     y="105.78697"
     width="69.439232"
     height="31.708288"
     id="rect83351-4-1-4-4" /><rect
     x="128.2495"
     y="105.78697"
     width="69.439232"
     height="31.708288"
     id="rect83351-4-1-4-9" /><rect
     x="128.2495"
     y="105.78697"
     width="69.439232"
     height="31.708288"
     id="rect83351-4-1-4-4-4" /><rect
     x="76.739281"
     y="147.34442"
     width="65.207237"
     height="14.330957"
     id="rect127464-7-2" /><rect
     x="76.739281"
     y="147.34442"
     width="65.207237"
     height="14.330957"
     id="rect127464-7-2-8" /><rect
     x="128.2495"
     y="105.78697"
     width="69.439232"
     height="31.708288"
     id="rect83351-4-1-4-9-6" /><rect
     x="128.2495"
     y="105.78697"
     width="33.960148"
     height="33.738186"
     id="rect83351-52-67-8" /><rect
     x="128.2495"
     y="105.78697"
     width="35.978779"
     height="33.738186"
     id="rect83351-52-6-8-9" /><rect
     x="128.2495"
     y="105.78697"
     width="69.439232"
     height="31.708288"
     id="rect83351-4-1-4-4-4-7" /><rect
     x="76.739281"
     y="147.34442"
     width="65.207237"
     height="14.330957"
     id="rect127464-7-2-8-2" /><rect
     x="76.739281"
     y="147.34442"
     width="33.36795"
     height="20.843538"
     id="rect127464-7-8" /><rect
     x="76.739281"
     y="147.34442"
     width="65.207237"
     height="14.330957"
     id="rect127464-7-2-1" /><rect
     x="76.739281"
     y="147.34442"
     width="65.207237"
     height="14.330957"
     id="rect127464-7-2-8-6" /><rect
     x="76.739281"
     y="147.34442"
     width="32.54847"
     height="20.780947"
     id="rect127464-0-5-0" /><rect
     x="128.2495"
     y="105.78697"
     width="33.960148"
     height="33.738186"
     id="rect83351-37-4" /><rect
     x="128.2495"
     y="105.78697"
     width="33.960148"
     height="33.738186"
     id="rect83351-3-9-1" /><rect
     x="128.2495"
     y="105.78697"
     width="33.960148"
     height="33.738186"
     id="rect83351-9-2-0" /><rect
     x="128.2495"
     y="105.78697"
     width="33.960148"
     height="33.738186"
     id="rect83351-5-7-3" /><rect
     x="128.2495"
     y="105.78697"
     width="69.439232"
     height="31.708288"
     id="rect83351-4-1-3" /><rect
     x="128.2495"
     y="105.78697"
     width="69.439232"
     height="31.708288"
     id="rect83351-4-1-4-8" /><rect
     x="128.2495"
     y="105.78697"
     width="69.439232"
     height="31.708288"
     id="rect83351-4-1-4-9-4" /><rect
     x="128.2495"
     y="105.78697"
     width="33.960148"
     height="33.738186"
     id="rect83351-52-67-3" /><rect
     x="128.2495"
     y="105.78697"
     width="33.960148"
     height="33.738186"
     id="rect83351-52-6-8-0" /><rect
     x="128.2495"
     y="105.78697"
     width="69.439232"
     height="31.708288"
     id="rect83351-4-1-4-4-43" /><rect
     x="128.2495"
     y="105.78697"
     width="69.439232"
     height="31.708288"
     id="rect83351-4-1-4-4-4-2" /></defs><sodipodi:namedview
   id="namedview73"
   pagecolor="#ffffff"
   bordercolor="#666666"
   borderopacity="1.0"
   inkscape:pageshadow="2"
   inkscape:pageopacity="0"
   inkscape:pagecheckerboard="true"
   showgrid="false"
   inkscape:current-layer="layer2"
   inkscape:snap-bbox="true"
   inkscape:bbox-nodes="true"
   inkscape:bbox-paths="true"
   inkscape:object-nodes="true"
   inkscape:snap-others="true"
   inkscape:snap-bbox-edge-midpoints="false"
   inkscape:snap-bbox-midpoints="false"
   inkscape:object-paths="true"
   inkscape:snap-smooth-nodes="true" />














<g
   inkscape:groupmode="layer"
   id="layer2"
   inkscape:label="Backplate"
   style="display:inline"><rect
     style="display:inline;fill:#000000;fill-opacity:0.25;stroke-width:10.7827;stroke-linecap:round;stroke-linejoin:round"
     id="rect937"
     width="223"
     height="278"
     x="1"
     y="1"
     rx="6.977437"
     ry="6.9689116" /></g><g
   inkscape:groupmode="layer"
   id="layer8"
   inkscape:label="Start/Select"><path
     style="display:inline;fill:#ffd8b2;fill-opacity:1;stroke:#000000;stroke-width:3.32717;stroke-linecap:round;stroke-linejoin:round;stroke-miterlimit:4;stroke-dasharray:none;stroke-opacity:1;paint-order:stroke fill markers"
     d="m 101.76074,174.95711 c 0,2.66435 -2.15557,4.88465 -4.905783,4.88465 h -24.13374 c -2.750219,0 -4.905795,-2.2203 -4.905795,-4.88465 v -11.09058 c 0,-2.66435 2.155576,-4.88465 4.905795,-4.88465 h 24.13374 c 2.750213,0 4.905783,2.2203 4.905783,4.88465 z m -2.898871,-11.09058 c 0,-1.11014 -0.891955,-1.99826 -2.006912,-1.99826 h -24.13374 c -1.114954,0 -2.006916,0.88812 -2.006916,1.99826 v 11.09058 c 0,1.11014 0.891962,1.99826 2.006916,1.99826 h 24.13374 c 1.114957,0 2.006912,-0.88812 2.006912,-1.99826 z"
     id="path23-1-9"
     sodipodi:nodetypes="cssccsscccssccsscc" /><path
     style="display:inline;fill:#ffd8b2;fill-opacity:1;stroke:#000000;stroke-width:3.32717;stroke-linecap:round;stroke-linejoin:round;stroke-miterlimit:4;stroke-dasharray:none;stroke-opacity:1;paint-order:stroke fill markers"
     d="m 144.63281,169.41182 c 0,2.66435 -2.27035,4.09845 -4.90579,4.88465 l -18.58846,5.54529 c -2.9759,0.88777 -6.01485,-2.2203 -6.01485,-4.88465 v -11.09058 c 0,-2.66435 2.75182,-5.85807 6.01485,-4.88465 l 18.58846,5.54529 c 2.63544,0.7862 4.90579,2.22029 4.90579,4.88465 z m -2.89887,0 c 0,-1.11014 -0.92028,-1.74858 -2.00692,-1.99827 l -18.58846,-5.54528 c -1.85421,-0.55314 -3.11598,0.88812 -3.11598,1.99826 v 11.09058 c 0,1.11014 1.45932,2.49247 3.11598,1.99826 l 18.58846,-5.54528 c 1.08664,-0.24969 2.00692,-0.88813 2.00692,-1.99827 z"
     id="path23-1-9-7"
     sodipodi:nodetypes="cssccsscscsssscs" /><rect
     style="display:inline;opacity:0.5;fill:#000000;fill-opacity:1;stroke:none;stroke-width:1.6646;stroke-linecap:round;stroke-linejoin:round;stroke-miterlimit:4;stroke-dasharray:none;stroke-opacity:1;paint-order:stroke fill markers"
     id="rect38642-1"
     width="40.25547"
     height="10.243361"
     x="64.621254"
     y="182.39297"
     ry="1.1725925"
     rx="1.0931113" /><text
     xml:space="preserve"
     id="text127462-4"
     style="font-style:normal;font-variant:normal;font-weight:bold;font-stretch:normal;font-size:8px;line-height:1.25;font-family:Comfortaa;-inkscape-font-specification:'Comfortaa Bold';font-variant-ligatures:normal;font-variant-caps:normal;font-variant-numeric:normal;font-variant-east-asian:normal;text-align:center;text-decoration-color:#000000;letter-spacing:0px;word-spacing:0px;white-space:pre;shape-inside:url(#rect127464-7-8);display:inline;fill:#ffd8b2;fill-opacity:1;stroke:none;stroke-width:1.5;stroke-linecap:round;stroke-linejoin:round;stroke-miterlimit:4;stroke-dasharray:none;stroke-opacity:1;paint-order:stroke fill markers;stop-color:#000000"
     x="10.010417"
     y="0"
     transform="matrix(1.1097336,0,0,1.1097336,-19.113016,19.344706)"><tspan
       x="76.751854"
       y="154.66483"
       id="tspan1312">SELECT</tspan></text><rect
     style="display:inline;opacity:0.5;fill:#000000;fill-opacity:1;stroke:none;stroke-width:1.6646;stroke-linecap:round;stroke-linejoin:round;stroke-miterlimit:4;stroke-dasharray:none;stroke-opacity:1;paint-order:stroke fill markers"
     id="rect38642-7-3"
     width="40.25547"
     height="10.243361"
     x="109.73895"
     y="182.39297"
     ry="1.1725925"
     rx="1.0931113" /><text
     xml:space="preserve"
     id="text127462-9-3"
     style="font-style:normal;font-variant:normal;font-weight:bold;font-stretch:normal;font-size:8px;line-height:1.25;font-family:Comfortaa;-inkscape-font-specification:'Comfortaa Bold';font-variant-ligatures:normal;font-variant-caps:normal;font-variant-numeric:normal;font-variant-east-asian:normal;text-align:center;text-decoration-color:#000000;letter-spacing:0px;word-spacing:0px;white-space:pre;shape-inside:url(#rect127464-0-5-0);display:inline;fill:#ffd8b2;fill-opacity:1;stroke:none;stroke-width:1.5;stroke-linecap:round;stroke-linejoin:round;stroke-miterlimit:4;stroke-dasharray:none;stroke-opacity:1;paint-order:stroke fill markers;stop-color:#000000"
     x="10.010417"
     y="0"
     transform="matrix(1.1097336,0,0,1.1097336,26.459827,19.340267)"><tspan
       x="80.113693"
       y="154.66483"
       id="tspan1314">START</tspan></text></g><g
   inkscape:groupmode="layer"
   id="layer7"
   inkscape:label="Face buttons"
   style="display:inline"><path
     style="display:inline;fill:#ffd8b2;fill-opacity:1;stroke:#000000;stroke-width:3.32717;stroke-linecap:round;stroke-linejoin:round;stroke-miterlimit:4;stroke-dasharray:none;stroke-opacity:1;paint-order:stroke fill markers"
     d="m 203.38349,148.13734 c -9.73726,0 -17.6906,-7.91907 -17.6906,-17.61437 0,-9.69531 7.95334,-17.61437 17.6906,-17.61437 9.73725,0 17.69059,7.91906 17.69059,17.61437 0,9.6953 -7.95334,17.61437 -17.69059,17.61437 z m 0,-32.26834 c -8.102,0 -14.71739,6.58688 -14.71739,14.65397 0,8.06709 6.61539,14.65397 14.71739,14.65397 8.10199,0 14.71738,-6.58688 14.71738,-14.65397 0,-8.06709 -6.61539,-14.65397 -14.71738,-14.65397 z"
     id="path43-1-81" /><path
     style="display:inline;fill:#ffd8b2;fill-opacity:1;stroke:#000000;stroke-width:3.32717;stroke-linecap:round;stroke-linejoin:round;stroke-miterlimit:4;stroke-dasharray:none;stroke-opacity:1;paint-order:stroke fill markers"
     d="m 172.03904,116.92794 c -9.73726,0 -17.6906,-7.91907 -17.6906,-17.614356 0,-9.695309 7.95334,-17.614374 17.6906,-17.614374 9.73725,0 17.69059,7.919065 17.69059,17.614374 0,9.695286 -7.95334,17.614356 -17.69059,17.614356 z m 0,-32.268333 c -8.102,0 -14.71739,6.586886 -14.71739,14.653977 0,8.067066 6.61539,14.653966 14.71739,14.653966 8.10199,0 14.71738,-6.5869 14.71738,-14.653966 0,-8.067091 -6.61539,-14.653977 -14.71738,-14.653977 z"
     id="path43-1-7" /><path
     style="display:inline;fill:#ffd8b2;fill-opacity:1;stroke:#000000;stroke-width:3.32717;stroke-linecap:round;stroke-linejoin:round;stroke-miterlimit:4;stroke-dasharray:none;stroke-opacity:1;paint-order:stroke fill markers"
     d="m 172.03904,179.34674 c -9.73726,0 -17.6906,-7.91907 -17.6906,-17.61437 0,-9.69531 7.95334,-17.61437 17.6906,-17.61437 9.73725,0 17.69059,7.91906 17.69059,17.61437 0,9.6953 -7.95334,17.61437 -17.69059,17.61437 z m 0,-32.26834 c -8.102,0 -14.71739,6.58688 -14.71739,14.65397 0,8.06709 6.61539,14.65397 14.71739,14.65397 8.10199,0 14.71738,-6.58688 14.71738,-14.65397 0,-8.06709 -6.61539,-14.65397 -14.71738,-14.65397 z"
     id="path43-1-81-1" /><path
     style="display:inline;fill:#ffd8b2;fill-opacity:1;stroke:#000000;stroke-width:3.32717;stroke-linecap:round;stroke-linejoin:round;stroke-miterlimit:4;stroke-dasharray:none;stroke-opacity:1;paint-order:stroke fill markers"
     d="m 140.69457,148.13734 c -9.73725,0 -17.69059,-7.91907 -17.69059,-17.61437 0,-9.69531 7.95334,-17.61437 17.69059,-17.61437 9.73726,0 17.6906,7.91906 17.6906,17.61437 0,9.6953 -7.95334,17.61437 -17.6906,17.61437 z m 0,-32.26834 c -8.10199,0 -14.71738,6.58688 -14.71738,14.65397 0,8.06709 6.61539,14.65397 14.71738,14.65397 8.102,0 14.71739,-6.58688 14.71739,-14.65397 0,-8.06709 -6.61539,-14.65397 -14.71739,-14.65397 z"
     id="path43-1" /><text
     xml:space="preserve"
     id="text83349"
     style="font-style:normal;font-variant:normal;font-weight:normal;font-stretch:normal;font-size:21.3333px;line-height:1.25;font-family:Comfortaa;-inkscape-font-specification:'Comfortaa, Normal';font-variant-ligatures:normal;font-variant-position:normal;font-variant-caps:normal;font-variant-numeric:normal;font-variant-alternates:normal;font-variant-east-asian:normal;text-indent:0;text-align:center;text-decoration-line:none;text-decoration-style:solid;text-decoration-color:#000000;letter-spacing:0px;word-spacing:0px;text-transform:none;writing-mode:lr-tb;direction:ltr;text-orientation:mixed;dominant-baseline:auto;baseline-shift:baseline;white-space:pre;shape-inside:url(#rect83351-37);shape-padding:0;shape-margin:0;inline-size:0;display:inline;fill:#ffd8b2;fill-opacity:1;stroke:#000000;stroke-width:3;stroke-linecap:round;stroke-linejoin:round;stroke-miterlimit:4;stroke-dasharray:none;stroke-dashoffset:0;stroke-opacity:1;paint-order:stroke fill markers;stop-color:#000000"
     x="7.8984375"
     y="0"
     transform="matrix(1.1090572,0,0,1.1090572,-20.359942,1.2944162)"><tspan
       x="138.31752"
       y="125.30995"
       id="tspan1316">Y</tspan></text><text
     xml:space="preserve"
     id="text83349-0"
     style="font-style:normal;font-variant:normal;font-weight:normal;font-stretch:normal;font-size:21.3333px;line-height:1.25;font-family:Comfortaa;-inkscape-font-specification:'Comfortaa, Normal';font-variant-ligatures:normal;font-variant-position:normal;font-variant-caps:normal;font-variant-numeric:normal;font-variant-alternates:normal;font-variant-east-asian:normal;text-indent:0;text-align:center;text-decoration-line:none;text-decoration-style:solid;text-decoration-color:#000000;letter-spacing:0px;word-spacing:0px;text-transform:none;writing-mode:lr-tb;direction:ltr;text-orientation:mixed;dominant-baseline:auto;baseline-shift:baseline;white-space:pre;shape-inside:url(#rect83351-3-9);shape-padding:0;shape-margin:0;inline-size:0;display:inline;fill:#ffd8b2;fill-opacity:1;stroke:#000000;stroke-width:2.99985;stroke-linecap:round;stroke-linejoin:round;stroke-miterlimit:4;stroke-dasharray:none;stroke-dashoffset:0;stroke-opacity:1;paint-order:stroke fill markers;stop-color:#000000"
     x="7.8984375"
     y="0"
     transform="matrix(1.1090572,0,0,1.1090572,10.995831,31.96237)"><tspan
       x="137.81617"
       y="125.30995"
       id="tspan1318">B</tspan></text><text
     xml:space="preserve"
     id="text83349-6"
     style="font-style:normal;font-variant:normal;font-weight:normal;font-stretch:normal;font-size:21.3333px;line-height:1.25;font-family:Comfortaa;-inkscape-font-specification:'Comfortaa, Normal';font-variant-ligatures:normal;font-variant-position:normal;font-variant-caps:normal;font-variant-numeric:normal;font-variant-alternates:normal;font-variant-east-asian:normal;text-indent:0;text-align:center;text-decoration-line:none;text-decoration-style:solid;text-decoration-color:#000000;letter-spacing:0px;word-spacing:0px;text-transform:none;writing-mode:lr-tb;direction:ltr;text-orientation:mixed;dominant-baseline:auto;baseline-shift:baseline;white-space:pre;shape-inside:url(#rect83351-9-2);shape-padding:0;shape-margin:0;inline-size:0;display:inline;fill:#ffd8b2;fill-opacity:1;stroke:#000000;stroke-width:3;stroke-linecap:round;stroke-linejoin:round;stroke-miterlimit:4;stroke-dasharray:none;stroke-dashoffset:0;stroke-opacity:1;paint-order:stroke fill markers;stop-color:#000000"
     x="7.8984375"
     y="0"
     transform="matrix(1.1090572,0,0,1.1090572,42.315659,-0.08536515)"><tspan
       x="137.73085"
       y="125.30995"
       id="tspan1320">A</tspan></text><text
     xml:space="preserve"
     id="text83349-4"
     style="font-style:normal;font-variant:normal;font-weight:normal;font-stretch:normal;font-size:21.3333px;line-height:1.25;font-family:Comfortaa;-inkscape-font-specification:'Comfortaa, Normal';font-variant-ligatures:normal;font-variant-position:normal;font-variant-caps:normal;font-variant-numeric:normal;font-variant-alternates:normal;font-variant-east-asian:normal;text-indent:0;text-align:center;text-decoration-line:none;text-decoration-style:solid;text-decoration-color:#000000;letter-spacing:0px;word-spacing:0px;text-transform:none;writing-mode:lr-tb;direction:ltr;text-orientation:mixed;dominant-baseline:auto;baseline-shift:baseline;white-space:pre;shape-inside:url(#rect83351-5-7);shape-padding:0;shape-margin:0;inline-size:0;display:inline;fill:#ffd8b2;fill-opacity:1;stroke:#000000;stroke-width:3;stroke-linecap:round;stroke-linejoin:round;stroke-miterlimit:4;stroke-dasharray:none;stroke-dashoffset:0;stroke-opacity:1;paint-order:stroke fill markers;stop-color:#000000"
     x="7.8984375"
     y="0"
     transform="matrix(1.1090572,0,0,1.1090572,10.899354,-30.528572)"><tspan
       x="137.68818"
       y="125.30995"
       id="tspan1322">X</tspan></text></g><g
   inkscape:groupmode="layer"
   id="layer9"
   inkscape:label="D-pad"
   style="display:inline"><path
     style="display:inline;fill:#ffd8b2;fill-opacity:1;stroke:#000000;stroke-width:3.32717;stroke-linecap:round;stroke-linejoin:round;stroke-miterlimit:4;stroke-dasharray:none;stroke-opacity:1;paint-order:stroke fill markers"
     d="M 52.686544,169.63722 H 32.989036 c -2.75022,0 -4.905795,-2.22028 -4.905795,-4.88465 V 145.658 H 8.9060435 c -2.7502189,0 -4.9801258,-2.2203 -4.9801258,-4.95866 V 120.3466 c 0,-2.73836 2.2299058,-4.95866 4.9801258,-4.95866 H 28.083241 V 96.293366 c 0,-2.738364 2.229906,-4.884653 4.905795,-4.884653 h 19.697508 c 2.750219,0 4.905796,2.220299 4.905796,4.884653 v 19.094574 h 19.177198 c 2.750217,0 4.980124,2.2203 4.980124,4.95866 v 20.35274 c 0,2.73836 -2.229907,4.95866 -4.980124,4.95866 H 57.59234 v 19.09457 c 0,2.66437 -2.155577,4.88465 -4.905796,4.88465 z M 8.9060435,118.34833 c -1.114954,0 -2.0069165,0.88812 -2.0069165,1.99827 v 20.35274 c 0,1.11014 0.8919625,1.99826 2.0069165,1.99826 H 28.306232 c 0.520311,0 1.337944,0.074 1.932585,0.66609 0.520312,0.44407 0.743302,1.18417 0.743302,1.99827 v 19.39061 c 0,1.11016 0.891963,1.99827 2.006917,1.99827 h 19.697508 c 1.114954,0 2.006916,-0.88811 2.006916,-1.99827 v -19.46462 c 0,-0.74009 0.297321,-1.40618 0.743302,-1.85025 0.445981,-0.44405 1.114953,-0.66609 1.932585,-0.66609 h 19.40019 c 1.114952,0 2.006915,-0.88811 2.006915,-1.99826 v -20.35274 c 0,-1.11015 -0.891963,-1.99827 -2.006915,-1.99827 H 57.295018 c -0.743302,0 -1.412274,-0.22203 -1.932585,-0.66609 -0.445982,-0.44405 -0.743302,-1.11014 -0.743302,-1.85025 V 96.515399 c 0,-1.110148 -0.891963,-1.998268 -2.006917,-1.998268 H 32.914706 v 0 c -0.520312,0 -1.040624,0.22203 -1.412275,0.592079 -0.371652,0.37005 -0.594642,0.888115 -0.594642,1.406189 v 19.242581 c 0,0.51808 0,1.18417 -0.520311,1.85026 -0.594642,0.66608 -1.412274,0.74009 -2.081246,0.74009 z"
     id="path23-1"
     inkscape:export-filename="C:\All\Batocera\batocera-assets\controller-overlays\generic.png"
     inkscape:export-xdpi="96"
     inkscape:export-ydpi="96"
     sodipodi:nodetypes="ssscsssscsssscsssscsscsssscssssssssssssscssscsssscscc" /><text
     xml:space="preserve"
     id="text83349-9"
     style="font-style:normal;font-variant:normal;font-weight:normal;font-stretch:normal;font-size:17.3333px;line-height:1.25;font-family:Comfortaa;-inkscape-font-specification:'Comfortaa, Normal';font-variant-ligatures:normal;font-variant-position:normal;font-variant-caps:normal;font-variant-numeric:normal;font-variant-alternates:normal;font-variant-east-asian:normal;text-indent:0;text-align:center;text-decoration-line:none;text-decoration-style:solid;text-decoration-color:#000000;letter-spacing:1px;word-spacing:0px;text-transform:none;writing-mode:lr-tb;direction:ltr;text-orientation:mixed;dominant-baseline:auto;baseline-shift:baseline;white-space:pre;shape-inside:url(#rect83351-4-1);shape-padding:0;shape-margin:0;inline-size:0;display:inline;fill:#ffd8b2;fill-opacity:1;stroke:#000000;stroke-width:3;stroke-linecap:round;stroke-linejoin:round;stroke-miterlimit:4;stroke-dasharray:none;stroke-dashoffset:0;stroke-opacity:1;paint-order:stroke fill markers;stop-color:#000000"
     x="7.8984375"
     y="0"
     transform="matrix(1.1090572,0,0,1.1090572,-138.27983,3.1136248)"><tspan
       x="133.20184"
       y="121.64941"
       id="tspan1324">D-PAD</tspan></text><text
     xml:space="preserve"
     id="text83349-9-6-6"
     style="font-style:normal;font-variant:normal;font-weight:normal;font-stretch:normal;font-size:18.6667px;line-height:1.25;font-family:Comfortaa;-inkscape-font-specification:'Comfortaa, Normal';font-variant-ligatures:normal;font-variant-position:normal;font-variant-caps:normal;font-variant-numeric:normal;font-variant-alternates:normal;font-variant-east-asian:normal;text-indent:0;text-align:center;text-decoration-line:none;text-decoration-style:solid;text-decoration-color:#000000;letter-spacing:1.75px;word-spacing:0px;text-transform:none;writing-mode:lr-tb;direction:ltr;text-orientation:mixed;dominant-baseline:auto;baseline-shift:baseline;white-space:pre;shape-inside:url(#rect83351-4-1-4-9);shape-padding:0;shape-margin:0;inline-size:0;display:inline;fill:#ffd8b2;fill-opacity:1;stroke:#000000;stroke-width:3;stroke-linecap:round;stroke-linejoin:round;stroke-miterlimit:4;stroke-dasharray:none;stroke-dashoffset:0;stroke-opacity:1;paint-order:stroke fill markers;stop-color:#000000"
     x="7.8984375"
     y="0"
     transform="translate(-105.3826,-95.232378)" /></g><g
   inkscape:groupmode="layer"
   id="layer10"
   inkscape:label="Dual-sticks"
   style="display:inline"><path
     style="color:#000000;display:inline;fill:#ffd8b2;stroke:#000000;stroke-width:3.32717;stroke-linecap:round;stroke-linejoin:round;stroke-miterlimit:4;stroke-dasharray:none;stroke-opacity:1;paint-order:stroke fill markers"
     d="m 55.990051,192.96929 c -19.87622,0 -36.02053,16.14431 -36.02053,36.02054 0,19.87622 16.14431,36.02052 36.02053,36.02052 19.876221,0 36.020533,-16.1443 36.020533,-36.02052 0,-19.87623 -16.144312,-36.02054 -36.020533,-36.02054 z m 0,2.88962 c 18.314839,0 33.130917,14.81608 33.130917,33.13092 0,18.31483 -14.816078,33.13091 -33.130917,33.13091 -18.314839,0 -33.130916,-14.81608 -33.130916,-33.13091 0,-18.31484 14.816077,-33.13092 33.130916,-33.13092 z"
     id="circle74" /><path
     style="color:#000000;display:inline;fill:#ffd8b2;stroke:#000000;stroke-width:3.32717;stroke-linecap:round;stroke-linejoin:round;stroke-miterlimit:4;stroke-dasharray:none;stroke-opacity:1;paint-order:stroke fill markers"
     d="m 55.990051,204.76818 c -13.360109,0 -24.221635,10.86153 -24.221635,24.22165 0,13.3601 10.861525,24.22163 24.221635,24.22163 13.360109,0 24.221635,-10.86153 24.221635,-24.22163 0,-13.36012 -10.861526,-24.22165 -24.221635,-24.22165 z m 0,2.88962 c 11.798722,0 21.332021,9.5333 21.332021,21.33203 0,11.79871 -9.533299,21.33201 -21.332021,21.33201 -11.798722,0 -21.332022,-9.5333 -21.332022,-21.33201 0,-11.79873 9.5333,-21.33203 21.332022,-21.33203 z"
     id="circle76" /><path
     style="color:#000000;display:inline;opacity:1;fill:#ffd8b2;fill-opacity:1;stroke:#000000;stroke-width:3.32717;stroke-linecap:round;stroke-linejoin:round;stroke-miterlimit:4;stroke-dasharray:none;stroke-opacity:1;paint-order:stroke fill markers"
     d="m 157.77204,204.76818 c -13.36012,0 -24.22164,10.86153 -24.22164,24.22165 0,13.3601 10.86152,24.22163 24.22164,24.22163 13.36011,0 24.22163,-10.86153 24.22163,-24.22163 0,-13.36012 -10.86152,-24.22165 -24.22163,-24.22165 z m 0,2.88962 c 11.79872,0 21.33201,9.5333 21.33201,21.33203 0,11.79871 -9.53329,21.33201 -21.33201,21.33201 -11.79873,0 -21.33419,-9.5333 -21.33419,-21.33201 0,-11.79873 9.53546,-21.33203 21.33419,-21.33203 z"
     id="circle78" /><path
     style="color:#000000;display:inline;opacity:1;fill:#ffd8b2;fill-opacity:1;stroke:#000000;stroke-width:3.32717;stroke-linecap:round;stroke-linejoin:round;stroke-miterlimit:4;stroke-dasharray:none;stroke-opacity:1;paint-order:stroke fill markers"
     d="m 157.77204,192.96929 c -19.87623,0 -36.02054,16.14431 -36.02054,36.02054 0,19.87622 16.14431,36.02052 36.02054,36.02052 19.87622,0 36.01836,-16.1443 36.01836,-36.02052 0,-19.87623 -16.14214,-36.02054 -36.01836,-36.02054 z m 0,2.88962 c 18.31483,0 33.13092,14.81608 33.13092,33.13092 0,18.31483 -14.81609,33.13092 -33.13092,33.13091 -18.31484,0 -33.13092,-14.81608 -33.13092,-33.13091 0,-18.31484 14.81608,-33.13092 33.13092,-33.13092 z"
     id="circle80" /><text
     xml:space="preserve"
     id="text83349-05"
     style="font-style:normal;font-variant:normal;font-weight:normal;font-stretch:normal;font-size:14.6667px;line-height:1.25;font-family:Comfortaa;-inkscape-font-specification:'Comfortaa, Normal';font-variant-ligatures:normal;font-variant-position:normal;font-variant-caps:normal;font-variant-numeric:normal;font-variant-alternates:normal;font-variant-east-asian:normal;text-indent:0;text-align:center;text-decoration-line:none;text-decoration-style:solid;text-decoration-color:#000000;letter-spacing:1px;word-spacing:0px;text-transform:none;writing-mode:lr-tb;direction:ltr;text-orientation:mixed;dominant-baseline:auto;baseline-shift:baseline;white-space:pre;shape-inside:url(#rect83351-52-67-8);shape-padding:0;shape-margin:0;inline-size:0;display:inline;fill:#ffd8b2;fill-opacity:1;stroke:#000000;stroke-width:3;stroke-linecap:round;stroke-linejoin:round;stroke-miterlimit:4;stroke-dasharray:none;stroke-dashoffset:0;stroke-opacity:1;paint-order:stroke fill markers;stop-color:#000000"
     x="7.8984375"
     y="0"
     transform="matrix(1.1090572,0,0,1.1090572,-105.16838,103.13206)"><tspan
       x="129.3428"
       y="119.20911"
       id="tspan1326">MIC</tspan></text><text
     xml:space="preserve"
     id="text83349-05-9"
     style="font-style:normal;font-variant:normal;font-weight:bold;font-stretch:normal;font-size:8px;line-height:1.25;font-family:Comfortaa;-inkscape-font-specification:'Comfortaa, Bold';font-variant-ligatures:normal;font-variant-position:normal;font-variant-caps:normal;font-variant-numeric:normal;font-variant-alternates:normal;font-variant-east-asian:normal;text-indent:0;text-align:center;text-decoration-line:none;text-decoration-style:solid;text-decoration-color:#000000;letter-spacing:0px;word-spacing:0px;text-transform:none;writing-mode:lr-tb;direction:ltr;text-orientation:mixed;dominant-baseline:auto;baseline-shift:baseline;white-space:pre;shape-inside:url(#rect83351-52-6-8-9);shape-padding:0;shape-margin:0;display:inline;fill:#ffd8b2;fill-opacity:1;stroke:#000000;stroke-width:2.99985;stroke-linecap:round;stroke-linejoin:round;stroke-miterlimit:4;stroke-dasharray:none;stroke-dashoffset:0;stroke-opacity:1;paint-order:stroke fill markers;stop-color:#000000"
     x="7.8984375"
     y="0"
     transform="matrix(1.1090572,0,0,1.1090572,-4.3817894,106.52823)"><tspan
       x="128.93127"
       y="113.10819"
       id="tspan1328">SCREEN
</tspan><tspan
       x="134.87128"
       y="123.10819"
       id="tspan1330">SWAP</tspan></text><rect
     style="display:inline;opacity:0.5;fill:#000000;fill-opacity:1;stroke:none;stroke-width:1.66357;stroke-linecap:round;stroke-linejoin:round;stroke-miterlimit:4;stroke-dasharray:none;stroke-opacity:1;paint-order:stroke fill markers"
     id="rect38642-2-0-9"
     width="60.195004"
     height="10.237117"
     x="25.89255"
     y="267.3942"
     ry="1.1718776"
     rx="1.6345563" /><text
     xml:space="preserve"
     id="text127462-3"
     style="font-style:normal;font-variant:normal;font-weight:bold;font-stretch:normal;font-size:8px;line-height:1.25;font-family:Comfortaa;-inkscape-font-specification:'Comfortaa Bold';font-variant-ligatures:normal;font-variant-caps:normal;font-variant-numeric:normal;font-variant-east-asian:normal;text-align:center;text-decoration-color:#000000;letter-spacing:0px;word-spacing:0px;white-space:pre;shape-inside:url(#rect127464-7-2);display:inline;fill:#ffd8b2;fill-opacity:1;stroke:none;stroke-width:1.5;stroke-linecap:round;stroke-linejoin:round;stroke-miterlimit:4;stroke-dasharray:none;stroke-opacity:1;paint-order:stroke fill markers;stop-color:#000000"
     x="10.010417"
     y="0"
     transform="matrix(1.1090572,0,0,1.1090572,-65.387048,104.44532)"><tspan
       x="96.331772"
       y="154.66483"
       id="tspan1332">D-PAD</tspan></text><rect
     style="display:inline;opacity:0.5;fill:#000000;fill-opacity:1;stroke:none;stroke-width:1.66357;stroke-linecap:round;stroke-linejoin:round;stroke-miterlimit:4;stroke-dasharray:none;stroke-opacity:1;paint-order:stroke fill markers"
     id="rect38642-2-0"
     width="60.195004"
     height="10.237117"
     x="127.67345"
     y="267.3942"
     ry="1.1718776"
     rx="1.6345563" /><text
     xml:space="preserve"
     id="text127462-3-6"
     style="font-style:normal;font-variant:normal;font-weight:bold;font-stretch:normal;font-size:8px;line-height:1.25;font-family:Comfortaa;-inkscape-font-specification:'Comfortaa Bold';font-variant-ligatures:normal;font-variant-caps:normal;font-variant-numeric:normal;font-variant-east-asian:normal;text-align:center;text-decoration-color:#000000;letter-spacing:0px;word-spacing:0px;white-space:pre;shape-inside:url(#rect127464-7-2-8-2);display:inline;fill:#ffd8b2;fill-opacity:1;stroke:none;stroke-width:1.5;stroke-linecap:round;stroke-linejoin:round;stroke-miterlimit:4;stroke-dasharray:none;stroke-opacity:1;paint-order:stroke fill markers;stop-color:#000000"
     x="10.010417"
     y="0"
     transform="matrix(1.1090572,0,0,1.1090572,36.393852,104.41426)"><tspan
       x="92.727776"
       y="154.66483"
       id="tspan1334">STYLUS</tspan></text></g><g
   inkscape:groupmode="layer"
   id="layer4"
   inkscape:label="Shoulder buttons (1st tier)"
   style="display:inline"><text
     xml:space="preserve"
     id="text83349-9-6-0-2"
     style="font-style:normal;font-variant:normal;font-weight:normal;font-stretch:normal;font-size:18.6667px;line-height:1.25;font-family:Comfortaa;-inkscape-font-specification:'Comfortaa, Normal';font-variant-ligatures:normal;font-variant-position:normal;font-variant-caps:normal;font-variant-numeric:normal;font-variant-alternates:normal;font-variant-east-asian:normal;text-indent:0;text-align:center;text-decoration-line:none;text-decoration-style:solid;text-decoration-color:#000000;letter-spacing:2px;word-spacing:0px;text-transform:none;writing-mode:lr-tb;direction:ltr;text-orientation:mixed;dominant-baseline:auto;baseline-shift:baseline;white-space:pre;shape-inside:url(#rect83351-4-1-4-4-4);shape-padding:0;shape-margin:0;inline-size:0;display:inline;fill:#ffd8b2;fill-opacity:1;stroke:#000000;stroke-width:3;stroke-linecap:round;stroke-linejoin:round;stroke-miterlimit:4;stroke-dasharray:none;stroke-dashoffset:0;stroke-opacity:1;paint-order:stroke fill markers;stop-color:#000000"
     x="7.8984375"
     y="0"
     transform="translate(18.179655,-95.232378)" /><text
     xml:space="preserve"
     id="text83349-9-6"
     style="font-style:normal;font-variant:normal;font-weight:normal;font-stretch:normal;font-size:18.6667px;line-height:1.25;font-family:Comfortaa;-inkscape-font-specification:'Comfortaa, Normal';font-variant-ligatures:normal;font-variant-position:normal;font-variant-caps:normal;font-variant-numeric:normal;font-variant-alternates:normal;font-variant-east-asian:normal;text-indent:0;text-align:center;text-decoration-line:none;text-decoration-style:solid;text-decoration-color:#000000;letter-spacing:-0.25px;word-spacing:0px;text-transform:none;writing-mode:lr-tb;direction:ltr;text-orientation:mixed;dominant-baseline:auto;baseline-shift:baseline;white-space:pre;shape-inside:url(#rect83351-4-1-4);shape-padding:0;shape-margin:0;inline-size:0;display:inline;fill:#ffd8b2;fill-opacity:1;stroke:#000000;stroke-width:3;stroke-linecap:round;stroke-linejoin:round;stroke-miterlimit:4;stroke-dasharray:none;stroke-dashoffset:0;stroke-opacity:1;paint-order:stroke fill markers;stop-color:#000000"
     x="7.8984375"
     y="0"
     transform="matrix(1.1090572,0,0,1.1090572,-136.76631,-68.059789)"><tspan
       x="157.06172"
       y="122.86965"
       id="tspan1336">L</tspan></text><path
     style="display:inline;fill:#ffd8b2;fill-opacity:1;stroke:#000000;stroke-width:3.32717;stroke-linecap:round;stroke-linejoin:round;stroke-miterlimit:4;stroke-dasharray:none;stroke-opacity:1;paint-order:stroke fill markers"
     d="m 77.372644,70.352134 c 0,2.664355 -2.155586,4.884654 -4.9058,4.884654 H 29.731252 c -5.732839,0 -10.388122,2.499025 -13.053464,3.538848 -1.118328,0.43629 -2.928043,0.10281 -4.026424,-0.703332 -1.211183,-0.888931 -2.071103,-2.288412 -2.071103,-4.003125 V 54.287607 c 0,-1.625 0.826139,-3.129926 2.053683,-3.978117 3.992748,-2.758847 11.278788,-5.342762 17.097308,-5.342762 h 42.735591 c 2.750214,0 4.9058,2.2203 4.9058,4.884654 z M 74.473757,49.851379 c 0,-1.110144 -0.891959,-1.998266 -2.006913,-1.998266 H 29.731252 c -5.555888,0 -11.659048,2.631513 -15.350698,4.762888 -0.517181,0.298595 -0.905745,1.005011 -0.901415,1.671611 v 19.781572 c 0,0.587991 0.266431,1.17409 0.702891,1.524066 0.476973,0.382461 1.156065,0.607802 1.792647,0.387836 2.913047,-1.006578 6.979824,-3.711979 14.276446,-3.699998 l 42.21572,0.06932 c 1.114953,0.0019 2.006913,-0.888122 2.006913,-1.998266 z"
     id="path23-1-9-3"
     sodipodi:nodetypes="csssascssscccssscsassscc" /><text
     xml:space="preserve"
     id="text83349-9-6-0"
     style="font-style:normal;font-variant:normal;font-weight:normal;font-stretch:normal;font-size:18.6667px;line-height:1.25;font-family:Comfortaa;-inkscape-font-specification:'Comfortaa, Normal';font-variant-ligatures:normal;font-variant-position:normal;font-variant-caps:normal;font-variant-numeric:normal;font-variant-alternates:normal;font-variant-east-asian:normal;text-indent:0;text-align:center;text-decoration-line:none;text-decoration-style:solid;text-decoration-color:#000000;letter-spacing:2px;word-spacing:0px;text-transform:none;writing-mode:lr-tb;direction:ltr;text-orientation:mixed;dominant-baseline:auto;baseline-shift:baseline;white-space:pre;shape-inside:url(#rect83351-4-1-4-4);shape-padding:0;shape-margin:0;inline-size:0;display:inline;fill:#ffd8b2;fill-opacity:1;stroke:#000000;stroke-width:3;stroke-linecap:round;stroke-linejoin:round;stroke-miterlimit:4;stroke-dasharray:none;stroke-dashoffset:0;stroke-opacity:1;paint-order:stroke fill markers;stop-color:#000000"
     x="7.8984375"
     y="0"
     transform="matrix(1.1090572,0,0,1.1090572,0.27129153,-68.059789)"><tspan
       x="157.20173"
       y="122.86965"
       id="tspan1338">R</tspan></text><path
     style="display:inline;fill:#ffd8b2;fill-opacity:1;stroke:#000000;stroke-width:3.32717;stroke-linecap:round;stroke-linejoin:round;stroke-miterlimit:4;stroke-dasharray:none;stroke-opacity:1;paint-order:stroke fill markers"
     d="m 147.61785,70.352134 c 0,2.664355 2.15559,4.884654 4.90582,4.884654 h 42.73557 c 5.73284,0 10.38813,2.499025 13.05347,3.538848 1.11833,0.43629 2.92805,0.10281 4.02642,-0.703332 1.21119,-0.888931 2.07111,-2.288412 2.07111,-4.003125 V 54.287607 c 0,-1.625 -0.82613,-3.129926 -2.05368,-3.978117 -3.99275,-2.758847 -11.27879,-5.342762 -17.09732,-5.342762 h -42.73557 c -2.75023,0 -4.90582,2.2203 -4.90582,4.884654 z m 2.89889,-20.500755 c 0,-1.110144 0.89196,-1.998266 2.00693,-1.998266 h 42.73558 c 5.55589,0 11.65906,2.631513 15.3507,4.762888 0.51718,0.298595 0.90574,1.005011 0.90142,1.671611 v 19.781572 c 0,0.587991 -0.26643,1.17409 -0.7029,1.524066 -0.47697,0.382461 -1.15606,0.607802 -1.79264,0.387836 -2.91305,-1.006578 -6.97983,-3.711979 -14.27645,-3.699998 l -42.21571,0.06932 c -1.11497,0.0019 -2.00693,-0.888122 -2.00693,-1.998266 z"
     id="path23-1-9-3-6"
     sodipodi:nodetypes="csssascssscccssscsassscc" /></g><g
   inkscape:groupmode="layer"
   id="layer6"
   inkscape:label="Shoulder triggers (2nd tier)"><path
     style="display:inline;opacity:1;fill:#ffd8b2;fill-opacity:1;stroke:#000000;stroke-width:3.32717;stroke-linecap:round;stroke-linejoin:round;stroke-miterlimit:4;stroke-dasharray:none;stroke-opacity:1;paint-order:stroke fill markers"
     d="m 77.372644,34.812044 c 0,2.664354 -2.155586,4.884653 -4.9058,4.884653 H 29.731252 c -5.732839,0 -10.388122,1.986556 -13.053464,3.026379 -1.118328,0.43629 -2.928043,0.102809 -4.026424,-0.703332 -1.211184,-0.888933 -2.071103,-2.288412 -2.071103,-4.003125 0,-21.245308 9.820995,-34.1352671 61.886583,-34.1352671 2.750214,0 4.9058,2.2202992 4.9058,4.8846538 z M 74.473757,8.7660023 c 0,-1.110144 -0.891959,-1.9982659 -2.006913,-1.9982659 -47.629377,0 -58.987705,11.3259176 -58.987705,31.2488866 0,0.587991 0.266431,1.174089 0.702891,1.524067 0.476973,0.382459 1.156065,0.607802 1.792647,0.387836 2.913047,-1.006578 6.979824,-3.199509 14.276446,-3.187528 l 42.21572,0.06932 c 1.114953,0.0019 2.006913,-0.888122 2.006913,-1.998266 z"
     id="path23-1-9-3-3"
     sodipodi:nodetypes="csssasscccssassscc" /><path
     style="display:inline;opacity:1;fill:#ffd8b2;fill-opacity:1;stroke:#000000;stroke-width:3.32717;stroke-linecap:round;stroke-linejoin:round;stroke-miterlimit:4;stroke-dasharray:none;stroke-opacity:1;paint-order:stroke fill markers"
     d="m 147.61786,34.812044 c 0,2.664354 2.15559,4.884653 4.9058,4.884653 h 42.73559 c 5.73284,0 10.38812,1.986556 13.05346,3.026379 1.11833,0.43629 2.92805,0.102809 4.02644,-0.703332 1.21117,-0.888933 2.07109,-2.288412 2.07109,-4.003125 0,-21.245308 -9.821,-34.1352671 -61.88658,-34.1352671 -2.75021,0 -4.9058,2.2202992 -4.9058,4.8846549 z m 2.89889,-26.0460405 c 0,-1.1101452 0.89196,-1.9982671 2.00691,-1.9982671 47.62938,0 58.98771,11.3259176 58.98771,31.2488866 0,0.587991 -0.26643,1.174089 -0.7029,1.524067 -0.47697,0.382459 -1.15606,0.607802 -1.79265,0.387836 -2.91304,-1.006578 -6.97982,-3.199509 -14.27644,-3.187528 l -42.21572,0.06932 c -1.11495,0.0019 -2.00691,-0.888122 -2.00691,-1.998266 z"
     id="path23-1-9-3-3-88"
     sodipodi:nodetypes="csssasscccssassscc" /><text
     xml:space="preserve"
     id="text83349-9-6-6-3"
     style="font-style:normal;font-variant:normal;font-weight:normal;font-stretch:normal;font-size:18.6667px;line-height:1.25;font-family:Comfortaa;-inkscape-font-specification:'Comfortaa, Normal';font-variant-ligatures:normal;font-variant-position:normal;font-variant-caps:normal;font-variant-numeric:normal;font-variant-alternates:normal;font-variant-east-asian:normal;text-indent:0;text-align:center;text-decoration-line:none;text-decoration-style:solid;text-decoration-color:#000000;letter-spacing:1px;word-spacing:0px;text-transform:none;writing-mode:lr-tb;direction:ltr;text-orientation:mixed;dominant-baseline:auto;baseline-shift:baseline;white-space:pre;shape-inside:url(#rect83351-4-1-4-9-6);shape-padding:0;shape-margin:0;inline-size:0;display:inline;fill:#ffd8b2;fill-opacity:1;stroke:#000000;stroke-width:3;stroke-linecap:round;stroke-linejoin:round;stroke-miterlimit:4;stroke-dasharray:none;stroke-dashoffset:0;stroke-opacity:1;paint-order:stroke fill markers;stop-color:#000000"
     x="7.8984375"
     y="0"
     transform="matrix(1.1090572,0,0,1.1090572,-132.73378,-104.48975)"><tspan
       x="146.28038"
       y="122.86965"
       id="tspan1340">LID</tspan></text><text
     xml:space="preserve"
     id="text83349-9-6-0-2-3"
     style="font-style:normal;font-variant:normal;font-weight:normal;font-stretch:normal;font-size:18.6667px;line-height:1.25;font-family:Comfortaa;-inkscape-font-specification:'Comfortaa, Normal';font-variant-ligatures:normal;font-variant-position:normal;font-variant-caps:normal;font-variant-numeric:normal;font-variant-alternates:normal;font-variant-east-asian:normal;text-indent:0;text-align:center;text-decoration-line:none;text-decoration-style:solid;text-decoration-color:#000000;letter-spacing:1.25px;word-spacing:0px;text-transform:none;writing-mode:lr-tb;direction:ltr;text-orientation:mixed;dominant-baseline:auto;baseline-shift:baseline;white-space:pre;shape-inside:url(#rect83351-4-1-4-4-4-7);shape-padding:0;shape-margin:0;inline-size:0;display:inline;fill:#ffd8b2;fill-opacity:1;stroke:#000000;stroke-width:3;stroke-linecap:round;stroke-linejoin:round;stroke-miterlimit:4;stroke-dasharray:none;stroke-dashoffset:0;stroke-opacity:1;paint-order:stroke fill markers;stop-color:#000000"
     x="7.8984375"
     y="0"
     transform="matrix(1.1090572,0,0,1.1090572,-4.7135361,-104.48975)"><tspan
       x="144.24773"
       y="122.86965"
       id="tspan1342">TAP</tspan></text></g></svg>
