<?xml version="1.0" encoding="UTF-8" standalone="no"?>
<!-- Generator: Adobe Illustrator 24.0.1, SVG Export Plug-In . SVG Version: 6.00 Build 0)  -->

<svg
   version="1.1"
   id="Layer_3"
   x="0px"
   y="0px"
   viewBox="0 0 225 280"
   xml:space="preserve"
   sodipodi:docname="tic80.svg"
   inkscape:version="1.1.1 (3bf5ae0d25, 2021-09-20)"
   inkscape:export-filename="C:\All\Batocera\batocera-controller-overlays\tic80.png"
   inkscape:export-xdpi="96"
   inkscape:export-ydpi="96"
   width="225"
   height="280"
   xmlns:inkscape="http://www.inkscape.org/namespaces/inkscape"
   xmlns:sodipodi="http://sodipodi.sourceforge.net/DTD/sodipodi-0.dtd"
   xmlns="http://www.w3.org/2000/svg"
   xmlns:svg="http://www.w3.org/2000/svg"><defs
   id="defs75"><inkscape:path-effect
     effect="envelope"
     id="path-effect76373"
     is_visible="true"
     lpeversion="1"
     yy="true"
     xx="true"
     bendpath1="M 23.537096,16.621557 H 86.140921"
     bendpath2="M 86.140921,16.621557 V 39.916004"
     bendpath3="M 23.537096,39.916004 H 86.140921"
     bendpath4="M 23.537096,16.621557 V 39.916004" /><inkscape:path-effect
     effect="lattice2"
     gridpoint0="23.537096,16.621557"
     gridpoint1="86.140921,16.621557"
     gridpoint2="23.537096,39.916004"
     gridpoint3="86.140921,39.916004"
     gridpoint4="39.188052,16.621557"
     gridpoint5="70.489964,16.621557"
     gridpoint6="39.188052,39.916004"
     gridpoint7="70.489964,39.916004"
     gridpoint8x9="54.839008,16.621557"
     gridpoint10x11="54.839008,39.916004"
     gridpoint12="23.537096,22.445169"
     gridpoint13="86.140921,22.445169"
     gridpoint14="23.537096,34.092392"
     gridpoint15="86.140921,34.092392"
     gridpoint16="39.188052,22.445169"
     gridpoint17="70.489964,22.445169"
     gridpoint18="39.188052,34.092392"
     gridpoint19="70.489964,34.092392"
     gridpoint20x21="54.839008,22.445169"
     gridpoint22x23="54.839008,34.092392"
     gridpoint24x26="23.537096,28.268781"
     gridpoint25x27="86.140921,28.268781"
     gridpoint28x30="39.188052,28.268781"
     gridpoint29x31="70.489964,28.268781"
     gridpoint32x33x34x35="54.839008,28.268781"
     id="path-effect76371"
     is_visible="true"
     lpeversion="1"
     horizontal_mirror="false"
     vertical_mirror="false"
     perimetral="true"
     live_update="true" /><inkscape:path-effect
     effect="attach_path"
     id="path-effect76369"
     lpeversion="1"
     endcurveend="11.768548,10.555296 , -11.059262,26.691553"
     is_visible="true"
     startpath=""
     startposition="0"
     startcurvestart="0,0 , 20,0"
     startcurveend="23.658422,11.889874 , 28.614092,-5.9449372"
     endpath=""
     endposition="0"
     endcurvestart="0,0 , 20,0" /><inkscape:path-effect
     effect="envelope"
     id="path-effect76348"
     is_visible="true"
     lpeversion="1"
     yy="true"
     xx="true"
     bendpath1="M 23.537096,16.621557 61.997198,10.797945"
     bendpath2="M 86.140921,16.621557 V 39.916004"
     bendpath3="M 23.537096,42.342509 86.140921,39.916004"
     bendpath4="M 23.537096,16.621557 V 50.592625"
     bendpath4-nodetypes="cc"
     bendpath3-nodetypes="cc"
     bendpath1-nodetypes="cc" /><rect
     x="76.739281"
     y="147.34442"
     width="33.36795"
     height="20.843538"
     id="rect127464" /><rect
     x="128.2495"
     y="105.78697"
     width="33.960148"
     height="33.738186"
     id="rect83351" /><rect
     x="127.67705"
     y="105.52645"
     width="34.594753"
     height="33.972546"
     id="rect34999" /><rect
     x="161.5537"
     y="139.78229"
     width="33.151905"
     height="33.894112"
     id="rect24475" /><rect
     x="128.2495"
     y="105.78697"
     width="33.960148"
     height="33.738186"
     id="rect83351-3" /><rect
     x="128.2495"
     y="105.78697"
     width="33.960148"
     height="33.738186"
     id="rect83351-9" /><rect
     x="128.2495"
     y="105.78697"
     width="33.960148"
     height="33.738186"
     id="rect83351-5" /><rect
     x="76.739281"
     y="147.34442"
     width="32.54847"
     height="20.780947"
     id="rect127464-0" /><rect
     x="128.2495"
     y="105.78697"
     width="69.439232"
     height="31.708288"
     id="rect83351-4" /><rect
     x="128.2495"
     y="105.78697"
     width="33.960148"
     height="33.738186"
     id="rect83351-52" /><rect
     x="128.2495"
     y="105.78697"
     width="33.960148"
     height="33.738186"
     id="rect83351-52-6" /><rect
     x="128.2495"
     y="105.78697"
     width="33.960148"
     height="33.738186"
     id="rect83351-37" /><rect
     x="128.2495"
     y="105.78697"
     width="33.960148"
     height="33.738186"
     id="rect83351-3-9" /><rect
     x="128.2495"
     y="105.78697"
     width="33.960148"
     height="33.738186"
     id="rect83351-9-2" /><rect
     x="128.2495"
     y="105.78697"
     width="33.960148"
     height="33.738186"
     id="rect83351-5-7" /><rect
     x="76.739281"
     y="147.34442"
     width="33.36795"
     height="20.843538"
     id="rect127464-7" /><rect
     x="76.739281"
     y="147.34442"
     width="32.54847"
     height="20.780947"
     id="rect127464-0-5" /><rect
     x="128.2495"
     y="105.78697"
     width="69.439232"
     height="31.708288"
     id="rect83351-4-1" /><rect
     x="128.2495"
     y="105.78697"
     width="33.960148"
     height="33.738186"
     id="rect83351-52-67" /><rect
     x="128.2495"
     y="105.78697"
     width="33.960148"
     height="33.738186"
     id="rect83351-52-6-8" /><rect
     x="128.2495"
     y="105.78697"
     width="69.439232"
     height="31.708288"
     id="rect83351-4-1-4" /><rect
     x="128.2495"
     y="105.78697"
     width="69.439232"
     height="31.708288"
     id="rect83351-4-1-4-4" /><rect
     x="128.2495"
     y="105.78697"
     width="69.439232"
     height="31.708288"
     id="rect83351-4-1-4-9" /><rect
     x="128.2495"
     y="105.78697"
     width="69.439232"
     height="31.708288"
     id="rect83351-4-1-4-4-4" /><rect
     x="76.739281"
     y="147.34442"
     width="65.207237"
     height="14.330957"
     id="rect127464-7-2" /><rect
     x="76.739281"
     y="147.34442"
     width="65.207237"
     height="14.330957"
     id="rect127464-7-2-8" /><rect
     x="128.2495"
     y="105.78697"
     width="33.960148"
     height="33.738186"
     id="rect83351-9-2-8" /><rect
     x="128.2495"
     y="105.78697"
     width="33.960148"
     height="33.738186"
     id="rect83351-3-9-0" /><rect
     x="128.2495"
     y="105.78697"
     width="33.960148"
     height="33.738186"
     id="rect83351-5-7-1" /><rect
     x="128.2495"
     y="105.78697"
     width="33.960148"
     height="33.738186"
     id="rect83351-37-6" /><linearGradient
     id="SVGID_1_-3"
     gradientUnits="userSpaceOnUse"
     x1="10"
     y1="0"
     x2="10"
     y2="20"
     gradientTransform="translate(246.17733,117.5436)"><stop
       offset="0"
       style="stop-color:#CC6600"
       id="stop2" /><stop
       offset="0.2774"
       style="stop-color:#CC6F09"
       id="stop4" /><stop
       offset="0.7283"
       style="stop-color:#CC8721"
       id="stop6" /><stop
       offset="1"
       style="stop-color:#CC9933"
       id="stop8" /></linearGradient><linearGradient
     id="SVGID_2_-0"
     gradientUnits="userSpaceOnUse"
     x1="10"
     y1="2.0009999"
     x2="10"
     y2="16.3195"
     gradientTransform="translate(246.17733,117.5436)"><stop
       offset="0"
       style="stop-color:#F7F7F8;stop-opacity:0.5"
       id="stop13" /><stop
       offset="0.8"
       style="stop-color:#D48800;stop-opacity:0"
       id="stop15" /></linearGradient><linearGradient
     id="SVGID_3_-5"
     gradientUnits="userSpaceOnUse"
     x1="4.0585999"
     y1="10"
     x2="15.9414"
     y2="10"><stop
       offset="0"
       style="stop-color:#F5D166"
       id="stop22" /><stop
       offset="0.0516"
       style="stop-color:#F4CE5D"
       id="stop24" /><stop
       offset="0.2041"
       style="stop-color:#F2C749"
       id="stop26" /><stop
       offset="0.3547"
       style="stop-color:#F0C23C"
       id="stop28" /><stop
       offset="0.5"
       style="stop-color:#F0C138"
       id="stop30" /><stop
       offset="0.6397"
       style="stop-color:#F0C23C"
       id="stop32" /><stop
       offset="0.7843"
       style="stop-color:#F2C749"
       id="stop34" /><stop
       offset="0.9309"
       style="stop-color:#F4CE5D"
       id="stop36" /><stop
       offset="0.9805"
       style="stop-color:#F5D166"
       id="stop38" /></linearGradient><linearGradient
     id="SVGID_2_-9"
     gradientUnits="userSpaceOnUse"
     x1="10"
     y1="2.0009999"
     x2="10"
     y2="16.3195"
     gradientTransform="translate(268.51591,91.236739)"><stop
       offset="0"
       style="stop-color:#F7F7F8;stop-opacity:0.5"
       id="stop13-8" /><stop
       offset="0.8"
       style="stop-color:#D48800;stop-opacity:0"
       id="stop15-1" /></linearGradient><linearGradient
     id="SVGID_1_-8"
     gradientUnits="userSpaceOnUse"
     x1="10"
     y1="0"
     x2="10"
     y2="20"
     gradientTransform="translate(268.51591,91.236739)"><stop
       offset="0"
       style="stop-color:#CC6600"
       id="stop2-8" /><stop
       offset="0.2774"
       style="stop-color:#CC6F09"
       id="stop4-2" /><stop
       offset="0.7283"
       style="stop-color:#CC8721"
       id="stop6-2" /><stop
       offset="1"
       style="stop-color:#CC9933"
       id="stop8-2" /></linearGradient><linearGradient
     id="SVGID_1_"
     gradientUnits="userSpaceOnUse"
     x1="10"
     y1="0"
     x2="10"
     y2="20"><stop
       offset="0"
       style="stop-color:#3A4C14"
       id="stop935" /><stop
       offset="0.1812"
       style="stop-color:#415513"
       id="stop937" /><stop
       offset="0.4765"
       style="stop-color:#536D11"
       id="stop939" /><stop
       offset="0.8471"
       style="stop-color:#71950E"
       id="stop941" /><stop
       offset="1"
       style="stop-color:#7FA70D"
       id="stop943" /></linearGradient><linearGradient
     id="SVGID_2_"
     gradientUnits="userSpaceOnUse"
     x1="9.9989996"
     y1="2"
     x2="9.9989996"
     y2="16.318501"><stop
       offset="0"
       style="stop-color:#F7F7F8;stop-opacity:0.5"
       id="stop948" /><stop
       offset="0.8"
       style="stop-color:#141414;stop-opacity:0"
       id="stop950" /></linearGradient><linearGradient
     id="SVGID_3_"
     gradientUnits="userSpaceOnUse"
     x1="10"
     y1="4.5098"
     x2="10"
     y2="15.4902"><stop
       offset="0"
       style="stop-color:#92B134"
       id="stop959" /><stop
       offset="0.0302"
       style="stop-color:#8EAC31"
       id="stop961" /><stop
       offset="0.1899"
       style="stop-color:#7A9823"
       id="stop963" /><stop
       offset="0.3477"
       style="stop-color:#6F8B1B"
       id="stop965" /><stop
       offset="0.5"
       style="stop-color:#6B8718"
       id="stop967" /><stop
       offset="0.6523"
       style="stop-color:#6F8B1B"
       id="stop969" /><stop
       offset="0.8101"
       style="stop-color:#7A9823"
       id="stop971" /><stop
       offset="0.9698"
       style="stop-color:#8EAC31"
       id="stop973" /><stop
       offset="1"
       style="stop-color:#92B134"
       id="stop975" /></linearGradient><linearGradient
     id="SVGID_1_-7"
     gradientUnits="userSpaceOnUse"
     x1="10"
     y1="0"
     x2="10"
     y2="20"><stop
       offset="0"
       style="stop-color:#781F11"
       id="stop1018" /><stop
       offset="0.3042"
       style="stop-color:#812215"
       id="stop1020" /><stop
       offset="0.7987"
       style="stop-color:#992C1E"
       id="stop1022" /><stop
       offset="1"
       style="stop-color:#A53023"
       id="stop1024" /></linearGradient><linearGradient
     id="SVGID_3_-1"
     gradientUnits="userSpaceOnUse"
     x1="10"
     y1="4.5098"
     x2="10"
     y2="15.4902"><stop
       offset="0"
       style="stop-color:#EB6557"
       id="stop1040" /><stop
       offset="0.0614"
       style="stop-color:#E65B4C"
       id="stop1042" /><stop
       offset="0.2105"
       style="stop-color:#DD4838"
       id="stop1044" /><stop
       offset="0.3578"
       style="stop-color:#D73C2B"
       id="stop1046" /><stop
       offset="0.5"
       style="stop-color:#D53827"
       id="stop1048" /><stop
       offset="0.6422"
       style="stop-color:#D73C2B"
       id="stop1050" /><stop
       offset="0.7895"
       style="stop-color:#DD4838"
       id="stop1052" /><stop
       offset="0.9386"
       style="stop-color:#E65B4C"
       id="stop1054" /><stop
       offset="1"
       style="stop-color:#EB6557"
       id="stop1056" /></linearGradient><linearGradient
     id="SVGID_1_-9"
     gradientUnits="userSpaceOnUse"
     x1="10"
     y1="0"
     x2="10"
     y2="20"><stop
       offset="0"
       style="stop-color:#243361"
       id="stop1099" /><stop
       offset="0.1905"
       style="stop-color:#27386A"
       id="stop1101" /><stop
       offset="0.5009"
       style="stop-color:#314582"
       id="stop1103" /><stop
       offset="0.8907"
       style="stop-color:#3F59AA"
       id="stop1105" /><stop
       offset="1"
       style="stop-color:#4460B6"
       id="stop1107" /></linearGradient><linearGradient
     id="SVGID_3_-0"
     gradientUnits="userSpaceOnUse"
     x1="10"
     y1="4.5098"
     x2="10"
     y2="15.4902"><stop
       offset="0"
       style="stop-color:#8196C3"
       id="stop1123" /><stop
       offset="0.0242"
       style="stop-color:#7E92BF"
       id="stop1125" /><stop
       offset="0.186"
       style="stop-color:#6A7FAB"
       id="stop1127" /><stop
       offset="0.3458"
       style="stop-color:#5F739E"
       id="stop1129" /><stop
       offset="0.5"
       style="stop-color:#5B6F9A"
       id="stop1131" /><stop
       offset="0.6542"
       style="stop-color:#5F739E"
       id="stop1133" /><stop
       offset="0.814"
       style="stop-color:#6A7FAB"
       id="stop1135" /><stop
       offset="0.9758"
       style="stop-color:#7E92BF"
       id="stop1137" /><stop
       offset="1"
       style="stop-color:#8196C3"
       id="stop1139" /></linearGradient><linearGradient
     id="SVGID_3_-5-3"
     gradientUnits="userSpaceOnUse"
     x1="4.0585999"
     y1="10"
     x2="15.9414"
     y2="10"><stop
       offset="0"
       style="stop-color:#F5D166"
       id="stop22-8" /><stop
       offset="0.0516"
       style="stop-color:#F4CE5D"
       id="stop24-4" /><stop
       offset="0.2041"
       style="stop-color:#F2C749"
       id="stop26-0" /><stop
       offset="0.3547"
       style="stop-color:#F0C23C"
       id="stop28-0" /><stop
       offset="0.5"
       style="stop-color:#F0C138"
       id="stop30-9" /><stop
       offset="0.6397"
       style="stop-color:#F0C23C"
       id="stop32-3" /><stop
       offset="0.7843"
       style="stop-color:#F2C749"
       id="stop34-7" /><stop
       offset="0.9309"
       style="stop-color:#F4CE5D"
       id="stop36-3" /><stop
       offset="0.9805"
       style="stop-color:#F5D166"
       id="stop38-4" /></linearGradient><linearGradient
     id="SVGID_1_-32"
     gradientUnits="userSpaceOnUse"
     x1="10"
     y1="0"
     x2="10"
     y2="20"><stop
       offset="0"
       style="stop-color:#3A4C14"
       id="stop935-5" /><stop
       offset="0.1812"
       style="stop-color:#415513"
       id="stop937-4" /><stop
       offset="0.4765"
       style="stop-color:#536D11"
       id="stop939-8" /><stop
       offset="0.8471"
       style="stop-color:#71950E"
       id="stop941-5" /><stop
       offset="1"
       style="stop-color:#7FA70D"
       id="stop943-8" /></linearGradient><linearGradient
     id="SVGID_3_-3"
     gradientUnits="userSpaceOnUse"
     x1="10"
     y1="4.5098"
     x2="10"
     y2="15.4902"><stop
       offset="0"
       style="stop-color:#92B134"
       id="stop959-3" /><stop
       offset="0.0302"
       style="stop-color:#8EAC31"
       id="stop961-7" /><stop
       offset="0.1899"
       style="stop-color:#7A9823"
       id="stop963-1" /><stop
       offset="0.3477"
       style="stop-color:#6F8B1B"
       id="stop965-6" /><stop
       offset="0.5"
       style="stop-color:#6B8718"
       id="stop967-7" /><stop
       offset="0.6523"
       style="stop-color:#6F8B1B"
       id="stop969-4" /><stop
       offset="0.8101"
       style="stop-color:#7A9823"
       id="stop971-7" /><stop
       offset="0.9698"
       style="stop-color:#8EAC31"
       id="stop973-4" /><stop
       offset="1"
       style="stop-color:#92B134"
       id="stop975-2" /></linearGradient><linearGradient
     id="SVGID_1_-7-8"
     gradientUnits="userSpaceOnUse"
     x1="10"
     y1="0"
     x2="10"
     y2="20"><stop
       offset="0"
       style="stop-color:#781F11"
       id="stop1018-9" /><stop
       offset="0.3042"
       style="stop-color:#812215"
       id="stop1020-4" /><stop
       offset="0.7987"
       style="stop-color:#992C1E"
       id="stop1022-6" /><stop
       offset="1"
       style="stop-color:#A53023"
       id="stop1024-1" /></linearGradient><linearGradient
     id="SVGID_3_-1-1"
     gradientUnits="userSpaceOnUse"
     x1="10"
     y1="4.5098"
     x2="10"
     y2="15.4902"><stop
       offset="0"
       style="stop-color:#EB6557"
       id="stop1040-7" /><stop
       offset="0.0614"
       style="stop-color:#E65B4C"
       id="stop1042-0" /><stop
       offset="0.2105"
       style="stop-color:#DD4838"
       id="stop1044-2" /><stop
       offset="0.3578"
       style="stop-color:#D73C2B"
       id="stop1046-8" /><stop
       offset="0.5"
       style="stop-color:#D53827"
       id="stop1048-4" /><stop
       offset="0.6422"
       style="stop-color:#D73C2B"
       id="stop1050-2" /><stop
       offset="0.7895"
       style="stop-color:#DD4838"
       id="stop1052-0" /><stop
       offset="0.9386"
       style="stop-color:#E65B4C"
       id="stop1054-2" /><stop
       offset="1"
       style="stop-color:#EB6557"
       id="stop1056-0" /></linearGradient><linearGradient
     id="SVGID_1_-9-4"
     gradientUnits="userSpaceOnUse"
     x1="10"
     y1="0"
     x2="10"
     y2="20"><stop
       offset="0"
       style="stop-color:#243361"
       id="stop1099-1" /><stop
       offset="0.1905"
       style="stop-color:#27386A"
       id="stop1101-4" /><stop
       offset="0.5009"
       style="stop-color:#314582"
       id="stop1103-5" /><stop
       offset="0.8907"
       style="stop-color:#3F59AA"
       id="stop1105-1" /><stop
       offset="1"
       style="stop-color:#4460B6"
       id="stop1107-6" /></linearGradient><linearGradient
     id="SVGID_3_-0-6"
     gradientUnits="userSpaceOnUse"
     x1="10"
     y1="4.5098"
     x2="10"
     y2="15.4902"><stop
       offset="0"
       style="stop-color:#8196C3"
       id="stop1123-7" /><stop
       offset="0.0242"
       style="stop-color:#7E92BF"
       id="stop1125-3" /><stop
       offset="0.186"
       style="stop-color:#6A7FAB"
       id="stop1127-8" /><stop
       offset="0.3458"
       style="stop-color:#5F739E"
       id="stop1129-2" /><stop
       offset="0.5"
       style="stop-color:#5B6F9A"
       id="stop1131-0" /><stop
       offset="0.6542"
       style="stop-color:#5F739E"
       id="stop1133-4" /><stop
       offset="0.814"
       style="stop-color:#6A7FAB"
       id="stop1135-9" /><stop
       offset="0.9758"
       style="stop-color:#7E92BF"
       id="stop1137-6" /><stop
       offset="1"
       style="stop-color:#8196C3"
       id="stop1139-9" /></linearGradient><linearGradient
     id="SVGID_3_-5-3-1"
     gradientUnits="userSpaceOnUse"
     x1="4.0585999"
     y1="10"
     x2="15.9414"
     y2="10"><stop
       offset="0"
       style="stop-color:#F5D166"
       id="stop22-8-9" /><stop
       offset="0.0516"
       style="stop-color:#F4CE5D"
       id="stop24-4-5" /><stop
       offset="0.2041"
       style="stop-color:#F2C749"
       id="stop26-0-2" /><stop
       offset="0.3547"
       style="stop-color:#F0C23C"
       id="stop28-0-3" /><stop
       offset="0.5"
       style="stop-color:#F0C138"
       id="stop30-9-1" /><stop
       offset="0.6397"
       style="stop-color:#F0C23C"
       id="stop32-3-7" /><stop
       offset="0.7843"
       style="stop-color:#F2C749"
       id="stop34-7-8" /><stop
       offset="0.9309"
       style="stop-color:#F4CE5D"
       id="stop36-3-6" /><stop
       offset="0.9805"
       style="stop-color:#F5D166"
       id="stop38-4-2" /></linearGradient><rect
     x="76.739281"
     y="147.34442"
     width="33.36795"
     height="20.843538"
     id="rect127464-7-6" /><rect
     x="76.739281"
     y="147.34442"
     width="32.54847"
     height="20.780947"
     id="rect127464-0-5-2" /><rect
     x="128.2495"
     y="105.78697"
     width="33.960148"
     height="33.738186"
     id="rect83351-37-5" /><rect
     x="128.2495"
     y="105.78697"
     width="33.960148"
     height="33.738186"
     id="rect83351-3-9-2" /><rect
     x="128.2495"
     y="105.78697"
     width="33.960148"
     height="33.738186"
     id="rect83351-9-2-0" /><rect
     x="128.2495"
     y="105.78697"
     width="33.960148"
     height="33.738186"
     id="rect83351-5-7-0" /><rect
     x="128.2495"
     y="105.78697"
     width="69.439232"
     height="31.708288"
     id="rect83351-4-1-6" /><rect
     x="128.2495"
     y="105.78697"
     width="69.439232"
     height="31.708288"
     id="rect83351-4-1-4-6" /><rect
     x="128.2495"
     y="105.78697"
     width="69.439232"
     height="31.708288"
     id="rect83351-4-1-4-9-0" /><rect
     x="128.2495"
     y="105.78697"
     width="33.960148"
     height="33.738186"
     id="rect83351-52-67-4" /><rect
     x="128.2495"
     y="105.78697"
     width="33.960148"
     height="33.738186"
     id="rect83351-52-6-8-7" /><rect
     x="76.739281"
     y="147.34442"
     width="65.207237"
     height="14.330957"
     id="rect127464-7-2-2" /><rect
     x="76.739281"
     y="147.34442"
     width="65.207237"
     height="14.330957"
     id="rect127464-7-2-8-0" /><rect
     x="128.2495"
     y="105.78697"
     width="69.439232"
     height="31.708288"
     id="rect83351-4-1-4-4-0" /><rect
     x="128.2495"
     y="105.78697"
     width="69.439232"
     height="31.708288"
     id="rect83351-4-1-4-4-4-0" /></defs><sodipodi:namedview
   id="namedview73"
   pagecolor="#ffffff"
   bordercolor="#666666"
   borderopacity="1.0"
   inkscape:pageshadow="2"
   inkscape:pageopacity="0"
   inkscape:pagecheckerboard="true"
   showgrid="false"
   inkscape:current-layer="layer2"
   inkscape:snap-bbox="true"
   inkscape:bbox-nodes="false"
   inkscape:bbox-paths="false"
   inkscape:object-nodes="false"
   inkscape:snap-others="true"
   inkscape:snap-bbox-edge-midpoints="false"
   inkscape:snap-bbox-midpoints="false"
   inkscape:object-paths="false"
   inkscape:snap-smooth-nodes="false" />














<g
   inkscape:groupmode="layer"
   id="layer2"
   inkscape:label="Backplate"><rect
     style="display:inline;fill:#000000;fill-opacity:0.25;stroke-width:10.7827;stroke-linecap:round;stroke-linejoin:round"
     id="rect937"
     width="223"
     height="278"
     x="1"
     y="1"
     rx="6.977437"
     ry="6.9689116" /></g><g
   inkscape:groupmode="layer"
   id="layer8"
   inkscape:label="Start/Select"><path
     style="display:inline;opacity:0.5;fill:#ffd8b2;fill-opacity:1;stroke:#020202;stroke-width:3.33947;stroke-linecap:round;stroke-linejoin:round;stroke-miterlimit:4;stroke-dasharray:none;stroke-opacity:1;paint-order:stroke fill markers"
     d="m 101.72106,175.08628 c 0,2.6742 -2.163539,4.9027 -4.923919,4.9027 H 72.574228 c -2.760381,0 -4.923922,-2.2285 -4.923922,-4.9027 v -11.13155 c 0,-2.6742 2.163541,-4.9027 4.923922,-4.9027 h 24.222913 c 2.76038,0 4.923919,2.2285 4.923919,4.9027 z m -2.909587,-11.13155 c 0,-1.11425 -0.895255,-2.00565 -2.014332,-2.00565 H 72.574228 c -1.119074,0 -2.014333,0.8914 -2.014333,2.00565 v 11.13155 c 0,1.11425 0.895259,2.00565 2.014333,2.00565 h 24.222913 c 1.119077,0 2.014332,-0.8914 2.014332,-2.00565 z"
     id="path23-1-9"
     sodipodi:nodetypes="cssccsscccssccsscc" /><path
     style="display:inline;opacity:0.5;fill:#ffd8b2;fill-opacity:1;stroke:#020202;stroke-width:3.33947;stroke-linecap:round;stroke-linejoin:round;stroke-miterlimit:4;stroke-dasharray:none;stroke-opacity:1;paint-order:stroke fill markers"
     d="m 144.75155,169.52051 c 0,2.67419 -2.27874,4.11359 -4.92392,4.9027 l -18.65715,5.56577 c -2.98689,0.89105 -6.03707,-2.2285 -6.03707,-4.9027 v -11.13155 c 0,-2.6742 2.76199,-5.87972 6.03707,-4.9027 l 18.65715,5.56577 c 2.64518,0.78911 4.92392,2.22851 4.92392,4.90271 z m -2.90959,0 c 0,-1.11425 -0.92367,-1.75505 -2.01433,-2.00565 l -18.65715,-5.56578 c -1.86106,-0.55519 -3.12748,0.8914 -3.12748,2.00565 v 11.13155 c 0,1.11425 1.46471,2.50168 3.12748,2.00565 l 18.65715,-5.56578 c 1.09066,-0.2506 2.01433,-0.8914 2.01433,-2.00564 z"
     id="path23-1-9-7"
     sodipodi:nodetypes="cssccsscscsssscs" /></g><g
   inkscape:groupmode="layer"
   id="layer7"
   inkscape:label="Face buttons"
   style="display:inline"><path
     style="display:inline;fill:#ffd8b2;fill-opacity:1;stroke:#000000;stroke-width:3.33947;stroke-linecap:round;stroke-linejoin:round;stroke-miterlimit:4;stroke-dasharray:none;stroke-opacity:1;paint-order:stroke fill markers"
     d="m 203.71931,148.16742 c -9.77324,0 -17.75596,-7.94833 -17.75596,-17.67946 0,-9.73113 7.98272,-17.67946 17.75596,-17.67946 9.77323,0 17.75596,7.94833 17.75596,17.67946 0,9.73113 -7.98273,17.67946 -17.75596,17.67946 z m 0,-32.38757 c -8.13193,0 -14.77177,6.61121 -14.77177,14.70811 0,8.09689 6.63984,14.70811 14.77177,14.70811 8.13193,0 14.77177,-6.61122 14.77177,-14.70811 0,-8.0969 -6.63984,-14.70811 -14.77177,-14.70811 z"
     id="path43-1-81" /><path
     style="display:inline;fill:#ffd8b2;fill-opacity:1;stroke:#000000;stroke-width:3.33947;stroke-linecap:round;stroke-linejoin:round;stroke-miterlimit:4;stroke-dasharray:none;stroke-opacity:1;paint-order:stroke fill markers"
     d="m 172.25904,116.8427 c -9.77324,0 -17.75596,-7.94833 -17.75596,-17.679459 0,-9.731133 7.98272,-17.679459 17.75596,-17.679459 9.77323,0 17.75596,7.948326 17.75596,17.679459 0,9.731129 -7.98273,17.679459 -17.75596,17.679459 z m 0,-32.387582 c -8.13193,0 -14.77177,6.611225 -14.77177,14.708123 0,8.096889 6.63984,14.708119 14.77177,14.708119 8.13193,0 14.77177,-6.61123 14.77177,-14.708119 0,-8.096898 -6.63984,-14.708123 -14.77177,-14.708123 z"
     id="path43-1-7" /><text
     xml:space="preserve"
     id="text83349-66"
     style="font-style:normal;font-variant:normal;font-weight:normal;font-stretch:normal;font-size:21.3333px;line-height:1.25;font-family:Comfortaa;-inkscape-font-specification:'Comfortaa, Normal';font-variant-ligatures:normal;font-variant-position:normal;font-variant-caps:normal;font-variant-numeric:normal;font-variant-alternates:normal;font-variant-east-asian:normal;text-indent:0;text-align:center;text-decoration-line:none;text-decoration-style:solid;text-decoration-color:#000000;letter-spacing:0px;word-spacing:0px;text-transform:none;writing-mode:lr-tb;direction:ltr;text-orientation:mixed;dominant-baseline:auto;baseline-shift:baseline;white-space:pre;shape-inside:url(#rect83351-37-6);shape-padding:0;shape-margin:0;inline-size:0;display:inline;fill:#f4ce5d;fill-opacity:1;stroke:#000000;stroke-width:3;stroke-linecap:round;stroke-linejoin:round;stroke-miterlimit:4;stroke-dasharray:none;stroke-dashoffset:0;stroke-opacity:1;paint-order:stroke fill markers;stop-color:#000000"
     x="7.8984375"
     y="0"
     transform="matrix(1.1131551,0,0,1.1131551,10.609409,-30.542817)"><tspan
       x="138.31752"
       y="125.30995"
       id="tspan1291">Y</tspan></text><text
     xml:space="preserve"
     id="text83349-0-7"
     style="font-style:normal;font-variant:normal;font-weight:normal;font-stretch:normal;font-size:21.3333px;line-height:1.25;font-family:Comfortaa;-inkscape-font-specification:'Comfortaa, Normal';font-variant-ligatures:normal;font-variant-position:normal;font-variant-caps:normal;font-variant-numeric:normal;font-variant-alternates:normal;font-variant-east-asian:normal;text-indent:0;text-align:center;text-decoration-line:none;text-decoration-style:solid;text-decoration-color:#000000;letter-spacing:0px;word-spacing:0px;text-transform:none;writing-mode:lr-tb;direction:ltr;text-orientation:mixed;dominant-baseline:auto;baseline-shift:baseline;white-space:pre;shape-inside:url(#rect83351-3-9-0);shape-padding:0;shape-margin:0;inline-size:0;display:inline;fill:#eb6557;fill-opacity:1;stroke:#000000;stroke-width:3;stroke-linecap:round;stroke-linejoin:round;stroke-miterlimit:4;stroke-dasharray:none;stroke-dashoffset:0;stroke-opacity:1;paint-order:stroke fill markers;stop-color:#000000"
     x="7.8984375"
     y="0"
     transform="matrix(1.1131551,0,0,1.1131551,42.081035,0.23845042)"><tspan
       x="137.81617"
       y="125.30995"
       id="tspan1293">B</tspan></text><path
     style="display:inline;fill:#ffd8b2;fill-opacity:1;stroke:#000000;stroke-width:3.33947;stroke-linecap:round;stroke-linejoin:round;stroke-miterlimit:4;stroke-dasharray:none;stroke-opacity:1;paint-order:stroke fill markers"
     d="m 172.25904,179.49214 c -9.77324,0 -17.75596,-7.94833 -17.75596,-17.67946 0,-9.73113 7.98272,-17.67946 17.75596,-17.67946 9.77323,0 17.75596,7.94833 17.75596,17.67946 0,9.73113 -7.98273,17.67946 -17.75596,17.67946 z m 0,-32.38757 c -8.13193,0 -14.77177,6.61121 -14.77177,14.70811 0,8.0969 6.63984,14.70811 14.77177,14.70811 8.13193,0 14.77177,-6.61121 14.77177,-14.70811 0,-8.0969 -6.63984,-14.70811 -14.77177,-14.70811 z"
     id="path43-1-81-13" /><text
     xml:space="preserve"
     id="text83349-6-4"
     style="font-style:normal;font-variant:normal;font-weight:normal;font-stretch:normal;font-size:21.3333px;line-height:1.25;font-family:Comfortaa;-inkscape-font-specification:'Comfortaa, Normal';font-variant-ligatures:normal;font-variant-position:normal;font-variant-caps:normal;font-variant-numeric:normal;font-variant-alternates:normal;font-variant-east-asian:normal;text-indent:0;text-align:center;text-decoration-line:none;text-decoration-style:solid;text-decoration-color:#000000;letter-spacing:0px;word-spacing:0px;text-transform:none;writing-mode:lr-tb;direction:ltr;text-orientation:mixed;dominant-baseline:auto;baseline-shift:baseline;white-space:pre;shape-inside:url(#rect83351-9-2-8);shape-padding:0;shape-margin:0;inline-size:0;display:inline;fill:#8eac31;fill-opacity:1;stroke:#000000;stroke-width:3;stroke-linecap:round;stroke-linejoin:round;stroke-miterlimit:4;stroke-dasharray:none;stroke-dashoffset:0;stroke-opacity:1;paint-order:stroke fill markers;stop-color:#000000"
     x="7.8984375"
     y="0"
     transform="matrix(1.1131551,0,0,1.1131551,10.596047,30.721734)"><tspan
       x="137.73085"
       y="125.30995"
       id="tspan1295">A</tspan></text><path
     style="display:inline;fill:#ffd8b2;fill-opacity:1;stroke:#000000;stroke-width:3.33947;stroke-linecap:round;stroke-linejoin:round;stroke-miterlimit:4;stroke-dasharray:none;stroke-opacity:1;paint-order:stroke fill markers"
     d="m 140.79876,148.16741 c -9.77324,0 -17.75596,-7.94833 -17.75596,-17.67946 0,-9.73112 7.98272,-17.67945 17.75596,-17.67945 9.77323,0 17.75596,7.94833 17.75596,17.67945 0,9.73113 -7.98273,17.67946 -17.75596,17.67946 z m 0,-32.38758 c -8.13193,0 -14.77177,6.61123 -14.77177,14.70812 0,8.09689 6.63984,14.70812 14.77177,14.70812 8.13193,0 14.77177,-6.61123 14.77177,-14.70812 0,-8.09689 -6.63984,-14.70812 -14.77177,-14.70812 z"
     id="path43-1-7-7" /><text
     xml:space="preserve"
     id="text83349-4-6"
     style="font-style:normal;font-variant:normal;font-weight:normal;font-stretch:normal;font-size:21.3333px;line-height:1.25;font-family:Comfortaa;-inkscape-font-specification:'Comfortaa, Normal';font-variant-ligatures:normal;font-variant-position:normal;font-variant-caps:normal;font-variant-numeric:normal;font-variant-alternates:normal;font-variant-east-asian:normal;text-indent:0;text-align:center;text-decoration-line:none;text-decoration-style:solid;text-decoration-color:#000000;letter-spacing:0px;word-spacing:0px;text-transform:none;writing-mode:lr-tb;direction:ltr;text-orientation:mixed;dominant-baseline:auto;baseline-shift:baseline;white-space:pre;shape-inside:url(#rect83351-5-7-1);shape-padding:0;shape-margin:0;inline-size:0;display:inline;fill:#7e92bf;fill-opacity:1;stroke:#000000;stroke-width:3;stroke-linecap:round;stroke-linejoin:round;stroke-miterlimit:4;stroke-dasharray:none;stroke-dashoffset:0;stroke-opacity:1;paint-order:stroke fill markers;stop-color:#000000"
     x="7.8984375"
     y="0"
     transform="matrix(1.1131551,0,0,1.1131551,-20.93635,0.16602743)"><tspan
       x="137.68818"
       y="125.30995"
       id="tspan1297">X</tspan></text></g><g
   inkscape:groupmode="layer"
   id="layer9"
   inkscape:label="D-pad"
   style="display:inline"><path
     style="display:inline;fill:#ffd8b2;fill-opacity:1;stroke:#000000;stroke-width:3.33947;stroke-linecap:round;stroke-linejoin:round;stroke-miterlimit:4;stroke-dasharray:none;stroke-opacity:1;paint-order:stroke fill markers"
     d="M 52.465526,169.74674 H 32.695235 c -2.760381,0 -4.923921,-2.22849 -4.923921,-4.9027 V 145.67891 H 8.5232559 c -2.7603803,0 -4.9985268,-2.2285 -4.9985268,-4.97698 v -20.42794 c 0,-2.74848 2.2381465,-4.97699 4.9985268,-4.97699 H 27.771314 V 96.131868 c 0,-2.748486 2.238145,-4.902705 4.923921,-4.902705 h 19.770291 c 2.760381,0 4.923923,2.228502 4.923923,4.902705 V 115.297 h 19.248057 c 2.76038,0 4.998527,2.22851 4.998527,4.97699 v 20.42794 c 0,2.74848 -2.238147,4.97698 -4.998527,4.97698 H 57.389449 v 19.16513 c 0,2.67421 -2.163542,4.9027 -4.923923,4.9027 z M 8.5232559,118.26834 c -1.1190731,0 -2.0143315,0.8914 -2.0143315,2.00565 v 20.42794 c 0,1.11425 0.8952584,2.00565 2.0143315,2.00565 H 27.995128 c 0.522235,0 1.342888,0.0742 1.939726,0.66855 0.522235,0.44571 0.746049,1.18854 0.746049,2.00565 v 19.46226 c 0,1.11426 0.895258,2.00565 2.014332,2.00565 h 19.770291 c 1.119074,0 2.014332,-0.89139 2.014332,-2.00565 V 145.3075 c 0,-0.74283 0.298419,-1.41138 0.746049,-1.85709 0.447629,-0.44569 1.119073,-0.66855 1.939726,-0.66855 h 19.471873 c 1.119073,0 2.014332,-0.89139 2.014332,-2.00565 v -20.42794 c 0,-1.11425 -0.895259,-2.00565 -2.014332,-2.00565 H 57.091029 c -0.746049,0 -1.417493,-0.22286 -1.939727,-0.66855 -0.447629,-0.4457 -0.746048,-1.11425 -0.746048,-1.85709 V 96.354718 c 0,-1.114251 -0.895259,-2.005652 -2.014333,-2.005652 H 32.62063 v 0 c -0.522234,0 -1.044469,0.22285 -1.417492,0.594267 -0.373025,0.371417 -0.59684,0.891401 -0.59684,1.411385 v 19.313702 c 0,0.51999 0,1.18854 -0.522233,1.85709 -0.596839,0.66855 -1.417493,0.74283 -2.088937,0.74283 z"
     id="path23-1"
     inkscape:export-filename="C:\All\Batocera\batocera-assets\controller-overlays\generic.png"
     inkscape:export-xdpi="96"
     inkscape:export-ydpi="96"
     sodipodi:nodetypes="ssscsssscsssscsssscsscsssscssssssssssssscssscsssscscc" /><text
     xml:space="preserve"
     id="text83349-9"
     style="font-style:normal;font-variant:normal;font-weight:normal;font-stretch:normal;font-size:17.3333px;line-height:1.25;font-family:Comfortaa;-inkscape-font-specification:'Comfortaa, Normal';font-variant-ligatures:normal;font-variant-position:normal;font-variant-caps:normal;font-variant-numeric:normal;font-variant-alternates:normal;font-variant-east-asian:normal;text-indent:0;text-align:center;text-decoration-line:none;text-decoration-style:solid;text-decoration-color:#000000;letter-spacing:1px;word-spacing:0px;text-transform:none;writing-mode:lr-tb;direction:ltr;text-orientation:mixed;dominant-baseline:auto;baseline-shift:baseline;white-space:pre;shape-inside:url(#rect83351-4-1);shape-padding:0;shape-margin:0;inline-size:0;display:inline;fill:#ffd8b2;fill-opacity:1;stroke:#000000;stroke-width:3;stroke-linecap:round;stroke-linejoin:round;stroke-miterlimit:4;stroke-dasharray:none;stroke-dashoffset:0;stroke-opacity:1;paint-order:stroke fill markers;stop-color:#000000"
     x="7.8984375"
     y="0"
     transform="matrix(1.1131551,0,0,1.1131551,-139.20646,2.6078234)"><tspan
       x="133.20184"
       y="121.64941"
       id="tspan1299">D-PAD</tspan></text></g><g
   inkscape:groupmode="layer"
   id="layer10"
   inkscape:label="Dual-sticks"
   style="display:inline"><path
     style="color:#000000;display:inline;fill:#ffd8b2;stroke:#000000;stroke-width:3.33947;stroke-linecap:round;stroke-linejoin:round;stroke-miterlimit:4;stroke-dasharray:none;stroke-opacity:1;paint-order:stroke fill markers"
     d="m 55.781239,193.16502 c -19.949662,0 -36.153626,16.20397 -36.153626,36.15363 0,19.94967 16.203964,36.15362 36.153626,36.15362 19.949664,0 36.15363,-16.20395 36.15363,-36.15362 0,-19.94966 -16.203966,-36.15363 -36.15363,-36.15363 z m 0,2.90029 c 18.382514,0 33.253336,14.87083 33.253336,33.25334 0,18.38251 -14.870822,33.25333 -33.253336,33.25333 -18.382513,0 -33.253335,-14.87082 -33.253335,-33.25333 0,-18.38251 14.870822,-33.25334 33.253335,-33.25334 z"
     id="circle74" /><path
     style="color:#000000;display:inline;fill:#ffd8b2;stroke:#000000;stroke-width:3.33947;stroke-linecap:round;stroke-linejoin:round;stroke-miterlimit:4;stroke-dasharray:none;stroke-opacity:1;paint-order:stroke fill markers"
     d="m 55.781239,205.00751 c -13.409474,0 -24.311133,10.90167 -24.311133,24.31114 0,13.40947 10.901659,24.31113 24.311133,24.31113 13.409476,0 24.311135,-10.90166 24.311135,-24.31113 0,-13.40947 -10.901659,-24.31114 -24.311135,-24.31114 z m 0,2.90029 c 11.842319,0 21.410844,9.56853 21.410844,21.41085 0,11.84232 -9.568525,21.41084 -21.410844,21.41084 -11.842318,0 -21.410843,-9.56852 -21.410843,-21.41084 0,-11.84232 9.568525,-21.41085 21.410843,-21.41085 z"
     id="circle76" /><path
     style="color:#000000;display:inline;opacity:0.5;fill:#ffd8b2;fill-opacity:1;stroke:#020202;stroke-width:3.33947;stroke-linecap:round;stroke-linejoin:round;stroke-miterlimit:4;stroke-dasharray:none;stroke-opacity:1;paint-order:stroke fill markers"
     d="m 157.93932,205.00751 c -13.40948,0 -24.31113,10.90167 -24.31113,24.31114 0,13.40947 10.90165,24.31113 24.31113,24.31113 13.40948,0 24.31113,-10.90166 24.31113,-24.31113 0,-13.40947 -10.90165,-24.31114 -24.31113,-24.31114 z m 0,2.90029 c 11.84232,0 21.41084,9.56853 21.41084,21.41085 0,11.84232 -9.56852,21.41084 -21.41084,21.41084 -11.84232,0 -21.41302,-9.56852 -21.41302,-21.41084 0,-11.84232 9.5707,-21.41085 21.41302,-21.41085 z"
     id="circle78" /><path
     style="color:#000000;display:inline;opacity:0.5;fill:#ffd8b2;fill-opacity:1;stroke:#020202;stroke-width:3.33947;stroke-linecap:round;stroke-linejoin:round;stroke-miterlimit:4;stroke-dasharray:none;stroke-opacity:1;paint-order:stroke fill markers"
     d="m 157.93932,193.16502 c -19.94966,0 -36.15363,16.20397 -36.15363,36.15363 0,19.94967 16.20397,36.15362 36.15363,36.15362 19.94967,0 36.15145,-16.20395 36.15145,-36.15362 0,-19.94966 -16.20178,-36.15363 -36.15145,-36.15363 z m 0,2.90029 c 18.38251,0 33.25334,14.87083 33.25334,33.25334 0,18.38251 -14.87083,33.25334 -33.25334,33.25333 -18.38251,0 -33.25334,-14.87082 -33.25334,-33.25333 0,-18.38251 14.87083,-33.25334 33.25334,-33.25334 z"
     id="circle80" /><rect
     style="display:inline;opacity:0.5;fill:#000000;fill-opacity:1;stroke:none;stroke-width:1.66458;stroke-linecap:round;stroke-linejoin:round;stroke-miterlimit:4;stroke-dasharray:none;stroke-opacity:1;paint-order:stroke fill markers"
     id="rect38642-2-0-9-8"
     width="60.23172"
     height="10.243361"
     x="25.696226"
     y="267.42969"
     ry="1.1725925"
     rx="1.6355534" /><text
     xml:space="preserve"
     id="text127462-3-7"
     style="font-style:normal;font-variant:normal;font-weight:bold;font-stretch:normal;font-size:8px;line-height:1.25;font-family:Comfortaa;-inkscape-font-specification:'Comfortaa Bold';font-variant-ligatures:normal;font-variant-caps:normal;font-variant-numeric:normal;font-variant-east-asian:normal;text-align:center;text-decoration-color:#000000;letter-spacing:0px;word-spacing:0px;white-space:pre;shape-inside:url(#rect127464-7-2-2);display:inline;fill:#ffd8b2;fill-opacity:1;stroke:none;stroke-width:1.5;stroke-linecap:round;stroke-linejoin:round;stroke-miterlimit:4;stroke-dasharray:none;stroke-opacity:1;paint-order:stroke fill markers;stop-color:#000000"
     x="10.010417"
     y="0"
     transform="matrix(1.1097336,0,0,1.1097336,-65.63905,104.38143)"><tspan
       x="96.331772"
       y="154.66483"
       id="tspan1301">D-PAD</tspan></text></g><g
   inkscape:groupmode="layer"
   id="layer4"
   inkscape:label="Shoulder buttons (1st tier)"><text
     xml:space="preserve"
     id="text83349-9-6"
     style="font-style:normal;font-variant:normal;font-weight:normal;font-stretch:normal;font-size:10.6667px;line-height:1.25;font-family:Comfortaa;-inkscape-font-specification:'Comfortaa, Normal';font-variant-ligatures:normal;font-variant-position:normal;font-variant-caps:normal;font-variant-numeric:normal;font-variant-alternates:normal;font-variant-east-asian:normal;text-indent:0;text-align:center;text-decoration-line:none;text-decoration-style:solid;text-decoration-color:#000000;letter-spacing:0.75px;word-spacing:0px;text-transform:none;writing-mode:lr-tb;direction:ltr;text-orientation:mixed;dominant-baseline:auto;baseline-shift:baseline;white-space:pre;shape-inside:url(#rect83351-4-1-4);shape-padding:0;shape-margin:0;inline-size:0;display:inline;fill:#ffd8b2;fill-opacity:1;stroke:#000000;stroke-width:2.22008;stroke-linecap:round;stroke-linejoin:round;stroke-miterlimit:4;stroke-dasharray:none;stroke-dashoffset:0;stroke-opacity:1;paint-order:stroke fill markers;stop-color:#000000"
     x="7.8984375"
     y="0"
     transform="matrix(1.5040025,0,0,1.5040025,-201.46702,-107.74881)"><tspan
       x="145.48203"
       y="115.54858"
       id="tspan1303">SLOW</tspan></text><path
     style="display:inline;fill:#ffd8b2;fill-opacity:1;stroke:#000000;stroke-width:3.33947;stroke-linecap:round;stroke-linejoin:round;stroke-miterlimit:4;stroke-dasharray:none;stroke-opacity:1;paint-order:stroke fill markers"
     d="m 77.242841,70.094779 c 0,2.6742 -2.16355,4.902703 -4.923927,4.902703 h -42.8935 c -5.754022,0 -10.426506,2.508259 -13.101697,3.551924 -1.12246,0.437902 -2.938862,0.10319 -4.041301,-0.705931 C 11.066758,76.951259 10.20366,75.546608 10.20366,73.825559 V 53.970894 c 0,-1.631005 0.829191,-3.141492 2.061272,-3.992816 4.007501,-2.769042 11.320463,-5.362504 17.160482,-5.362504 h 42.8935 c 2.760377,0 4.923927,2.228503 4.923927,4.902703 z M 74.333243,49.518273 c 0,-1.114246 -0.895255,-2.005649 -2.014329,-2.005649 h -42.8935 c -5.576416,0 -11.702129,2.641236 -15.407419,4.780487 -0.519092,0.299698 -0.909092,1.008724 -0.904746,1.677787 v 19.854665 c 0,0.590164 0.267415,1.178428 0.705489,1.529698 0.478734,0.383874 1.160336,0.610048 1.79927,0.389269 2.923811,-1.010297 7.005614,-3.725694 14.329198,-3.713669 l 42.371708,0.06957 c 1.119073,0.0019 2.014329,-0.891403 2.014329,-2.005649 z"
     id="path23-1-9-3"
     sodipodi:nodetypes="csssascssscccssscsassscc" /><path
     style="display:inline;opacity:0.5;fill:#ffd8b2;fill-opacity:1;stroke:#020202;stroke-width:3.33947;stroke-linecap:round;stroke-linejoin:round;stroke-miterlimit:4;stroke-dasharray:none;stroke-opacity:1;paint-order:stroke fill markers"
     d="m 147.74762,70.094779 c 0,2.6742 2.16355,4.902703 4.92394,4.902703 h 42.89349 c 5.75402,0 10.42651,2.508259 13.1017,3.551924 1.12246,0.437902 2.93886,0.10319 4.0413,-0.705931 1.21566,-0.892216 2.07876,-2.296867 2.07876,-4.017916 V 53.970894 c 0,-1.631005 -0.82919,-3.141492 -2.06128,-3.992816 -4.0075,-2.769042 -11.32046,-5.362504 -17.16048,-5.362504 h -42.89349 c -2.76039,0 -4.92394,2.228503 -4.92394,4.902703 z m 2.9096,-20.576506 c 0,-1.114246 0.89525,-2.005649 2.01434,-2.005649 h 42.8935 c 5.57641,0 11.70213,2.641236 15.40741,4.780487 0.5191,0.299698 0.90909,1.008724 0.90475,1.677787 v 19.854665 c 0,0.590164 -0.26741,1.178428 -0.70549,1.529698 -0.47874,0.383874 -1.16034,0.610048 -1.79926,0.389269 -2.92382,-1.010297 -7.00562,-3.725694 -14.32921,-3.713669 l -42.3717,0.06957 c -1.11909,0.0019 -2.01434,-0.891403 -2.01434,-2.005649 z"
     id="path23-1-9-3-6"
     sodipodi:nodetypes="csssascssscccssscsassscc" /></g><g
   inkscape:groupmode="layer"
   id="layer6"
   inkscape:label="Shoulder triggers (2nd tier)"><text
     xml:space="preserve"
     id="text83349-9-6-6"
     style="font-style:normal;font-variant:normal;font-weight:normal;font-stretch:normal;font-size:18.6667px;line-height:1.25;font-family:Comfortaa;-inkscape-font-specification:'Comfortaa, Normal';font-variant-ligatures:normal;font-variant-position:normal;font-variant-caps:normal;font-variant-numeric:normal;font-variant-alternates:normal;font-variant-east-asian:normal;text-indent:0;text-align:center;text-decoration-line:none;text-decoration-style:solid;text-decoration-color:#000000;letter-spacing:1.25px;word-spacing:0px;text-transform:none;writing-mode:lr-tb;direction:ltr;text-orientation:mixed;dominant-baseline:auto;baseline-shift:baseline;white-space:pre;shape-inside:url(#rect83351-4-1-4-9);shape-padding:0;shape-margin:0;inline-size:0;display:inline;fill:#ffd8b2;fill-opacity:1;stroke:#000000;stroke-width:2.99958;stroke-linecap:round;stroke-linejoin:round;stroke-miterlimit:4;stroke-dasharray:none;stroke-dashoffset:0;stroke-opacity:1;paint-order:stroke fill markers;stop-color:#000000"
     x="7.8984375"
     y="0"
     transform="matrix(1.1131551,0,0,1.1131551,-136.86155,-105.39314)"><tspan
       x="149.78205"
       y="122.86965"
       id="tspan1305">LC</tspan></text><text
     xml:space="preserve"
     id="text83349-9-6-0-2"
     style="font-style:normal;font-variant:normal;font-weight:normal;font-stretch:normal;font-size:18.6667px;line-height:1.25;font-family:Comfortaa;-inkscape-font-specification:'Comfortaa, Normal';font-variant-ligatures:normal;font-variant-position:normal;font-variant-caps:normal;font-variant-numeric:normal;font-variant-alternates:normal;font-variant-east-asian:normal;text-indent:0;text-align:center;text-decoration-line:none;text-decoration-style:solid;text-decoration-color:#000000;letter-spacing:2px;word-spacing:0px;text-transform:none;writing-mode:lr-tb;direction:ltr;text-orientation:mixed;dominant-baseline:auto;baseline-shift:baseline;white-space:pre;shape-inside:url(#rect83351-4-1-4-4-4);shape-padding:0;shape-margin:0;inline-size:0;display:inline;fill:#ffd8b2;fill-opacity:1;stroke:#000000;stroke-width:3;stroke-linecap:round;stroke-linejoin:round;stroke-miterlimit:4;stroke-dasharray:none;stroke-dashoffset:0;stroke-opacity:1;paint-order:stroke fill markers;stop-color:#000000"
     x="7.8984375"
     y="0"
     transform="matrix(1.1131551,0,0,1.1131551,-2.1808558,-105.39314)"><tspan
       x="149.00572"
       y="122.86965"
       id="tspan1307">RC</tspan></text><path
     style="display:inline;fill:#ffd8b2;fill-opacity:1;stroke:#000000;stroke-width:3.33947;stroke-linecap:round;stroke-linejoin:round;stroke-miterlimit:4;stroke-dasharray:none;stroke-opacity:1;paint-order:stroke fill markers"
     d="m 77.242841,34.423367 c 0,2.6742 -2.16355,4.902703 -4.923927,4.902703 h -42.8935 c -5.754022,0 -10.426506,1.993896 -13.101697,3.037561 -1.12246,0.437902 -2.938862,0.10319 -4.041301,-0.705931 -1.215659,-0.892217 -2.078756,-2.296867 -2.078756,-4.017916 0,-21.32381 9.857284,-34.2613968 62.115254,-34.2613968 2.760377,0 4.923927,2.2285032 4.923927,4.9027028 z M 74.333243,8.2810867 c 0,-1.1142463 -0.895255,-2.0056498 -2.014329,-2.0056498 -47.805368,0 -59.205665,11.3677671 -59.205665,31.3643511 0,0.590164 0.267415,1.178427 0.705489,1.529698 0.478734,0.383873 1.160336,0.610048 1.79927,0.389269 2.923811,-1.010297 7.005614,-3.211331 14.329198,-3.199306 l 42.371708,0.06957 c 1.119073,0.0019 2.014329,-0.891403 2.014329,-2.005649 z"
     id="path23-1-9-3-3"
     sodipodi:nodetypes="csssasscccssassscc" /><path
     style="display:inline;fill:#ffd8b2;fill-opacity:1;stroke:#000000;stroke-width:3.33947;stroke-linecap:round;stroke-linejoin:round;stroke-miterlimit:4;stroke-dasharray:none;stroke-opacity:1;paint-order:stroke fill markers"
     d="m 147.74763,34.423367 c 0,2.6742 2.16355,4.902703 4.92392,4.902703 h 42.89351 c 5.75402,0 10.4265,1.993896 13.10169,3.037561 1.12246,0.437902 2.93886,0.10319 4.04131,-0.705931 1.21565,-0.892217 2.07875,-2.296867 2.07875,-4.017916 0,-21.32381 -9.85729,-34.2613968 -62.11526,-34.2613968 -2.76037,0 -4.92392,2.2285032 -4.92392,4.9027039 z m 2.9096,-26.1422792 c 0,-1.1142474 0.89525,-2.0056509 2.01432,-2.0056509 47.80537,0 59.20567,11.3677671 59.20567,31.3643511 0,0.590164 -0.26741,1.178427 -0.70549,1.529698 -0.47874,0.383873 -1.16034,0.610048 -1.79928,0.389269 -2.9238,-1.010297 -7.0056,-3.211331 -14.32919,-3.199306 l -42.37171,0.06957 c -1.11907,0.0019 -2.01432,-0.891403 -2.01432,-2.005649 z"
     id="path23-1-9-3-3-88"
     sodipodi:nodetypes="csssasscccssassscc" /></g></svg>
